<?xml version="1.0" encoding="utf-8" standalone="no"?>
<!DOCTYPE svg PUBLIC "-//W3C//DTD SVG 1.1//EN"
  "http://www.w3.org/Graphics/SVG/1.1/DTD/svg11.dtd">
<svg xmlns:xlink="http://www.w3.org/1999/xlink" width="1440pt" height="360pt" viewBox="0 0 1440 360" xmlns="http://www.w3.org/2000/svg" version="1.1">
 <metadata>
  <rdf:RDF xmlns:dc="http://purl.org/dc/elements/1.1/" xmlns:cc="http://creativecommons.org/ns#" xmlns:rdf="http://www.w3.org/1999/02/22-rdf-syntax-ns#">
   <cc:Work>
    <dc:type rdf:resource="http://purl.org/dc/dcmitype/StillImage"/>
    <dc:date>2023-06-08T01:06:34.759191</dc:date>
    <dc:format>image/svg+xml</dc:format>
    <dc:creator>
     <cc:Agent>
      <dc:title>Matplotlib v3.7.1, https://matplotlib.org/</dc:title>
     </cc:Agent>
    </dc:creator>
   </cc:Work>
  </rdf:RDF>
 </metadata>
 <defs>
  <style type="text/css">*{stroke-linejoin: round; stroke-linecap: butt}</style>
 </defs>
 <g id="figure_1">
  <g id="patch_1">
   <path d="M 0 360 
L 1440 360 
L 1440 0 
L 0 0 
z
" style="fill: #ffffff"/>
  </g>
  <g id="axes_1">
   <g id="patch_2">
    <path d="M 180 320.4 
L 422.608696 320.4 
L 422.608696 43.2 
L 180 43.2 
z
" style="fill: #ffffff"/>
   </g>
   <g id="patch_3">
    <path d="M 191.027668 320.4 
L 197.329193 320.4 
L 197.329193 317.706122 
L 191.027668 317.706122 
z
" clip-path="url(#pa217d06189)" style="fill: #c0c0c0"/>
   </g>
   <g id="patch_4">
    <path d="M 197.329193 320.4 
L 203.630717 320.4 
L 203.630717 320.4 
L 197.329193 320.4 
z
" clip-path="url(#pa217d06189)" style="fill: #c0c0c0"/>
   </g>
   <g id="patch_5">
    <path d="M 203.630717 320.4 
L 209.932242 320.4 
L 209.932242 319.502041 
L 203.630717 319.502041 
z
" clip-path="url(#pa217d06189)" style="fill: #c0c0c0"/>
   </g>
   <g id="patch_6">
    <path d="M 209.932242 320.4 
L 216.233766 320.4 
L 216.233766 317.706122 
L 209.932242 317.706122 
z
" clip-path="url(#pa217d06189)" style="fill: #c0c0c0"/>
   </g>
   <g id="patch_7">
    <path d="M 216.233766 320.4 
L 222.535291 320.4 
L 222.535291 313.216327 
L 216.233766 313.216327 
z
" clip-path="url(#pa217d06189)" style="fill: #c0c0c0"/>
   </g>
   <g id="patch_8">
    <path d="M 222.535291 320.4 
L 228.836815 320.4 
L 228.836815 306.930612 
L 222.535291 306.930612 
z
" clip-path="url(#pa217d06189)" style="fill: #c0c0c0"/>
   </g>
   <g id="patch_9">
    <path d="M 228.836815 320.4 
L 235.13834 320.4 
L 235.13834 303.338776 
L 228.836815 303.338776 
z
" clip-path="url(#pa217d06189)" style="fill: #c0c0c0"/>
   </g>
   <g id="patch_10">
    <path d="M 235.13834 320.4 
L 241.439864 320.4 
L 241.439864 291.665306 
L 235.13834 291.665306 
z
" clip-path="url(#pa217d06189)" style="fill: #c0c0c0"/>
   </g>
   <g id="patch_11">
    <path d="M 241.439864 320.4 
L 247.741389 320.4 
L 247.741389 269.216327 
L 241.439864 269.216327 
z
" clip-path="url(#pa217d06189)" style="fill: #c0c0c0"/>
   </g>
   <g id="patch_12">
    <path d="M 247.741389 320.4 
L 254.042914 320.4 
L 254.042914 268.318367 
L 247.741389 268.318367 
z
" clip-path="url(#pa217d06189)" style="fill: #c0c0c0"/>
   </g>
   <g id="patch_13">
    <path d="M 254.042914 320.4 
L 260.344438 320.4 
L 260.344438 244.971429 
L 254.042914 244.971429 
z
" clip-path="url(#pa217d06189)" style="fill: #c0c0c0"/>
   </g>
   <g id="patch_14">
    <path d="M 260.344438 320.4 
L 266.645963 320.4 
L 266.645963 214.440816 
L 260.344438 214.440816 
z
" clip-path="url(#pa217d06189)" style="fill: #c0c0c0"/>
   </g>
   <g id="patch_15">
    <path d="M 266.645963 320.4 
L 272.947487 320.4 
L 272.947487 204.563265 
L 266.645963 204.563265 
z
" clip-path="url(#pa217d06189)" style="fill: #c0c0c0"/>
   </g>
   <g id="patch_16">
    <path d="M 272.947487 320.4 
L 279.249012 320.4 
L 279.249012 194.685714 
L 272.947487 194.685714 
z
" clip-path="url(#pa217d06189)" style="fill: #c0c0c0"/>
   </g>
   <g id="patch_17">
    <path d="M 279.249012 320.4 
L 285.550536 320.4 
L 285.550536 152.481633 
L 279.249012 152.481633 
z
" clip-path="url(#pa217d06189)" style="fill: #c0c0c0"/>
   </g>
   <g id="patch_18">
    <path d="M 285.550536 320.4 
L 291.852061 320.4 
L 291.852061 121.053061 
L 285.550536 121.053061 
z
" clip-path="url(#pa217d06189)" style="fill: #c0c0c0"/>
   </g>
   <g id="patch_19">
    <path d="M 291.852061 320.4 
L 298.153586 320.4 
L 298.153586 97.706122 
L 291.852061 97.706122 
z
" clip-path="url(#pa217d06189)" style="fill: #c0c0c0"/>
   </g>
   <g id="patch_20">
    <path d="M 298.153586 320.4 
L 304.45511 320.4 
L 304.45511 143.502041 
L 298.153586 143.502041 
z
" clip-path="url(#pa217d06189)" style="fill: #c0c0c0"/>
   </g>
   <g id="patch_21">
    <path d="M 304.45511 320.4 
L 310.756635 320.4 
L 310.756635 113.869388 
L 304.45511 113.869388 
z
" clip-path="url(#pa217d06189)" style="fill: #c0c0c0"/>
   </g>
   <g id="patch_22">
    <path d="M 310.756635 320.4 
L 317.058159 320.4 
L 317.058159 121.053061 
L 310.756635 121.053061 
z
" clip-path="url(#pa217d06189)" style="fill: #c0c0c0"/>
   </g>
   <g id="patch_23">
    <path d="M 317.058159 320.4 
L 323.359684 320.4 
L 323.359684 134.522449 
L 317.058159 134.522449 
z
" clip-path="url(#pa217d06189)" style="fill: #c0c0c0"/>
   </g>
   <g id="patch_24">
    <path d="M 323.359684 320.4 
L 329.661208 320.4 
L 329.661208 162.359184 
L 323.359684 162.359184 
z
" clip-path="url(#pa217d06189)" style="fill: #c0c0c0"/>
   </g>
   <g id="patch_25">
    <path d="M 329.661208 320.4 
L 335.962733 320.4 
L 335.962733 185.706122 
L 329.661208 185.706122 
z
" clip-path="url(#pa217d06189)" style="fill: #c0c0c0"/>
   </g>
   <g id="patch_26">
    <path d="M 335.962733 320.4 
L 342.264257 320.4 
L 342.264257 213.542857 
L 335.962733 213.542857 
z
" clip-path="url(#pa217d06189)" style="fill: #c0c0c0"/>
   </g>
   <g id="patch_27">
    <path d="M 342.264257 320.4 
L 348.565782 320.4 
L 348.565782 210.84898 
L 342.264257 210.84898 
z
" clip-path="url(#pa217d06189)" style="fill: #c0c0c0"/>
   </g>
   <g id="patch_28">
    <path d="M 348.565782 320.4 
L 354.867307 320.4 
L 354.867307 244.971429 
L 348.565782 244.971429 
z
" clip-path="url(#pa217d06189)" style="fill: #c0c0c0"/>
   </g>
   <g id="patch_29">
    <path d="M 354.867307 320.4 
L 361.168831 320.4 
L 361.168831 266.522449 
L 354.867307 266.522449 
z
" clip-path="url(#pa217d06189)" style="fill: #c0c0c0"/>
   </g>
   <g id="patch_30">
    <path d="M 361.168831 320.4 
L 367.470356 320.4 
L 367.470356 279.991837 
L 361.168831 279.991837 
z
" clip-path="url(#pa217d06189)" style="fill: #c0c0c0"/>
   </g>
   <g id="patch_31">
    <path d="M 367.470356 320.4 
L 373.77188 320.4 
L 373.77188 298.84898 
L 367.470356 298.84898 
z
" clip-path="url(#pa217d06189)" style="fill: #c0c0c0"/>
   </g>
   <g id="patch_32">
    <path d="M 373.77188 320.4 
L 380.073405 320.4 
L 380.073405 301.542857 
L 373.77188 301.542857 
z
" clip-path="url(#pa217d06189)" style="fill: #c0c0c0"/>
   </g>
   <g id="patch_33">
    <path d="M 380.073405 320.4 
L 386.374929 320.4 
L 386.374929 312.318367 
L 380.073405 312.318367 
z
" clip-path="url(#pa217d06189)" style="fill: #c0c0c0"/>
   </g>
   <g id="patch_34">
    <path d="M 386.374929 320.4 
L 392.676454 320.4 
L 392.676454 315.910204 
L 386.374929 315.910204 
z
" clip-path="url(#pa217d06189)" style="fill: #c0c0c0"/>
   </g>
   <g id="patch_35">
    <path d="M 392.676454 320.4 
L 398.977979 320.4 
L 398.977979 319.502041 
L 392.676454 319.502041 
z
" clip-path="url(#pa217d06189)" style="fill: #c0c0c0"/>
   </g>
   <g id="patch_36">
    <path d="M 398.977979 320.4 
L 405.279503 320.4 
L 405.279503 319.502041 
L 398.977979 319.502041 
z
" clip-path="url(#pa217d06189)" style="fill: #c0c0c0"/>
   </g>
   <g id="patch_37">
    <path d="M 405.279503 320.4 
L 411.581028 320.4 
L 411.581028 317.706122 
L 405.279503 317.706122 
z
" clip-path="url(#pa217d06189)" style="fill: #c0c0c0"/>
   </g>
   <g id="patch_38">
    <path d="M 261.471631 320.4 
L 264.672064 320.4 
L 264.672064 311.420408 
L 261.471631 311.420408 
z
" clip-path="url(#pa217d06189)" style="fill: #9ab973"/>
   </g>
   <g id="patch_39">
    <path d="M 264.672064 320.4 
L 267.872497 320.4 
L 267.872497 304.236735 
L 264.672064 304.236735 
z
" clip-path="url(#pa217d06189)" style="fill: #9ab973"/>
   </g>
   <g id="patch_40">
    <path d="M 267.872497 320.4 
L 271.07293 320.4 
L 271.07293 275.502041 
L 267.872497 275.502041 
z
" clip-path="url(#pa217d06189)" style="fill: #9ab973"/>
   </g>
   <g id="patch_41">
    <path d="M 271.07293 320.4 
L 274.273362 320.4 
L 274.273362 251.257143 
L 271.07293 251.257143 
z
" clip-path="url(#pa217d06189)" style="fill: #9ab973"/>
   </g>
   <g id="patch_42">
    <path d="M 274.273362 320.4 
L 277.473795 320.4 
L 277.473795 120.155102 
L 274.273362 120.155102 
z
" clip-path="url(#pa217d06189)" style="fill: #9ab973"/>
   </g>
   <g id="patch_43">
    <path d="M 277.473795 320.4 
L 280.674228 320.4 
L 280.674228 123.746939 
L 277.473795 123.746939 
z
" clip-path="url(#pa217d06189)" style="fill: #9ab973"/>
   </g>
   <g id="patch_44">
    <path d="M 280.674228 320.4 
L 283.874661 320.4 
L 283.874661 129.134694 
L 280.674228 129.134694 
z
" clip-path="url(#pa217d06189)" style="fill: #9ab973"/>
   </g>
   <g id="patch_45">
    <path d="M 283.874661 320.4 
L 287.075094 320.4 
L 287.075094 112.971429 
L 283.874661 112.971429 
z
" clip-path="url(#pa217d06189)" style="fill: #9ab973"/>
   </g>
   <g id="patch_46">
    <path d="M 287.075094 320.4 
L 290.275526 320.4 
L 290.275526 56.4 
L 287.075094 56.4 
z
" clip-path="url(#pa217d06189)" style="fill: #9ab973"/>
   </g>
   <g id="patch_47">
    <path d="M 290.275526 320.4 
L 293.475959 320.4 
L 293.475959 121.95102 
L 290.275526 121.95102 
z
" clip-path="url(#pa217d06189)" style="fill: #9ab973"/>
   </g>
   <g id="patch_48">
    <path d="M 293.475959 320.4 
L 296.676392 320.4 
L 296.676392 193.787755 
L 293.475959 193.787755 
z
" clip-path="url(#pa217d06189)" style="fill: #9ab973"/>
   </g>
   <g id="patch_49">
    <path d="M 296.676392 320.4 
L 299.876825 320.4 
L 299.876825 165.053061 
L 296.676392 165.053061 
z
" clip-path="url(#pa217d06189)" style="fill: #9ab973"/>
   </g>
   <g id="patch_50">
    <path d="M 299.876825 320.4 
L 303.077258 320.4 
L 303.077258 161.461224 
L 299.876825 161.461224 
z
" clip-path="url(#pa217d06189)" style="fill: #9ab973"/>
   </g>
   <g id="patch_51">
    <path d="M 303.077258 320.4 
L 306.27769 320.4 
L 306.27769 170.440816 
L 303.077258 170.440816 
z
" clip-path="url(#pa217d06189)" style="fill: #9ab973"/>
   </g>
   <g id="patch_52">
    <path d="M 306.27769 320.4 
L 309.478123 320.4 
L 309.478123 73.461224 
L 306.27769 73.461224 
z
" clip-path="url(#pa217d06189)" style="fill: #9ab973"/>
   </g>
   <g id="patch_53">
    <path d="M 309.478123 320.4 
L 312.678556 320.4 
L 312.678556 130.930612 
L 309.478123 130.930612 
z
" clip-path="url(#pa217d06189)" style="fill: #9ab973"/>
   </g>
   <g id="patch_54">
    <path d="M 312.678556 320.4 
L 315.878989 320.4 
L 315.878989 127.338776 
L 312.678556 127.338776 
z
" clip-path="url(#pa217d06189)" style="fill: #9ab973"/>
   </g>
   <g id="patch_55">
    <path d="M 315.878989 320.4 
L 319.079422 320.4 
L 319.079422 183.910204 
L 315.878989 183.910204 
z
" clip-path="url(#pa217d06189)" style="fill: #9ab973"/>
   </g>
   <g id="patch_56">
    <path d="M 319.079422 320.4 
L 322.279854 320.4 
L 322.279854 150.685714 
L 319.079422 150.685714 
z
" clip-path="url(#pa217d06189)" style="fill: #9ab973"/>
   </g>
   <g id="patch_57">
    <path d="M 322.279854 320.4 
L 325.480287 320.4 
L 325.480287 195.583673 
L 322.279854 195.583673 
z
" clip-path="url(#pa217d06189)" style="fill: #9ab973"/>
   </g>
   <g id="patch_58">
    <path d="M 325.480287 320.4 
L 328.68072 320.4 
L 328.68072 206.359184 
L 325.480287 206.359184 
z
" clip-path="url(#pa217d06189)" style="fill: #9ab973"/>
   </g>
   <g id="patch_59">
    <path d="M 328.68072 320.4 
L 331.881153 320.4 
L 331.881153 245.869388 
L 328.68072 245.869388 
z
" clip-path="url(#pa217d06189)" style="fill: #9ab973"/>
   </g>
   <g id="patch_60">
    <path d="M 331.881153 320.4 
L 335.081586 320.4 
L 335.081586 275.502041 
L 331.881153 275.502041 
z
" clip-path="url(#pa217d06189)" style="fill: #9ab973"/>
   </g>
   <g id="patch_61">
    <path d="M 335.081586 320.4 
L 338.282018 320.4 
L 338.282018 271.910204 
L 335.081586 271.910204 
z
" clip-path="url(#pa217d06189)" style="fill: #9ab973"/>
   </g>
   <g id="patch_62">
    <path d="M 338.282018 320.4 
L 341.482451 320.4 
L 341.482451 262.930612 
L 338.282018 262.930612 
z
" clip-path="url(#pa217d06189)" style="fill: #9ab973"/>
   </g>
   <g id="patch_63">
    <path d="M 341.482451 320.4 
L 344.682884 320.4 
L 344.682884 253.053061 
L 341.482451 253.053061 
z
" clip-path="url(#pa217d06189)" style="fill: #9ab973"/>
   </g>
   <g id="patch_64">
    <path d="M 344.682884 320.4 
L 347.883317 320.4 
L 347.883317 269.216327 
L 344.682884 269.216327 
z
" clip-path="url(#pa217d06189)" style="fill: #9ab973"/>
   </g>
   <g id="patch_65">
    <path d="M 347.883317 320.4 
L 351.08375 320.4 
L 351.08375 283.583673 
L 347.883317 283.583673 
z
" clip-path="url(#pa217d06189)" style="fill: #9ab973"/>
   </g>
   <g id="patch_66">
    <path d="M 351.08375 320.4 
L 354.284182 320.4 
L 354.284182 280.889796 
L 351.08375 280.889796 
z
" clip-path="url(#pa217d06189)" style="fill: #9ab973"/>
   </g>
   <g id="patch_67">
    <path d="M 354.284182 320.4 
L 357.484615 320.4 
L 357.484615 315.012245 
L 354.284182 315.012245 
z
" clip-path="url(#pa217d06189)" style="fill: #9ab973"/>
   </g>
   <g id="patch_68">
    <path d="M 357.484615 320.4 
L 360.685048 320.4 
L 360.685048 318.604082 
L 357.484615 318.604082 
z
" clip-path="url(#pa217d06189)" style="fill: #9ab973"/>
   </g>
   <g id="patch_69">
    <path d="M 360.685048 320.4 
L 363.885481 320.4 
L 363.885481 319.502041 
L 360.685048 319.502041 
z
" clip-path="url(#pa217d06189)" style="fill: #9ab973"/>
   </g>
   <g id="patch_70">
    <path d="M 363.885481 320.4 
L 367.085914 320.4 
L 367.085914 320.4 
L 363.885481 320.4 
z
" clip-path="url(#pa217d06189)" style="fill: #9ab973"/>
   </g>
   <g id="patch_71">
    <path d="M 367.085914 320.4 
L 370.286346 320.4 
L 370.286346 320.4 
L 367.085914 320.4 
z
" clip-path="url(#pa217d06189)" style="fill: #9ab973"/>
   </g>
   <g id="patch_72">
    <path d="M 370.286346 320.4 
L 373.486779 320.4 
L 373.486779 319.502041 
L 370.286346 319.502041 
z
" clip-path="url(#pa217d06189)" style="fill: #9ab973"/>
   </g>
   <g id="matplotlib.axis_1">
    <g id="xtick_1">
     <g id="line2d_1">
      <defs>
       <path id="me5529e3779" d="M 0 0 
L 0 3.5 
" style="stroke: #000000; stroke-width: 0.8"/>
      </defs>
      <g>
       <use xlink:href="#me5529e3779" x="182.556911" y="320.4" style="stroke: #000000; stroke-width: 0.8"/>
      </g>
     </g>
     <g id="text_1">
      <!-- −150 -->
      <g transform="translate(168.823318 334.998438) scale(0.1 -0.1)">
       <defs>
        <path id="DejaVuSans-2212" d="M 678 2272 
L 4684 2272 
L 4684 1741 
L 678 1741 
L 678 2272 
z
" transform="scale(0.015625)"/>
        <path id="DejaVuSans-31" d="M 794 531 
L 1825 531 
L 1825 4091 
L 703 3866 
L 703 4441 
L 1819 4666 
L 2450 4666 
L 2450 531 
L 3481 531 
L 3481 0 
L 794 0 
L 794 531 
z
" transform="scale(0.015625)"/>
        <path id="DejaVuSans-35" d="M 691 4666 
L 3169 4666 
L 3169 4134 
L 1269 4134 
L 1269 2991 
Q 1406 3038 1543 3061 
Q 1681 3084 1819 3084 
Q 2600 3084 3056 2656 
Q 3513 2228 3513 1497 
Q 3513 744 3044 326 
Q 2575 -91 1722 -91 
Q 1428 -91 1123 -41 
Q 819 9 494 109 
L 494 744 
Q 775 591 1075 516 
Q 1375 441 1709 441 
Q 2250 441 2565 725 
Q 2881 1009 2881 1497 
Q 2881 1984 2565 2268 
Q 2250 2553 1709 2553 
Q 1456 2553 1204 2497 
Q 953 2441 691 2322 
L 691 4666 
z
" transform="scale(0.015625)"/>
        <path id="DejaVuSans-30" d="M 2034 4250 
Q 1547 4250 1301 3770 
Q 1056 3291 1056 2328 
Q 1056 1369 1301 889 
Q 1547 409 2034 409 
Q 2525 409 2770 889 
Q 3016 1369 3016 2328 
Q 3016 3291 2770 3770 
Q 2525 4250 2034 4250 
z
M 2034 4750 
Q 2819 4750 3233 4129 
Q 3647 3509 3647 2328 
Q 3647 1150 3233 529 
Q 2819 -91 2034 -91 
Q 1250 -91 836 529 
Q 422 1150 422 2328 
Q 422 3509 836 4129 
Q 1250 4750 2034 4750 
z
" transform="scale(0.015625)"/>
       </defs>
       <use xlink:href="#DejaVuSans-2212"/>
       <use xlink:href="#DejaVuSans-31" x="83.789062"/>
       <use xlink:href="#DejaVuSans-35" x="147.412109"/>
       <use xlink:href="#DejaVuSans-30" x="211.035156"/>
      </g>
     </g>
    </g>
    <g id="xtick_2">
     <g id="line2d_2">
      <g>
       <use xlink:href="#me5529e3779" x="222.826953" y="320.4" style="stroke: #000000; stroke-width: 0.8"/>
      </g>
     </g>
     <g id="text_2">
      <!-- −100 -->
      <g transform="translate(209.093359 334.998438) scale(0.1 -0.1)">
       <use xlink:href="#DejaVuSans-2212"/>
       <use xlink:href="#DejaVuSans-31" x="83.789062"/>
       <use xlink:href="#DejaVuSans-30" x="147.412109"/>
       <use xlink:href="#DejaVuSans-30" x="211.035156"/>
      </g>
     </g>
    </g>
    <g id="xtick_3">
     <g id="line2d_3">
      <g>
       <use xlink:href="#me5529e3779" x="263.096995" y="320.4" style="stroke: #000000; stroke-width: 0.8"/>
      </g>
     </g>
     <g id="text_3">
      <!-- −50 -->
      <g transform="translate(252.544651 334.998438) scale(0.1 -0.1)">
       <use xlink:href="#DejaVuSans-2212"/>
       <use xlink:href="#DejaVuSans-35" x="83.789062"/>
       <use xlink:href="#DejaVuSans-30" x="147.412109"/>
      </g>
     </g>
    </g>
    <g id="xtick_4">
     <g id="line2d_4">
      <g>
       <use xlink:href="#me5529e3779" x="303.367037" y="320.4" style="stroke: #000000; stroke-width: 0.8"/>
      </g>
     </g>
     <g id="text_4">
      <!-- 0 -->
      <g transform="translate(300.185787 334.998438) scale(0.1 -0.1)">
       <use xlink:href="#DejaVuSans-30"/>
      </g>
     </g>
    </g>
    <g id="xtick_5">
     <g id="line2d_5">
      <g>
       <use xlink:href="#me5529e3779" x="343.637078" y="320.4" style="stroke: #000000; stroke-width: 0.8"/>
      </g>
     </g>
     <g id="text_5">
      <!-- 50 -->
      <g transform="translate(337.274578 334.998438) scale(0.1 -0.1)">
       <use xlink:href="#DejaVuSans-35"/>
       <use xlink:href="#DejaVuSans-30" x="63.623047"/>
      </g>
     </g>
    </g>
    <g id="xtick_6">
     <g id="line2d_6">
      <g>
       <use xlink:href="#me5529e3779" x="383.90712" y="320.4" style="stroke: #000000; stroke-width: 0.8"/>
      </g>
     </g>
     <g id="text_6">
      <!-- 100 -->
      <g transform="translate(374.36337 334.998438) scale(0.1 -0.1)">
       <use xlink:href="#DejaVuSans-31"/>
       <use xlink:href="#DejaVuSans-30" x="63.623047"/>
       <use xlink:href="#DejaVuSans-30" x="127.246094"/>
      </g>
     </g>
    </g>
    <g id="text_7">
     <!-- CO2 [Tons] -->
     <g transform="translate(257.886848 353.235625) scale(0.16 -0.16)">
      <defs>
       <path id="DejaVuSans-43" d="M 4122 4306 
L 4122 3641 
Q 3803 3938 3442 4084 
Q 3081 4231 2675 4231 
Q 1875 4231 1450 3742 
Q 1025 3253 1025 2328 
Q 1025 1406 1450 917 
Q 1875 428 2675 428 
Q 3081 428 3442 575 
Q 3803 722 4122 1019 
L 4122 359 
Q 3791 134 3420 21 
Q 3050 -91 2638 -91 
Q 1578 -91 968 557 
Q 359 1206 359 2328 
Q 359 3453 968 4101 
Q 1578 4750 2638 4750 
Q 3056 4750 3426 4639 
Q 3797 4528 4122 4306 
z
" transform="scale(0.015625)"/>
       <path id="DejaVuSans-4f" d="M 2522 4238 
Q 1834 4238 1429 3725 
Q 1025 3213 1025 2328 
Q 1025 1447 1429 934 
Q 1834 422 2522 422 
Q 3209 422 3611 934 
Q 4013 1447 4013 2328 
Q 4013 3213 3611 3725 
Q 3209 4238 2522 4238 
z
M 2522 4750 
Q 3503 4750 4090 4092 
Q 4678 3434 4678 2328 
Q 4678 1225 4090 567 
Q 3503 -91 2522 -91 
Q 1538 -91 948 565 
Q 359 1222 359 2328 
Q 359 3434 948 4092 
Q 1538 4750 2522 4750 
z
" transform="scale(0.015625)"/>
       <path id="DejaVuSans-32" d="M 1228 531 
L 3431 531 
L 3431 0 
L 469 0 
L 469 531 
Q 828 903 1448 1529 
Q 2069 2156 2228 2338 
Q 2531 2678 2651 2914 
Q 2772 3150 2772 3378 
Q 2772 3750 2511 3984 
Q 2250 4219 1831 4219 
Q 1534 4219 1204 4116 
Q 875 4013 500 3803 
L 500 4441 
Q 881 4594 1212 4672 
Q 1544 4750 1819 4750 
Q 2544 4750 2975 4387 
Q 3406 4025 3406 3419 
Q 3406 3131 3298 2873 
Q 3191 2616 2906 2266 
Q 2828 2175 2409 1742 
Q 1991 1309 1228 531 
z
" transform="scale(0.015625)"/>
       <path id="DejaVuSans-20" transform="scale(0.015625)"/>
       <path id="DejaVuSans-5b" d="M 550 4863 
L 1875 4863 
L 1875 4416 
L 1125 4416 
L 1125 -397 
L 1875 -397 
L 1875 -844 
L 550 -844 
L 550 4863 
z
" transform="scale(0.015625)"/>
       <path id="DejaVuSans-54" d="M -19 4666 
L 3928 4666 
L 3928 4134 
L 2272 4134 
L 2272 0 
L 1638 0 
L 1638 4134 
L -19 4134 
L -19 4666 
z
" transform="scale(0.015625)"/>
       <path id="DejaVuSans-6f" d="M 1959 3097 
Q 1497 3097 1228 2736 
Q 959 2375 959 1747 
Q 959 1119 1226 758 
Q 1494 397 1959 397 
Q 2419 397 2687 759 
Q 2956 1122 2956 1747 
Q 2956 2369 2687 2733 
Q 2419 3097 1959 3097 
z
M 1959 3584 
Q 2709 3584 3137 3096 
Q 3566 2609 3566 1747 
Q 3566 888 3137 398 
Q 2709 -91 1959 -91 
Q 1206 -91 779 398 
Q 353 888 353 1747 
Q 353 2609 779 3096 
Q 1206 3584 1959 3584 
z
" transform="scale(0.015625)"/>
       <path id="DejaVuSans-6e" d="M 3513 2113 
L 3513 0 
L 2938 0 
L 2938 2094 
Q 2938 2591 2744 2837 
Q 2550 3084 2163 3084 
Q 1697 3084 1428 2787 
Q 1159 2491 1159 1978 
L 1159 0 
L 581 0 
L 581 3500 
L 1159 3500 
L 1159 2956 
Q 1366 3272 1645 3428 
Q 1925 3584 2291 3584 
Q 2894 3584 3203 3211 
Q 3513 2838 3513 2113 
z
" transform="scale(0.015625)"/>
       <path id="DejaVuSans-73" d="M 2834 3397 
L 2834 2853 
Q 2591 2978 2328 3040 
Q 2066 3103 1784 3103 
Q 1356 3103 1142 2972 
Q 928 2841 928 2578 
Q 928 2378 1081 2264 
Q 1234 2150 1697 2047 
L 1894 2003 
Q 2506 1872 2764 1633 
Q 3022 1394 3022 966 
Q 3022 478 2636 193 
Q 2250 -91 1575 -91 
Q 1294 -91 989 -36 
Q 684 19 347 128 
L 347 722 
Q 666 556 975 473 
Q 1284 391 1588 391 
Q 1994 391 2212 530 
Q 2431 669 2431 922 
Q 2431 1156 2273 1281 
Q 2116 1406 1581 1522 
L 1381 1569 
Q 847 1681 609 1914 
Q 372 2147 372 2553 
Q 372 3047 722 3315 
Q 1072 3584 1716 3584 
Q 2034 3584 2315 3537 
Q 2597 3491 2834 3397 
z
" transform="scale(0.015625)"/>
       <path id="DejaVuSans-5d" d="M 1947 4863 
L 1947 -844 
L 622 -844 
L 622 -397 
L 1369 -397 
L 1369 4416 
L 622 4416 
L 622 4863 
L 1947 4863 
z
" transform="scale(0.015625)"/>
      </defs>
      <use xlink:href="#DejaVuSans-43"/>
      <use xlink:href="#DejaVuSans-4f" x="69.824219"/>
      <use xlink:href="#DejaVuSans-32" x="148.535156"/>
      <use xlink:href="#DejaVuSans-20" x="212.158203"/>
      <use xlink:href="#DejaVuSans-5b" x="243.945312"/>
      <use xlink:href="#DejaVuSans-54" x="282.958984"/>
      <use xlink:href="#DejaVuSans-6f" x="327.042969"/>
      <use xlink:href="#DejaVuSans-6e" x="388.224609"/>
      <use xlink:href="#DejaVuSans-73" x="451.603516"/>
      <use xlink:href="#DejaVuSans-5d" x="503.703125"/>
     </g>
    </g>
   </g>
   <g id="matplotlib.axis_2">
    <g id="ytick_1">
     <g id="line2d_7">
      <defs>
       <path id="m3054fe0180" d="M 0 0 
L -3.5 0 
" style="stroke: #000000; stroke-width: 0.8"/>
      </defs>
      <g>
       <use xlink:href="#m3054fe0180" x="180" y="320.4" style="stroke: #000000; stroke-width: 0.8"/>
      </g>
     </g>
     <g id="text_8">
      <!-- 0 -->
      <g transform="translate(166.6375 324.199219) scale(0.1 -0.1)">
       <use xlink:href="#DejaVuSans-30"/>
      </g>
     </g>
    </g>
    <g id="ytick_2">
     <g id="line2d_8">
      <g>
       <use xlink:href="#m3054fe0180" x="180" y="275.502041" style="stroke: #000000; stroke-width: 0.8"/>
      </g>
     </g>
     <g id="text_9">
      <!-- 50 -->
      <g transform="translate(160.275 279.30126) scale(0.1 -0.1)">
       <use xlink:href="#DejaVuSans-35"/>
       <use xlink:href="#DejaVuSans-30" x="63.623047"/>
      </g>
     </g>
    </g>
    <g id="ytick_3">
     <g id="line2d_9">
      <g>
       <use xlink:href="#m3054fe0180" x="180" y="230.604082" style="stroke: #000000; stroke-width: 0.8"/>
      </g>
     </g>
     <g id="text_10">
      <!-- 100 -->
      <g transform="translate(153.9125 234.4033) scale(0.1 -0.1)">
       <use xlink:href="#DejaVuSans-31"/>
       <use xlink:href="#DejaVuSans-30" x="63.623047"/>
       <use xlink:href="#DejaVuSans-30" x="127.246094"/>
      </g>
     </g>
    </g>
    <g id="ytick_4">
     <g id="line2d_10">
      <g>
       <use xlink:href="#m3054fe0180" x="180" y="185.706122" style="stroke: #000000; stroke-width: 0.8"/>
      </g>
     </g>
     <g id="text_11">
      <!-- 150 -->
      <g transform="translate(153.9125 189.505341) scale(0.1 -0.1)">
       <use xlink:href="#DejaVuSans-31"/>
       <use xlink:href="#DejaVuSans-35" x="63.623047"/>
       <use xlink:href="#DejaVuSans-30" x="127.246094"/>
      </g>
     </g>
    </g>
    <g id="ytick_5">
     <g id="line2d_11">
      <g>
       <use xlink:href="#m3054fe0180" x="180" y="140.808163" style="stroke: #000000; stroke-width: 0.8"/>
      </g>
     </g>
     <g id="text_12">
      <!-- 200 -->
      <g transform="translate(153.9125 144.607382) scale(0.1 -0.1)">
       <use xlink:href="#DejaVuSans-32"/>
       <use xlink:href="#DejaVuSans-30" x="63.623047"/>
       <use xlink:href="#DejaVuSans-30" x="127.246094"/>
      </g>
     </g>
    </g>
    <g id="ytick_6">
     <g id="line2d_12">
      <g>
       <use xlink:href="#m3054fe0180" x="180" y="95.910204" style="stroke: #000000; stroke-width: 0.8"/>
      </g>
     </g>
     <g id="text_13">
      <!-- 250 -->
      <g transform="translate(153.9125 99.709423) scale(0.1 -0.1)">
       <use xlink:href="#DejaVuSans-32"/>
       <use xlink:href="#DejaVuSans-35" x="63.623047"/>
       <use xlink:href="#DejaVuSans-30" x="127.246094"/>
      </g>
     </g>
    </g>
    <g id="ytick_7">
     <g id="line2d_13">
      <g>
       <use xlink:href="#m3054fe0180" x="180" y="51.012245" style="stroke: #000000; stroke-width: 0.8"/>
      </g>
     </g>
     <g id="text_14">
      <!-- 300 -->
      <g transform="translate(153.9125 54.811464) scale(0.1 -0.1)">
       <defs>
        <path id="DejaVuSans-33" d="M 2597 2516 
Q 3050 2419 3304 2112 
Q 3559 1806 3559 1356 
Q 3559 666 3084 287 
Q 2609 -91 1734 -91 
Q 1441 -91 1130 -33 
Q 819 25 488 141 
L 488 750 
Q 750 597 1062 519 
Q 1375 441 1716 441 
Q 2309 441 2620 675 
Q 2931 909 2931 1356 
Q 2931 1769 2642 2001 
Q 2353 2234 1838 2234 
L 1294 2234 
L 1294 2753 
L 1863 2753 
Q 2328 2753 2575 2939 
Q 2822 3125 2822 3475 
Q 2822 3834 2567 4026 
Q 2313 4219 1838 4219 
Q 1578 4219 1281 4162 
Q 984 4106 628 3988 
L 628 4550 
Q 988 4650 1302 4700 
Q 1616 4750 1894 4750 
Q 2613 4750 3031 4423 
Q 3450 4097 3450 3541 
Q 3450 3153 3228 2886 
Q 3006 2619 2597 2516 
z
" transform="scale(0.015625)"/>
       </defs>
       <use xlink:href="#DejaVuSans-33"/>
       <use xlink:href="#DejaVuSans-30" x="63.623047"/>
       <use xlink:href="#DejaVuSans-30" x="127.246094"/>
      </g>
     </g>
    </g>
   </g>
   <g id="patch_73">
    <path d="M 180 320.4 
L 180 43.2 
" style="fill: none; stroke: #000000; stroke-width: 0.8; stroke-linejoin: miter; stroke-linecap: square"/>
   </g>
   <g id="patch_74">
    <path d="M 422.608696 320.4 
L 422.608696 43.2 
" style="fill: none; stroke: #000000; stroke-width: 0.8; stroke-linejoin: miter; stroke-linecap: square"/>
   </g>
   <g id="patch_75">
    <path d="M 180 320.4 
L 422.608696 320.4 
" style="fill: none; stroke: #000000; stroke-width: 0.8; stroke-linejoin: miter; stroke-linecap: square"/>
   </g>
   <g id="patch_76">
    <path d="M 180 43.2 
L 422.608696 43.2 
" style="fill: none; stroke: #000000; stroke-width: 0.8; stroke-linejoin: miter; stroke-linecap: square"/>
   </g>
   <g id="legend_1">
    <g id="patch_77">
     <path d="M 191.2 102.97 
L 318.03 102.97 
Q 321.23 102.97 321.23 99.77 
L 321.23 54.4 
Q 321.23 51.2 318.03 51.2 
L 191.2 51.2 
Q 188 51.2 188 54.4 
L 188 99.77 
Q 188 102.97 191.2 102.97 
z
" style="fill: #ffffff; opacity: 0.8; stroke: #cccccc; stroke-linejoin: miter"/>
    </g>
    <g id="patch_78">
     <path d="M 194.4 69.7575 
L 226.4 69.7575 
L 226.4 58.5575 
L 194.4 58.5575 
z
" style="fill: #c0c0c0"/>
    </g>
    <g id="text_15">
     <!-- Gauss -->
     <g transform="translate(239.2 69.7575) scale(0.16 -0.16)">
      <defs>
       <path id="DejaVuSans-47" d="M 3809 666 
L 3809 1919 
L 2778 1919 
L 2778 2438 
L 4434 2438 
L 4434 434 
Q 4069 175 3628 42 
Q 3188 -91 2688 -91 
Q 1594 -91 976 548 
Q 359 1188 359 2328 
Q 359 3472 976 4111 
Q 1594 4750 2688 4750 
Q 3144 4750 3555 4637 
Q 3966 4525 4313 4306 
L 4313 3634 
Q 3963 3931 3569 4081 
Q 3175 4231 2741 4231 
Q 1884 4231 1454 3753 
Q 1025 3275 1025 2328 
Q 1025 1384 1454 906 
Q 1884 428 2741 428 
Q 3075 428 3337 486 
Q 3600 544 3809 666 
z
" transform="scale(0.015625)"/>
       <path id="DejaVuSans-61" d="M 2194 1759 
Q 1497 1759 1228 1600 
Q 959 1441 959 1056 
Q 959 750 1161 570 
Q 1363 391 1709 391 
Q 2188 391 2477 730 
Q 2766 1069 2766 1631 
L 2766 1759 
L 2194 1759 
z
M 3341 1997 
L 3341 0 
L 2766 0 
L 2766 531 
Q 2569 213 2275 61 
Q 1981 -91 1556 -91 
Q 1019 -91 701 211 
Q 384 513 384 1019 
Q 384 1609 779 1909 
Q 1175 2209 1959 2209 
L 2766 2209 
L 2766 2266 
Q 2766 2663 2505 2880 
Q 2244 3097 1772 3097 
Q 1472 3097 1187 3025 
Q 903 2953 641 2809 
L 641 3341 
Q 956 3463 1253 3523 
Q 1550 3584 1831 3584 
Q 2591 3584 2966 3190 
Q 3341 2797 3341 1997 
z
" transform="scale(0.015625)"/>
       <path id="DejaVuSans-75" d="M 544 1381 
L 544 3500 
L 1119 3500 
L 1119 1403 
Q 1119 906 1312 657 
Q 1506 409 1894 409 
Q 2359 409 2629 706 
Q 2900 1003 2900 1516 
L 2900 3500 
L 3475 3500 
L 3475 0 
L 2900 0 
L 2900 538 
Q 2691 219 2414 64 
Q 2138 -91 1772 -91 
Q 1169 -91 856 284 
Q 544 659 544 1381 
z
M 1991 3584 
L 1991 3584 
z
" transform="scale(0.015625)"/>
      </defs>
      <use xlink:href="#DejaVuSans-47"/>
      <use xlink:href="#DejaVuSans-61" x="77.490234"/>
      <use xlink:href="#DejaVuSans-75" x="138.769531"/>
      <use xlink:href="#DejaVuSans-73" x="202.148438"/>
      <use xlink:href="#DejaVuSans-73" x="254.248047"/>
     </g>
    </g>
    <g id="patch_79">
     <path d="M 194.4 93.2425 
L 226.4 93.2425 
L 226.4 82.0425 
L 194.4 82.0425 
z
" style="fill: #9ab973"/>
    </g>
    <g id="text_16">
     <!-- Emissioni -->
     <g transform="translate(239.2 93.2425) scale(0.16 -0.16)">
      <defs>
       <path id="DejaVuSans-45" d="M 628 4666 
L 3578 4666 
L 3578 4134 
L 1259 4134 
L 1259 2753 
L 3481 2753 
L 3481 2222 
L 1259 2222 
L 1259 531 
L 3634 531 
L 3634 0 
L 628 0 
L 628 4666 
z
" transform="scale(0.015625)"/>
       <path id="DejaVuSans-6d" d="M 3328 2828 
Q 3544 3216 3844 3400 
Q 4144 3584 4550 3584 
Q 5097 3584 5394 3201 
Q 5691 2819 5691 2113 
L 5691 0 
L 5113 0 
L 5113 2094 
Q 5113 2597 4934 2840 
Q 4756 3084 4391 3084 
Q 3944 3084 3684 2787 
Q 3425 2491 3425 1978 
L 3425 0 
L 2847 0 
L 2847 2094 
Q 2847 2600 2669 2842 
Q 2491 3084 2119 3084 
Q 1678 3084 1418 2786 
Q 1159 2488 1159 1978 
L 1159 0 
L 581 0 
L 581 3500 
L 1159 3500 
L 1159 2956 
Q 1356 3278 1631 3431 
Q 1906 3584 2284 3584 
Q 2666 3584 2933 3390 
Q 3200 3197 3328 2828 
z
" transform="scale(0.015625)"/>
       <path id="DejaVuSans-69" d="M 603 3500 
L 1178 3500 
L 1178 0 
L 603 0 
L 603 3500 
z
M 603 4863 
L 1178 4863 
L 1178 4134 
L 603 4134 
L 603 4863 
z
" transform="scale(0.015625)"/>
      </defs>
      <use xlink:href="#DejaVuSans-45"/>
      <use xlink:href="#DejaVuSans-6d" x="63.183594"/>
      <use xlink:href="#DejaVuSans-69" x="160.595703"/>
      <use xlink:href="#DejaVuSans-73" x="188.378906"/>
      <use xlink:href="#DejaVuSans-73" x="240.478516"/>
      <use xlink:href="#DejaVuSans-69" x="292.578125"/>
      <use xlink:href="#DejaVuSans-6f" x="320.361328"/>
      <use xlink:href="#DejaVuSans-6e" x="381.542969"/>
      <use xlink:href="#DejaVuSans-69" x="444.921875"/>
     </g>
    </g>
   </g>
  </g>
  <g id="axes_2">
   <g id="patch_80">
    <path d="M 471.130435 320.4 
L 713.73913 320.4 
L 713.73913 43.2 
L 471.130435 43.2 
z
" style="fill: #ffffff"/>
   </g>
   <g id="patch_81">
    <path d="M 482.158103 320.4 
L 490.980237 320.4 
L 490.980237 318.439604 
L 482.158103 318.439604 
z
" clip-path="url(#p8c15b26044)" style="fill: #c0c0c0"/>
   </g>
   <g id="patch_82">
    <path d="M 490.980237 320.4 
L 499.802372 320.4 
L 499.802372 313.211881 
L 490.980237 313.211881 
z
" clip-path="url(#p8c15b26044)" style="fill: #c0c0c0"/>
   </g>
   <g id="patch_83">
    <path d="M 499.802372 320.4 
L 508.624506 320.4 
L 508.624506 315.825743 
L 499.802372 315.825743 
z
" clip-path="url(#p8c15b26044)" style="fill: #c0c0c0"/>
   </g>
   <g id="patch_84">
    <path d="M 508.624506 320.4 
L 517.44664 320.4 
L 517.44664 305.370297 
L 508.624506 305.370297 
z
" clip-path="url(#p8c15b26044)" style="fill: #c0c0c0"/>
   </g>
   <g id="patch_85">
    <path d="M 517.44664 320.4 
L 526.268775 320.4 
L 526.268775 285.766337 
L 517.44664 285.766337 
z
" clip-path="url(#p8c15b26044)" style="fill: #c0c0c0"/>
   </g>
   <g id="patch_86">
    <path d="M 526.268775 320.4 
L 535.090909 320.4 
L 535.090909 270.736634 
L 526.268775 270.736634 
z
" clip-path="url(#p8c15b26044)" style="fill: #c0c0c0"/>
   </g>
   <g id="patch_87">
    <path d="M 535.090909 320.4 
L 543.913043 320.4 
L 543.913043 240.023762 
L 535.090909 240.023762 
z
" clip-path="url(#p8c15b26044)" style="fill: #c0c0c0"/>
   </g>
   <g id="patch_88">
    <path d="M 543.913043 320.4 
L 552.735178 320.4 
L 552.735178 213.885149 
L 543.913043 213.885149 
z
" clip-path="url(#p8c15b26044)" style="fill: #c0c0c0"/>
   </g>
   <g id="patch_89">
    <path d="M 552.735178 320.4 
L 561.557312 320.4 
L 561.557312 154.419802 
L 552.735178 154.419802 
z
" clip-path="url(#p8c15b26044)" style="fill: #c0c0c0"/>
   </g>
   <g id="patch_90">
    <path d="M 561.557312 320.4 
L 570.379447 320.4 
L 570.379447 108.677228 
L 561.557312 108.677228 
z
" clip-path="url(#p8c15b26044)" style="fill: #c0c0c0"/>
   </g>
   <g id="patch_91">
    <path d="M 570.379447 320.4 
L 579.201581 320.4 
L 579.201581 110.637624 
L 570.379447 110.637624 
z
" clip-path="url(#p8c15b26044)" style="fill: #c0c0c0"/>
   </g>
   <g id="patch_92">
    <path d="M 579.201581 320.4 
L 588.023715 320.4 
L 588.023715 83.845545 
L 579.201581 83.845545 
z
" clip-path="url(#p8c15b26044)" style="fill: #c0c0c0"/>
   </g>
   <g id="patch_93">
    <path d="M 588.023715 320.4 
L 596.84585 320.4 
L 596.84585 119.786139 
L 588.023715 119.786139 
z
" clip-path="url(#p8c15b26044)" style="fill: #c0c0c0"/>
   </g>
   <g id="patch_94">
    <path d="M 596.84585 320.4 
L 605.667984 320.4 
L 605.667984 132.20198 
L 596.84585 132.20198 
z
" clip-path="url(#p8c15b26044)" style="fill: #c0c0c0"/>
   </g>
   <g id="patch_95">
    <path d="M 605.667984 320.4 
L 614.490119 320.4 
L 614.490119 167.489109 
L 605.667984 167.489109 
z
" clip-path="url(#p8c15b26044)" style="fill: #c0c0c0"/>
   </g>
   <g id="patch_96">
    <path d="M 614.490119 320.4 
L 623.312253 320.4 
L 623.312253 203.429703 
L 614.490119 203.429703 
z
" clip-path="url(#p8c15b26044)" style="fill: #c0c0c0"/>
   </g>
   <g id="patch_97">
    <path d="M 623.312253 320.4 
L 632.134387 320.4 
L 632.134387 239.370297 
L 623.312253 239.370297 
z
" clip-path="url(#p8c15b26044)" style="fill: #c0c0c0"/>
   </g>
   <g id="patch_98">
    <path d="M 632.134387 320.4 
L 640.956522 320.4 
L 640.956522 278.578218 
L 632.134387 278.578218 
z
" clip-path="url(#p8c15b26044)" style="fill: #c0c0c0"/>
   </g>
   <g id="patch_99">
    <path d="M 640.956522 320.4 
L 649.778656 320.4 
L 649.778656 298.835644 
L 640.956522 298.835644 
z
" clip-path="url(#p8c15b26044)" style="fill: #c0c0c0"/>
   </g>
   <g id="patch_100">
    <path d="M 649.778656 320.4 
L 658.600791 320.4 
L 658.600791 302.756436 
L 649.778656 302.756436 
z
" clip-path="url(#p8c15b26044)" style="fill: #c0c0c0"/>
   </g>
   <g id="patch_101">
    <path d="M 658.600791 320.4 
L 667.422925 320.4 
L 667.422925 309.291089 
L 658.600791 309.291089 
z
" clip-path="url(#p8c15b26044)" style="fill: #c0c0c0"/>
   </g>
   <g id="patch_102">
    <path d="M 667.422925 320.4 
L 676.245059 320.4 
L 676.245059 317.132673 
L 667.422925 317.132673 
z
" clip-path="url(#p8c15b26044)" style="fill: #c0c0c0"/>
   </g>
   <g id="patch_103">
    <path d="M 676.245059 320.4 
L 685.067194 320.4 
L 685.067194 319.746535 
L 676.245059 319.746535 
z
" clip-path="url(#p8c15b26044)" style="fill: #c0c0c0"/>
   </g>
   <g id="patch_104">
    <path d="M 685.067194 320.4 
L 693.889328 320.4 
L 693.889328 320.4 
L 685.067194 320.4 
z
" clip-path="url(#p8c15b26044)" style="fill: #c0c0c0"/>
   </g>
   <g id="patch_105">
    <path d="M 693.889328 320.4 
L 702.711462 320.4 
L 702.711462 319.746535 
L 693.889328 319.746535 
z
" clip-path="url(#p8c15b26044)" style="fill: #c0c0c0"/>
   </g>
   <g id="patch_106">
    <path d="M 558.216809 320.4 
L 561.20051 320.4 
L 561.20051 304.716832 
L 558.216809 304.716832 
z
" clip-path="url(#p8c15b26044)" style="fill: #5e86c1"/>
   </g>
   <g id="patch_107">
    <path d="M 561.20051 320.4 
L 564.18421 320.4 
L 564.18421 253.746535 
L 561.20051 253.746535 
z
" clip-path="url(#p8c15b26044)" style="fill: #5e86c1"/>
   </g>
   <g id="patch_108">
    <path d="M 564.18421 320.4 
L 567.167911 320.4 
L 567.167911 76.00396 
L 564.18421 76.00396 
z
" clip-path="url(#p8c15b26044)" style="fill: #5e86c1"/>
   </g>
   <g id="patch_109">
    <path d="M 567.167911 320.4 
L 570.151612 320.4 
L 570.151612 76.657426 
L 567.167911 76.657426 
z
" clip-path="url(#p8c15b26044)" style="fill: #5e86c1"/>
   </g>
   <g id="patch_110">
    <path d="M 570.151612 320.4 
L 573.135313 320.4 
L 573.135313 56.4 
L 570.151612 56.4 
z
" clip-path="url(#p8c15b26044)" style="fill: #5e86c1"/>
   </g>
   <g id="patch_111">
    <path d="M 573.135313 320.4 
L 576.119014 320.4 
L 576.119014 117.172277 
L 573.135313 117.172277 
z
" clip-path="url(#p8c15b26044)" style="fill: #5e86c1"/>
   </g>
   <g id="patch_112">
    <path d="M 576.119014 320.4 
L 579.102715 320.4 
L 579.102715 151.805941 
L 576.119014 151.805941 
z
" clip-path="url(#p8c15b26044)" style="fill: #5e86c1"/>
   </g>
   <g id="patch_113">
    <path d="M 579.102715 320.4 
L 582.086416 320.4 
L 582.086416 134.815842 
L 579.102715 134.815842 
z
" clip-path="url(#p8c15b26044)" style="fill: #5e86c1"/>
   </g>
   <g id="patch_114">
    <path d="M 582.086416 320.4 
L 585.070117 320.4 
L 585.070117 134.815842 
L 582.086416 134.815842 
z
" clip-path="url(#p8c15b26044)" style="fill: #5e86c1"/>
   </g>
   <g id="patch_115">
    <path d="M 585.070117 320.4 
L 588.053818 320.4 
L 588.053818 146.578218 
L 585.070117 146.578218 
z
" clip-path="url(#p8c15b26044)" style="fill: #5e86c1"/>
   </g>
   <g id="patch_116">
    <path d="M 588.053818 320.4 
L 591.037518 320.4 
L 591.037518 163.568317 
L 588.053818 163.568317 
z
" clip-path="url(#p8c15b26044)" style="fill: #5e86c1"/>
   </g>
   <g id="patch_117">
    <path d="M 591.037518 320.4 
L 594.021219 320.4 
L 594.021219 202.776238 
L 591.037518 202.776238 
z
" clip-path="url(#p8c15b26044)" style="fill: #5e86c1"/>
   </g>
   <g id="patch_118">
    <path d="M 594.021219 320.4 
L 597.00492 320.4 
L 597.00492 234.79604 
L 594.021219 234.79604 
z
" clip-path="url(#p8c15b26044)" style="fill: #5e86c1"/>
   </g>
   <g id="patch_119">
    <path d="M 597.00492 320.4 
L 599.988621 320.4 
L 599.988621 196.241584 
L 597.00492 196.241584 
z
" clip-path="url(#p8c15b26044)" style="fill: #5e86c1"/>
   </g>
   <g id="patch_120">
    <path d="M 599.988621 320.4 
L 602.972322 320.4 
L 602.972322 211.924752 
L 599.988621 211.924752 
z
" clip-path="url(#p8c15b26044)" style="fill: #5e86c1"/>
   </g>
   <g id="patch_121">
    <path d="M 602.972322 320.4 
L 605.956023 320.4 
L 605.956023 258.974257 
L 602.972322 258.974257 
z
" clip-path="url(#p8c15b26044)" style="fill: #5e86c1"/>
   </g>
   <g id="patch_122">
    <path d="M 605.956023 320.4 
L 608.939724 320.4 
L 608.939724 279.885149 
L 605.956023 279.885149 
z
" clip-path="url(#p8c15b26044)" style="fill: #5e86c1"/>
   </g>
   <g id="patch_123">
    <path d="M 608.939724 320.4 
L 611.923425 320.4 
L 611.923425 277.924752 
L 608.939724 277.924752 
z
" clip-path="url(#p8c15b26044)" style="fill: #5e86c1"/>
   </g>
   <g id="patch_124">
    <path d="M 611.923425 320.4 
L 614.907126 320.4 
L 614.907126 281.845545 
L 611.923425 281.845545 
z
" clip-path="url(#p8c15b26044)" style="fill: #5e86c1"/>
   </g>
   <g id="patch_125">
    <path d="M 614.907126 320.4 
L 617.890826 320.4 
L 617.890826 297.528713 
L 614.907126 297.528713 
z
" clip-path="url(#p8c15b26044)" style="fill: #5e86c1"/>
   </g>
   <g id="patch_126">
    <path d="M 617.890826 320.4 
L 620.874527 320.4 
L 620.874527 289.033663 
L 617.890826 289.033663 
z
" clip-path="url(#p8c15b26044)" style="fill: #5e86c1"/>
   </g>
   <g id="patch_127">
    <path d="M 620.874527 320.4 
L 623.858228 320.4 
L 623.858228 304.716832 
L 620.874527 304.716832 
z
" clip-path="url(#p8c15b26044)" style="fill: #5e86c1"/>
   </g>
   <g id="patch_128">
    <path d="M 623.858228 320.4 
L 626.841929 320.4 
L 626.841929 311.251485 
L 623.858228 311.251485 
z
" clip-path="url(#p8c15b26044)" style="fill: #5e86c1"/>
   </g>
   <g id="patch_129">
    <path d="M 626.841929 320.4 
L 629.82563 320.4 
L 629.82563 314.518812 
L 626.841929 314.518812 
z
" clip-path="url(#p8c15b26044)" style="fill: #5e86c1"/>
   </g>
   <g id="patch_130">
    <path d="M 629.82563 320.4 
L 632.809331 320.4 
L 632.809331 318.439604 
L 629.82563 318.439604 
z
" clip-path="url(#p8c15b26044)" style="fill: #5e86c1"/>
   </g>
   <g id="matplotlib.axis_3">
    <g id="xtick_7">
     <g id="line2d_14">
      <g>
       <use xlink:href="#me5529e3779" x="486.120667" y="320.4" style="stroke: #000000; stroke-width: 0.8"/>
      </g>
     </g>
     <g id="text_17">
      <!-- −20 -->
      <g transform="translate(475.568324 334.998438) scale(0.1 -0.1)">
       <use xlink:href="#DejaVuSans-2212"/>
       <use xlink:href="#DejaVuSans-32" x="83.789062"/>
       <use xlink:href="#DejaVuSans-30" x="147.412109"/>
      </g>
     </g>
    </g>
    <g id="xtick_8">
     <g id="line2d_15">
      <g>
       <use xlink:href="#me5529e3779" x="536.451982" y="320.4" style="stroke: #000000; stroke-width: 0.8"/>
      </g>
     </g>
     <g id="text_18">
      <!-- −10 -->
      <g transform="translate(525.899638 334.998438) scale(0.1 -0.1)">
       <use xlink:href="#DejaVuSans-2212"/>
       <use xlink:href="#DejaVuSans-31" x="83.789062"/>
       <use xlink:href="#DejaVuSans-30" x="147.412109"/>
      </g>
     </g>
    </g>
    <g id="xtick_9">
     <g id="line2d_16">
      <g>
       <use xlink:href="#me5529e3779" x="586.783297" y="320.4" style="stroke: #000000; stroke-width: 0.8"/>
      </g>
     </g>
     <g id="text_19">
      <!-- 0 -->
      <g transform="translate(583.602047 334.998438) scale(0.1 -0.1)">
       <use xlink:href="#DejaVuSans-30"/>
      </g>
     </g>
    </g>
    <g id="xtick_10">
     <g id="line2d_17">
      <g>
       <use xlink:href="#me5529e3779" x="637.114612" y="320.4" style="stroke: #000000; stroke-width: 0.8"/>
      </g>
     </g>
     <g id="text_20">
      <!-- 10 -->
      <g transform="translate(630.752112 334.998438) scale(0.1 -0.1)">
       <use xlink:href="#DejaVuSans-31"/>
       <use xlink:href="#DejaVuSans-30" x="63.623047"/>
      </g>
     </g>
    </g>
    <g id="xtick_11">
     <g id="line2d_18">
      <g>
       <use xlink:href="#me5529e3779" x="687.445927" y="320.4" style="stroke: #000000; stroke-width: 0.8"/>
      </g>
     </g>
     <g id="text_21">
      <!-- 20 -->
      <g transform="translate(681.083427 334.998438) scale(0.1 -0.1)">
       <use xlink:href="#DejaVuSans-32"/>
       <use xlink:href="#DejaVuSans-30" x="63.623047"/>
      </g>
     </g>
    </g>
    <g id="text_22">
     <!-- Temperatura [°C] -->
     <g transform="translate(523.232283 353.235625) scale(0.16 -0.16)">
      <defs>
       <path id="DejaVuSans-65" d="M 3597 1894 
L 3597 1613 
L 953 1613 
Q 991 1019 1311 708 
Q 1631 397 2203 397 
Q 2534 397 2845 478 
Q 3156 559 3463 722 
L 3463 178 
Q 3153 47 2828 -22 
Q 2503 -91 2169 -91 
Q 1331 -91 842 396 
Q 353 884 353 1716 
Q 353 2575 817 3079 
Q 1281 3584 2069 3584 
Q 2775 3584 3186 3129 
Q 3597 2675 3597 1894 
z
M 3022 2063 
Q 3016 2534 2758 2815 
Q 2500 3097 2075 3097 
Q 1594 3097 1305 2825 
Q 1016 2553 972 2059 
L 3022 2063 
z
" transform="scale(0.015625)"/>
       <path id="DejaVuSans-70" d="M 1159 525 
L 1159 -1331 
L 581 -1331 
L 581 3500 
L 1159 3500 
L 1159 2969 
Q 1341 3281 1617 3432 
Q 1894 3584 2278 3584 
Q 2916 3584 3314 3078 
Q 3713 2572 3713 1747 
Q 3713 922 3314 415 
Q 2916 -91 2278 -91 
Q 1894 -91 1617 61 
Q 1341 213 1159 525 
z
M 3116 1747 
Q 3116 2381 2855 2742 
Q 2594 3103 2138 3103 
Q 1681 3103 1420 2742 
Q 1159 2381 1159 1747 
Q 1159 1113 1420 752 
Q 1681 391 2138 391 
Q 2594 391 2855 752 
Q 3116 1113 3116 1747 
z
" transform="scale(0.015625)"/>
       <path id="DejaVuSans-72" d="M 2631 2963 
Q 2534 3019 2420 3045 
Q 2306 3072 2169 3072 
Q 1681 3072 1420 2755 
Q 1159 2438 1159 1844 
L 1159 0 
L 581 0 
L 581 3500 
L 1159 3500 
L 1159 2956 
Q 1341 3275 1631 3429 
Q 1922 3584 2338 3584 
Q 2397 3584 2469 3576 
Q 2541 3569 2628 3553 
L 2631 2963 
z
" transform="scale(0.015625)"/>
       <path id="DejaVuSans-74" d="M 1172 4494 
L 1172 3500 
L 2356 3500 
L 2356 3053 
L 1172 3053 
L 1172 1153 
Q 1172 725 1289 603 
Q 1406 481 1766 481 
L 2356 481 
L 2356 0 
L 1766 0 
Q 1100 0 847 248 
Q 594 497 594 1153 
L 594 3053 
L 172 3053 
L 172 3500 
L 594 3500 
L 594 4494 
L 1172 4494 
z
" transform="scale(0.015625)"/>
       <path id="DejaVuSans-b0" d="M 1600 4347 
Q 1350 4347 1178 4173 
Q 1006 4000 1006 3750 
Q 1006 3503 1178 3333 
Q 1350 3163 1600 3163 
Q 1850 3163 2022 3333 
Q 2194 3503 2194 3750 
Q 2194 3997 2020 4172 
Q 1847 4347 1600 4347 
z
M 1600 4750 
Q 1800 4750 1984 4673 
Q 2169 4597 2303 4453 
Q 2447 4313 2519 4134 
Q 2591 3956 2591 3750 
Q 2591 3338 2302 3052 
Q 2013 2766 1594 2766 
Q 1172 2766 890 3047 
Q 609 3328 609 3750 
Q 609 4169 896 4459 
Q 1184 4750 1600 4750 
z
" transform="scale(0.015625)"/>
      </defs>
      <use xlink:href="#DejaVuSans-54"/>
      <use xlink:href="#DejaVuSans-65" x="44.083984"/>
      <use xlink:href="#DejaVuSans-6d" x="105.607422"/>
      <use xlink:href="#DejaVuSans-70" x="203.019531"/>
      <use xlink:href="#DejaVuSans-65" x="266.496094"/>
      <use xlink:href="#DejaVuSans-72" x="328.019531"/>
      <use xlink:href="#DejaVuSans-61" x="369.132812"/>
      <use xlink:href="#DejaVuSans-74" x="430.412109"/>
      <use xlink:href="#DejaVuSans-75" x="469.621094"/>
      <use xlink:href="#DejaVuSans-72" x="533"/>
      <use xlink:href="#DejaVuSans-61" x="574.113281"/>
      <use xlink:href="#DejaVuSans-20" x="635.392578"/>
      <use xlink:href="#DejaVuSans-5b" x="667.179688"/>
      <use xlink:href="#DejaVuSans-b0" x="706.193359"/>
      <use xlink:href="#DejaVuSans-43" x="756.193359"/>
      <use xlink:href="#DejaVuSans-5d" x="826.017578"/>
     </g>
    </g>
   </g>
   <g id="matplotlib.axis_4">
    <g id="ytick_8">
     <g id="line2d_19">
      <g>
       <use xlink:href="#m3054fe0180" x="471.130435" y="320.4" style="stroke: #000000; stroke-width: 0.8"/>
      </g>
     </g>
     <g id="text_23">
      <!-- 0 -->
      <g transform="translate(457.767935 324.199219) scale(0.1 -0.1)">
       <use xlink:href="#DejaVuSans-30"/>
      </g>
     </g>
    </g>
    <g id="ytick_9">
     <g id="line2d_20">
      <g>
       <use xlink:href="#m3054fe0180" x="471.130435" y="287.726733" style="stroke: #000000; stroke-width: 0.8"/>
      </g>
     </g>
     <g id="text_24">
      <!-- 50 -->
      <g transform="translate(451.405435 291.525951) scale(0.1 -0.1)">
       <use xlink:href="#DejaVuSans-35"/>
       <use xlink:href="#DejaVuSans-30" x="63.623047"/>
      </g>
     </g>
    </g>
    <g id="ytick_10">
     <g id="line2d_21">
      <g>
       <use xlink:href="#m3054fe0180" x="471.130435" y="255.053465" style="stroke: #000000; stroke-width: 0.8"/>
      </g>
     </g>
     <g id="text_25">
      <!-- 100 -->
      <g transform="translate(445.042935 258.852684) scale(0.1 -0.1)">
       <use xlink:href="#DejaVuSans-31"/>
       <use xlink:href="#DejaVuSans-30" x="63.623047"/>
       <use xlink:href="#DejaVuSans-30" x="127.246094"/>
      </g>
     </g>
    </g>
    <g id="ytick_11">
     <g id="line2d_22">
      <g>
       <use xlink:href="#m3054fe0180" x="471.130435" y="222.380198" style="stroke: #000000; stroke-width: 0.8"/>
      </g>
     </g>
     <g id="text_26">
      <!-- 150 -->
      <g transform="translate(445.042935 226.179417) scale(0.1 -0.1)">
       <use xlink:href="#DejaVuSans-31"/>
       <use xlink:href="#DejaVuSans-35" x="63.623047"/>
       <use xlink:href="#DejaVuSans-30" x="127.246094"/>
      </g>
     </g>
    </g>
    <g id="ytick_12">
     <g id="line2d_23">
      <g>
       <use xlink:href="#m3054fe0180" x="471.130435" y="189.706931" style="stroke: #000000; stroke-width: 0.8"/>
      </g>
     </g>
     <g id="text_27">
      <!-- 200 -->
      <g transform="translate(445.042935 193.506149) scale(0.1 -0.1)">
       <use xlink:href="#DejaVuSans-32"/>
       <use xlink:href="#DejaVuSans-30" x="63.623047"/>
       <use xlink:href="#DejaVuSans-30" x="127.246094"/>
      </g>
     </g>
    </g>
    <g id="ytick_13">
     <g id="line2d_24">
      <g>
       <use xlink:href="#m3054fe0180" x="471.130435" y="157.033663" style="stroke: #000000; stroke-width: 0.8"/>
      </g>
     </g>
     <g id="text_28">
      <!-- 250 -->
      <g transform="translate(445.042935 160.832882) scale(0.1 -0.1)">
       <use xlink:href="#DejaVuSans-32"/>
       <use xlink:href="#DejaVuSans-35" x="63.623047"/>
       <use xlink:href="#DejaVuSans-30" x="127.246094"/>
      </g>
     </g>
    </g>
    <g id="ytick_14">
     <g id="line2d_25">
      <g>
       <use xlink:href="#m3054fe0180" x="471.130435" y="124.360396" style="stroke: #000000; stroke-width: 0.8"/>
      </g>
     </g>
     <g id="text_29">
      <!-- 300 -->
      <g transform="translate(445.042935 128.159615) scale(0.1 -0.1)">
       <use xlink:href="#DejaVuSans-33"/>
       <use xlink:href="#DejaVuSans-30" x="63.623047"/>
       <use xlink:href="#DejaVuSans-30" x="127.246094"/>
      </g>
     </g>
    </g>
    <g id="ytick_15">
     <g id="line2d_26">
      <g>
       <use xlink:href="#m3054fe0180" x="471.130435" y="91.687129" style="stroke: #000000; stroke-width: 0.8"/>
      </g>
     </g>
     <g id="text_30">
      <!-- 350 -->
      <g transform="translate(445.042935 95.486347) scale(0.1 -0.1)">
       <use xlink:href="#DejaVuSans-33"/>
       <use xlink:href="#DejaVuSans-35" x="63.623047"/>
       <use xlink:href="#DejaVuSans-30" x="127.246094"/>
      </g>
     </g>
    </g>
    <g id="ytick_16">
     <g id="line2d_27">
      <g>
       <use xlink:href="#m3054fe0180" x="471.130435" y="59.013861" style="stroke: #000000; stroke-width: 0.8"/>
      </g>
     </g>
     <g id="text_31">
      <!-- 400 -->
      <g transform="translate(445.042935 62.81308) scale(0.1 -0.1)">
       <defs>
        <path id="DejaVuSans-34" d="M 2419 4116 
L 825 1625 
L 2419 1625 
L 2419 4116 
z
M 2253 4666 
L 3047 4666 
L 3047 1625 
L 3713 1625 
L 3713 1100 
L 3047 1100 
L 3047 0 
L 2419 0 
L 2419 1100 
L 313 1100 
L 313 1709 
L 2253 4666 
z
" transform="scale(0.015625)"/>
       </defs>
       <use xlink:href="#DejaVuSans-34"/>
       <use xlink:href="#DejaVuSans-30" x="63.623047"/>
       <use xlink:href="#DejaVuSans-30" x="127.246094"/>
      </g>
     </g>
    </g>
   </g>
   <g id="patch_131">
    <path d="M 471.130435 320.4 
L 471.130435 43.2 
" style="fill: none; stroke: #000000; stroke-width: 0.8; stroke-linejoin: miter; stroke-linecap: square"/>
   </g>
   <g id="patch_132">
    <path d="M 713.73913 320.4 
L 713.73913 43.2 
" style="fill: none; stroke: #000000; stroke-width: 0.8; stroke-linejoin: miter; stroke-linecap: square"/>
   </g>
   <g id="patch_133">
    <path d="M 471.130435 320.4 
L 713.73913 320.4 
" style="fill: none; stroke: #000000; stroke-width: 0.8; stroke-linejoin: miter; stroke-linecap: square"/>
   </g>
   <g id="patch_134">
    <path d="M 471.130435 43.2 
L 713.73913 43.2 
" style="fill: none; stroke: #000000; stroke-width: 0.8; stroke-linejoin: miter; stroke-linecap: square"/>
   </g>
   <g id="legend_2">
    <g id="patch_135">
     <path d="M 549.67663 102.97 
L 702.53913 102.97 
Q 705.73913 102.97 705.73913 99.77 
L 705.73913 54.4 
Q 705.73913 51.2 702.53913 51.2 
L 549.67663 51.2 
Q 546.47663 51.2 546.47663 54.4 
L 546.47663 99.77 
Q 546.47663 102.97 549.67663 102.97 
z
" style="fill: #ffffff; opacity: 0.8; stroke: #cccccc; stroke-linejoin: miter"/>
    </g>
    <g id="patch_136">
     <path d="M 552.87663 69.7575 
L 584.87663 69.7575 
L 584.87663 58.5575 
L 552.87663 58.5575 
z
" style="fill: #c0c0c0"/>
    </g>
    <g id="text_32">
     <!-- Gauss -->
     <g transform="translate(597.67663 69.7575) scale(0.16 -0.16)">
      <use xlink:href="#DejaVuSans-47"/>
      <use xlink:href="#DejaVuSans-61" x="77.490234"/>
      <use xlink:href="#DejaVuSans-75" x="138.769531"/>
      <use xlink:href="#DejaVuSans-73" x="202.148438"/>
      <use xlink:href="#DejaVuSans-73" x="254.248047"/>
     </g>
    </g>
    <g id="patch_137">
     <path d="M 552.87663 93.2425 
L 584.87663 93.2425 
L 584.87663 82.0425 
L 552.87663 82.0425 
z
" style="fill: #5e86c1"/>
    </g>
    <g id="text_33">
     <!-- Temperatura -->
     <g transform="translate(597.67663 93.2425) scale(0.16 -0.16)">
      <use xlink:href="#DejaVuSans-54"/>
      <use xlink:href="#DejaVuSans-65" x="44.083984"/>
      <use xlink:href="#DejaVuSans-6d" x="105.607422"/>
      <use xlink:href="#DejaVuSans-70" x="203.019531"/>
      <use xlink:href="#DejaVuSans-65" x="266.496094"/>
      <use xlink:href="#DejaVuSans-72" x="328.019531"/>
      <use xlink:href="#DejaVuSans-61" x="369.132812"/>
      <use xlink:href="#DejaVuSans-74" x="430.412109"/>
      <use xlink:href="#DejaVuSans-75" x="469.621094"/>
      <use xlink:href="#DejaVuSans-72" x="533"/>
      <use xlink:href="#DejaVuSans-61" x="574.113281"/>
     </g>
    </g>
   </g>
  </g>
  <g id="axes_3">
   <g id="patch_138">
    <path d="M 762.26087 320.4 
L 1004.869565 320.4 
L 1004.869565 43.2 
L 762.26087 43.2 
z
" style="fill: #ffffff"/>
   </g>
   <g id="patch_139">
    <path d="M 773.288538 320.4 
L 779.163184 320.4 
L 779.163184 306.505263 
L 773.288538 306.505263 
z
" clip-path="url(#pa98a2301be)" style="fill: #c0c0c0"/>
   </g>
   <g id="patch_140">
    <path d="M 779.163184 320.4 
L 785.037829 320.4 
L 785.037829 306.505263 
L 779.163184 306.505263 
z
" clip-path="url(#pa98a2301be)" style="fill: #c0c0c0"/>
   </g>
   <g id="patch_141">
    <path d="M 785.037829 320.4 
L 790.912475 320.4 
L 790.912475 292.610526 
L 785.037829 292.610526 
z
" clip-path="url(#pa98a2301be)" style="fill: #c0c0c0"/>
   </g>
   <g id="patch_142">
    <path d="M 790.912475 320.4 
L 796.787121 320.4 
L 796.787121 264.821053 
L 790.912475 264.821053 
z
" clip-path="url(#pa98a2301be)" style="fill: #c0c0c0"/>
   </g>
   <g id="patch_143">
    <path d="M 796.787121 320.4 
L 802.661767 320.4 
L 802.661767 320.4 
L 796.787121 320.4 
z
" clip-path="url(#pa98a2301be)" style="fill: #c0c0c0"/>
   </g>
   <g id="patch_144">
    <path d="M 802.661767 320.4 
L 808.536413 320.4 
L 808.536413 292.610526 
L 802.661767 292.610526 
z
" clip-path="url(#pa98a2301be)" style="fill: #c0c0c0"/>
   </g>
   <g id="patch_145">
    <path d="M 808.536413 320.4 
L 814.411059 320.4 
L 814.411059 306.505263 
L 808.536413 306.505263 
z
" clip-path="url(#pa98a2301be)" style="fill: #c0c0c0"/>
   </g>
   <g id="patch_146">
    <path d="M 814.411059 320.4 
L 820.285705 320.4 
L 820.285705 209.242105 
L 814.411059 209.242105 
z
" clip-path="url(#pa98a2301be)" style="fill: #c0c0c0"/>
   </g>
   <g id="patch_147">
    <path d="M 820.285705 320.4 
L 826.160351 320.4 
L 826.160351 223.136842 
L 820.285705 223.136842 
z
" clip-path="url(#pa98a2301be)" style="fill: #c0c0c0"/>
   </g>
   <g id="patch_148">
    <path d="M 826.160351 320.4 
L 832.034997 320.4 
L 832.034997 167.557895 
L 826.160351 167.557895 
z
" clip-path="url(#pa98a2301be)" style="fill: #c0c0c0"/>
   </g>
   <g id="patch_149">
    <path d="M 832.034997 320.4 
L 837.909643 320.4 
L 837.909643 237.031579 
L 832.034997 237.031579 
z
" clip-path="url(#pa98a2301be)" style="fill: #c0c0c0"/>
   </g>
   <g id="patch_150">
    <path d="M 837.909643 320.4 
L 843.784289 320.4 
L 843.784289 125.873684 
L 837.909643 125.873684 
z
" clip-path="url(#pa98a2301be)" style="fill: #c0c0c0"/>
   </g>
   <g id="patch_151">
    <path d="M 843.784289 320.4 
L 849.658935 320.4 
L 849.658935 167.557895 
L 843.784289 167.557895 
z
" clip-path="url(#pa98a2301be)" style="fill: #c0c0c0"/>
   </g>
   <g id="patch_152">
    <path d="M 849.658935 320.4 
L 855.533581 320.4 
L 855.533581 195.347368 
L 849.658935 195.347368 
z
" clip-path="url(#pa98a2301be)" style="fill: #c0c0c0"/>
   </g>
   <g id="patch_153">
    <path d="M 855.533581 320.4 
L 861.408227 320.4 
L 861.408227 125.873684 
L 855.533581 125.873684 
z
" clip-path="url(#pa98a2301be)" style="fill: #c0c0c0"/>
   </g>
   <g id="patch_154">
    <path d="M 861.408227 320.4 
L 867.282873 320.4 
L 867.282873 153.663158 
L 861.408227 153.663158 
z
" clip-path="url(#pa98a2301be)" style="fill: #c0c0c0"/>
   </g>
   <g id="patch_155">
    <path d="M 867.282873 320.4 
L 873.157519 320.4 
L 873.157519 56.4 
L 867.282873 56.4 
z
" clip-path="url(#pa98a2301be)" style="fill: #c0c0c0"/>
   </g>
   <g id="patch_156">
    <path d="M 873.157519 320.4 
L 879.032165 320.4 
L 879.032165 209.242105 
L 873.157519 209.242105 
z
" clip-path="url(#pa98a2301be)" style="fill: #c0c0c0"/>
   </g>
   <g id="patch_157">
    <path d="M 879.032165 320.4 
L 884.906811 320.4 
L 884.906811 125.873684 
L 879.032165 125.873684 
z
" clip-path="url(#pa98a2301be)" style="fill: #c0c0c0"/>
   </g>
   <g id="patch_158">
    <path d="M 884.906811 320.4 
L 890.781457 320.4 
L 890.781457 98.084211 
L 884.906811 98.084211 
z
" clip-path="url(#pa98a2301be)" style="fill: #c0c0c0"/>
   </g>
   <g id="patch_159">
    <path d="M 890.781457 320.4 
L 896.656103 320.4 
L 896.656103 250.926316 
L 890.781457 250.926316 
z
" clip-path="url(#pa98a2301be)" style="fill: #c0c0c0"/>
   </g>
   <g id="patch_160">
    <path d="M 896.656103 320.4 
L 902.530749 320.4 
L 902.530749 223.136842 
L 896.656103 223.136842 
z
" clip-path="url(#pa98a2301be)" style="fill: #c0c0c0"/>
   </g>
   <g id="patch_161">
    <path d="M 902.530749 320.4 
L 908.405395 320.4 
L 908.405395 250.926316 
L 902.530749 250.926316 
z
" clip-path="url(#pa98a2301be)" style="fill: #c0c0c0"/>
   </g>
   <g id="patch_162">
    <path d="M 908.405395 320.4 
L 914.280041 320.4 
L 914.280041 306.505263 
L 908.405395 306.505263 
z
" clip-path="url(#pa98a2301be)" style="fill: #c0c0c0"/>
   </g>
   <g id="patch_163">
    <path d="M 914.280041 320.4 
L 920.154687 320.4 
L 920.154687 278.715789 
L 914.280041 278.715789 
z
" clip-path="url(#pa98a2301be)" style="fill: #c0c0c0"/>
   </g>
   <g id="patch_164">
    <path d="M 920.154687 320.4 
L 926.029333 320.4 
L 926.029333 223.136842 
L 920.154687 223.136842 
z
" clip-path="url(#pa98a2301be)" style="fill: #c0c0c0"/>
   </g>
   <g id="patch_165">
    <path d="M 926.029333 320.4 
L 931.903979 320.4 
L 931.903979 250.926316 
L 926.029333 250.926316 
z
" clip-path="url(#pa98a2301be)" style="fill: #c0c0c0"/>
   </g>
   <g id="patch_166">
    <path d="M 931.903979 320.4 
L 937.778625 320.4 
L 937.778625 264.821053 
L 931.903979 264.821053 
z
" clip-path="url(#pa98a2301be)" style="fill: #c0c0c0"/>
   </g>
   <g id="patch_167">
    <path d="M 937.778625 320.4 
L 943.653271 320.4 
L 943.653271 306.505263 
L 937.778625 306.505263 
z
" clip-path="url(#pa98a2301be)" style="fill: #c0c0c0"/>
   </g>
   <g id="patch_168">
    <path d="M 943.653271 320.4 
L 949.527917 320.4 
L 949.527917 292.610526 
L 943.653271 292.610526 
z
" clip-path="url(#pa98a2301be)" style="fill: #c0c0c0"/>
   </g>
   <g id="patch_169">
    <path d="M 851.86268 320.4 
L 856.595321 320.4 
L 856.595321 195.347368 
L 851.86268 195.347368 
z
" clip-path="url(#pa98a2301be)" style="fill: #c04000"/>
   </g>
   <g id="patch_170">
    <path d="M 856.595321 320.4 
L 861.327962 320.4 
L 861.327962 181.452632 
L 856.595321 181.452632 
z
" clip-path="url(#pa98a2301be)" style="fill: #c04000"/>
   </g>
   <g id="patch_171">
    <path d="M 861.327962 320.4 
L 866.060602 320.4 
L 866.060602 111.978947 
L 861.327962 111.978947 
z
" clip-path="url(#pa98a2301be)" style="fill: #c04000"/>
   </g>
   <g id="patch_172">
    <path d="M 866.060602 320.4 
L 870.793243 320.4 
L 870.793243 264.821053 
L 866.060602 264.821053 
z
" clip-path="url(#pa98a2301be)" style="fill: #c04000"/>
   </g>
   <g id="patch_173">
    <path d="M 870.793243 320.4 
L 875.525883 320.4 
L 875.525883 292.610526 
L 870.793243 292.610526 
z
" clip-path="url(#pa98a2301be)" style="fill: #c04000"/>
   </g>
   <g id="patch_174">
    <path d="M 875.525883 320.4 
L 880.258524 320.4 
L 880.258524 278.715789 
L 875.525883 278.715789 
z
" clip-path="url(#pa98a2301be)" style="fill: #c04000"/>
   </g>
   <g id="patch_175">
    <path d="M 880.258524 320.4 
L 884.991164 320.4 
L 884.991164 278.715789 
L 880.258524 278.715789 
z
" clip-path="url(#pa98a2301be)" style="fill: #c04000"/>
   </g>
   <g id="patch_176">
    <path d="M 884.991164 320.4 
L 889.723805 320.4 
L 889.723805 292.610526 
L 884.991164 292.610526 
z
" clip-path="url(#pa98a2301be)" style="fill: #c04000"/>
   </g>
   <g id="patch_177">
    <path d="M 889.723805 320.4 
L 894.456445 320.4 
L 894.456445 320.4 
L 889.723805 320.4 
z
" clip-path="url(#pa98a2301be)" style="fill: #c04000"/>
   </g>
   <g id="patch_178">
    <path d="M 894.456445 320.4 
L 899.189086 320.4 
L 899.189086 320.4 
L 894.456445 320.4 
z
" clip-path="url(#pa98a2301be)" style="fill: #c04000"/>
   </g>
   <g id="patch_179">
    <path d="M 899.189086 320.4 
L 903.921727 320.4 
L 903.921727 320.4 
L 899.189086 320.4 
z
" clip-path="url(#pa98a2301be)" style="fill: #c04000"/>
   </g>
   <g id="patch_180">
    <path d="M 903.921727 320.4 
L 908.654367 320.4 
L 908.654367 306.505263 
L 903.921727 306.505263 
z
" clip-path="url(#pa98a2301be)" style="fill: #c04000"/>
   </g>
   <g id="patch_181">
    <path d="M 908.654367 320.4 
L 913.387008 320.4 
L 913.387008 320.4 
L 908.654367 320.4 
z
" clip-path="url(#pa98a2301be)" style="fill: #c04000"/>
   </g>
   <g id="patch_182">
    <path d="M 913.387008 320.4 
L 918.119648 320.4 
L 918.119648 320.4 
L 913.387008 320.4 
z
" clip-path="url(#pa98a2301be)" style="fill: #c04000"/>
   </g>
   <g id="patch_183">
    <path d="M 918.119648 320.4 
L 922.852289 320.4 
L 922.852289 320.4 
L 918.119648 320.4 
z
" clip-path="url(#pa98a2301be)" style="fill: #c04000"/>
   </g>
   <g id="patch_184">
    <path d="M 922.852289 320.4 
L 927.584929 320.4 
L 927.584929 292.610526 
L 922.852289 292.610526 
z
" clip-path="url(#pa98a2301be)" style="fill: #c04000"/>
   </g>
   <g id="patch_185">
    <path d="M 927.584929 320.4 
L 932.31757 320.4 
L 932.31757 320.4 
L 927.584929 320.4 
z
" clip-path="url(#pa98a2301be)" style="fill: #c04000"/>
   </g>
   <g id="patch_186">
    <path d="M 932.31757 320.4 
L 937.050211 320.4 
L 937.050211 223.136842 
L 932.31757 223.136842 
z
" clip-path="url(#pa98a2301be)" style="fill: #c04000"/>
   </g>
   <g id="patch_187">
    <path d="M 937.050211 320.4 
L 941.782851 320.4 
L 941.782851 125.873684 
L 937.050211 125.873684 
z
" clip-path="url(#pa98a2301be)" style="fill: #c04000"/>
   </g>
   <g id="patch_188">
    <path d="M 941.782851 320.4 
L 946.515492 320.4 
L 946.515492 139.768421 
L 941.782851 139.768421 
z
" clip-path="url(#pa98a2301be)" style="fill: #c04000"/>
   </g>
   <g id="patch_189">
    <path d="M 946.515492 320.4 
L 951.248132 320.4 
L 951.248132 139.768421 
L 946.515492 139.768421 
z
" clip-path="url(#pa98a2301be)" style="fill: #c04000"/>
   </g>
   <g id="patch_190">
    <path d="M 951.248132 320.4 
L 955.980773 320.4 
L 955.980773 278.715789 
L 951.248132 278.715789 
z
" clip-path="url(#pa98a2301be)" style="fill: #c04000"/>
   </g>
   <g id="patch_191">
    <path d="M 955.980773 320.4 
L 960.713413 320.4 
L 960.713413 278.715789 
L 955.980773 278.715789 
z
" clip-path="url(#pa98a2301be)" style="fill: #c04000"/>
   </g>
   <g id="patch_192">
    <path d="M 960.713413 320.4 
L 965.446054 320.4 
L 965.446054 278.715789 
L 960.713413 278.715789 
z
" clip-path="url(#pa98a2301be)" style="fill: #c04000"/>
   </g>
   <g id="patch_193">
    <path d="M 965.446054 320.4 
L 970.178694 320.4 
L 970.178694 306.505263 
L 965.446054 306.505263 
z
" clip-path="url(#pa98a2301be)" style="fill: #c04000"/>
   </g>
   <g id="patch_194">
    <path d="M 970.178694 320.4 
L 974.911335 320.4 
L 974.911335 250.926316 
L 970.178694 250.926316 
z
" clip-path="url(#pa98a2301be)" style="fill: #c04000"/>
   </g>
   <g id="patch_195">
    <path d="M 974.911335 320.4 
L 979.643976 320.4 
L 979.643976 306.505263 
L 974.911335 306.505263 
z
" clip-path="url(#pa98a2301be)" style="fill: #c04000"/>
   </g>
   <g id="patch_196">
    <path d="M 979.643976 320.4 
L 984.376616 320.4 
L 984.376616 292.610526 
L 979.643976 292.610526 
z
" clip-path="url(#pa98a2301be)" style="fill: #c04000"/>
   </g>
   <g id="patch_197">
    <path d="M 984.376616 320.4 
L 989.109257 320.4 
L 989.109257 320.4 
L 984.376616 320.4 
z
" clip-path="url(#pa98a2301be)" style="fill: #c04000"/>
   </g>
   <g id="patch_198">
    <path d="M 989.109257 320.4 
L 993.841897 320.4 
L 993.841897 292.610526 
L 989.109257 292.610526 
z
" clip-path="url(#pa98a2301be)" style="fill: #c04000"/>
   </g>
   <g id="matplotlib.axis_5">
    <g id="xtick_12">
     <g id="line2d_28">
      <g>
       <use xlink:href="#me5529e3779" x="763.77754" y="320.4" style="stroke: #000000; stroke-width: 0.8"/>
      </g>
     </g>
     <g id="text_34">
      <!-- −4 -->
      <g transform="translate(756.406446 334.998438) scale(0.1 -0.1)">
       <use xlink:href="#DejaVuSans-2212"/>
       <use xlink:href="#DejaVuSans-34" x="83.789062"/>
      </g>
     </g>
    </g>
    <g id="xtick_13">
     <g id="line2d_29">
      <g>
       <use xlink:href="#me5529e3779" x="811.05825" y="320.4" style="stroke: #000000; stroke-width: 0.8"/>
      </g>
     </g>
     <g id="text_35">
      <!-- −2 -->
      <g transform="translate(803.687156 334.998438) scale(0.1 -0.1)">
       <use xlink:href="#DejaVuSans-2212"/>
       <use xlink:href="#DejaVuSans-32" x="83.789062"/>
      </g>
     </g>
    </g>
    <g id="xtick_14">
     <g id="line2d_30">
      <g>
       <use xlink:href="#me5529e3779" x="858.33896" y="320.4" style="stroke: #000000; stroke-width: 0.8"/>
      </g>
     </g>
     <g id="text_36">
      <!-- 0 -->
      <g transform="translate(855.15771 334.998438) scale(0.1 -0.1)">
       <use xlink:href="#DejaVuSans-30"/>
      </g>
     </g>
    </g>
    <g id="xtick_15">
     <g id="line2d_31">
      <g>
       <use xlink:href="#me5529e3779" x="905.619669" y="320.4" style="stroke: #000000; stroke-width: 0.8"/>
      </g>
     </g>
     <g id="text_37">
      <!-- 2 -->
      <g transform="translate(902.438419 334.998438) scale(0.1 -0.1)">
       <use xlink:href="#DejaVuSans-32"/>
      </g>
     </g>
    </g>
    <g id="xtick_16">
     <g id="line2d_32">
      <g>
       <use xlink:href="#me5529e3779" x="952.900379" y="320.4" style="stroke: #000000; stroke-width: 0.8"/>
      </g>
     </g>
     <g id="text_38">
      <!-- 4 -->
      <g transform="translate(949.719129 334.998438) scale(0.1 -0.1)">
       <use xlink:href="#DejaVuSans-34"/>
      </g>
     </g>
    </g>
    <g id="xtick_17">
     <g id="line2d_33">
      <g>
       <use xlink:href="#me5529e3779" x="1000.181089" y="320.4" style="stroke: #000000; stroke-width: 0.8"/>
      </g>
     </g>
     <g id="text_39">
      <!-- 6 -->
      <g transform="translate(996.999839 334.998438) scale(0.1 -0.1)">
       <defs>
        <path id="DejaVuSans-36" d="M 2113 2584 
Q 1688 2584 1439 2293 
Q 1191 2003 1191 1497 
Q 1191 994 1439 701 
Q 1688 409 2113 409 
Q 2538 409 2786 701 
Q 3034 994 3034 1497 
Q 3034 2003 2786 2293 
Q 2538 2584 2113 2584 
z
M 3366 4563 
L 3366 3988 
Q 3128 4100 2886 4159 
Q 2644 4219 2406 4219 
Q 1781 4219 1451 3797 
Q 1122 3375 1075 2522 
Q 1259 2794 1537 2939 
Q 1816 3084 2150 3084 
Q 2853 3084 3261 2657 
Q 3669 2231 3669 1497 
Q 3669 778 3244 343 
Q 2819 -91 2113 -91 
Q 1303 -91 875 529 
Q 447 1150 447 2328 
Q 447 3434 972 4092 
Q 1497 4750 2381 4750 
Q 2619 4750 2861 4703 
Q 3103 4656 3366 4563 
z
" transform="scale(0.015625)"/>
       </defs>
       <use xlink:href="#DejaVuSans-36"/>
      </g>
     </g>
    </g>
    <g id="text_40">
     <!-- CO2 [Tons] -->
     <g transform="translate(840.147717 353.235625) scale(0.16 -0.16)">
      <use xlink:href="#DejaVuSans-43"/>
      <use xlink:href="#DejaVuSans-4f" x="69.824219"/>
      <use xlink:href="#DejaVuSans-32" x="148.535156"/>
      <use xlink:href="#DejaVuSans-20" x="212.158203"/>
      <use xlink:href="#DejaVuSans-5b" x="243.945312"/>
      <use xlink:href="#DejaVuSans-54" x="282.958984"/>
      <use xlink:href="#DejaVuSans-6f" x="327.042969"/>
      <use xlink:href="#DejaVuSans-6e" x="388.224609"/>
      <use xlink:href="#DejaVuSans-73" x="451.603516"/>
      <use xlink:href="#DejaVuSans-5d" x="503.703125"/>
     </g>
    </g>
   </g>
   <g id="matplotlib.axis_6">
    <g id="ytick_17">
     <g id="line2d_34">
      <g>
       <use xlink:href="#m3054fe0180" x="762.26087" y="320.4" style="stroke: #000000; stroke-width: 0.8"/>
      </g>
     </g>
     <g id="text_41">
      <!-- 0.0 -->
      <g transform="translate(739.357745 324.199219) scale(0.1 -0.1)">
       <defs>
        <path id="DejaVuSans-2e" d="M 684 794 
L 1344 794 
L 1344 0 
L 684 0 
L 684 794 
z
" transform="scale(0.015625)"/>
       </defs>
       <use xlink:href="#DejaVuSans-30"/>
       <use xlink:href="#DejaVuSans-2e" x="63.623047"/>
       <use xlink:href="#DejaVuSans-30" x="95.410156"/>
      </g>
     </g>
    </g>
    <g id="ytick_18">
     <g id="line2d_35">
      <g>
       <use xlink:href="#m3054fe0180" x="762.26087" y="285.663158" style="stroke: #000000; stroke-width: 0.8"/>
      </g>
     </g>
     <g id="text_42">
      <!-- 2.5 -->
      <g transform="translate(739.357745 289.462377) scale(0.1 -0.1)">
       <use xlink:href="#DejaVuSans-32"/>
       <use xlink:href="#DejaVuSans-2e" x="63.623047"/>
       <use xlink:href="#DejaVuSans-35" x="95.410156"/>
      </g>
     </g>
    </g>
    <g id="ytick_19">
     <g id="line2d_36">
      <g>
       <use xlink:href="#m3054fe0180" x="762.26087" y="250.926316" style="stroke: #000000; stroke-width: 0.8"/>
      </g>
     </g>
     <g id="text_43">
      <!-- 5.0 -->
      <g transform="translate(739.357745 254.725535) scale(0.1 -0.1)">
       <use xlink:href="#DejaVuSans-35"/>
       <use xlink:href="#DejaVuSans-2e" x="63.623047"/>
       <use xlink:href="#DejaVuSans-30" x="95.410156"/>
      </g>
     </g>
    </g>
    <g id="ytick_20">
     <g id="line2d_37">
      <g>
       <use xlink:href="#m3054fe0180" x="762.26087" y="216.189474" style="stroke: #000000; stroke-width: 0.8"/>
      </g>
     </g>
     <g id="text_44">
      <!-- 7.5 -->
      <g transform="translate(739.357745 219.988692) scale(0.1 -0.1)">
       <defs>
        <path id="DejaVuSans-37" d="M 525 4666 
L 3525 4666 
L 3525 4397 
L 1831 0 
L 1172 0 
L 2766 4134 
L 525 4134 
L 525 4666 
z
" transform="scale(0.015625)"/>
       </defs>
       <use xlink:href="#DejaVuSans-37"/>
       <use xlink:href="#DejaVuSans-2e" x="63.623047"/>
       <use xlink:href="#DejaVuSans-35" x="95.410156"/>
      </g>
     </g>
    </g>
    <g id="ytick_21">
     <g id="line2d_38">
      <g>
       <use xlink:href="#m3054fe0180" x="762.26087" y="181.452632" style="stroke: #000000; stroke-width: 0.8"/>
      </g>
     </g>
     <g id="text_45">
      <!-- 10.0 -->
      <g transform="translate(732.995245 185.25185) scale(0.1 -0.1)">
       <use xlink:href="#DejaVuSans-31"/>
       <use xlink:href="#DejaVuSans-30" x="63.623047"/>
       <use xlink:href="#DejaVuSans-2e" x="127.246094"/>
       <use xlink:href="#DejaVuSans-30" x="159.033203"/>
      </g>
     </g>
    </g>
    <g id="ytick_22">
     <g id="line2d_39">
      <g>
       <use xlink:href="#m3054fe0180" x="762.26087" y="146.715789" style="stroke: #000000; stroke-width: 0.8"/>
      </g>
     </g>
     <g id="text_46">
      <!-- 12.5 -->
      <g transform="translate(732.995245 150.515008) scale(0.1 -0.1)">
       <use xlink:href="#DejaVuSans-31"/>
       <use xlink:href="#DejaVuSans-32" x="63.623047"/>
       <use xlink:href="#DejaVuSans-2e" x="127.246094"/>
       <use xlink:href="#DejaVuSans-35" x="159.033203"/>
      </g>
     </g>
    </g>
    <g id="ytick_23">
     <g id="line2d_40">
      <g>
       <use xlink:href="#m3054fe0180" x="762.26087" y="111.978947" style="stroke: #000000; stroke-width: 0.8"/>
      </g>
     </g>
     <g id="text_47">
      <!-- 15.0 -->
      <g transform="translate(732.995245 115.778166) scale(0.1 -0.1)">
       <use xlink:href="#DejaVuSans-31"/>
       <use xlink:href="#DejaVuSans-35" x="63.623047"/>
       <use xlink:href="#DejaVuSans-2e" x="127.246094"/>
       <use xlink:href="#DejaVuSans-30" x="159.033203"/>
      </g>
     </g>
    </g>
    <g id="ytick_24">
     <g id="line2d_41">
      <g>
       <use xlink:href="#m3054fe0180" x="762.26087" y="77.242105" style="stroke: #000000; stroke-width: 0.8"/>
      </g>
     </g>
     <g id="text_48">
      <!-- 17.5 -->
      <g transform="translate(732.995245 81.041324) scale(0.1 -0.1)">
       <use xlink:href="#DejaVuSans-31"/>
       <use xlink:href="#DejaVuSans-37" x="63.623047"/>
       <use xlink:href="#DejaVuSans-2e" x="127.246094"/>
       <use xlink:href="#DejaVuSans-35" x="159.033203"/>
      </g>
     </g>
    </g>
   </g>
   <g id="patch_199">
    <path d="M 762.26087 320.4 
L 762.26087 43.2 
" style="fill: none; stroke: #000000; stroke-width: 0.8; stroke-linejoin: miter; stroke-linecap: square"/>
   </g>
   <g id="patch_200">
    <path d="M 1004.869565 320.4 
L 1004.869565 43.2 
" style="fill: none; stroke: #000000; stroke-width: 0.8; stroke-linejoin: miter; stroke-linecap: square"/>
   </g>
   <g id="patch_201">
    <path d="M 762.26087 320.4 
L 1004.869565 320.4 
" style="fill: none; stroke: #000000; stroke-width: 0.8; stroke-linejoin: miter; stroke-linecap: square"/>
   </g>
   <g id="patch_202">
    <path d="M 762.26087 43.2 
L 1004.869565 43.2 
" style="fill: none; stroke: #000000; stroke-width: 0.8; stroke-linejoin: miter; stroke-linecap: square"/>
   </g>
   <g id="legend_3">
    <g id="patch_203">
     <path d="M 866.839565 102.97 
L 993.669565 102.97 
Q 996.869565 102.97 996.869565 99.77 
L 996.869565 54.4 
Q 996.869565 51.2 993.669565 51.2 
L 866.839565 51.2 
Q 863.639565 51.2 863.639565 54.4 
L 863.639565 99.77 
Q 863.639565 102.97 866.839565 102.97 
z
" style="fill: #ffffff; opacity: 0.8; stroke: #cccccc; stroke-linejoin: miter"/>
    </g>
    <g id="patch_204">
     <path d="M 870.039565 69.7575 
L 902.039565 69.7575 
L 902.039565 58.5575 
L 870.039565 58.5575 
z
" style="fill: #c0c0c0"/>
    </g>
    <g id="text_49">
     <!-- Gauss -->
     <g transform="translate(914.839565 69.7575) scale(0.16 -0.16)">
      <use xlink:href="#DejaVuSans-47"/>
      <use xlink:href="#DejaVuSans-61" x="77.490234"/>
      <use xlink:href="#DejaVuSans-75" x="138.769531"/>
      <use xlink:href="#DejaVuSans-73" x="202.148438"/>
      <use xlink:href="#DejaVuSans-73" x="254.248047"/>
     </g>
    </g>
    <g id="patch_205">
     <path d="M 870.039565 93.2425 
L 902.039565 93.2425 
L 902.039565 82.0425 
L 870.039565 82.0425 
z
" style="fill: #c04000"/>
    </g>
    <g id="text_50">
     <!-- Emissioni -->
     <g transform="translate(914.839565 93.2425) scale(0.16 -0.16)">
      <use xlink:href="#DejaVuSans-45"/>
      <use xlink:href="#DejaVuSans-6d" x="63.183594"/>
      <use xlink:href="#DejaVuSans-69" x="160.595703"/>
      <use xlink:href="#DejaVuSans-73" x="188.378906"/>
      <use xlink:href="#DejaVuSans-73" x="240.478516"/>
      <use xlink:href="#DejaVuSans-69" x="292.578125"/>
      <use xlink:href="#DejaVuSans-6f" x="320.361328"/>
      <use xlink:href="#DejaVuSans-6e" x="381.542969"/>
      <use xlink:href="#DejaVuSans-69" x="444.921875"/>
     </g>
    </g>
   </g>
  </g>
  <g id="axes_4">
   <g id="patch_206">
    <path d="M 1053.391304 320.4 
L 1296 320.4 
L 1296 43.2 
L 1053.391304 43.2 
z
" style="fill: #ffffff"/>
   </g>
   <g id="patch_207">
    <path d="M 1064.418972 320.4 
L 1070.503084 320.4 
L 1070.503084 282.685714 
L 1064.418972 282.685714 
z
" clip-path="url(#pe8cdab71c5)" style="fill: #c0c0c0"/>
   </g>
   <g id="patch_208">
    <path d="M 1070.503084 320.4 
L 1076.587195 320.4 
L 1076.587195 307.828571 
L 1070.503084 307.828571 
z
" clip-path="url(#pe8cdab71c5)" style="fill: #c0c0c0"/>
   </g>
   <g id="patch_209">
    <path d="M 1076.587195 320.4 
L 1082.671306 320.4 
L 1082.671306 307.828571 
L 1076.587195 307.828571 
z
" clip-path="url(#pe8cdab71c5)" style="fill: #c0c0c0"/>
   </g>
   <g id="patch_210">
    <path d="M 1082.671306 320.4 
L 1088.755418 320.4 
L 1088.755418 295.257143 
L 1082.671306 295.257143 
z
" clip-path="url(#pe8cdab71c5)" style="fill: #c0c0c0"/>
   </g>
   <g id="patch_211">
    <path d="M 1088.755418 320.4 
L 1094.839529 320.4 
L 1094.839529 219.828571 
L 1088.755418 219.828571 
z
" clip-path="url(#pe8cdab71c5)" style="fill: #c0c0c0"/>
   </g>
   <g id="patch_212">
    <path d="M 1094.839529 320.4 
L 1100.92364 320.4 
L 1100.92364 257.542857 
L 1094.839529 257.542857 
z
" clip-path="url(#pe8cdab71c5)" style="fill: #c0c0c0"/>
   </g>
   <g id="patch_213">
    <path d="M 1100.92364 320.4 
L 1107.007752 320.4 
L 1107.007752 194.685714 
L 1100.92364 194.685714 
z
" clip-path="url(#pe8cdab71c5)" style="fill: #c0c0c0"/>
   </g>
   <g id="patch_214">
    <path d="M 1107.007752 320.4 
L 1113.091863 320.4 
L 1113.091863 182.114286 
L 1107.007752 182.114286 
z
" clip-path="url(#pe8cdab71c5)" style="fill: #c0c0c0"/>
   </g>
   <g id="patch_215">
    <path d="M 1113.091863 320.4 
L 1119.175974 320.4 
L 1119.175974 270.114286 
L 1113.091863 270.114286 
z
" clip-path="url(#pe8cdab71c5)" style="fill: #c0c0c0"/>
   </g>
   <g id="patch_216">
    <path d="M 1119.175974 320.4 
L 1125.260086 320.4 
L 1125.260086 244.971429 
L 1119.175974 244.971429 
z
" clip-path="url(#pe8cdab71c5)" style="fill: #c0c0c0"/>
   </g>
   <g id="patch_217">
    <path d="M 1125.260086 320.4 
L 1131.344197 320.4 
L 1131.344197 169.542857 
L 1125.260086 169.542857 
z
" clip-path="url(#pe8cdab71c5)" style="fill: #c0c0c0"/>
   </g>
   <g id="patch_218">
    <path d="M 1131.344197 320.4 
L 1137.428308 320.4 
L 1137.428308 119.257143 
L 1131.344197 119.257143 
z
" clip-path="url(#pe8cdab71c5)" style="fill: #c0c0c0"/>
   </g>
   <g id="patch_219">
    <path d="M 1137.428308 320.4 
L 1143.51242 320.4 
L 1143.51242 56.4 
L 1137.428308 56.4 
z
" clip-path="url(#pe8cdab71c5)" style="fill: #c0c0c0"/>
   </g>
   <g id="patch_220">
    <path d="M 1143.51242 320.4 
L 1149.596531 320.4 
L 1149.596531 106.685714 
L 1143.51242 106.685714 
z
" clip-path="url(#pe8cdab71c5)" style="fill: #c0c0c0"/>
   </g>
   <g id="patch_221">
    <path d="M 1149.596531 320.4 
L 1155.680643 320.4 
L 1155.680643 56.4 
L 1149.596531 56.4 
z
" clip-path="url(#pe8cdab71c5)" style="fill: #c0c0c0"/>
   </g>
   <g id="patch_222">
    <path d="M 1155.680643 320.4 
L 1161.764754 320.4 
L 1161.764754 81.542857 
L 1155.680643 81.542857 
z
" clip-path="url(#pe8cdab71c5)" style="fill: #c0c0c0"/>
   </g>
   <g id="patch_223">
    <path d="M 1161.764754 320.4 
L 1167.848865 320.4 
L 1167.848865 156.971429 
L 1161.764754 156.971429 
z
" clip-path="url(#pe8cdab71c5)" style="fill: #c0c0c0"/>
   </g>
   <g id="patch_224">
    <path d="M 1167.848865 320.4 
L 1173.932977 320.4 
L 1173.932977 219.828571 
L 1167.848865 219.828571 
z
" clip-path="url(#pe8cdab71c5)" style="fill: #c0c0c0"/>
   </g>
   <g id="patch_225">
    <path d="M 1173.932977 320.4 
L 1180.017088 320.4 
L 1180.017088 219.828571 
L 1173.932977 219.828571 
z
" clip-path="url(#pe8cdab71c5)" style="fill: #c0c0c0"/>
   </g>
   <g id="patch_226">
    <path d="M 1180.017088 320.4 
L 1186.101199 320.4 
L 1186.101199 244.971429 
L 1180.017088 244.971429 
z
" clip-path="url(#pe8cdab71c5)" style="fill: #c0c0c0"/>
   </g>
   <g id="patch_227">
    <path d="M 1186.101199 320.4 
L 1192.185311 320.4 
L 1192.185311 282.685714 
L 1186.101199 282.685714 
z
" clip-path="url(#pe8cdab71c5)" style="fill: #c0c0c0"/>
   </g>
   <g id="patch_228">
    <path d="M 1192.185311 320.4 
L 1198.269422 320.4 
L 1198.269422 270.114286 
L 1192.185311 270.114286 
z
" clip-path="url(#pe8cdab71c5)" style="fill: #c0c0c0"/>
   </g>
   <g id="patch_229">
    <path d="M 1198.269422 320.4 
L 1204.353533 320.4 
L 1204.353533 320.4 
L 1198.269422 320.4 
z
" clip-path="url(#pe8cdab71c5)" style="fill: #c0c0c0"/>
   </g>
   <g id="patch_230">
    <path d="M 1204.353533 320.4 
L 1210.437645 320.4 
L 1210.437645 320.4 
L 1204.353533 320.4 
z
" clip-path="url(#pe8cdab71c5)" style="fill: #c0c0c0"/>
   </g>
   <g id="patch_231">
    <path d="M 1210.437645 320.4 
L 1216.521756 320.4 
L 1216.521756 307.828571 
L 1210.437645 307.828571 
z
" clip-path="url(#pe8cdab71c5)" style="fill: #c0c0c0"/>
   </g>
   <g id="patch_232">
    <path d="M 1128.732266 320.4 
L 1134.981869 320.4 
L 1134.981869 156.971429 
L 1128.732266 156.971429 
z
" clip-path="url(#pe8cdab71c5)" style="fill: #660066"/>
   </g>
   <g id="patch_233">
    <path d="M 1134.981869 320.4 
L 1141.231472 320.4 
L 1141.231472 207.257143 
L 1134.981869 207.257143 
z
" clip-path="url(#pe8cdab71c5)" style="fill: #660066"/>
   </g>
   <g id="patch_234">
    <path d="M 1141.231472 320.4 
L 1147.481074 320.4 
L 1147.481074 144.4 
L 1141.231472 144.4 
z
" clip-path="url(#pe8cdab71c5)" style="fill: #660066"/>
   </g>
   <g id="patch_235">
    <path d="M 1147.481074 320.4 
L 1153.730677 320.4 
L 1153.730677 232.4 
L 1147.481074 232.4 
z
" clip-path="url(#pe8cdab71c5)" style="fill: #660066"/>
   </g>
   <g id="patch_236">
    <path d="M 1153.730677 320.4 
L 1159.98028 320.4 
L 1159.98028 257.542857 
L 1153.730677 257.542857 
z
" clip-path="url(#pe8cdab71c5)" style="fill: #660066"/>
   </g>
   <g id="patch_237">
    <path d="M 1159.98028 320.4 
L 1166.229882 320.4 
L 1166.229882 307.828571 
L 1159.98028 307.828571 
z
" clip-path="url(#pe8cdab71c5)" style="fill: #660066"/>
   </g>
   <g id="patch_238">
    <path d="M 1166.229882 320.4 
L 1172.479485 320.4 
L 1172.479485 307.828571 
L 1166.229882 307.828571 
z
" clip-path="url(#pe8cdab71c5)" style="fill: #660066"/>
   </g>
   <g id="patch_239">
    <path d="M 1172.479485 320.4 
L 1178.729087 320.4 
L 1178.729087 282.685714 
L 1172.479485 282.685714 
z
" clip-path="url(#pe8cdab71c5)" style="fill: #660066"/>
   </g>
   <g id="patch_240">
    <path d="M 1178.729087 320.4 
L 1184.97869 320.4 
L 1184.97869 219.828571 
L 1178.729087 219.828571 
z
" clip-path="url(#pe8cdab71c5)" style="fill: #660066"/>
   </g>
   <g id="patch_241">
    <path d="M 1184.97869 320.4 
L 1191.228293 320.4 
L 1191.228293 219.828571 
L 1184.97869 219.828571 
z
" clip-path="url(#pe8cdab71c5)" style="fill: #660066"/>
   </g>
   <g id="patch_242">
    <path d="M 1191.228293 320.4 
L 1197.477895 320.4 
L 1197.477895 257.542857 
L 1191.228293 257.542857 
z
" clip-path="url(#pe8cdab71c5)" style="fill: #660066"/>
   </g>
   <g id="patch_243">
    <path d="M 1197.477895 320.4 
L 1203.727498 320.4 
L 1203.727498 270.114286 
L 1197.477895 270.114286 
z
" clip-path="url(#pe8cdab71c5)" style="fill: #660066"/>
   </g>
   <g id="patch_244">
    <path d="M 1203.727498 320.4 
L 1209.977101 320.4 
L 1209.977101 295.257143 
L 1203.727498 295.257143 
z
" clip-path="url(#pe8cdab71c5)" style="fill: #660066"/>
   </g>
   <g id="patch_245">
    <path d="M 1209.977101 320.4 
L 1216.226703 320.4 
L 1216.226703 219.828571 
L 1209.977101 219.828571 
z
" clip-path="url(#pe8cdab71c5)" style="fill: #660066"/>
   </g>
   <g id="patch_246">
    <path d="M 1216.226703 320.4 
L 1222.476306 320.4 
L 1222.476306 282.685714 
L 1216.226703 282.685714 
z
" clip-path="url(#pe8cdab71c5)" style="fill: #660066"/>
   </g>
   <g id="patch_247">
    <path d="M 1222.476306 320.4 
L 1228.725908 320.4 
L 1228.725908 295.257143 
L 1222.476306 295.257143 
z
" clip-path="url(#pe8cdab71c5)" style="fill: #660066"/>
   </g>
   <g id="patch_248">
    <path d="M 1228.725908 320.4 
L 1234.975511 320.4 
L 1234.975511 270.114286 
L 1228.725908 270.114286 
z
" clip-path="url(#pe8cdab71c5)" style="fill: #660066"/>
   </g>
   <g id="patch_249">
    <path d="M 1234.975511 320.4 
L 1241.225114 320.4 
L 1241.225114 232.4 
L 1234.975511 232.4 
z
" clip-path="url(#pe8cdab71c5)" style="fill: #660066"/>
   </g>
   <g id="patch_250">
    <path d="M 1241.225114 320.4 
L 1247.474716 320.4 
L 1247.474716 257.542857 
L 1241.225114 257.542857 
z
" clip-path="url(#pe8cdab71c5)" style="fill: #660066"/>
   </g>
   <g id="patch_251">
    <path d="M 1247.474716 320.4 
L 1253.724319 320.4 
L 1253.724319 295.257143 
L 1247.474716 295.257143 
z
" clip-path="url(#pe8cdab71c5)" style="fill: #660066"/>
   </g>
   <g id="patch_252">
    <path d="M 1253.724319 320.4 
L 1259.973922 320.4 
L 1259.973922 295.257143 
L 1253.724319 295.257143 
z
" clip-path="url(#pe8cdab71c5)" style="fill: #660066"/>
   </g>
   <g id="patch_253">
    <path d="M 1259.973922 320.4 
L 1266.223524 320.4 
L 1266.223524 307.828571 
L 1259.973922 307.828571 
z
" clip-path="url(#pe8cdab71c5)" style="fill: #660066"/>
   </g>
   <g id="patch_254">
    <path d="M 1266.223524 320.4 
L 1272.473127 320.4 
L 1272.473127 295.257143 
L 1266.223524 295.257143 
z
" clip-path="url(#pe8cdab71c5)" style="fill: #660066"/>
   </g>
   <g id="patch_255">
    <path d="M 1272.473127 320.4 
L 1278.722729 320.4 
L 1278.722729 307.828571 
L 1272.473127 307.828571 
z
" clip-path="url(#pe8cdab71c5)" style="fill: #660066"/>
   </g>
   <g id="patch_256">
    <path d="M 1278.722729 320.4 
L 1284.972332 320.4 
L 1284.972332 307.828571 
L 1278.722729 307.828571 
z
" clip-path="url(#pe8cdab71c5)" style="fill: #660066"/>
   </g>
   <g id="matplotlib.axis_7">
    <g id="xtick_18">
     <g id="line2d_42">
      <g>
       <use xlink:href="#me5529e3779" x="1081.649919" y="320.4" style="stroke: #000000; stroke-width: 0.8"/>
      </g>
     </g>
     <g id="text_51">
      <!-- −0.5 -->
      <g transform="translate(1069.508513 334.998438) scale(0.1 -0.1)">
       <use xlink:href="#DejaVuSans-2212"/>
       <use xlink:href="#DejaVuSans-30" x="83.789062"/>
       <use xlink:href="#DejaVuSans-2e" x="147.412109"/>
       <use xlink:href="#DejaVuSans-35" x="179.199219"/>
      </g>
     </g>
    </g>
    <g id="xtick_19">
     <g id="line2d_43">
      <g>
       <use xlink:href="#me5529e3779" x="1135.886006" y="320.4" style="stroke: #000000; stroke-width: 0.8"/>
      </g>
     </g>
     <g id="text_52">
      <!-- 0.0 -->
      <g transform="translate(1127.934444 334.998438) scale(0.1 -0.1)">
       <use xlink:href="#DejaVuSans-30"/>
       <use xlink:href="#DejaVuSans-2e" x="63.623047"/>
       <use xlink:href="#DejaVuSans-30" x="95.410156"/>
      </g>
     </g>
    </g>
    <g id="xtick_20">
     <g id="line2d_44">
      <g>
       <use xlink:href="#me5529e3779" x="1190.122093" y="320.4" style="stroke: #000000; stroke-width: 0.8"/>
      </g>
     </g>
     <g id="text_53">
      <!-- 0.5 -->
      <g transform="translate(1182.170531 334.998438) scale(0.1 -0.1)">
       <use xlink:href="#DejaVuSans-30"/>
       <use xlink:href="#DejaVuSans-2e" x="63.623047"/>
       <use xlink:href="#DejaVuSans-35" x="95.410156"/>
      </g>
     </g>
    </g>
    <g id="xtick_21">
     <g id="line2d_45">
      <g>
       <use xlink:href="#me5529e3779" x="1244.358181" y="320.4" style="stroke: #000000; stroke-width: 0.8"/>
      </g>
     </g>
     <g id="text_54">
      <!-- 1.0 -->
      <g transform="translate(1236.406618 334.998438) scale(0.1 -0.1)">
       <use xlink:href="#DejaVuSans-31"/>
       <use xlink:href="#DejaVuSans-2e" x="63.623047"/>
       <use xlink:href="#DejaVuSans-30" x="95.410156"/>
      </g>
     </g>
    </g>
    <g id="text_55">
     <!-- Temperatura [°C] -->
     <g transform="translate(1105.493152 353.235625) scale(0.16 -0.16)">
      <use xlink:href="#DejaVuSans-54"/>
      <use xlink:href="#DejaVuSans-65" x="44.083984"/>
      <use xlink:href="#DejaVuSans-6d" x="105.607422"/>
      <use xlink:href="#DejaVuSans-70" x="203.019531"/>
      <use xlink:href="#DejaVuSans-65" x="266.496094"/>
      <use xlink:href="#DejaVuSans-72" x="328.019531"/>
      <use xlink:href="#DejaVuSans-61" x="369.132812"/>
      <use xlink:href="#DejaVuSans-74" x="430.412109"/>
      <use xlink:href="#DejaVuSans-75" x="469.621094"/>
      <use xlink:href="#DejaVuSans-72" x="533"/>
      <use xlink:href="#DejaVuSans-61" x="574.113281"/>
      <use xlink:href="#DejaVuSans-20" x="635.392578"/>
      <use xlink:href="#DejaVuSans-5b" x="667.179688"/>
      <use xlink:href="#DejaVuSans-b0" x="706.193359"/>
      <use xlink:href="#DejaVuSans-43" x="756.193359"/>
      <use xlink:href="#DejaVuSans-5d" x="826.017578"/>
     </g>
    </g>
   </g>
   <g id="matplotlib.axis_8">
    <g id="ytick_25">
     <g id="line2d_46">
      <g>
       <use xlink:href="#m3054fe0180" x="1053.391304" y="320.4" style="stroke: #000000; stroke-width: 0.8"/>
      </g>
     </g>
     <g id="text_56">
      <!-- 0.0 -->
      <g transform="translate(1030.488179 324.199219) scale(0.1 -0.1)">
       <use xlink:href="#DejaVuSans-30"/>
       <use xlink:href="#DejaVuSans-2e" x="63.623047"/>
       <use xlink:href="#DejaVuSans-30" x="95.410156"/>
      </g>
     </g>
    </g>
    <g id="ytick_26">
     <g id="line2d_47">
      <g>
       <use xlink:href="#m3054fe0180" x="1053.391304" y="288.971429" style="stroke: #000000; stroke-width: 0.8"/>
      </g>
     </g>
     <g id="text_57">
      <!-- 2.5 -->
      <g transform="translate(1030.488179 292.770647) scale(0.1 -0.1)">
       <use xlink:href="#DejaVuSans-32"/>
       <use xlink:href="#DejaVuSans-2e" x="63.623047"/>
       <use xlink:href="#DejaVuSans-35" x="95.410156"/>
      </g>
     </g>
    </g>
    <g id="ytick_27">
     <g id="line2d_48">
      <g>
       <use xlink:href="#m3054fe0180" x="1053.391304" y="257.542857" style="stroke: #000000; stroke-width: 0.8"/>
      </g>
     </g>
     <g id="text_58">
      <!-- 5.0 -->
      <g transform="translate(1030.488179 261.342076) scale(0.1 -0.1)">
       <use xlink:href="#DejaVuSans-35"/>
       <use xlink:href="#DejaVuSans-2e" x="63.623047"/>
       <use xlink:href="#DejaVuSans-30" x="95.410156"/>
      </g>
     </g>
    </g>
    <g id="ytick_28">
     <g id="line2d_49">
      <g>
       <use xlink:href="#m3054fe0180" x="1053.391304" y="226.114286" style="stroke: #000000; stroke-width: 0.8"/>
      </g>
     </g>
     <g id="text_59">
      <!-- 7.5 -->
      <g transform="translate(1030.488179 229.913504) scale(0.1 -0.1)">
       <use xlink:href="#DejaVuSans-37"/>
       <use xlink:href="#DejaVuSans-2e" x="63.623047"/>
       <use xlink:href="#DejaVuSans-35" x="95.410156"/>
      </g>
     </g>
    </g>
    <g id="ytick_29">
     <g id="line2d_50">
      <g>
       <use xlink:href="#m3054fe0180" x="1053.391304" y="194.685714" style="stroke: #000000; stroke-width: 0.8"/>
      </g>
     </g>
     <g id="text_60">
      <!-- 10.0 -->
      <g transform="translate(1024.125679 198.484933) scale(0.1 -0.1)">
       <use xlink:href="#DejaVuSans-31"/>
       <use xlink:href="#DejaVuSans-30" x="63.623047"/>
       <use xlink:href="#DejaVuSans-2e" x="127.246094"/>
       <use xlink:href="#DejaVuSans-30" x="159.033203"/>
      </g>
     </g>
    </g>
    <g id="ytick_30">
     <g id="line2d_51">
      <g>
       <use xlink:href="#m3054fe0180" x="1053.391304" y="163.257143" style="stroke: #000000; stroke-width: 0.8"/>
      </g>
     </g>
     <g id="text_61">
      <!-- 12.5 -->
      <g transform="translate(1024.125679 167.056362) scale(0.1 -0.1)">
       <use xlink:href="#DejaVuSans-31"/>
       <use xlink:href="#DejaVuSans-32" x="63.623047"/>
       <use xlink:href="#DejaVuSans-2e" x="127.246094"/>
       <use xlink:href="#DejaVuSans-35" x="159.033203"/>
      </g>
     </g>
    </g>
    <g id="ytick_31">
     <g id="line2d_52">
      <g>
       <use xlink:href="#m3054fe0180" x="1053.391304" y="131.828571" style="stroke: #000000; stroke-width: 0.8"/>
      </g>
     </g>
     <g id="text_62">
      <!-- 15.0 -->
      <g transform="translate(1024.125679 135.62779) scale(0.1 -0.1)">
       <use xlink:href="#DejaVuSans-31"/>
       <use xlink:href="#DejaVuSans-35" x="63.623047"/>
       <use xlink:href="#DejaVuSans-2e" x="127.246094"/>
       <use xlink:href="#DejaVuSans-30" x="159.033203"/>
      </g>
     </g>
    </g>
    <g id="ytick_32">
     <g id="line2d_53">
      <g>
       <use xlink:href="#m3054fe0180" x="1053.391304" y="100.4" style="stroke: #000000; stroke-width: 0.8"/>
      </g>
     </g>
     <g id="text_63">
      <!-- 17.5 -->
      <g transform="translate(1024.125679 104.199219) scale(0.1 -0.1)">
       <use xlink:href="#DejaVuSans-31"/>
       <use xlink:href="#DejaVuSans-37" x="63.623047"/>
       <use xlink:href="#DejaVuSans-2e" x="127.246094"/>
       <use xlink:href="#DejaVuSans-35" x="159.033203"/>
      </g>
     </g>
    </g>
    <g id="ytick_33">
     <g id="line2d_54">
      <g>
       <use xlink:href="#m3054fe0180" x="1053.391304" y="68.971429" style="stroke: #000000; stroke-width: 0.8"/>
      </g>
     </g>
     <g id="text_64">
      <!-- 20.0 -->
      <g transform="translate(1024.125679 72.770647) scale(0.1 -0.1)">
       <use xlink:href="#DejaVuSans-32"/>
       <use xlink:href="#DejaVuSans-30" x="63.623047"/>
       <use xlink:href="#DejaVuSans-2e" x="127.246094"/>
       <use xlink:href="#DejaVuSans-30" x="159.033203"/>
      </g>
     </g>
    </g>
   </g>
   <g id="patch_257">
    <path d="M 1053.391304 320.4 
L 1053.391304 43.2 
" style="fill: none; stroke: #000000; stroke-width: 0.8; stroke-linejoin: miter; stroke-linecap: square"/>
   </g>
   <g id="patch_258">
    <path d="M 1296 320.4 
L 1296 43.2 
" style="fill: none; stroke: #000000; stroke-width: 0.8; stroke-linejoin: miter; stroke-linecap: square"/>
   </g>
   <g id="patch_259">
    <path d="M 1053.391304 320.4 
L 1296 320.4 
" style="fill: none; stroke: #000000; stroke-width: 0.8; stroke-linejoin: miter; stroke-linecap: square"/>
   </g>
   <g id="patch_260">
    <path d="M 1053.391304 43.2 
L 1296 43.2 
" style="fill: none; stroke: #000000; stroke-width: 0.8; stroke-linejoin: miter; stroke-linecap: square"/>
   </g>
   <g id="legend_4">
    <g id="patch_261">
     <path d="M 1131.9375 102.97 
L 1284.8 102.97 
Q 1288 102.97 1288 99.77 
L 1288 54.4 
Q 1288 51.2 1284.8 51.2 
L 1131.9375 51.2 
Q 1128.7375 51.2 1128.7375 54.4 
L 1128.7375 99.77 
Q 1128.7375 102.97 1131.9375 102.97 
z
" style="fill: #ffffff; opacity: 0.8; stroke: #cccccc; stroke-linejoin: miter"/>
    </g>
    <g id="patch_262">
     <path d="M 1135.1375 69.7575 
L 1167.1375 69.7575 
L 1167.1375 58.5575 
L 1135.1375 58.5575 
z
" style="fill: #c0c0c0"/>
    </g>
    <g id="text_65">
     <!-- Gauss -->
     <g transform="translate(1179.9375 69.7575) scale(0.16 -0.16)">
      <use xlink:href="#DejaVuSans-47"/>
      <use xlink:href="#DejaVuSans-61" x="77.490234"/>
      <use xlink:href="#DejaVuSans-75" x="138.769531"/>
      <use xlink:href="#DejaVuSans-73" x="202.148438"/>
      <use xlink:href="#DejaVuSans-73" x="254.248047"/>
     </g>
    </g>
    <g id="patch_263">
     <path d="M 1135.1375 93.2425 
L 1167.1375 93.2425 
L 1167.1375 82.0425 
L 1135.1375 82.0425 
z
" style="fill: #660066"/>
    </g>
    <g id="text_66">
     <!-- Temperatura -->
     <g transform="translate(1179.9375 93.2425) scale(0.16 -0.16)">
      <use xlink:href="#DejaVuSans-54"/>
      <use xlink:href="#DejaVuSans-65" x="44.083984"/>
      <use xlink:href="#DejaVuSans-6d" x="105.607422"/>
      <use xlink:href="#DejaVuSans-70" x="203.019531"/>
      <use xlink:href="#DejaVuSans-65" x="266.496094"/>
      <use xlink:href="#DejaVuSans-72" x="328.019531"/>
      <use xlink:href="#DejaVuSans-61" x="369.132812"/>
      <use xlink:href="#DejaVuSans-74" x="430.412109"/>
      <use xlink:href="#DejaVuSans-75" x="469.621094"/>
      <use xlink:href="#DejaVuSans-72" x="533"/>
      <use xlink:href="#DejaVuSans-61" x="574.113281"/>
     </g>
    </g>
   </g>
  </g>
 </g>
 <defs>
  <clipPath id="pa217d06189">
   <rect x="180" y="43.2" width="242.608696" height="277.2"/>
  </clipPath>
  <clipPath id="p8c15b26044">
   <rect x="471.130435" y="43.2" width="242.608696" height="277.2"/>
  </clipPath>
  <clipPath id="pa98a2301be">
   <rect x="762.26087" y="43.2" width="242.608696" height="277.2"/>
  </clipPath>
  <clipPath id="pe8cdab71c5">
   <rect x="1053.391304" y="43.2" width="242.608696" height="277.2"/>
  </clipPath>
 </defs>
</svg>
