<?xml version="1.0" encoding="utf-8" standalone="no"?>
<!DOCTYPE svg PUBLIC "-//W3C//DTD SVG 1.1//EN"
  "http://www.w3.org/Graphics/SVG/1.1/DTD/svg11.dtd">
<svg xmlns:xlink="http://www.w3.org/1999/xlink" width="460.8pt" height="345.6pt" viewBox="0 0 460.8 345.6" xmlns="http://www.w3.org/2000/svg" version="1.1">
 <metadata>
  <rdf:RDF xmlns:dc="http://purl.org/dc/elements/1.1/" xmlns:cc="http://creativecommons.org/ns#" xmlns:rdf="http://www.w3.org/1999/02/22-rdf-syntax-ns#">
   <cc:Work>
    <dc:type rdf:resource="http://purl.org/dc/dcmitype/StillImage"/>
    <dc:date>2023-06-06T01:37:13.858661</dc:date>
    <dc:format>image/svg+xml</dc:format>
    <dc:creator>
     <cc:Agent>
      <dc:title>Matplotlib v3.7.1, https://matplotlib.org/</dc:title>
     </cc:Agent>
    </dc:creator>
   </cc:Work>
  </rdf:RDF>
 </metadata>
 <defs>
  <style type="text/css">*{stroke-linejoin: round; stroke-linecap: butt}</style>
 </defs>
 <g id="figure_1">
  <g id="patch_1">
   <path d="M 0 345.6 
L 460.8 345.6 
L 460.8 0 
L 0 0 
z
" style="fill: #ffffff"/>
  </g>
  <g id="axes_1">
   <g id="patch_2">
    <path d="M 57.6 307.584 
L 414.72 307.584 
L 414.72 41.472 
L 57.6 41.472 
z
" style="fill: #ffffff"/>
   </g>
   <g id="matplotlib.axis_1">
    <g id="xtick_1">
     <g id="line2d_1">
      <defs>
       <path id="m9576e948e1" d="M 0 0 
L 0 3.5 
" style="stroke: #000000; stroke-width: 0.8"/>
      </defs>
      <g>
       <use xlink:href="#m9576e948e1" x="73.832727" y="307.584" style="stroke: #000000; stroke-width: 0.8"/>
      </g>
     </g>
     <g id="text_1">
      <!-- −1000 -->
      <g transform="translate(56.917884 322.182437) scale(0.1 -0.1)">
       <defs>
        <path id="DejaVuSans-2212" d="M 678 2272 
L 4684 2272 
L 4684 1741 
L 678 1741 
L 678 2272 
z
" transform="scale(0.015625)"/>
        <path id="DejaVuSans-31" d="M 794 531 
L 1825 531 
L 1825 4091 
L 703 3866 
L 703 4441 
L 1819 4666 
L 2450 4666 
L 2450 531 
L 3481 531 
L 3481 0 
L 794 0 
L 794 531 
z
" transform="scale(0.015625)"/>
        <path id="DejaVuSans-30" d="M 2034 4250 
Q 1547 4250 1301 3770 
Q 1056 3291 1056 2328 
Q 1056 1369 1301 889 
Q 1547 409 2034 409 
Q 2525 409 2770 889 
Q 3016 1369 3016 2328 
Q 3016 3291 2770 3770 
Q 2525 4250 2034 4250 
z
M 2034 4750 
Q 2819 4750 3233 4129 
Q 3647 3509 3647 2328 
Q 3647 1150 3233 529 
Q 2819 -91 2034 -91 
Q 1250 -91 836 529 
Q 422 1150 422 2328 
Q 422 3509 836 4129 
Q 1250 4750 2034 4750 
z
" transform="scale(0.015625)"/>
       </defs>
       <use xlink:href="#DejaVuSans-2212"/>
       <use xlink:href="#DejaVuSans-31" x="83.789062"/>
       <use xlink:href="#DejaVuSans-30" x="147.412109"/>
       <use xlink:href="#DejaVuSans-30" x="211.035156"/>
       <use xlink:href="#DejaVuSans-30" x="274.658203"/>
      </g>
     </g>
    </g>
    <g id="xtick_2">
     <g id="line2d_2">
      <g>
       <use xlink:href="#m9576e948e1" x="114.414545" y="307.584" style="stroke: #000000; stroke-width: 0.8"/>
      </g>
     </g>
     <g id="text_2">
      <!-- −750 -->
      <g transform="translate(100.680952 322.182437) scale(0.1 -0.1)">
       <defs>
        <path id="DejaVuSans-37" d="M 525 4666 
L 3525 4666 
L 3525 4397 
L 1831 0 
L 1172 0 
L 2766 4134 
L 525 4134 
L 525 4666 
z
" transform="scale(0.015625)"/>
        <path id="DejaVuSans-35" d="M 691 4666 
L 3169 4666 
L 3169 4134 
L 1269 4134 
L 1269 2991 
Q 1406 3038 1543 3061 
Q 1681 3084 1819 3084 
Q 2600 3084 3056 2656 
Q 3513 2228 3513 1497 
Q 3513 744 3044 326 
Q 2575 -91 1722 -91 
Q 1428 -91 1123 -41 
Q 819 9 494 109 
L 494 744 
Q 775 591 1075 516 
Q 1375 441 1709 441 
Q 2250 441 2565 725 
Q 2881 1009 2881 1497 
Q 2881 1984 2565 2268 
Q 2250 2553 1709 2553 
Q 1456 2553 1204 2497 
Q 953 2441 691 2322 
L 691 4666 
z
" transform="scale(0.015625)"/>
       </defs>
       <use xlink:href="#DejaVuSans-2212"/>
       <use xlink:href="#DejaVuSans-37" x="83.789062"/>
       <use xlink:href="#DejaVuSans-35" x="147.412109"/>
       <use xlink:href="#DejaVuSans-30" x="211.035156"/>
      </g>
     </g>
    </g>
    <g id="xtick_3">
     <g id="line2d_3">
      <g>
       <use xlink:href="#m9576e948e1" x="154.996364" y="307.584" style="stroke: #000000; stroke-width: 0.8"/>
      </g>
     </g>
     <g id="text_3">
      <!-- −500 -->
      <g transform="translate(141.26277 322.182437) scale(0.1 -0.1)">
       <use xlink:href="#DejaVuSans-2212"/>
       <use xlink:href="#DejaVuSans-35" x="83.789062"/>
       <use xlink:href="#DejaVuSans-30" x="147.412109"/>
       <use xlink:href="#DejaVuSans-30" x="211.035156"/>
      </g>
     </g>
    </g>
    <g id="xtick_4">
     <g id="line2d_4">
      <g>
       <use xlink:href="#m9576e948e1" x="195.578182" y="307.584" style="stroke: #000000; stroke-width: 0.8"/>
      </g>
     </g>
     <g id="text_4">
      <!-- −250 -->
      <g transform="translate(181.844588 322.182437) scale(0.1 -0.1)">
       <defs>
        <path id="DejaVuSans-32" d="M 1228 531 
L 3431 531 
L 3431 0 
L 469 0 
L 469 531 
Q 828 903 1448 1529 
Q 2069 2156 2228 2338 
Q 2531 2678 2651 2914 
Q 2772 3150 2772 3378 
Q 2772 3750 2511 3984 
Q 2250 4219 1831 4219 
Q 1534 4219 1204 4116 
Q 875 4013 500 3803 
L 500 4441 
Q 881 4594 1212 4672 
Q 1544 4750 1819 4750 
Q 2544 4750 2975 4387 
Q 3406 4025 3406 3419 
Q 3406 3131 3298 2873 
Q 3191 2616 2906 2266 
Q 2828 2175 2409 1742 
Q 1991 1309 1228 531 
z
" transform="scale(0.015625)"/>
       </defs>
       <use xlink:href="#DejaVuSans-2212"/>
       <use xlink:href="#DejaVuSans-32" x="83.789062"/>
       <use xlink:href="#DejaVuSans-35" x="147.412109"/>
       <use xlink:href="#DejaVuSans-30" x="211.035156"/>
      </g>
     </g>
    </g>
    <g id="xtick_5">
     <g id="line2d_5">
      <g>
       <use xlink:href="#m9576e948e1" x="236.16" y="307.584" style="stroke: #000000; stroke-width: 0.8"/>
      </g>
     </g>
     <g id="text_5">
      <!-- 0 -->
      <g transform="translate(232.97875 322.182437) scale(0.1 -0.1)">
       <use xlink:href="#DejaVuSans-30"/>
      </g>
     </g>
    </g>
    <g id="xtick_6">
     <g id="line2d_6">
      <g>
       <use xlink:href="#m9576e948e1" x="276.741818" y="307.584" style="stroke: #000000; stroke-width: 0.8"/>
      </g>
     </g>
     <g id="text_6">
      <!-- 250 -->
      <g transform="translate(267.198068 322.182437) scale(0.1 -0.1)">
       <use xlink:href="#DejaVuSans-32"/>
       <use xlink:href="#DejaVuSans-35" x="63.623047"/>
       <use xlink:href="#DejaVuSans-30" x="127.246094"/>
      </g>
     </g>
    </g>
    <g id="xtick_7">
     <g id="line2d_7">
      <g>
       <use xlink:href="#m9576e948e1" x="317.323636" y="307.584" style="stroke: #000000; stroke-width: 0.8"/>
      </g>
     </g>
     <g id="text_7">
      <!-- 500 -->
      <g transform="translate(307.779886 322.182437) scale(0.1 -0.1)">
       <use xlink:href="#DejaVuSans-35"/>
       <use xlink:href="#DejaVuSans-30" x="63.623047"/>
       <use xlink:href="#DejaVuSans-30" x="127.246094"/>
      </g>
     </g>
    </g>
    <g id="xtick_8">
     <g id="line2d_8">
      <g>
       <use xlink:href="#m9576e948e1" x="357.905455" y="307.584" style="stroke: #000000; stroke-width: 0.8"/>
      </g>
     </g>
     <g id="text_8">
      <!-- 750 -->
      <g transform="translate(348.361705 322.182437) scale(0.1 -0.1)">
       <use xlink:href="#DejaVuSans-37"/>
       <use xlink:href="#DejaVuSans-35" x="63.623047"/>
       <use xlink:href="#DejaVuSans-30" x="127.246094"/>
      </g>
     </g>
    </g>
    <g id="xtick_9">
     <g id="line2d_9">
      <g>
       <use xlink:href="#m9576e948e1" x="398.487273" y="307.584" style="stroke: #000000; stroke-width: 0.8"/>
      </g>
     </g>
     <g id="text_9">
      <!-- 1000 -->
      <g transform="translate(385.762273 322.182437) scale(0.1 -0.1)">
       <use xlink:href="#DejaVuSans-31"/>
       <use xlink:href="#DejaVuSans-30" x="63.623047"/>
       <use xlink:href="#DejaVuSans-30" x="127.246094"/>
       <use xlink:href="#DejaVuSans-30" x="190.869141"/>
      </g>
     </g>
    </g>
    <g id="text_10">
     <!-- lag temporali -->
     <g transform="translate(182.9525 340.419625) scale(0.16 -0.16)">
      <defs>
       <path id="DejaVuSans-6c" d="M 603 4863 
L 1178 4863 
L 1178 0 
L 603 0 
L 603 4863 
z
" transform="scale(0.015625)"/>
       <path id="DejaVuSans-61" d="M 2194 1759 
Q 1497 1759 1228 1600 
Q 959 1441 959 1056 
Q 959 750 1161 570 
Q 1363 391 1709 391 
Q 2188 391 2477 730 
Q 2766 1069 2766 1631 
L 2766 1759 
L 2194 1759 
z
M 3341 1997 
L 3341 0 
L 2766 0 
L 2766 531 
Q 2569 213 2275 61 
Q 1981 -91 1556 -91 
Q 1019 -91 701 211 
Q 384 513 384 1019 
Q 384 1609 779 1909 
Q 1175 2209 1959 2209 
L 2766 2209 
L 2766 2266 
Q 2766 2663 2505 2880 
Q 2244 3097 1772 3097 
Q 1472 3097 1187 3025 
Q 903 2953 641 2809 
L 641 3341 
Q 956 3463 1253 3523 
Q 1550 3584 1831 3584 
Q 2591 3584 2966 3190 
Q 3341 2797 3341 1997 
z
" transform="scale(0.015625)"/>
       <path id="DejaVuSans-67" d="M 2906 1791 
Q 2906 2416 2648 2759 
Q 2391 3103 1925 3103 
Q 1463 3103 1205 2759 
Q 947 2416 947 1791 
Q 947 1169 1205 825 
Q 1463 481 1925 481 
Q 2391 481 2648 825 
Q 2906 1169 2906 1791 
z
M 3481 434 
Q 3481 -459 3084 -895 
Q 2688 -1331 1869 -1331 
Q 1566 -1331 1297 -1286 
Q 1028 -1241 775 -1147 
L 775 -588 
Q 1028 -725 1275 -790 
Q 1522 -856 1778 -856 
Q 2344 -856 2625 -561 
Q 2906 -266 2906 331 
L 2906 616 
Q 2728 306 2450 153 
Q 2172 0 1784 0 
Q 1141 0 747 490 
Q 353 981 353 1791 
Q 353 2603 747 3093 
Q 1141 3584 1784 3584 
Q 2172 3584 2450 3431 
Q 2728 3278 2906 2969 
L 2906 3500 
L 3481 3500 
L 3481 434 
z
" transform="scale(0.015625)"/>
       <path id="DejaVuSans-20" transform="scale(0.015625)"/>
       <path id="DejaVuSans-74" d="M 1172 4494 
L 1172 3500 
L 2356 3500 
L 2356 3053 
L 1172 3053 
L 1172 1153 
Q 1172 725 1289 603 
Q 1406 481 1766 481 
L 2356 481 
L 2356 0 
L 1766 0 
Q 1100 0 847 248 
Q 594 497 594 1153 
L 594 3053 
L 172 3053 
L 172 3500 
L 594 3500 
L 594 4494 
L 1172 4494 
z
" transform="scale(0.015625)"/>
       <path id="DejaVuSans-65" d="M 3597 1894 
L 3597 1613 
L 953 1613 
Q 991 1019 1311 708 
Q 1631 397 2203 397 
Q 2534 397 2845 478 
Q 3156 559 3463 722 
L 3463 178 
Q 3153 47 2828 -22 
Q 2503 -91 2169 -91 
Q 1331 -91 842 396 
Q 353 884 353 1716 
Q 353 2575 817 3079 
Q 1281 3584 2069 3584 
Q 2775 3584 3186 3129 
Q 3597 2675 3597 1894 
z
M 3022 2063 
Q 3016 2534 2758 2815 
Q 2500 3097 2075 3097 
Q 1594 3097 1305 2825 
Q 1016 2553 972 2059 
L 3022 2063 
z
" transform="scale(0.015625)"/>
       <path id="DejaVuSans-6d" d="M 3328 2828 
Q 3544 3216 3844 3400 
Q 4144 3584 4550 3584 
Q 5097 3584 5394 3201 
Q 5691 2819 5691 2113 
L 5691 0 
L 5113 0 
L 5113 2094 
Q 5113 2597 4934 2840 
Q 4756 3084 4391 3084 
Q 3944 3084 3684 2787 
Q 3425 2491 3425 1978 
L 3425 0 
L 2847 0 
L 2847 2094 
Q 2847 2600 2669 2842 
Q 2491 3084 2119 3084 
Q 1678 3084 1418 2786 
Q 1159 2488 1159 1978 
L 1159 0 
L 581 0 
L 581 3500 
L 1159 3500 
L 1159 2956 
Q 1356 3278 1631 3431 
Q 1906 3584 2284 3584 
Q 2666 3584 2933 3390 
Q 3200 3197 3328 2828 
z
" transform="scale(0.015625)"/>
       <path id="DejaVuSans-70" d="M 1159 525 
L 1159 -1331 
L 581 -1331 
L 581 3500 
L 1159 3500 
L 1159 2969 
Q 1341 3281 1617 3432 
Q 1894 3584 2278 3584 
Q 2916 3584 3314 3078 
Q 3713 2572 3713 1747 
Q 3713 922 3314 415 
Q 2916 -91 2278 -91 
Q 1894 -91 1617 61 
Q 1341 213 1159 525 
z
M 3116 1747 
Q 3116 2381 2855 2742 
Q 2594 3103 2138 3103 
Q 1681 3103 1420 2742 
Q 1159 2381 1159 1747 
Q 1159 1113 1420 752 
Q 1681 391 2138 391 
Q 2594 391 2855 752 
Q 3116 1113 3116 1747 
z
" transform="scale(0.015625)"/>
       <path id="DejaVuSans-6f" d="M 1959 3097 
Q 1497 3097 1228 2736 
Q 959 2375 959 1747 
Q 959 1119 1226 758 
Q 1494 397 1959 397 
Q 2419 397 2687 759 
Q 2956 1122 2956 1747 
Q 2956 2369 2687 2733 
Q 2419 3097 1959 3097 
z
M 1959 3584 
Q 2709 3584 3137 3096 
Q 3566 2609 3566 1747 
Q 3566 888 3137 398 
Q 2709 -91 1959 -91 
Q 1206 -91 779 398 
Q 353 888 353 1747 
Q 353 2609 779 3096 
Q 1206 3584 1959 3584 
z
" transform="scale(0.015625)"/>
       <path id="DejaVuSans-72" d="M 2631 2963 
Q 2534 3019 2420 3045 
Q 2306 3072 2169 3072 
Q 1681 3072 1420 2755 
Q 1159 2438 1159 1844 
L 1159 0 
L 581 0 
L 581 3500 
L 1159 3500 
L 1159 2956 
Q 1341 3275 1631 3429 
Q 1922 3584 2338 3584 
Q 2397 3584 2469 3576 
Q 2541 3569 2628 3553 
L 2631 2963 
z
" transform="scale(0.015625)"/>
       <path id="DejaVuSans-69" d="M 603 3500 
L 1178 3500 
L 1178 0 
L 603 0 
L 603 3500 
z
M 603 4863 
L 1178 4863 
L 1178 4134 
L 603 4134 
L 603 4863 
z
" transform="scale(0.015625)"/>
      </defs>
      <use xlink:href="#DejaVuSans-6c"/>
      <use xlink:href="#DejaVuSans-61" x="27.783203"/>
      <use xlink:href="#DejaVuSans-67" x="89.0625"/>
      <use xlink:href="#DejaVuSans-20" x="152.539062"/>
      <use xlink:href="#DejaVuSans-74" x="184.326172"/>
      <use xlink:href="#DejaVuSans-65" x="223.535156"/>
      <use xlink:href="#DejaVuSans-6d" x="285.058594"/>
      <use xlink:href="#DejaVuSans-70" x="382.470703"/>
      <use xlink:href="#DejaVuSans-6f" x="445.947266"/>
      <use xlink:href="#DejaVuSans-72" x="507.128906"/>
      <use xlink:href="#DejaVuSans-61" x="548.242188"/>
      <use xlink:href="#DejaVuSans-6c" x="609.521484"/>
      <use xlink:href="#DejaVuSans-69" x="637.304688"/>
     </g>
    </g>
   </g>
   <g id="matplotlib.axis_2">
    <g id="ytick_1">
     <g id="line2d_10">
      <defs>
       <path id="m2b531b81a2" d="M 0 0 
L -3.5 0 
" style="stroke: #000000; stroke-width: 0.8"/>
      </defs>
      <g>
       <use xlink:href="#m2b531b81a2" x="57.6" y="295.488" style="stroke: #000000; stroke-width: 0.8"/>
      </g>
     </g>
     <g id="text_11">
      <!-- −1.00 -->
      <g transform="translate(19.954687 299.287219) scale(0.1 -0.1)">
       <defs>
        <path id="DejaVuSans-2e" d="M 684 794 
L 1344 794 
L 1344 0 
L 684 0 
L 684 794 
z
" transform="scale(0.015625)"/>
       </defs>
       <use xlink:href="#DejaVuSans-2212"/>
       <use xlink:href="#DejaVuSans-31" x="83.789062"/>
       <use xlink:href="#DejaVuSans-2e" x="147.412109"/>
       <use xlink:href="#DejaVuSans-30" x="179.199219"/>
       <use xlink:href="#DejaVuSans-30" x="242.822266"/>
      </g>
     </g>
    </g>
    <g id="ytick_2">
     <g id="line2d_11">
      <g>
       <use xlink:href="#m2b531b81a2" x="57.6" y="265.248" style="stroke: #000000; stroke-width: 0.8"/>
      </g>
     </g>
     <g id="text_12">
      <!-- −0.75 -->
      <g transform="translate(19.954687 269.047219) scale(0.1 -0.1)">
       <use xlink:href="#DejaVuSans-2212"/>
       <use xlink:href="#DejaVuSans-30" x="83.789062"/>
       <use xlink:href="#DejaVuSans-2e" x="147.412109"/>
       <use xlink:href="#DejaVuSans-37" x="179.199219"/>
       <use xlink:href="#DejaVuSans-35" x="242.822266"/>
      </g>
     </g>
    </g>
    <g id="ytick_3">
     <g id="line2d_12">
      <g>
       <use xlink:href="#m2b531b81a2" x="57.6" y="235.008" style="stroke: #000000; stroke-width: 0.8"/>
      </g>
     </g>
     <g id="text_13">
      <!-- −0.50 -->
      <g transform="translate(19.954687 238.807219) scale(0.1 -0.1)">
       <use xlink:href="#DejaVuSans-2212"/>
       <use xlink:href="#DejaVuSans-30" x="83.789062"/>
       <use xlink:href="#DejaVuSans-2e" x="147.412109"/>
       <use xlink:href="#DejaVuSans-35" x="179.199219"/>
       <use xlink:href="#DejaVuSans-30" x="242.822266"/>
      </g>
     </g>
    </g>
    <g id="ytick_4">
     <g id="line2d_13">
      <g>
       <use xlink:href="#m2b531b81a2" x="57.6" y="204.768" style="stroke: #000000; stroke-width: 0.8"/>
      </g>
     </g>
     <g id="text_14">
      <!-- −0.25 -->
      <g transform="translate(19.954687 208.567219) scale(0.1 -0.1)">
       <use xlink:href="#DejaVuSans-2212"/>
       <use xlink:href="#DejaVuSans-30" x="83.789062"/>
       <use xlink:href="#DejaVuSans-2e" x="147.412109"/>
       <use xlink:href="#DejaVuSans-32" x="179.199219"/>
       <use xlink:href="#DejaVuSans-35" x="242.822266"/>
      </g>
     </g>
    </g>
    <g id="ytick_5">
     <g id="line2d_14">
      <g>
       <use xlink:href="#m2b531b81a2" x="57.6" y="174.528" style="stroke: #000000; stroke-width: 0.8"/>
      </g>
     </g>
     <g id="text_15">
      <!-- 0.00 -->
      <g transform="translate(28.334375 178.327219) scale(0.1 -0.1)">
       <use xlink:href="#DejaVuSans-30"/>
       <use xlink:href="#DejaVuSans-2e" x="63.623047"/>
       <use xlink:href="#DejaVuSans-30" x="95.410156"/>
       <use xlink:href="#DejaVuSans-30" x="159.033203"/>
      </g>
     </g>
    </g>
    <g id="ytick_6">
     <g id="line2d_15">
      <g>
       <use xlink:href="#m2b531b81a2" x="57.6" y="144.288" style="stroke: #000000; stroke-width: 0.8"/>
      </g>
     </g>
     <g id="text_16">
      <!-- 0.25 -->
      <g transform="translate(28.334375 148.087219) scale(0.1 -0.1)">
       <use xlink:href="#DejaVuSans-30"/>
       <use xlink:href="#DejaVuSans-2e" x="63.623047"/>
       <use xlink:href="#DejaVuSans-32" x="95.410156"/>
       <use xlink:href="#DejaVuSans-35" x="159.033203"/>
      </g>
     </g>
    </g>
    <g id="ytick_7">
     <g id="line2d_16">
      <g>
       <use xlink:href="#m2b531b81a2" x="57.6" y="114.048" style="stroke: #000000; stroke-width: 0.8"/>
      </g>
     </g>
     <g id="text_17">
      <!-- 0.50 -->
      <g transform="translate(28.334375 117.847219) scale(0.1 -0.1)">
       <use xlink:href="#DejaVuSans-30"/>
       <use xlink:href="#DejaVuSans-2e" x="63.623047"/>
       <use xlink:href="#DejaVuSans-35" x="95.410156"/>
       <use xlink:href="#DejaVuSans-30" x="159.033203"/>
      </g>
     </g>
    </g>
    <g id="ytick_8">
     <g id="line2d_17">
      <g>
       <use xlink:href="#m2b531b81a2" x="57.6" y="83.808" style="stroke: #000000; stroke-width: 0.8"/>
      </g>
     </g>
     <g id="text_18">
      <!-- 0.75 -->
      <g transform="translate(28.334375 87.607219) scale(0.1 -0.1)">
       <use xlink:href="#DejaVuSans-30"/>
       <use xlink:href="#DejaVuSans-2e" x="63.623047"/>
       <use xlink:href="#DejaVuSans-37" x="95.410156"/>
       <use xlink:href="#DejaVuSans-35" x="159.033203"/>
      </g>
     </g>
    </g>
    <g id="ytick_9">
     <g id="line2d_18">
      <g>
       <use xlink:href="#m2b531b81a2" x="57.6" y="53.568" style="stroke: #000000; stroke-width: 0.8"/>
      </g>
     </g>
     <g id="text_19">
      <!-- 1.00 -->
      <g transform="translate(28.334375 57.367219) scale(0.1 -0.1)">
       <use xlink:href="#DejaVuSans-31"/>
       <use xlink:href="#DejaVuSans-2e" x="63.623047"/>
       <use xlink:href="#DejaVuSans-30" x="95.410156"/>
       <use xlink:href="#DejaVuSans-30" x="159.033203"/>
      </g>
     </g>
    </g>
    <g id="text_20">
     <!-- lagged-cross-correlation -->
     <g transform="translate(12.627187 271.24425) rotate(-90) scale(0.16 -0.16)">
      <defs>
       <path id="DejaVuSans-64" d="M 2906 2969 
L 2906 4863 
L 3481 4863 
L 3481 0 
L 2906 0 
L 2906 525 
Q 2725 213 2448 61 
Q 2172 -91 1784 -91 
Q 1150 -91 751 415 
Q 353 922 353 1747 
Q 353 2572 751 3078 
Q 1150 3584 1784 3584 
Q 2172 3584 2448 3432 
Q 2725 3281 2906 2969 
z
M 947 1747 
Q 947 1113 1208 752 
Q 1469 391 1925 391 
Q 2381 391 2643 752 
Q 2906 1113 2906 1747 
Q 2906 2381 2643 2742 
Q 2381 3103 1925 3103 
Q 1469 3103 1208 2742 
Q 947 2381 947 1747 
z
" transform="scale(0.015625)"/>
       <path id="DejaVuSans-2d" d="M 313 2009 
L 1997 2009 
L 1997 1497 
L 313 1497 
L 313 2009 
z
" transform="scale(0.015625)"/>
       <path id="DejaVuSans-63" d="M 3122 3366 
L 3122 2828 
Q 2878 2963 2633 3030 
Q 2388 3097 2138 3097 
Q 1578 3097 1268 2742 
Q 959 2388 959 1747 
Q 959 1106 1268 751 
Q 1578 397 2138 397 
Q 2388 397 2633 464 
Q 2878 531 3122 666 
L 3122 134 
Q 2881 22 2623 -34 
Q 2366 -91 2075 -91 
Q 1284 -91 818 406 
Q 353 903 353 1747 
Q 353 2603 823 3093 
Q 1294 3584 2113 3584 
Q 2378 3584 2631 3529 
Q 2884 3475 3122 3366 
z
" transform="scale(0.015625)"/>
       <path id="DejaVuSans-73" d="M 2834 3397 
L 2834 2853 
Q 2591 2978 2328 3040 
Q 2066 3103 1784 3103 
Q 1356 3103 1142 2972 
Q 928 2841 928 2578 
Q 928 2378 1081 2264 
Q 1234 2150 1697 2047 
L 1894 2003 
Q 2506 1872 2764 1633 
Q 3022 1394 3022 966 
Q 3022 478 2636 193 
Q 2250 -91 1575 -91 
Q 1294 -91 989 -36 
Q 684 19 347 128 
L 347 722 
Q 666 556 975 473 
Q 1284 391 1588 391 
Q 1994 391 2212 530 
Q 2431 669 2431 922 
Q 2431 1156 2273 1281 
Q 2116 1406 1581 1522 
L 1381 1569 
Q 847 1681 609 1914 
Q 372 2147 372 2553 
Q 372 3047 722 3315 
Q 1072 3584 1716 3584 
Q 2034 3584 2315 3537 
Q 2597 3491 2834 3397 
z
" transform="scale(0.015625)"/>
       <path id="DejaVuSans-6e" d="M 3513 2113 
L 3513 0 
L 2938 0 
L 2938 2094 
Q 2938 2591 2744 2837 
Q 2550 3084 2163 3084 
Q 1697 3084 1428 2787 
Q 1159 2491 1159 1978 
L 1159 0 
L 581 0 
L 581 3500 
L 1159 3500 
L 1159 2956 
Q 1366 3272 1645 3428 
Q 1925 3584 2291 3584 
Q 2894 3584 3203 3211 
Q 3513 2838 3513 2113 
z
" transform="scale(0.015625)"/>
      </defs>
      <use xlink:href="#DejaVuSans-6c"/>
      <use xlink:href="#DejaVuSans-61" x="27.783203"/>
      <use xlink:href="#DejaVuSans-67" x="89.0625"/>
      <use xlink:href="#DejaVuSans-67" x="152.539062"/>
      <use xlink:href="#DejaVuSans-65" x="216.015625"/>
      <use xlink:href="#DejaVuSans-64" x="277.539062"/>
      <use xlink:href="#DejaVuSans-2d" x="341.015625"/>
      <use xlink:href="#DejaVuSans-63" x="377.099609"/>
      <use xlink:href="#DejaVuSans-72" x="432.080078"/>
      <use xlink:href="#DejaVuSans-6f" x="470.943359"/>
      <use xlink:href="#DejaVuSans-73" x="532.125"/>
      <use xlink:href="#DejaVuSans-73" x="584.224609"/>
      <use xlink:href="#DejaVuSans-2d" x="636.324219"/>
      <use xlink:href="#DejaVuSans-63" x="672.408203"/>
      <use xlink:href="#DejaVuSans-6f" x="727.388672"/>
      <use xlink:href="#DejaVuSans-72" x="788.570312"/>
      <use xlink:href="#DejaVuSans-72" x="827.933594"/>
      <use xlink:href="#DejaVuSans-65" x="866.796875"/>
      <use xlink:href="#DejaVuSans-6c" x="928.320312"/>
      <use xlink:href="#DejaVuSans-61" x="956.103516"/>
      <use xlink:href="#DejaVuSans-74" x="1017.382812"/>
      <use xlink:href="#DejaVuSans-69" x="1056.591797"/>
      <use xlink:href="#DejaVuSans-6f" x="1084.375"/>
      <use xlink:href="#DejaVuSans-6e" x="1145.556641"/>
     </g>
    </g>
   </g>
   <g id="line2d_19">
    <path d="M 73.832727 169.815169 
L 73.995055 171.631257 
L 74.157382 176.300202 
L 74.319709 172.567712 
L 74.482036 172.759958 
L 74.644364 177.695112 
L 74.806691 174.922022 
L 74.969018 169.787598 
L 75.131345 173.508361 
L 75.293673 171.466086 
L 75.456 173.547619 
L 75.618327 178.054622 
L 75.780655 176.98831 
L 75.942982 173.989529 
L 76.105309 175.849086 
L 76.267636 174.254209 
L 76.429964 177.616523 
L 76.592291 174.268742 
L 76.754618 178.512472 
L 76.916945 173.935772 
L 77.079273 173.870158 
L 77.2416 172.451217 
L 77.403927 177.401214 
L 77.566255 176.253721 
L 77.890909 172.567264 
L 78.377891 175.50963 
L 78.540218 176.444081 
L 78.864873 170.93803 
L 79.351855 176.688119 
L 79.514182 173.640978 
L 79.676509 176.166332 
L 79.838836 175.308337 
L 80.001164 173.752626 
L 80.163491 174.660829 
L 80.325818 173.99333 
L 80.650473 174.722491 
L 80.8128 172.749305 
L 80.975127 173.183089 
L 81.137455 171.344143 
L 81.299782 174.469678 
L 81.462109 174.684798 
L 81.624436 172.697824 
L 81.786764 173.337535 
L 82.111418 171.231607 
L 82.273745 176.097552 
L 82.436073 174.653767 
L 82.5984 176.268734 
L 82.760727 175.025294 
L 82.923055 176.117014 
L 83.085382 171.842851 
L 83.247709 175.826955 
L 83.410036 175.439786 
L 83.572364 176.684625 
L 83.734691 173.82846 
L 83.897018 176.395414 
L 84.059345 171.321797 
L 84.221673 175.482859 
L 84.384 173.170162 
L 84.546327 174.204292 
L 84.708655 169.760163 
L 85.033309 175.658685 
L 85.195636 174.739185 
L 85.357964 176.071523 
L 85.520291 170.421424 
L 85.682618 173.104491 
L 85.844945 172.209166 
L 86.007273 174.701878 
L 86.1696 175.201319 
L 86.331927 174.663753 
L 86.494255 177.843954 
L 86.656582 175.605044 
L 86.818909 176.541546 
L 86.981236 171.936924 
L 87.143564 173.816717 
L 87.305891 172.321375 
L 87.468218 172.806866 
L 87.630545 178.309024 
L 87.9552 172.768858 
L 88.117527 174.800419 
L 88.279855 171.146155 
L 88.442182 174.363651 
L 88.604509 174.498419 
L 88.929164 175.860053 
L 89.091491 173.470302 
L 89.253818 173.563079 
L 89.416145 172.165878 
L 89.7408 172.706372 
L 89.903127 172.548997 
L 90.065455 176.179286 
L 90.227782 175.146752 
L 90.390109 172.184172 
L 90.714764 175.18104 
L 91.039418 172.667977 
L 91.201745 174.714048 
L 91.364073 174.34515 
L 91.5264 176.137527 
L 91.688727 173.825641 
L 92.013382 177.301716 
L 92.175709 169.621811 
L 92.662691 178.382424 
L 92.825018 173.082797 
L 92.987345 173.402999 
L 93.149673 175.076204 
L 93.312 177.970985 
L 93.474327 172.9231 
L 93.636655 174.19707 
L 93.798982 173.677008 
L 93.961309 176.342894 
L 94.123636 175.180959 
L 94.285964 170.848464 
L 94.448291 172.566168 
L 94.772945 179.537862 
L 95.0976 174.491518 
L 95.259927 175.004349 
L 95.422255 174.311286 
L 95.584582 176.763359 
L 95.746909 171.760149 
L 95.909236 173.825728 
L 96.071564 173.271942 
L 96.233891 174.027139 
L 96.396218 173.28991 
L 96.720873 179.158138 
L 96.8832 171.542828 
L 97.045527 175.085167 
L 97.207855 175.566782 
L 97.370182 173.106354 
L 97.694836 175.933551 
L 97.857164 176.25576 
L 98.019491 177.415261 
L 98.181818 175.425507 
L 98.344145 176.992414 
L 98.506473 172.170598 
L 98.6688 172.62815 
L 98.831127 171.422504 
L 98.993455 174.960601 
L 99.155782 175.915855 
L 99.318109 174.683742 
L 99.480436 172.300079 
L 99.642764 177.027626 
L 99.805091 173.852119 
L 99.967418 175.743995 
L 100.129745 173.092017 
L 100.292073 173.017098 
L 100.4544 176.117194 
L 100.616727 176.543438 
L 100.779055 180.152477 
L 101.103709 173.340871 
L 101.266036 178.170137 
L 101.428364 170.493378 
L 101.590691 175.389993 
L 101.753018 173.469016 
L 101.915345 175.393756 
L 102.077673 172.606807 
L 102.24 172.89553 
L 102.402327 174.26511 
L 102.564655 174.157478 
L 102.726982 176.506361 
L 102.889309 173.133451 
L 103.051636 175.605682 
L 103.213964 175.345156 
L 103.538618 173.181802 
L 103.700945 177.58972 
L 103.863273 176.092722 
L 104.0256 177.575938 
L 104.350255 171.218677 
L 104.512582 174.705018 
L 104.674909 173.64635 
L 104.837236 171.056717 
L 105.161891 176.895792 
L 105.324218 174.767007 
L 105.486545 175.087865 
L 105.648873 176.540218 
L 105.8112 175.297592 
L 105.973527 172.479729 
L 106.135855 175.25284 
L 106.298182 174.931257 
L 106.460509 177.112903 
L 106.622836 170.993856 
L 106.785164 175.123866 
L 106.947491 172.203605 
L 107.109818 171.598054 
L 107.272145 173.850037 
L 107.434473 172.794094 
L 107.5968 174.97639 
L 107.759127 175.611997 
L 107.921455 172.880932 
L 108.083782 176.260418 
L 108.408436 174.212183 
L 108.570764 178.898108 
L 108.733091 175.413115 
L 108.895418 175.42993 
L 109.057745 176.909423 
L 109.3824 173.253536 
L 109.544727 173.659032 
L 109.707055 175.867014 
L 110.031709 172.967056 
L 110.194036 172.110591 
L 110.356364 174.505412 
L 110.518691 174.423714 
L 110.681018 176.566832 
L 110.843345 174.30936 
L 111.005673 174.179119 
L 111.168 174.705368 
L 111.330327 170.129139 
L 111.492655 174.404656 
L 111.654982 174.995622 
L 111.979636 177.561537 
L 112.304291 173.705425 
L 112.466618 171.329125 
L 112.628945 177.459012 
L 112.791273 176.942958 
L 112.9536 173.925675 
L 113.115927 176.929715 
L 113.278255 176.075607 
L 113.440582 172.329956 
L 113.602909 174.751554 
L 113.765236 170.969258 
L 113.927564 170.895585 
L 114.089891 176.85287 
L 114.252218 171.940685 
L 114.414545 175.55405 
L 114.576873 169.973055 
L 114.7392 177.434611 
L 114.901527 176.380219 
L 115.226182 172.780413 
L 115.388509 178.419773 
L 115.550836 175.338304 
L 115.713164 174.839313 
L 115.875491 171.769291 
L 116.037818 173.280759 
L 116.200145 172.356544 
L 116.362473 173.102364 
L 116.5248 175.800435 
L 116.687127 174.206889 
L 116.849455 171.195511 
L 117.174109 177.438908 
L 117.336436 171.049031 
L 117.498764 174.69132 
L 117.661091 173.942418 
L 117.985745 178.632285 
L 118.148073 174.399341 
L 118.3104 174.466247 
L 118.472727 171.139757 
L 118.635055 172.57687 
L 118.797382 172.464656 
L 118.959709 177.534526 
L 119.122036 175.602331 
L 119.284364 175.490864 
L 119.446691 175.148595 
L 119.609018 174.29124 
L 119.771345 172.816392 
L 119.933673 172.509454 
L 120.096 174.678108 
L 120.258327 171.103883 
L 120.582982 174.506977 
L 120.745309 173.600334 
L 121.069964 175.931357 
L 121.394618 174.539127 
L 121.556945 177.5983 
L 121.719273 174.824313 
L 121.8816 174.648638 
L 122.043927 177.040853 
L 122.206255 175.257289 
L 122.368582 174.96262 
L 122.530909 171.350698 
L 122.693236 171.539983 
L 123.017891 177.660064 
L 123.6672 172.19433 
L 123.829527 176.36489 
L 124.154182 173.393373 
L 124.316509 175.467993 
L 124.478836 172.670199 
L 124.641164 174.501999 
L 124.803491 172.048747 
L 124.965818 177.650405 
L 125.128145 175.927228 
L 125.4528 170.161412 
L 125.615127 172.976491 
L 125.777455 171.168353 
L 125.939782 175.767563 
L 126.102109 173.427842 
L 126.264436 175.214916 
L 126.426764 172.355061 
L 126.589091 175.060784 
L 126.751418 170.56423 
L 126.913745 176.99475 
L 127.076073 171.695756 
L 127.400727 173.933963 
L 127.563055 177.403621 
L 127.887709 171.428036 
L 128.050036 174.61476 
L 128.212364 174.02484 
L 128.699345 177.475784 
L 129.024 169.19674 
L 129.186327 173.958857 
L 129.348655 171.483562 
L 129.510982 176.279293 
L 129.673309 177.190401 
L 129.835636 173.980409 
L 130.322618 176.759476 
L 130.484945 174.216171 
L 130.647273 173.485746 
L 130.8096 174.48198 
L 130.971927 171.085928 
L 131.134255 174.595838 
L 131.296582 174.745886 
L 131.458909 174.495582 
L 131.945891 175.144457 
L 132.270545 173.585341 
L 132.432873 179.970665 
L 132.5952 170.189719 
L 132.757527 170.88299 
L 132.919855 176.112505 
L 133.082182 176.023577 
L 133.569164 171.645883 
L 133.731491 175.390333 
L 134.056145 170.455912 
L 134.3808 174.424167 
L 134.543127 173.721439 
L 134.705455 176.85363 
L 134.867782 176.933645 
L 135.192436 173.270427 
L 135.354764 174.042743 
L 135.517091 172.550556 
L 136.004073 177.968005 
L 136.1664 178.044827 
L 136.328727 177.019144 
L 136.491055 174.044456 
L 136.653382 177.898613 
L 136.815709 171.370765 
L 137.140364 176.782996 
L 137.465018 171.741923 
L 137.789673 177.584558 
L 137.952 176.53533 
L 138.114327 171.669599 
L 138.276655 171.933144 
L 138.438982 172.512669 
L 138.763636 178.770008 
L 138.925964 176.020254 
L 139.088291 175.566506 
L 139.250618 177.270496 
L 139.412945 175.586372 
L 139.575273 172.309783 
L 139.7376 175.191027 
L 139.899927 174.026149 
L 140.062255 177.260989 
L 140.224582 176.099526 
L 140.386909 173.929302 
L 140.549236 174.30388 
L 140.711564 177.319626 
L 141.036218 171.643247 
L 141.198545 173.313664 
L 141.360873 170.107819 
L 141.5232 174.166064 
L 142.010182 173.325639 
L 142.334836 177.997446 
L 142.497164 174.697085 
L 142.659491 173.81523 
L 142.821818 173.620628 
L 142.984145 173.931361 
L 143.146473 176.002147 
L 143.471127 170.805542 
L 143.795782 177.517218 
L 143.958109 173.827643 
L 144.120436 173.558099 
L 144.282764 177.168442 
L 144.607418 169.967408 
L 144.769745 175.349839 
L 144.932073 172.497692 
L 145.256727 176.473878 
L 145.419055 174.145541 
L 145.581382 175.321397 
L 145.743709 174.991515 
L 145.906036 176.881794 
L 146.068364 173.194984 
L 146.230691 175.118027 
L 146.393018 172.763818 
L 146.717673 176.614501 
L 146.88 172.578224 
L 147.204655 175.244657 
L 147.529309 171.222291 
L 147.691636 175.692341 
L 147.853964 174.805571 
L 148.016291 176.883687 
L 148.178618 173.353767 
L 148.340945 178.458191 
L 148.503273 178.166864 
L 148.6656 173.203097 
L 148.827927 173.294484 
L 148.990255 174.41246 
L 149.152582 173.363171 
L 149.314909 175.091174 
L 149.477236 172.419521 
L 149.639564 176.708839 
L 149.801891 171.559141 
L 150.4512 175.0967 
L 150.613527 175.658062 
L 150.775855 174.424562 
L 150.938182 169.421548 
L 151.262836 177.863157 
L 151.425164 172.730342 
L 151.749818 173.323095 
L 151.912145 176.24382 
L 152.2368 173.282591 
L 152.561455 176.386252 
L 152.723782 171.783703 
L 152.886109 173.44276 
L 153.048436 173.386426 
L 153.210764 171.528367 
L 153.373091 175.85583 
L 153.535418 175.049753 
L 153.697745 175.271155 
L 153.860073 173.531194 
L 154.0224 174.059499 
L 154.184727 177.07919 
L 154.347055 177.753552 
L 154.509382 172.641504 
L 154.671709 177.370739 
L 154.834036 175.359734 
L 154.996364 171.73485 
L 155.158691 174.323722 
L 155.321018 171.349053 
L 155.483345 173.60034 
L 155.645673 172.927312 
L 155.808 175.209099 
L 155.970327 174.214918 
L 156.132655 175.52016 
L 156.294982 173.343772 
L 156.457309 173.804218 
L 156.619636 175.451596 
L 156.781964 175.611028 
L 156.944291 175.171186 
L 157.106618 177.411911 
L 157.431273 173.6026 
L 157.5936 174.920944 
L 157.755927 172.013259 
L 157.918255 175.781474 
L 158.080582 173.845261 
L 158.242909 173.368266 
L 158.405236 172.020396 
L 158.567564 171.962769 
L 158.729891 174.257482 
L 158.892218 172.831323 
L 159.054545 175.016739 
L 159.216873 174.61842 
L 159.3792 170.048153 
L 159.541527 174.90911 
L 159.703855 172.879765 
L 159.866182 177.568624 
L 160.028509 174.790145 
L 160.190836 175.672233 
L 160.353164 170.623634 
L 160.515491 175.689877 
L 160.840145 170.226012 
L 161.002473 176.38728 
L 161.1648 173.250837 
L 161.327127 175.780261 
L 161.489455 174.174355 
L 161.651782 175.65198 
L 161.814109 174.838009 
L 161.976436 172.695001 
L 162.138764 179.076658 
L 162.301091 173.868143 
L 162.463418 177.728996 
L 162.625745 171.787783 
L 162.788073 171.374244 
L 163.275055 178.389518 
L 163.437382 176.44353 
L 163.599709 176.706877 
L 163.762036 176.44098 
L 163.924364 175.832739 
L 164.086691 171.678911 
L 164.249018 173.75616 
L 164.411345 172.318797 
L 164.573673 174.962695 
L 164.736 174.096174 
L 164.898327 175.797656 
L 165.060655 175.417568 
L 165.222982 172.582758 
L 165.385309 173.257042 
L 165.547636 174.908409 
L 165.872291 169.209002 
L 166.196945 177.062777 
L 166.5216 171.332913 
L 166.683927 173.56491 
L 166.846255 173.217554 
L 167.008582 173.80107 
L 167.170909 170.745197 
L 167.333236 175.212981 
L 167.495564 175.370241 
L 167.657891 176.361834 
L 167.820218 175.471312 
L 167.982545 173.630244 
L 168.144873 178.996848 
L 168.3072 174.23377 
L 168.469527 173.185822 
L 168.794182 176.161028 
L 168.956509 173.26515 
L 169.118836 173.922159 
L 169.281164 176.500608 
L 169.443491 172.809244 
L 169.605818 173.497308 
L 169.768145 174.687546 
L 169.930473 176.938822 
L 170.0928 175.117338 
L 170.255127 177.587712 
L 170.417455 175.802167 
L 170.579782 175.445229 
L 170.742109 172.586719 
L 170.904436 174.727231 
L 171.066764 173.868474 
L 171.229091 176.027752 
L 171.391418 175.227317 
L 171.553745 173.11737 
L 171.716073 178.593671 
L 171.8784 178.019479 
L 172.203055 175.354988 
L 172.365382 174.506741 
L 172.527709 175.083631 
L 172.690036 174.906335 
L 172.852364 175.15497 
L 173.014691 174.003937 
L 173.177018 173.91901 
L 173.339345 174.150497 
L 173.501673 170.181034 
L 173.988655 175.558444 
L 174.150982 171.791125 
L 174.475636 175.643197 
L 174.637964 174.005345 
L 174.800291 173.828365 
L 174.962618 175.712377 
L 175.124945 174.370068 
L 175.287273 176.744631 
L 175.4496 171.591505 
L 175.611927 172.418895 
L 175.774255 175.324952 
L 175.936582 174.298675 
L 176.098909 171.820682 
L 176.423564 176.436575 
L 176.585891 175.171714 
L 176.748218 170.460332 
L 176.910545 175.360714 
L 177.072873 172.68607 
L 177.397527 175.781571 
L 177.559855 174.066772 
L 177.722182 173.957213 
L 177.884509 173.44965 
L 178.046836 174.127374 
L 178.209164 175.613835 
L 178.371491 178.763362 
L 178.533818 173.410753 
L 178.858473 177.137533 
L 179.183127 169.587476 
L 179.345455 176.085496 
L 179.507782 177.486804 
L 179.670109 172.569798 
L 179.832436 172.849485 
L 179.994764 176.249234 
L 180.157091 175.917321 
L 180.481745 171.853833 
L 180.8064 177.950297 
L 180.968727 175.469558 
L 181.131055 177.941352 
L 181.293382 173.61349 
L 181.455709 172.98181 
L 181.618036 174.175768 
L 181.780364 169.929722 
L 181.942691 176.811701 
L 182.267345 171.273996 
L 182.429673 175.025527 
L 182.592 174.446391 
L 182.754327 177.129511 
L 182.916655 177.50565 
L 183.078982 169.936608 
L 183.241309 173.617605 
L 183.403636 171.145797 
L 183.565964 172.868368 
L 183.728291 177.618672 
L 183.890618 176.772882 
L 184.052945 177.224994 
L 184.3776 174.045402 
L 184.539927 177.967404 
L 184.702255 173.090725 
L 185.026909 174.249182 
L 185.189236 172.495939 
L 185.351564 174.953589 
L 185.513891 171.901693 
L 185.676218 177.908654 
L 185.838545 173.108286 
L 186.1632 177.128879 
L 186.325527 175.381524 
L 186.487855 170.634506 
L 186.812509 177.719952 
L 186.974836 174.290397 
L 187.137164 173.604323 
L 187.299491 175.293799 
L 187.461818 171.678611 
L 187.786473 174.831671 
L 187.9488 173.400529 
L 188.111127 175.394624 
L 188.273455 173.703361 
L 188.435782 175.450111 
L 188.598109 175.927299 
L 188.760436 177.416365 
L 188.922764 174.151831 
L 189.085091 176.835911 
L 189.247418 174.772917 
L 189.409745 168.948822 
L 189.572073 174.431253 
L 189.7344 170.805379 
L 190.059055 174.142965 
L 190.221382 171.029788 
L 190.383709 174.473019 
L 190.546036 174.936813 
L 190.708364 177.082309 
L 190.870691 175.365622 
L 191.033018 171.947038 
L 191.195345 171.35904 
L 191.357673 175.956925 
L 191.682327 174.918027 
L 191.844655 170.713053 
L 192.006982 174.504146 
L 192.169309 174.824601 
L 192.331636 170.828641 
L 192.493964 173.417498 
L 192.656291 174.025553 
L 192.818618 175.309704 
L 193.143273 171.815903 
L 193.3056 175.428246 
L 193.467927 171.857352 
L 193.630255 172.664406 
L 193.792582 170.044336 
L 193.954909 175.297472 
L 194.117236 172.422594 
L 194.441891 177.116075 
L 194.604218 175.737862 
L 194.928873 171.015724 
L 195.0912 174.08221 
L 195.253527 172.101264 
L 195.415855 173.95158 
L 195.578182 171.093409 
L 195.902836 178.021854 
L 196.065164 175.135619 
L 196.227491 175.956056 
L 196.389818 175.457426 
L 196.552145 174.414293 
L 196.714473 178.597075 
L 196.8768 174.392176 
L 197.039127 176.501494 
L 197.201455 175.158893 
L 197.363782 175.719629 
L 197.526109 174.701909 
L 197.850764 178.480637 
L 198.175418 173.882293 
L 198.337745 172.732615 
L 198.500073 176.138936 
L 198.6624 176.373682 
L 198.824727 175.477313 
L 198.987055 171.832908 
L 199.149382 177.259132 
L 199.311709 170.797551 
L 199.474036 175.557986 
L 199.636364 175.542169 
L 199.798691 175.681917 
L 199.961018 174.224214 
L 200.285673 177.546701 
L 200.610327 169.435622 
L 200.772655 176.563999 
L 200.934982 175.808818 
L 201.097309 176.078052 
L 201.259636 176.129658 
L 201.421964 172.378867 
L 201.584291 176.172693 
L 201.746618 171.995551 
L 201.908945 174.687071 
L 202.071273 180.359703 
L 202.2336 174.595936 
L 202.395927 172.925754 
L 202.558255 176.853566 
L 202.720582 173.75234 
L 202.882909 175.016631 
L 203.045236 174.44984 
L 203.207564 176.723949 
L 203.369891 175.527426 
L 203.532218 175.290842 
L 203.856873 173.016209 
L 204.0192 175.782923 
L 204.343855 174.414762 
L 204.506182 168.225602 
L 204.830836 178.143602 
L 205.155491 173.242123 
L 205.317818 177.058802 
L 205.480145 177.526884 
L 205.642473 173.118568 
L 205.8048 175.286037 
L 205.967127 174.569848 
L 206.129455 174.761698 
L 206.291782 174.032456 
L 206.454109 174.16333 
L 206.616436 175.303769 
L 206.778764 174.182261 
L 206.941091 174.085027 
L 207.103418 176.82874 
L 207.265745 169.966399 
L 207.428073 175.77325 
L 207.5904 174.978456 
L 207.915055 176.528824 
L 208.077382 172.887548 
L 208.239709 176.016692 
L 208.402036 174.54149 
L 208.564364 174.668575 
L 208.726691 173.135365 
L 208.889018 174.266483 
L 209.051345 172.476987 
L 209.213673 173.319241 
L 209.376 172.789246 
L 209.538327 174.587209 
L 209.700655 172.439814 
L 209.862982 173.648238 
L 210.025309 176.30829 
L 210.187636 173.461541 
L 210.349964 173.383374 
L 210.512291 174.914357 
L 210.674618 177.823459 
L 210.836945 174.790157 
L 210.999273 176.179586 
L 211.1616 178.590545 
L 211.323927 174.110735 
L 211.486255 174.555131 
L 211.810909 177.642965 
L 211.973236 173.701536 
L 212.135564 175.143776 
L 212.297891 172.226811 
L 212.460218 172.29459 
L 212.622545 173.461763 
L 212.784873 175.436196 
L 213.109527 171.960109 
L 213.434182 177.569251 
L 213.596509 175.210239 
L 213.758836 174.770499 
L 213.921164 177.140763 
L 214.083491 171.381819 
L 214.245818 177.811263 
L 214.408145 174.720448 
L 214.570473 175.359855 
L 214.7328 171.385172 
L 214.895127 174.905964 
L 215.057455 173.447594 
L 215.219782 173.842154 
L 215.544436 175.216739 
L 215.706764 173.163548 
L 215.869091 176.603167 
L 216.031418 172.854816 
L 216.356073 174.546783 
L 216.5184 176.490165 
L 216.680727 173.66782 
L 216.843055 174.216158 
L 217.005382 173.169311 
L 217.167709 176.945905 
L 217.330036 176.190386 
L 217.654691 173.725113 
L 217.817018 175.946368 
L 218.141673 175.393939 
L 218.304 172.974637 
L 218.466327 176.218352 
L 218.790982 173.421017 
L 218.953309 169.428673 
L 219.115636 175.613899 
L 219.440291 173.882563 
L 219.602618 176.525117 
L 219.927273 175.142536 
L 220.0896 174.922752 
L 220.414255 176.133674 
L 220.576582 171.556448 
L 220.738909 170.170249 
L 221.063564 176.98197 
L 221.225891 172.199787 
L 221.388218 178.4845 
L 221.550545 176.955606 
L 221.712873 172.623628 
L 221.8752 175.04353 
L 222.037527 173.519564 
L 222.199855 175.829767 
L 222.362182 173.738775 
L 222.524509 175.671922 
L 222.686836 171.876139 
L 222.849164 176.412634 
L 223.011491 176.857057 
L 223.173818 175.902097 
L 223.336145 173.733669 
L 223.498473 174.119421 
L 223.6608 173.793261 
L 223.823127 177.471975 
L 224.147782 174.159964 
L 224.310109 175.901836 
L 224.472436 179.771607 
L 224.634764 172.8257 
L 224.797091 173.007188 
L 224.959418 178.251805 
L 225.284073 174.665857 
L 225.4464 174.886953 
L 225.608727 174.250998 
L 225.771055 174.231081 
L 225.933382 173.659443 
L 226.095709 172.103323 
L 226.420364 171.95873 
L 226.582691 176.186382 
L 226.745018 173.12763 
L 226.907345 174.140624 
L 227.069673 173.881296 
L 227.232 172.264605 
L 227.556655 176.638339 
L 227.718982 174.107601 
L 227.881309 175.251413 
L 228.043636 170.614829 
L 228.205964 172.463618 
L 228.368291 175.695394 
L 228.530618 176.581986 
L 228.692945 176.064628 
L 228.855273 174.358942 
L 229.0176 176.835168 
L 229.179927 173.181544 
L 229.342255 172.415728 
L 229.666909 175.613508 
L 229.829236 173.918411 
L 229.991564 175.597089 
L 230.316218 174.577695 
L 230.478545 171.990716 
L 230.640873 172.886439 
L 230.8032 172.728265 
L 230.965527 172.208383 
L 231.127855 173.882282 
L 231.290182 178.224866 
L 231.452509 174.456165 
L 231.614836 178.540638 
L 231.777164 177.124868 
L 231.939491 177.273617 
L 232.264145 171.748745 
L 232.426473 176.850382 
L 232.5888 178.354481 
L 232.913455 172.469844 
L 233.075782 174.904264 
L 233.238109 173.991922 
L 233.400436 174.413075 
L 233.562764 175.632631 
L 233.725091 172.510092 
L 233.887418 176.368904 
L 234.049745 176.440191 
L 234.212073 174.686141 
L 234.3744 174.933753 
L 234.536727 176.67707 
L 234.699055 176.518454 
L 234.861382 172.788934 
L 235.023709 172.548157 
L 235.348364 176.948801 
L 235.510691 175.256078 
L 235.673018 177.164916 
L 235.835345 172.717343 
L 235.997673 174.941279 
L 236.16 172.991335 
L 236.16 172.991335 
" clip-path="url(#p3de69106f9)" style="fill: none; stroke: #5e86c1; stroke-width: 3; stroke-linecap: square"/>
   </g>
   <g id="line2d_20">
    <path d="M 236.16 172.991335 
L 236.484655 175.319516 
L 236.646982 173.003809 
L 236.809309 172.604573 
L 236.971636 176.772508 
L 237.296291 174.939999 
L 237.458618 175.203501 
L 237.620945 172.078789 
L 237.783273 175.251686 
L 237.9456 173.99871 
L 238.107927 176.35889 
L 238.270255 173.904207 
L 238.432582 177.265799 
L 238.594909 177.31631 
L 238.757236 172.126035 
L 238.919564 173.502926 
L 239.081891 172.542852 
L 239.244218 176.678877 
L 239.406545 172.385181 
L 239.568873 177.263233 
L 239.7312 177.30767 
L 240.055855 171.767032 
L 240.705164 175.556625 
L 240.867491 173.97051 
L 241.029818 176.490211 
L 241.192145 172.729526 
L 241.354473 172.733749 
L 241.5168 172.059746 
L 241.679127 173.787652 
L 241.841455 173.789135 
L 242.003782 172.473505 
L 242.166109 176.572788 
L 242.328436 174.329841 
L 242.490764 174.457214 
L 242.653091 175.684861 
L 242.815418 172.515091 
L 243.140073 174.701798 
L 243.464727 174.975398 
L 243.627055 174.030496 
L 243.789382 169.493734 
L 244.114036 177.640868 
L 244.276364 177.578019 
L 244.438691 173.034964 
L 244.763345 175.944054 
L 244.925673 177.433098 
L 245.250327 173.877053 
L 245.412655 177.757069 
L 245.574982 170.112077 
L 245.899636 175.049949 
L 246.061964 175.536336 
L 246.224291 175.102186 
L 246.386618 174.272314 
L 246.548945 177.271086 
L 246.711273 174.530043 
L 246.8736 174.514913 
L 247.035927 177.27871 
L 247.360582 175.189782 
L 247.522909 178.78396 
L 247.685236 178.169683 
L 248.009891 174.864808 
L 248.172218 177.200105 
L 248.334545 174.021735 
L 248.496873 175.207763 
L 248.6592 173.972184 
L 248.821527 176.780256 
L 248.983855 173.809384 
L 249.146182 173.997639 
L 249.470836 176.944284 
L 249.633164 172.909583 
L 249.957818 177.105728 
L 250.120145 176.605718 
L 250.282473 173.405106 
L 250.4448 175.494728 
L 250.607127 175.772098 
L 250.769455 175.673018 
L 250.931782 176.013953 
L 251.094109 173.449304 
L 251.256436 176.631639 
L 251.418764 172.544085 
L 251.743418 176.954351 
L 251.905745 174.43718 
L 252.068073 178.391122 
L 252.2304 173.65028 
L 252.392727 174.52089 
L 252.555055 176.679429 
L 252.717382 177.266962 
L 252.879709 174.643072 
L 253.042036 177.598936 
L 253.366691 175.022039 
L 253.529018 174.863488 
L 253.691345 174.168592 
L 253.853673 172.899689 
L 254.016 174.476971 
L 254.178327 172.831802 
L 254.340655 174.176647 
L 254.502982 171.554978 
L 254.665309 171.500147 
L 254.827636 172.953047 
L 254.989964 172.468004 
L 255.152291 176.997664 
L 255.314618 173.251049 
L 255.476945 172.580311 
L 255.639273 173.903545 
L 255.8016 172.533892 
L 255.963927 177.628103 
L 256.288582 171.434541 
L 256.450909 172.536839 
L 256.775564 176.145139 
L 256.937891 174.964897 
L 257.262545 178.040767 
L 257.424873 175.081349 
L 257.5872 174.262141 
L 257.749527 170.939524 
L 258.074182 174.065104 
L 258.236509 173.452203 
L 258.398836 176.386868 
L 258.561164 174.41293 
L 258.723491 175.044495 
L 258.885818 176.200316 
L 259.048145 176.008159 
L 259.210473 175.314934 
L 259.3728 176.82278 
L 259.535127 171.205675 
L 259.697455 175.792076 
L 259.859782 173.85991 
L 260.022109 174.13332 
L 260.184436 175.903768 
L 260.346764 175.719638 
L 260.509091 174.810077 
L 260.671418 175.526264 
L 260.833745 171.550753 
L 260.996073 173.135155 
L 261.320727 177.647847 
L 261.483055 175.914859 
L 261.645382 172.105791 
L 261.807709 176.699405 
L 261.970036 175.570149 
L 262.132364 175.96335 
L 262.294691 177.907141 
L 262.457018 172.668187 
L 262.619345 175.745285 
L 262.781673 171.885542 
L 262.944 172.567212 
L 263.106327 175.274429 
L 263.268655 172.202514 
L 263.430982 175.743376 
L 263.593309 175.451914 
L 263.755636 171.149224 
L 264.080291 175.943136 
L 264.404945 172.782807 
L 264.567273 175.00978 
L 264.7296 172.521067 
L 264.891927 172.756827 
L 265.054255 173.606299 
L 265.216582 176.072705 
L 265.378909 171.264592 
L 265.541236 177.077912 
L 265.703564 172.631511 
L 265.865891 177.957404 
L 266.028218 173.130681 
L 266.190545 171.954962 
L 266.352873 176.029269 
L 266.5152 172.775028 
L 266.677527 176.440409 
L 266.839855 172.588808 
L 267.002182 172.728592 
L 267.164509 176.288788 
L 267.326836 171.331768 
L 267.813818 177.525361 
L 267.976145 175.628332 
L 268.138473 177.163561 
L 268.3008 172.917229 
L 268.463127 174.918818 
L 268.625455 174.644827 
L 268.950109 175.265103 
L 269.112436 173.258672 
L 269.274764 174.601755 
L 269.437091 178.853015 
L 269.599418 174.10976 
L 269.761745 178.461451 
L 269.924073 177.765626 
L 270.248727 173.037468 
L 270.411055 172.481165 
L 270.573382 172.897504 
L 270.735709 173.839361 
L 270.898036 177.997982 
L 271.060364 175.414083 
L 271.222691 174.721868 
L 271.385018 172.44765 
L 271.547345 173.139006 
L 271.709673 173.276162 
L 271.872 175.578145 
L 272.034327 173.237145 
L 272.196655 172.854468 
L 272.358982 173.731327 
L 272.521309 173.040303 
L 272.845964 174.882078 
L 273.008291 171.84891 
L 273.332945 176.50202 
L 273.6576 174.317911 
L 273.819927 174.413428 
L 274.144582 178.355026 
L 274.306909 173.515671 
L 274.469236 176.814324 
L 274.631564 175.50049 
L 274.793891 172.086073 
L 274.956218 178.683563 
L 275.118545 173.353136 
L 275.280873 171.825946 
L 275.4432 176.917116 
L 275.605527 175.817037 
L 275.767855 173.419815 
L 275.930182 175.573111 
L 276.092509 171.525721 
L 276.254836 174.950599 
L 276.417164 175.718659 
L 276.579491 175.433749 
L 276.741818 174.828483 
L 276.904145 171.688836 
L 277.2288 179.959394 
L 277.391127 174.717956 
L 277.553455 173.824676 
L 277.715782 170.836513 
L 278.040436 175.225573 
L 278.202764 174.639414 
L 278.365091 174.681222 
L 278.527418 173.445897 
L 278.689745 170.533873 
L 279.176727 174.892053 
L 279.339055 170.07457 
L 279.663709 174.585865 
L 279.826036 174.419035 
L 279.988364 173.533749 
L 280.150691 174.558142 
L 280.313018 173.282305 
L 280.475345 175.418491 
L 280.637673 171.76894 
L 280.8 175.319983 
L 281.124655 174.128707 
L 281.286982 177.940589 
L 281.611636 173.809338 
L 281.936291 176.999158 
L 282.098618 173.327922 
L 282.260945 174.389168 
L 282.423273 174.630362 
L 282.5856 175.627293 
L 282.747927 173.053172 
L 282.910255 174.438495 
L 283.072582 174.700217 
L 283.234909 175.451477 
L 283.397236 172.150323 
L 283.559564 176.271511 
L 283.721891 172.793784 
L 283.884218 176.666392 
L 284.046545 173.738005 
L 284.208873 176.638939 
L 284.3712 175.966141 
L 284.533527 172.457906 
L 284.695855 178.741544 
L 284.858182 173.505217 
L 285.020509 176.901098 
L 285.345164 174.436346 
L 285.507491 174.08591 
L 285.669818 170.500049 
L 285.832145 178.971683 
L 285.994473 171.818336 
L 286.481455 178.682941 
L 286.643782 174.424325 
L 286.806109 178.940759 
L 286.968436 175.384811 
L 287.130764 175.60359 
L 287.293091 176.08351 
L 287.780073 172.743957 
L 287.9424 175.994593 
L 288.104727 171.98352 
L 288.429382 176.135767 
L 288.591709 174.926517 
L 288.754036 176.645723 
L 289.078691 172.797765 
L 289.241018 176.120073 
L 289.403345 172.965994 
L 289.565673 174.904147 
L 289.728 173.410896 
L 289.890327 176.581011 
L 290.052655 173.031529 
L 290.214982 178.912163 
L 290.377309 171.703559 
L 290.864291 177.58227 
L 291.188945 172.783611 
L 291.351273 171.589513 
L 291.675927 176.638442 
L 291.838255 176.206603 
L 292.000582 174.522751 
L 292.325236 178.544996 
L 292.487564 172.51555 
L 292.812218 176.759602 
L 292.974545 174.02612 
L 293.136873 177.022576 
L 293.2992 172.937884 
L 293.461527 172.416171 
L 293.623855 172.393597 
L 293.786182 177.715933 
L 293.948509 173.13402 
L 294.110836 177.130564 
L 294.273164 172.836471 
L 294.435491 172.514279 
L 294.597818 175.412021 
L 294.760145 176.26528 
L 294.922473 175.066495 
L 295.0848 172.276493 
L 295.247127 175.98665 
L 295.409455 176.301581 
L 295.571782 177.20121 
L 295.896436 173.278055 
L 296.221091 176.145299 
L 296.383418 175.632386 
L 296.545745 172.307549 
L 296.708073 175.325604 
L 296.8704 175.051645 
L 297.032727 176.462239 
L 297.195055 172.342826 
L 297.357382 176.880329 
L 297.844364 173.211497 
L 298.006691 175.518224 
L 298.169018 170.879847 
L 298.331345 174.817208 
L 298.493673 172.256265 
L 298.656 174.337769 
L 298.818327 172.156839 
L 298.980655 173.815726 
L 299.142982 171.074797 
L 299.305309 174.710543 
L 299.629964 173.828861 
L 299.792291 175.006218 
L 299.954618 173.77806 
L 300.116945 177.31395 
L 300.279273 171.84401 
L 300.4416 177.757688 
L 300.766255 173.126853 
L 301.090909 175.278323 
L 301.253236 173.027938 
L 301.577891 176.189321 
L 301.740218 171.472088 
L 301.902545 175.661286 
L 302.064873 174.609786 
L 302.2272 174.928179 
L 302.389527 174.70618 
L 302.551855 173.432449 
L 302.714182 173.194704 
L 302.876509 174.902359 
L 303.038836 174.188182 
L 303.201164 174.012156 
L 303.363491 173.634917 
L 303.525818 172.481974 
L 303.688145 172.613214 
L 303.850473 176.433436 
L 304.0128 174.707035 
L 304.175127 176.425603 
L 304.337455 174.618661 
L 304.499782 177.386872 
L 304.662109 173.505957 
L 304.824436 174.957788 
L 304.986764 177.559977 
L 305.311418 173.999427 
L 305.473745 172.741904 
L 305.636073 175.650193 
L 305.960727 172.989468 
L 306.123055 179.53375 
L 306.285382 174.106921 
L 306.447709 174.704582 
L 306.610036 176.545264 
L 306.934691 172.772849 
L 307.097018 176.652168 
L 307.259345 173.979624 
L 307.421673 174.395814 
L 307.746327 176.654265 
L 307.908655 175.968645 
L 308.070982 173.512149 
L 308.233309 174.508536 
L 308.395636 174.324239 
L 308.557964 174.680657 
L 308.720291 172.591697 
L 309.044945 175.553019 
L 309.207273 173.531424 
L 309.3696 178.649045 
L 309.531927 173.95607 
L 309.694255 176.280322 
L 309.856582 175.948448 
L 310.018909 173.922695 
L 310.181236 174.401775 
L 310.343564 176.627401 
L 310.505891 177.311303 
L 310.668218 176.392761 
L 310.830545 176.941776 
L 310.992873 174.632411 
L 311.1552 175.133466 
L 311.479855 173.791214 
L 311.642182 173.87034 
L 311.804509 172.056638 
L 311.966836 174.517523 
L 312.129164 173.382607 
L 312.291491 173.861144 
L 312.453818 177.612809 
L 312.616145 172.979524 
L 312.9408 176.301848 
L 313.103127 173.426312 
L 313.265455 173.017693 
L 313.427782 175.084537 
L 313.590109 174.706148 
L 313.752436 172.885127 
L 313.914764 174.957601 
L 314.077091 171.054737 
L 314.239418 176.951761 
L 314.564073 170.668778 
L 314.888727 175.481438 
L 315.051055 174.628046 
L 315.213382 171.595389 
L 315.375709 172.743203 
L 315.538036 172.762995 
L 315.700364 173.198431 
L 315.862691 169.68148 
L 316.025018 177.318069 
L 316.349673 171.939965 
L 316.674327 177.803223 
L 316.998982 175.163131 
L 317.161309 169.616396 
L 317.485964 178.574568 
L 317.648291 170.969263 
L 317.972945 176.838254 
L 318.135273 170.065378 
L 318.2976 176.983074 
L 318.622255 172.259391 
L 318.784582 174.102483 
L 318.946909 170.457786 
L 319.109236 179.62659 
L 319.271564 176.820731 
L 319.433891 176.933208 
L 319.596218 172.441675 
L 319.758545 172.633993 
L 319.920873 174.534838 
L 320.245527 170.334774 
L 320.407855 175.498405 
L 320.570182 174.731117 
L 320.732509 177.560882 
L 320.894836 170.934152 
L 321.057164 177.351473 
L 321.219491 177.551102 
L 321.381818 176.964195 
L 321.544145 171.264312 
L 321.8688 174.541735 
L 322.031127 175.295856 
L 322.193455 175.231883 
L 322.355782 179.939586 
L 322.680436 173.665072 
L 322.842764 172.901203 
L 323.005091 176.810581 
L 323.167418 173.624299 
L 323.329745 176.083461 
L 323.492073 173.3748 
L 323.6544 176.341065 
L 323.816727 176.065307 
L 323.979055 173.690681 
L 324.141382 174.045906 
L 324.303709 174.08136 
L 324.466036 174.575498 
L 324.628364 168.659971 
L 324.790691 175.022949 
L 324.953018 172.104484 
L 325.115345 172.253741 
L 325.277673 178.439823 
L 325.44 173.634494 
L 325.602327 172.586425 
L 325.764655 173.870993 
L 325.926982 180.707162 
L 326.251636 172.143203 
L 326.576291 173.520084 
L 326.738618 175.732544 
L 326.900945 171.62568 
L 327.2256 174.692245 
L 327.387927 175.432789 
L 327.550255 174.821772 
L 327.712582 174.943794 
L 327.874909 178.76023 
L 328.037236 172.840503 
L 328.199564 177.749431 
L 328.361891 169.419969 
L 328.686545 178.663266 
L 328.848873 170.897888 
L 329.0112 174.273718 
L 329.173527 171.823849 
L 329.335855 175.878537 
L 329.498182 175.324126 
L 329.660509 175.475633 
L 329.822836 173.745332 
L 329.985164 174.386458 
L 330.147491 178.959867 
L 330.309818 178.277556 
L 330.472145 175.124715 
L 330.634473 174.503711 
L 330.7968 176.849908 
L 330.959127 175.946481 
L 331.121455 177.349451 
L 331.446109 174.363427 
L 331.608436 174.485893 
L 331.770764 172.275833 
L 332.095418 175.67894 
L 332.257745 174.052623 
L 332.420073 173.889874 
L 332.5824 172.377122 
L 332.744727 172.872252 
L 332.907055 172.534736 
L 333.231709 177.881929 
L 333.394036 173.648286 
L 333.556364 175.402192 
L 333.718691 173.453613 
L 333.881018 173.823133 
L 334.043345 173.490576 
L 334.205673 173.947704 
L 334.368 177.889786 
L 334.530327 177.686413 
L 334.692655 174.547214 
L 335.017309 177.472521 
L 335.341964 172.906087 
L 335.504291 169.81752 
L 335.666618 172.822756 
L 335.828945 173.204597 
L 335.991273 172.387336 
L 336.1536 173.722555 
L 336.315927 177.582832 
L 336.478255 172.483905 
L 336.802909 173.887232 
L 336.965236 176.303516 
L 337.127564 175.010964 
L 337.289891 175.781444 
L 337.452218 177.684901 
L 337.614545 177.289451 
L 337.776873 173.840952 
L 337.9392 173.816619 
L 338.101527 172.66674 
L 338.263855 176.979582 
L 338.588509 172.1992 
L 338.750836 174.000886 
L 338.913164 177.994181 
L 339.237818 171.135983 
L 339.400145 173.625292 
L 339.562473 173.494323 
L 339.7248 173.782968 
L 339.887127 179.708176 
L 340.049455 178.031534 
L 340.211782 174.272005 
L 340.374109 173.444376 
L 340.698764 177.214207 
L 341.023418 171.991002 
L 341.185745 173.464253 
L 341.348073 172.594527 
L 341.5104 174.138869 
L 341.672727 173.239169 
L 341.835055 171.106985 
L 341.997382 177.251667 
L 342.159709 175.351587 
L 342.322036 175.084295 
L 342.646691 172.63758 
L 342.809018 172.949496 
L 342.971345 171.915181 
L 343.133673 173.590638 
L 343.296 173.519532 
L 343.458327 176.054113 
L 343.620655 172.81581 
L 343.782982 175.50589 
L 343.945309 174.863413 
L 344.107636 177.190268 
L 344.269964 173.869871 
L 344.432291 177.1404 
L 344.594618 176.453591 
L 344.756945 173.707781 
L 344.919273 174.783745 
L 345.0816 174.223565 
L 345.243927 176.573473 
L 345.406255 173.56018 
L 345.568582 178.263089 
L 345.730909 172.698255 
L 345.893236 173.760461 
L 346.055564 177.626801 
L 346.380218 179.280348 
L 346.542545 179.447404 
L 346.8672 173.215304 
L 347.029527 175.966377 
L 347.191855 176.613863 
L 347.354182 178.034449 
L 347.516509 174.150847 
L 347.678836 173.879537 
L 347.841164 177.087786 
L 348.003491 171.079179 
L 348.165818 177.30326 
L 348.328145 172.030122 
L 348.490473 172.993152 
L 348.6528 177.799568 
L 348.815127 173.833189 
L 348.977455 176.405284 
L 349.139782 173.445462 
L 349.302109 176.774416 
L 349.626764 175.396806 
L 349.789091 172.477131 
L 349.951418 173.383277 
L 350.113745 172.981848 
L 350.4384 171.392978 
L 350.763055 175.667659 
L 350.925382 177.125 
L 351.087709 172.237165 
L 351.250036 172.404926 
L 351.412364 176.022914 
L 351.574691 177.112769 
L 351.737018 173.519357 
L 351.899345 177.511756 
L 352.061673 171.803815 
L 352.224 174.907775 
L 352.386327 174.592208 
L 352.548655 177.813118 
L 352.710982 175.931935 
L 352.873309 176.778644 
L 353.035636 170.611492 
L 353.197964 173.611788 
L 353.360291 171.855323 
L 353.522618 175.973214 
L 353.684945 176.107267 
L 354.0096 172.669313 
L 354.171927 174.301852 
L 354.334255 173.491031 
L 354.496582 176.957043 
L 354.658909 171.589624 
L 354.821236 173.214927 
L 354.983564 173.722058 
L 355.145891 172.790316 
L 355.308218 172.509485 
L 355.470545 175.2891 
L 355.632873 174.91874 
L 355.7952 175.215947 
L 355.957527 172.585468 
L 356.119855 176.481242 
L 356.282182 173.572042 
L 356.444509 173.598421 
L 356.606836 172.162153 
L 356.769164 175.899039 
L 356.931491 173.029482 
L 357.093818 173.273691 
L 357.256145 173.10889 
L 357.418473 174.54046 
L 357.5808 173.228693 
L 357.743127 176.95948 
L 357.905455 171.499609 
L 358.067782 179.21663 
L 358.230109 175.092364 
L 358.392436 177.058297 
L 358.879418 170.889227 
L 359.041745 174.127178 
L 359.204073 170.538968 
L 359.3664 171.561229 
L 359.528727 175.36981 
L 359.691055 174.092671 
L 359.853382 174.380148 
L 360.015709 174.273012 
L 360.178036 172.911371 
L 360.340364 180.072336 
L 360.502691 170.291607 
L 360.665018 173.433794 
L 360.827345 172.984245 
L 360.989673 176.810859 
L 361.152 176.827166 
L 361.314327 177.618716 
L 361.476655 177.72013 
L 361.801309 173.470594 
L 361.963636 172.908454 
L 362.125964 173.402018 
L 362.288291 179.629078 
L 362.450618 175.190468 
L 362.612945 174.967968 
L 362.775273 177.919896 
L 362.9376 175.872464 
L 363.099927 180.146667 
L 363.262255 171.004337 
L 363.586909 175.633843 
L 363.749236 172.718612 
L 363.911564 173.997369 
L 364.073891 180.637117 
L 364.236218 173.742961 
L 364.398545 171.90514 
L 364.560873 176.183396 
L 364.7232 172.989711 
L 364.885527 177.283051 
L 365.047855 172.246179 
L 365.372509 176.89829 
L 365.534836 172.481572 
L 365.859491 175.957558 
L 366.184145 172.635436 
L 366.346473 176.265539 
L 366.5088 175.656456 
L 366.671127 172.960059 
L 366.833455 176.877773 
L 366.995782 175.03195 
L 367.158109 171.577995 
L 367.482764 177.381759 
L 367.807418 171.863486 
L 367.969745 172.095054 
L 368.132073 172.071899 
L 368.2944 174.895665 
L 368.456727 169.205763 
L 368.781382 175.399718 
L 368.943709 176.674746 
L 369.268364 170.993529 
L 369.593018 180.075789 
L 369.755345 174.866472 
L 369.917673 174.433436 
L 370.08 171.847469 
L 370.242327 177.682314 
L 370.404655 171.468132 
L 370.566982 177.697819 
L 370.729309 175.328495 
L 370.891636 174.980605 
L 371.053964 176.839787 
L 371.216291 172.628252 
L 371.378618 173.387698 
L 371.540945 179.426215 
L 371.703273 170.910524 
L 371.8656 173.838664 
L 372.027927 172.985333 
L 372.190255 173.010998 
L 372.352582 172.819179 
L 372.514909 175.831414 
L 372.839564 175.856234 
L 373.001891 173.0722 
L 373.326545 179.757889 
L 373.488873 173.720827 
L 373.6512 178.562693 
L 373.975855 172.405741 
L 374.138182 175.783552 
L 374.300509 173.035588 
L 374.462836 175.590262 
L 374.625164 171.371779 
L 374.787491 175.475336 
L 375.274473 172.13158 
L 375.4368 175.098082 
L 375.599127 175.026768 
L 375.761455 175.146135 
L 375.923782 172.385323 
L 376.086109 174.804526 
L 376.248436 167.670418 
L 376.410764 173.716028 
L 376.573091 172.804823 
L 376.735418 170.90709 
L 376.897745 173.402881 
L 377.060073 172.522128 
L 377.2224 177.016042 
L 377.384727 169.380917 
L 377.547055 175.055163 
L 377.709382 176.233791 
L 377.871709 173.265292 
L 378.196364 176.11075 
L 378.358691 175.825079 
L 378.521018 175.924232 
L 378.683345 173.780578 
L 378.845673 175.101051 
L 379.008 172.895327 
L 379.170327 175.3969 
L 379.332655 172.367982 
L 379.494982 175.41689 
L 379.657309 175.367658 
L 379.819636 175.941619 
L 379.981964 175.63358 
L 380.144291 177.165503 
L 380.306618 171.346644 
L 380.468945 176.314108 
L 380.631273 175.286556 
L 380.955927 176.88023 
L 381.118255 172.61576 
L 381.280582 176.029778 
L 381.442909 175.968422 
L 381.605236 175.183313 
L 381.767564 178.101747 
L 381.929891 173.233885 
L 382.092218 172.693649 
L 382.254545 178.188218 
L 382.416873 170.606241 
L 382.5792 172.104291 
L 382.741527 178.882343 
L 382.903855 171.824596 
L 383.066182 174.146952 
L 383.228509 174.399263 
L 383.390836 178.677654 
L 383.553164 175.08757 
L 383.715491 175.318268 
L 383.877818 177.288351 
L 384.3648 173.166521 
L 384.527127 174.670716 
L 384.689455 173.994444 
L 384.851782 171.413266 
L 385.014109 175.478495 
L 385.176436 175.433847 
L 385.338764 174.17374 
L 385.501091 171.18397 
L 385.663418 175.070457 
L 385.825745 174.116917 
L 386.1504 175.703585 
L 386.312727 174.223993 
L 386.475055 174.158115 
L 386.637382 177.213492 
L 386.799709 174.632092 
L 386.962036 173.976495 
L 387.124364 174.689897 
L 387.286691 176.919293 
L 387.449018 174.267656 
L 387.611345 173.510174 
L 387.773673 176.348976 
L 387.936 176.152652 
L 388.098327 175.205325 
L 388.260655 171.277252 
L 388.909964 175.267056 
L 389.072291 174.930928 
L 389.234618 172.976045 
L 389.396945 175.627815 
L 389.559273 176.317681 
L 389.7216 174.667396 
L 389.883927 175.797585 
L 390.046255 175.303935 
L 390.208582 173.891197 
L 390.370909 176.141595 
L 390.533236 171.948247 
L 390.695564 175.743931 
L 390.857891 170.916196 
L 391.020218 171.085551 
L 391.182545 175.378497 
L 391.344873 175.453777 
L 391.5072 173.40785 
L 391.669527 168.498857 
L 391.831855 175.935693 
L 392.156509 173.666934 
L 392.318836 170.77737 
L 392.481164 174.683845 
L 392.805818 170.237567 
L 392.968145 176.542793 
L 393.130473 173.360497 
L 393.2928 173.147234 
L 393.455127 173.80429 
L 393.617455 175.075995 
L 393.779782 172.493114 
L 393.942109 175.117564 
L 394.104436 174.865152 
L 394.266764 177.909123 
L 394.429091 174.908438 
L 394.591418 176.324083 
L 394.753745 173.236131 
L 394.916073 172.410934 
L 395.240727 175.127062 
L 395.403055 173.720827 
L 395.727709 178.028863 
L 395.890036 174.913284 
L 396.214691 175.813928 
L 396.377018 177.166556 
L 396.539345 174.842786 
L 396.701673 176.748977 
L 396.864 173.844304 
L 397.026327 176.751775 
L 397.188655 176.637714 
L 397.350982 175.972945 
L 397.513309 175.988113 
L 397.675636 174.699157 
L 397.837964 175.476257 
L 398.000291 171.924482 
L 398.162618 172.685801 
L 398.324945 177.754339 
L 398.487273 175.997531 
L 398.487273 175.997531 
" clip-path="url(#p3de69106f9)" style="fill: none; stroke: #9ab973; stroke-width: 3; stroke-linecap: square"/>
   </g>
   <g id="LineCollection_1">
    <path d="M 236.16 295.488 
L 236.16 53.568 
" clip-path="url(#p3de69106f9)" style="fill: none; stroke-dasharray: 3.7,1.6; stroke-dashoffset: 0; stroke: #000000"/>
   </g>
   <g id="patch_3">
    <path d="M 57.6 307.584 
L 57.6 41.472 
" style="fill: none; stroke: #000000; stroke-width: 0.8; stroke-linejoin: miter; stroke-linecap: square"/>
   </g>
   <g id="patch_4">
    <path d="M 414.72 307.584 
L 414.72 41.472 
" style="fill: none; stroke: #000000; stroke-width: 0.8; stroke-linejoin: miter; stroke-linecap: square"/>
   </g>
   <g id="patch_5">
    <path d="M 57.6 307.584 
L 414.72 307.584 
" style="fill: none; stroke: #000000; stroke-width: 0.8; stroke-linejoin: miter; stroke-linecap: square"/>
   </g>
   <g id="patch_6">
    <path d="M 57.6 41.472 
L 414.72 41.472 
" style="fill: none; stroke: #000000; stroke-width: 0.8; stroke-linejoin: miter; stroke-linecap: square"/>
   </g>
   <g id="text_21">
    <!-- TEMP precede CO2 -->
    <g style="fill: #5e86c1" transform="translate(219.927273 77.76) scale(0.16 -0.16)">
     <defs>
      <path id="DejaVuSans-54" d="M -19 4666 
L 3928 4666 
L 3928 4134 
L 2272 4134 
L 2272 0 
L 1638 0 
L 1638 4134 
L -19 4134 
L -19 4666 
z
" transform="scale(0.015625)"/>
      <path id="DejaVuSans-45" d="M 628 4666 
L 3578 4666 
L 3578 4134 
L 1259 4134 
L 1259 2753 
L 3481 2753 
L 3481 2222 
L 1259 2222 
L 1259 531 
L 3634 531 
L 3634 0 
L 628 0 
L 628 4666 
z
" transform="scale(0.015625)"/>
      <path id="DejaVuSans-4d" d="M 628 4666 
L 1569 4666 
L 2759 1491 
L 3956 4666 
L 4897 4666 
L 4897 0 
L 4281 0 
L 4281 4097 
L 3078 897 
L 2444 897 
L 1241 4097 
L 1241 0 
L 628 0 
L 628 4666 
z
" transform="scale(0.015625)"/>
      <path id="DejaVuSans-50" d="M 1259 4147 
L 1259 2394 
L 2053 2394 
Q 2494 2394 2734 2622 
Q 2975 2850 2975 3272 
Q 2975 3691 2734 3919 
Q 2494 4147 2053 4147 
L 1259 4147 
z
M 628 4666 
L 2053 4666 
Q 2838 4666 3239 4311 
Q 3641 3956 3641 3272 
Q 3641 2581 3239 2228 
Q 2838 1875 2053 1875 
L 1259 1875 
L 1259 0 
L 628 0 
L 628 4666 
z
" transform="scale(0.015625)"/>
      <path id="DejaVuSans-43" d="M 4122 4306 
L 4122 3641 
Q 3803 3938 3442 4084 
Q 3081 4231 2675 4231 
Q 1875 4231 1450 3742 
Q 1025 3253 1025 2328 
Q 1025 1406 1450 917 
Q 1875 428 2675 428 
Q 3081 428 3442 575 
Q 3803 722 4122 1019 
L 4122 359 
Q 3791 134 3420 21 
Q 3050 -91 2638 -91 
Q 1578 -91 968 557 
Q 359 1206 359 2328 
Q 359 3453 968 4101 
Q 1578 4750 2638 4750 
Q 3056 4750 3426 4639 
Q 3797 4528 4122 4306 
z
" transform="scale(0.015625)"/>
      <path id="DejaVuSans-4f" d="M 2522 4238 
Q 1834 4238 1429 3725 
Q 1025 3213 1025 2328 
Q 1025 1447 1429 934 
Q 1834 422 2522 422 
Q 3209 422 3611 934 
Q 4013 1447 4013 2328 
Q 4013 3213 3611 3725 
Q 3209 4238 2522 4238 
z
M 2522 4750 
Q 3503 4750 4090 4092 
Q 4678 3434 4678 2328 
Q 4678 1225 4090 567 
Q 3503 -91 2522 -91 
Q 1538 -91 948 565 
Q 359 1222 359 2328 
Q 359 3434 948 4092 
Q 1538 4750 2522 4750 
z
" transform="scale(0.015625)"/>
     </defs>
     <use xlink:href="#DejaVuSans-54"/>
     <use xlink:href="#DejaVuSans-45" x="61.083984"/>
     <use xlink:href="#DejaVuSans-4d" x="124.267578"/>
     <use xlink:href="#DejaVuSans-50" x="210.546875"/>
     <use xlink:href="#DejaVuSans-20" x="270.849609"/>
     <use xlink:href="#DejaVuSans-70" x="302.636719"/>
     <use xlink:href="#DejaVuSans-72" x="366.113281"/>
     <use xlink:href="#DejaVuSans-65" x="404.976562"/>
     <use xlink:href="#DejaVuSans-63" x="466.5"/>
     <use xlink:href="#DejaVuSans-65" x="521.480469"/>
     <use xlink:href="#DejaVuSans-64" x="583.003906"/>
     <use xlink:href="#DejaVuSans-65" x="646.480469"/>
     <use xlink:href="#DejaVuSans-20" x="708.003906"/>
     <use xlink:href="#DejaVuSans-43" x="739.791016"/>
     <use xlink:href="#DejaVuSans-4f" x="809.615234"/>
     <use xlink:href="#DejaVuSans-32" x="888.326172"/>
    </g>
   </g>
   <g id="text_22">
    <!-- CO2 precede TEMP -->
    <g style="fill: #9ab973" transform="translate(236.971636 77.76) scale(0.16 -0.16)">
     <use xlink:href="#DejaVuSans-43"/>
     <use xlink:href="#DejaVuSans-4f" x="69.824219"/>
     <use xlink:href="#DejaVuSans-32" x="148.535156"/>
     <use xlink:href="#DejaVuSans-20" x="212.158203"/>
     <use xlink:href="#DejaVuSans-70" x="243.945312"/>
     <use xlink:href="#DejaVuSans-72" x="307.421875"/>
     <use xlink:href="#DejaVuSans-65" x="346.285156"/>
     <use xlink:href="#DejaVuSans-63" x="407.808594"/>
     <use xlink:href="#DejaVuSans-65" x="462.789062"/>
     <use xlink:href="#DejaVuSans-64" x="524.3125"/>
     <use xlink:href="#DejaVuSans-65" x="587.789062"/>
     <use xlink:href="#DejaVuSans-20" x="649.3125"/>
     <use xlink:href="#DejaVuSans-54" x="681.099609"/>
     <use xlink:href="#DejaVuSans-45" x="742.183594"/>
     <use xlink:href="#DejaVuSans-4d" x="805.367188"/>
     <use xlink:href="#DejaVuSans-50" x="891.646484"/>
    </g>
   </g>
  </g>
 </g>
 <defs>
  <clipPath id="p3de69106f9">
   <rect x="57.6" y="41.472" width="357.12" height="266.112"/>
  </clipPath>
 </defs>
</svg>
