<?xml version="1.0" encoding="UTF-8" standalone="no"?>
<svg
   width="460.8pt"
   height="345.6pt"
   viewBox="0 0 460.8 345.6"
   version="1.1"
   id="svg3204"
   sodipodi:docname="corr_800000.svg"
   xmlns:inkscape="http://www.inkscape.org/namespaces/inkscape"
   xmlns:sodipodi="http://sodipodi.sourceforge.net/DTD/sodipodi-0.dtd"
   xmlns:xlink="http://www.w3.org/1999/xlink"
   xmlns="http://www.w3.org/2000/svg"
   xmlns:svg="http://www.w3.org/2000/svg"
   xmlns:rdf="http://www.w3.org/1999/02/22-rdf-syntax-ns#"
   xmlns:cc="http://creativecommons.org/ns#"
   xmlns:dc="http://purl.org/dc/elements/1.1/">
  <sodipodi:namedview
     id="namedview3206"
     pagecolor="#505050"
     bordercolor="#eeeeee"
     borderopacity="1"
     inkscape:showpageshadow="0"
     inkscape:pageopacity="0"
     inkscape:pagecheckerboard="0"
     inkscape:deskcolor="#505050"
     inkscape:document-units="pt"
     showgrid="false" />
  <metadata
     id="metadata2771">
    <rdf:RDF>
      <cc:Work>
        <dc:type
           rdf:resource="http://purl.org/dc/dcmitype/StillImage" />
        <dc:date>2023-04-13T15:22:11.483067</dc:date>
        <dc:format>image/svg+xml</dc:format>
        <dc:creator>
          <cc:Agent>
            <dc:title>Matplotlib v3.7.1, https://matplotlib.org/</dc:title>
          </cc:Agent>
        </dc:creator>
      </cc:Work>
    </rdf:RDF>
  </metadata>
  <defs
     id="defs2775">
    <style
       type="text/css"
       id="style2773">*{stroke-linejoin: round; stroke-linecap: butt}</style>
  </defs>
  <g
     id="figure_1"
     transform="scale(0.61143478,0.72133878)">
    <g
       id="axes_1">
      <g
         id="matplotlib.axis_1"
         transform="translate(-432.89364,-66.925844)">
        <g
           id="xtick_1">
          <g
             id="line2d_1">
            <defs
               id="defs2784">
              <path
                 id="m3843133da4"
                 d="M 0,0 V 3.5"
                 style="stroke:#000000;stroke-width:0.8" />
            </defs>
            <g
               id="g2788">
              <use
                 xlink:href="#m3843133da4"
                 x="73.832726"
                 y="307.58401"
                 style="stroke:#000000;stroke-width:0.8"
                 id="use2786" />
            </g>
          </g>
          <g
             id="text_1">
            <!-- -800 -->
            <g
               transform="matrix(0.1,0,0,-0.1,62.485071,322.18244)"
               id="g2804">
              <defs
                 id="defs2794">
                <path
                   id="DejaVuSans-2d"
                   d="M 313,2009 H 1997 V 1497 H 313 Z"
                   transform="scale(0.015625)" />
                <path
                   id="DejaVuSans-38"
                   d="m 2034,2216 q -450,0 -708,-241 -257,-241 -257,-662 0,-422 257,-663 258,-241 708,-241 450,0 709,242 260,243 260,662 0,421 -258,662 -257,241 -711,241 z m -631,268 q -406,100 -633,378 -226,279 -226,679 0,559 398,884 399,325 1092,325 697,0 1094,-325 397,-325 397,-884 0,-400 -227,-679 -226,-278 -629,-378 456,-106 710,-416 255,-309 255,-755 Q 3634,634 3220,271 2806,-91 2034,-91 1263,-91 848,271 434,634 434,1313 q 0,446 256,755 257,310 713,416 z m -231,997 q 0,-362 226,-565 227,-203 636,-203 407,0 636,203 230,203 230,565 0,363 -230,566 -229,203 -636,203 -409,0 -636,-203 -226,-203 -226,-566 z"
                   transform="scale(0.015625)" />
                <path
                   id="DejaVuSans-30"
                   d="m 2034,4250 q -487,0 -733,-480 -245,-479 -245,-1442 0,-959 245,-1439 246,-480 733,-480 491,0 736,480 246,480 246,1439 0,963 -246,1442 -245,480 -736,480 z m 0,500 q 785,0 1199,-621 414,-620 414,-1801 0,-1178 -414,-1799 -414,-620 -1199,-620 -784,0 -1198,620 -414,621 -414,1799 0,1181 414,1801 414,621 1198,621 z"
                   transform="scale(0.015625)" />
              </defs>
              <use
                 xlink:href="#DejaVuSans-2d"
                 id="use2796" />
              <use
                 xlink:href="#DejaVuSans-38"
                 x="36.083984"
                 id="use2798" />
              <use
                 xlink:href="#DejaVuSans-30"
                 x="99.707031"
                 id="use2800" />
              <use
                 xlink:href="#DejaVuSans-30"
                 x="163.33008"
                 id="use2802" />
            </g>
          </g>
        </g>
        <g
           id="xtick_2">
          <g
             id="line2d_2">
            <g
               id="g2810">
              <use
                 xlink:href="#m3843133da4"
                 x="114.41962"
                 y="307.58401"
                 style="stroke:#000000;stroke-width:0.8"
                 id="use2808" />
            </g>
          </g>
          <g
             id="text_2">
            <!-- -600 -->
            <g
               transform="matrix(0.1,0,0,-0.1,103.07196,322.18244)"
               id="g2824">
              <defs
                 id="defs2814">
                <path
                   id="DejaVuSans-36"
                   d="m 2113,2584 q -425,0 -674,-291 -248,-290 -248,-796 0,-503 248,-796 249,-292 674,-292 425,0 673,292 248,293 248,796 0,506 -248,796 -248,291 -673,291 z m 1253,1979 v -575 q -238,112 -480,171 -242,60 -480,60 -625,0 -955,-422 -329,-422 -376,-1275 184,272 462,417 279,145 613,145 703,0 1111,-427 408,-426 408,-1160 0,-719 -425,-1154 -425,-434 -1131,-434 -810,0 -1238,620 -428,621 -428,1799 0,1106 525,1764 525,658 1409,658 238,0 480,-47 242,-47 505,-140 z"
                   transform="scale(0.015625)" />
              </defs>
              <use
                 xlink:href="#DejaVuSans-2d"
                 id="use2816" />
              <use
                 xlink:href="#DejaVuSans-36"
                 x="36.083984"
                 id="use2818" />
              <use
                 xlink:href="#DejaVuSans-30"
                 x="99.707031"
                 id="use2820" />
              <use
                 xlink:href="#DejaVuSans-30"
                 x="163.33008"
                 id="use2822" />
            </g>
          </g>
        </g>
        <g
           id="xtick_3">
          <g
             id="line2d_3">
            <g
               id="g2830">
              <use
                 xlink:href="#m3843133da4"
                 x="155.00652"
                 y="307.58401"
                 style="stroke:#000000;stroke-width:0.8"
                 id="use2828" />
            </g>
          </g>
          <g
             id="text_3">
            <!-- -400 -->
            <g
               transform="matrix(0.1,0,0,-0.1,143.65885,322.18244)"
               id="g2844">
              <defs
                 id="defs2834">
                <path
                   id="DejaVuSans-34"
                   d="M 2419,4116 825,1625 h 1594 z m -166,550 h 794 V 1625 h 666 V 1100 H 3047 V 0 H 2419 V 1100 H 313 v 609 z"
                   transform="scale(0.015625)" />
              </defs>
              <use
                 xlink:href="#DejaVuSans-2d"
                 id="use2836" />
              <use
                 xlink:href="#DejaVuSans-34"
                 x="36.083984"
                 id="use2838" />
              <use
                 xlink:href="#DejaVuSans-30"
                 x="99.707031"
                 id="use2840" />
              <use
                 xlink:href="#DejaVuSans-30"
                 x="163.33008"
                 id="use2842" />
            </g>
          </g>
        </g>
        <g
           id="xtick_4">
          <g
             id="line2d_4">
            <g
               id="g2850">
              <use
                 xlink:href="#m3843133da4"
                 x="195.5934"
                 y="307.58401"
                 style="stroke:#000000;stroke-width:0.8"
                 id="use2848" />
            </g>
          </g>
          <g
             id="text_4">
            <!-- -200 -->
            <g
               transform="matrix(0.1,0,0,-0.1,184.24575,322.18244)"
               id="g2864">
              <defs
                 id="defs2854">
                <path
                   id="DejaVuSans-32"
                   d="M 1228,531 H 3431 V 0 H 469 v 531 q 359,372 979,998 621,627 780,809 303,340 423,576 121,236 121,464 0,372 -261,606 -261,235 -680,235 -297,0 -627,-103 -329,-103 -704,-313 v 638 q 381,153 712,231 332,78 607,78 725,0 1156,-363 431,-362 431,-968 0,-288 -108,-546 -107,-257 -392,-607 -78,-91 -497,-524 Q 1991,1309 1228,531 Z"
                   transform="scale(0.015625)" />
              </defs>
              <use
                 xlink:href="#DejaVuSans-2d"
                 id="use2856" />
              <use
                 xlink:href="#DejaVuSans-32"
                 x="36.083984"
                 id="use2858" />
              <use
                 xlink:href="#DejaVuSans-30"
                 x="99.707031"
                 id="use2860" />
              <use
                 xlink:href="#DejaVuSans-30"
                 x="163.33008"
                 id="use2862" />
            </g>
          </g>
        </g>
        <g
           id="xtick_5">
          <g
             id="line2d_5">
            <g
               id="g2870">
              <use
                 xlink:href="#m3843133da4"
                 x="236.1803"
                 y="307.58401"
                 style="stroke:#000000;stroke-width:0.8"
                 id="use2868" />
            </g>
          </g>
          <g
             id="text_5">
            <!-- 0 -->
            <g
               transform="matrix(0.1,0,0,-0.1,232.99904,322.18244)"
               id="g2875">
              <use
                 xlink:href="#DejaVuSans-30"
                 id="use2873" />
            </g>
          </g>
        </g>
        <g
           id="xtick_6">
          <g
             id="line2d_6">
            <g
               id="g2881">
              <use
                 xlink:href="#m3843133da4"
                 x="276.76718"
                 y="307.58401"
                 style="stroke:#000000;stroke-width:0.8"
                 id="use2879" />
            </g>
          </g>
          <g
             id="text_6">
            <!-- -800 -->
            <g
               transform="matrix(0.1,0,0,-0.1,265.41953,322.18244)"
               id="g2892">
              <use
                 xlink:href="#DejaVuSans-2d"
                 id="use2884" />
              <use
                 xlink:href="#DejaVuSans-38"
                 x="36.083984"
                 id="use2886" />
              <use
                 xlink:href="#DejaVuSans-30"
                 x="99.707031"
                 id="use2888" />
              <use
                 xlink:href="#DejaVuSans-30"
                 x="163.33008"
                 id="use2890" />
            </g>
          </g>
        </g>
        <g
           id="xtick_7">
          <g
             id="line2d_7">
            <g
               id="g2898">
              <use
                 xlink:href="#m3843133da4"
                 x="317.35406"
                 y="307.58401"
                 style="stroke:#000000;stroke-width:0.8"
                 id="use2896" />
            </g>
          </g>
          <g
             id="text_7">
            <!-- -600 -->
            <g
               transform="matrix(0.1,0,0,-0.1,306.00642,322.18244)"
               id="g2909">
              <use
                 xlink:href="#DejaVuSans-2d"
                 id="use2901" />
              <use
                 xlink:href="#DejaVuSans-36"
                 x="36.083984"
                 id="use2903" />
              <use
                 xlink:href="#DejaVuSans-30"
                 x="99.707031"
                 id="use2905" />
              <use
                 xlink:href="#DejaVuSans-30"
                 x="163.33008"
                 id="use2907" />
            </g>
          </g>
        </g>
        <g
           id="xtick_8">
          <g
             id="line2d_8">
            <g
               id="g2915">
              <use
                 xlink:href="#m3843133da4"
                 x="357.94098"
                 y="307.58401"
                 style="stroke:#000000;stroke-width:0.8"
                 id="use2913" />
            </g>
          </g>
          <g
             id="text_8">
            <!-- -400 -->
            <g
               transform="matrix(0.1,0,0,-0.1,346.59331,322.18244)"
               id="g2926">
              <use
                 xlink:href="#DejaVuSans-2d"
                 id="use2918" />
              <use
                 xlink:href="#DejaVuSans-34"
                 x="36.083984"
                 id="use2920" />
              <use
                 xlink:href="#DejaVuSans-30"
                 x="99.707031"
                 id="use2922" />
              <use
                 xlink:href="#DejaVuSans-30"
                 x="163.33008"
                 id="use2924" />
            </g>
          </g>
        </g>
        <g
           id="xtick_9">
          <g
             id="line2d_9">
            <g
               id="g2932">
              <use
                 xlink:href="#m3843133da4"
                 x="398.52786"
                 y="307.58401"
                 style="stroke:#000000;stroke-width:0.8"
                 id="use2930" />
            </g>
          </g>
          <g
             id="text_9">
            <!-- -200 -->
            <g
               transform="matrix(0.1,0,0,-0.1,387.1802,322.18244)"
               id="g2943">
              <use
                 xlink:href="#DejaVuSans-2d"
                 id="use2935" />
              <use
                 xlink:href="#DejaVuSans-32"
                 x="36.083984"
                 id="use2937" />
              <use
                 xlink:href="#DejaVuSans-30"
                 x="99.707031"
                 id="use2939" />
              <use
                 xlink:href="#DejaVuSans-30"
                 x="163.33008"
                 id="use2941" />
            </g>
          </g>
        </g>
        <g
           id="text_10">
          <!-- lag temporale [anni] -->
          <g
             transform="matrix(0.16,0,0,-0.16,154.2025,340.41962)"
             id="g3003">
            <defs
               id="defs2961">
              <path
                 id="DejaVuSans-6c"
                 d="m 603,4863 h 575 V 0 H 603 Z"
                 transform="scale(0.015625)" />
              <path
                 id="DejaVuSans-61"
                 d="m 2194,1759 q -697,0 -966,-159 -269,-159 -269,-544 0,-306 202,-486 202,-179 548,-179 479,0 768,339 289,339 289,901 v 128 z m 1147,238 V 0 H 2766 V 531 Q 2569,213 2275,61 1981,-91 1556,-91 q -537,0 -855,302 -317,302 -317,808 0,590 395,890 396,300 1180,300 h 807 v 57 q 0,397 -261,614 -261,217 -733,217 -300,0 -585,-72 -284,-72 -546,-216 v 532 q 315,122 612,182 297,61 578,61 760,0 1135,-394 375,-393 375,-1193 z"
                 transform="scale(0.015625)" />
              <path
                 id="DejaVuSans-67"
                 d="m 2906,1791 q 0,625 -258,968 -257,344 -723,344 -462,0 -720,-344 -258,-343 -258,-968 0,-622 258,-966 258,-344 720,-344 466,0 723,344 258,344 258,966 z M 3481,434 q 0,-893 -397,-1329 -396,-436 -1215,-436 -303,0 -572,45 -269,45 -522,139 v 559 q 253,-137 500,-202 247,-66 503,-66 566,0 847,295 281,295 281,892 V 616 Q 2728,306 2450,153 2172,0 1784,0 1141,0 747,490 353,981 353,1791 q 0,812 394,1302 394,491 1037,491 388,0 666,-153 278,-153 456,-462 v 531 h 575 z"
                 transform="scale(0.015625)" />
              <path
                 id="DejaVuSans-20"
                 transform="scale(0.015625)"
                 d="" />
              <path
                 id="DejaVuSans-74"
                 d="M 1172,4494 V 3500 H 2356 V 3053 H 1172 V 1153 q 0,-428 117,-550 117,-122 477,-122 h 590 V 0 H 1766 Q 1100,0 847,248 594,497 594,1153 V 3053 H 172 v 447 h 422 v 994 z"
                 transform="scale(0.015625)" />
              <path
                 id="DejaVuSans-65"
                 d="M 3597,1894 V 1613 H 953 q 38,-594 358,-905 320,-311 892,-311 331,0 642,81 311,81 618,244 V 178 Q 3153,47 2828,-22 2503,-91 2169,-91 1331,-91 842,396 353,884 353,1716 q 0,859 464,1363 464,505 1252,505 706,0 1117,-455 411,-454 411,-1235 z m -575,169 q -6,471 -264,752 -258,282 -683,282 -481,0 -770,-272 -289,-272 -333,-766 z"
                 transform="scale(0.015625)" />
              <path
                 id="DejaVuSans-6d"
                 d="m 3328,2828 q 216,388 516,572 300,184 706,184 547,0 844,-383 297,-382 297,-1088 V 0 h -578 v 2094 q 0,503 -179,746 -178,244 -543,244 -447,0 -707,-297 -259,-296 -259,-809 V 0 h -578 v 2094 q 0,506 -178,748 -178,242 -550,242 -441,0 -701,-298 -259,-298 -259,-808 V 0 H 581 v 3500 h 578 v -544 q 197,322 472,475 275,153 653,153 382,0 649,-194 267,-193 395,-562 z"
                 transform="scale(0.015625)" />
              <path
                 id="DejaVuSans-70"
                 d="M 1159,525 V -1331 H 581 v 4831 h 578 v -531 q 182,312 458,463 277,152 661,152 638,0 1036,-506 399,-506 399,-1331 0,-825 -399,-1332 -398,-506 -1036,-506 -384,0 -661,152 -276,152 -458,464 z m 1957,1222 q 0,634 -261,995 -261,361 -717,361 -457,0 -718,-361 -261,-361 -261,-995 0,-634 261,-995 261,-361 718,-361 456,0 717,361 261,361 261,995 z"
                 transform="scale(0.015625)" />
              <path
                 id="DejaVuSans-6f"
                 d="m 1959,3097 q -462,0 -731,-361 -269,-361 -269,-989 0,-628 267,-989 268,-361 733,-361 460,0 728,362 269,363 269,988 0,622 -269,986 -268,364 -728,364 z m 0,487 q 750,0 1178,-488 429,-487 429,-1349 Q 3566,888 3137,398 2709,-91 1959,-91 1206,-91 779,398 353,888 353,1747 q 0,862 426,1349 427,488 1180,488 z"
                 transform="scale(0.015625)" />
              <path
                 id="DejaVuSans-72"
                 d="m 2631,2963 q -97,56 -211,82 -114,27 -251,27 -488,0 -749,-317 -261,-317 -261,-911 V 0 H 581 v 3500 h 578 v -544 q 182,319 472,473 291,155 707,155 59,0 131,-8 72,-7 159,-23 z"
                 transform="scale(0.015625)" />
              <path
                 id="DejaVuSans-5b"
                 d="M 550,4863 H 1875 V 4416 H 1125 V -397 h 750 V -844 H 550 Z"
                 transform="scale(0.015625)" />
              <path
                 id="DejaVuSans-6e"
                 d="M 3513,2113 V 0 h -575 v 2094 q 0,497 -194,743 -194,247 -581,247 -466,0 -735,-297 -269,-296 -269,-809 V 0 H 581 v 3500 h 578 v -544 q 207,316 486,472 280,156 646,156 603,0 912,-373 310,-373 310,-1098 z"
                 transform="scale(0.015625)" />
              <path
                 id="DejaVuSans-69"
                 d="m 603,3500 h 575 V 0 H 603 Z m 0,1363 h 575 V 4134 H 603 Z"
                 transform="scale(0.015625)" />
              <path
                 id="DejaVuSans-5d"
                 d="M 1947,4863 V -844 H 622 v 447 h 747 V 4416 H 622 v 447 z"
                 transform="scale(0.015625)" />
            </defs>
            <use
               xlink:href="#DejaVuSans-6c"
               id="use2963" />
            <use
               xlink:href="#DejaVuSans-61"
               x="27.783203"
               id="use2965" />
            <use
               xlink:href="#DejaVuSans-67"
               x="89.0625"
               id="use2967" />
            <use
               xlink:href="#DejaVuSans-20"
               x="152.53906"
               id="use2969" />
            <use
               xlink:href="#DejaVuSans-74"
               x="184.32617"
               id="use2971" />
            <use
               xlink:href="#DejaVuSans-65"
               x="223.53516"
               id="use2973" />
            <use
               xlink:href="#DejaVuSans-6d"
               x="285.05859"
               id="use2975" />
            <use
               xlink:href="#DejaVuSans-70"
               x="382.4707"
               id="use2977" />
            <use
               xlink:href="#DejaVuSans-6f"
               x="445.94727"
               id="use2979" />
            <use
               xlink:href="#DejaVuSans-72"
               x="507.12891"
               id="use2981" />
            <use
               xlink:href="#DejaVuSans-61"
               x="548.24219"
               id="use2983" />
            <use
               xlink:href="#DejaVuSans-6c"
               x="609.52148"
               id="use2985" />
            <use
               xlink:href="#DejaVuSans-65"
               x="637.30469"
               id="use2987" />
            <use
               xlink:href="#DejaVuSans-20"
               x="698.82812"
               id="use2989" />
            <use
               xlink:href="#DejaVuSans-5b"
               x="730.61523"
               id="use2991" />
            <use
               xlink:href="#DejaVuSans-61"
               x="769.62891"
               id="use2993" />
            <use
               xlink:href="#DejaVuSans-6e"
               x="830.9082"
               id="use2995" />
            <use
               xlink:href="#DejaVuSans-6e"
               x="894.28711"
               id="use2997" />
            <use
               xlink:href="#DejaVuSans-69"
               x="957.66602"
               id="use2999" />
            <use
               xlink:href="#DejaVuSans-5d"
               x="985.44922"
               id="use3001" />
          </g>
        </g>
      </g>
      <g
         id="line2d_18" />
      <g
         id="patch_5"
         transform="translate(-432.89364,-66.925844)">
        <path
           d="M 57.6,307.584 H 414.72"
           style="fill:none;stroke:#000000;stroke-width:0.8;stroke-linecap:square;stroke-linejoin:miter"
           id="path3191" />
      </g>
    </g>
  </g>
  <defs
     id="defs3202">
    <clipPath
       id="p18af2650e3">
      <rect
         x="57.6"
         y="41.472"
         width="357.12"
         height="266.112"
         id="rect3199" />
    </clipPath>
  </defs>
</svg>
