<?xml version="1.0" encoding="utf-8" standalone="no"?>
<!DOCTYPE svg PUBLIC "-//W3C//DTD SVG 1.1//EN"
  "http://www.w3.org/Graphics/SVG/1.1/DTD/svg11.dtd">
<svg xmlns:xlink="http://www.w3.org/1999/xlink" width="460.8pt" height="345.6pt" viewBox="0 0 460.8 345.6" xmlns="http://www.w3.org/2000/svg" version="1.1">
 <metadata>
  <rdf:RDF xmlns:dc="http://purl.org/dc/elements/1.1/" xmlns:cc="http://creativecommons.org/ns#" xmlns:rdf="http://www.w3.org/1999/02/22-rdf-syntax-ns#">
   <cc:Work>
    <dc:type rdf:resource="http://purl.org/dc/dcmitype/StillImage"/>
    <dc:date>2023-04-13T15:52:40.519906</dc:date>
    <dc:format>image/svg+xml</dc:format>
    <dc:creator>
     <cc:Agent>
      <dc:title>Matplotlib v3.7.1, https://matplotlib.org/</dc:title>
     </cc:Agent>
    </dc:creator>
   </cc:Work>
  </rdf:RDF>
 </metadata>
 <defs>
  <style type="text/css">*{stroke-linejoin: round; stroke-linecap: butt}</style>
 </defs>
 <g id="figure_1">
  <g id="patch_1">
   <path d="M 0 345.6 
L 460.8 345.6 
L 460.8 0 
L 0 0 
z
" style="fill: #ffffff"/>
  </g>
  <g id="axes_1">
   <g id="patch_2">
    <path d="M 57.6 307.584 
L 414.72 307.584 
L 414.72 41.472 
L 57.6 41.472 
z
" style="fill: #ffffff"/>
   </g>
   <g id="matplotlib.axis_1">
    <g id="xtick_1">
     <g id="line2d_1">
      <defs>
       <path id="ma3e164beff" d="M 0 0 
L 0 3.5 
" style="stroke: #000000; stroke-width: 0.8"/>
      </defs>
      <g>
       <use xlink:href="#ma3e164beff" x="73.832727" y="307.584" style="stroke: #000000; stroke-width: 0.8"/>
      </g>
     </g>
     <g id="text_1">
      <!-- -800 -->
      <g transform="translate(62.485071 322.182437) scale(0.1 -0.1)">
       <defs>
        <path id="DejaVuSans-2d" d="M 313 2009 
L 1997 2009 
L 1997 1497 
L 313 1497 
L 313 2009 
z
" transform="scale(0.015625)"/>
        <path id="DejaVuSans-38" d="M 2034 2216 
Q 1584 2216 1326 1975 
Q 1069 1734 1069 1313 
Q 1069 891 1326 650 
Q 1584 409 2034 409 
Q 2484 409 2743 651 
Q 3003 894 3003 1313 
Q 3003 1734 2745 1975 
Q 2488 2216 2034 2216 
z
M 1403 2484 
Q 997 2584 770 2862 
Q 544 3141 544 3541 
Q 544 4100 942 4425 
Q 1341 4750 2034 4750 
Q 2731 4750 3128 4425 
Q 3525 4100 3525 3541 
Q 3525 3141 3298 2862 
Q 3072 2584 2669 2484 
Q 3125 2378 3379 2068 
Q 3634 1759 3634 1313 
Q 3634 634 3220 271 
Q 2806 -91 2034 -91 
Q 1263 -91 848 271 
Q 434 634 434 1313 
Q 434 1759 690 2068 
Q 947 2378 1403 2484 
z
M 1172 3481 
Q 1172 3119 1398 2916 
Q 1625 2713 2034 2713 
Q 2441 2713 2670 2916 
Q 2900 3119 2900 3481 
Q 2900 3844 2670 4047 
Q 2441 4250 2034 4250 
Q 1625 4250 1398 4047 
Q 1172 3844 1172 3481 
z
" transform="scale(0.015625)"/>
        <path id="DejaVuSans-30" d="M 2034 4250 
Q 1547 4250 1301 3770 
Q 1056 3291 1056 2328 
Q 1056 1369 1301 889 
Q 1547 409 2034 409 
Q 2525 409 2770 889 
Q 3016 1369 3016 2328 
Q 3016 3291 2770 3770 
Q 2525 4250 2034 4250 
z
M 2034 4750 
Q 2819 4750 3233 4129 
Q 3647 3509 3647 2328 
Q 3647 1150 3233 529 
Q 2819 -91 2034 -91 
Q 1250 -91 836 529 
Q 422 1150 422 2328 
Q 422 3509 836 4129 
Q 1250 4750 2034 4750 
z
" transform="scale(0.015625)"/>
       </defs>
       <use xlink:href="#DejaVuSans-2d"/>
       <use xlink:href="#DejaVuSans-38" x="36.083984"/>
       <use xlink:href="#DejaVuSans-30" x="99.707031"/>
       <use xlink:href="#DejaVuSans-30" x="163.330078"/>
      </g>
     </g>
    </g>
    <g id="xtick_2">
     <g id="line2d_2">
      <g>
       <use xlink:href="#ma3e164beff" x="114.419619" y="307.584" style="stroke: #000000; stroke-width: 0.8"/>
      </g>
     </g>
     <g id="text_2">
      <!-- -600 -->
      <g transform="translate(103.071963 322.182437) scale(0.1 -0.1)">
       <defs>
        <path id="DejaVuSans-36" d="M 2113 2584 
Q 1688 2584 1439 2293 
Q 1191 2003 1191 1497 
Q 1191 994 1439 701 
Q 1688 409 2113 409 
Q 2538 409 2786 701 
Q 3034 994 3034 1497 
Q 3034 2003 2786 2293 
Q 2538 2584 2113 2584 
z
M 3366 4563 
L 3366 3988 
Q 3128 4100 2886 4159 
Q 2644 4219 2406 4219 
Q 1781 4219 1451 3797 
Q 1122 3375 1075 2522 
Q 1259 2794 1537 2939 
Q 1816 3084 2150 3084 
Q 2853 3084 3261 2657 
Q 3669 2231 3669 1497 
Q 3669 778 3244 343 
Q 2819 -91 2113 -91 
Q 1303 -91 875 529 
Q 447 1150 447 2328 
Q 447 3434 972 4092 
Q 1497 4750 2381 4750 
Q 2619 4750 2861 4703 
Q 3103 4656 3366 4563 
z
" transform="scale(0.015625)"/>
       </defs>
       <use xlink:href="#DejaVuSans-2d"/>
       <use xlink:href="#DejaVuSans-36" x="36.083984"/>
       <use xlink:href="#DejaVuSans-30" x="99.707031"/>
       <use xlink:href="#DejaVuSans-30" x="163.330078"/>
      </g>
     </g>
    </g>
    <g id="xtick_3">
     <g id="line2d_3">
      <g>
       <use xlink:href="#ma3e164beff" x="155.00651" y="307.584" style="stroke: #000000; stroke-width: 0.8"/>
      </g>
     </g>
     <g id="text_3">
      <!-- -400 -->
      <g transform="translate(143.658854 322.182437) scale(0.1 -0.1)">
       <defs>
        <path id="DejaVuSans-34" d="M 2419 4116 
L 825 1625 
L 2419 1625 
L 2419 4116 
z
M 2253 4666 
L 3047 4666 
L 3047 1625 
L 3713 1625 
L 3713 1100 
L 3047 1100 
L 3047 0 
L 2419 0 
L 2419 1100 
L 313 1100 
L 313 1709 
L 2253 4666 
z
" transform="scale(0.015625)"/>
       </defs>
       <use xlink:href="#DejaVuSans-2d"/>
       <use xlink:href="#DejaVuSans-34" x="36.083984"/>
       <use xlink:href="#DejaVuSans-30" x="99.707031"/>
       <use xlink:href="#DejaVuSans-30" x="163.330078"/>
      </g>
     </g>
    </g>
    <g id="xtick_4">
     <g id="line2d_4">
      <g>
       <use xlink:href="#ma3e164beff" x="195.593402" y="307.584" style="stroke: #000000; stroke-width: 0.8"/>
      </g>
     </g>
     <g id="text_4">
      <!-- -200 -->
      <g transform="translate(184.245746 322.182437) scale(0.1 -0.1)">
       <defs>
        <path id="DejaVuSans-32" d="M 1228 531 
L 3431 531 
L 3431 0 
L 469 0 
L 469 531 
Q 828 903 1448 1529 
Q 2069 2156 2228 2338 
Q 2531 2678 2651 2914 
Q 2772 3150 2772 3378 
Q 2772 3750 2511 3984 
Q 2250 4219 1831 4219 
Q 1534 4219 1204 4116 
Q 875 4013 500 3803 
L 500 4441 
Q 881 4594 1212 4672 
Q 1544 4750 1819 4750 
Q 2544 4750 2975 4387 
Q 3406 4025 3406 3419 
Q 3406 3131 3298 2873 
Q 3191 2616 2906 2266 
Q 2828 2175 2409 1742 
Q 1991 1309 1228 531 
z
" transform="scale(0.015625)"/>
       </defs>
       <use xlink:href="#DejaVuSans-2d"/>
       <use xlink:href="#DejaVuSans-32" x="36.083984"/>
       <use xlink:href="#DejaVuSans-30" x="99.707031"/>
       <use xlink:href="#DejaVuSans-30" x="163.330078"/>
      </g>
     </g>
    </g>
    <g id="xtick_5">
     <g id="line2d_5">
      <g>
       <use xlink:href="#ma3e164beff" x="236.180293" y="307.584" style="stroke: #000000; stroke-width: 0.8"/>
      </g>
     </g>
     <g id="text_5">
      <!-- 0 -->
      <g transform="translate(232.999043 322.182437) scale(0.1 -0.1)">
       <use xlink:href="#DejaVuSans-30"/>
      </g>
     </g>
    </g>
    <g id="xtick_6">
     <g id="line2d_6">
      <g>
       <use xlink:href="#ma3e164beff" x="276.767185" y="307.584" style="stroke: #000000; stroke-width: 0.8"/>
      </g>
     </g>
     <g id="text_6">
      <!-- 200 -->
      <g transform="translate(267.223435 322.182437) scale(0.1 -0.1)">
       <use xlink:href="#DejaVuSans-32"/>
       <use xlink:href="#DejaVuSans-30" x="63.623047"/>
       <use xlink:href="#DejaVuSans-30" x="127.246094"/>
      </g>
     </g>
    </g>
    <g id="xtick_7">
     <g id="line2d_7">
      <g>
       <use xlink:href="#ma3e164beff" x="317.354077" y="307.584" style="stroke: #000000; stroke-width: 0.8"/>
      </g>
     </g>
     <g id="text_7">
      <!-- 400 -->
      <g transform="translate(307.810327 322.182437) scale(0.1 -0.1)">
       <use xlink:href="#DejaVuSans-34"/>
       <use xlink:href="#DejaVuSans-30" x="63.623047"/>
       <use xlink:href="#DejaVuSans-30" x="127.246094"/>
      </g>
     </g>
    </g>
    <g id="xtick_8">
     <g id="line2d_8">
      <g>
       <use xlink:href="#ma3e164beff" x="357.940968" y="307.584" style="stroke: #000000; stroke-width: 0.8"/>
      </g>
     </g>
     <g id="text_8">
      <!-- 600 -->
      <g transform="translate(348.397218 322.182437) scale(0.1 -0.1)">
       <use xlink:href="#DejaVuSans-36"/>
       <use xlink:href="#DejaVuSans-30" x="63.623047"/>
       <use xlink:href="#DejaVuSans-30" x="127.246094"/>
      </g>
     </g>
    </g>
    <g id="xtick_9">
     <g id="line2d_9">
      <g>
       <use xlink:href="#ma3e164beff" x="398.52786" y="307.584" style="stroke: #000000; stroke-width: 0.8"/>
      </g>
     </g>
     <g id="text_9">
      <!-- 800 -->
      <g transform="translate(388.98411 322.182437) scale(0.1 -0.1)">
       <use xlink:href="#DejaVuSans-38"/>
       <use xlink:href="#DejaVuSans-30" x="63.623047"/>
       <use xlink:href="#DejaVuSans-30" x="127.246094"/>
      </g>
     </g>
    </g>
    <g id="text_10">
     <!-- lag temporale [Millenni] -->
     <g transform="translate(140.6125 340.419625) scale(0.16 -0.16)">
      <defs>
       <path id="DejaVuSans-6c" d="M 603 4863 
L 1178 4863 
L 1178 0 
L 603 0 
L 603 4863 
z
" transform="scale(0.015625)"/>
       <path id="DejaVuSans-61" d="M 2194 1759 
Q 1497 1759 1228 1600 
Q 959 1441 959 1056 
Q 959 750 1161 570 
Q 1363 391 1709 391 
Q 2188 391 2477 730 
Q 2766 1069 2766 1631 
L 2766 1759 
L 2194 1759 
z
M 3341 1997 
L 3341 0 
L 2766 0 
L 2766 531 
Q 2569 213 2275 61 
Q 1981 -91 1556 -91 
Q 1019 -91 701 211 
Q 384 513 384 1019 
Q 384 1609 779 1909 
Q 1175 2209 1959 2209 
L 2766 2209 
L 2766 2266 
Q 2766 2663 2505 2880 
Q 2244 3097 1772 3097 
Q 1472 3097 1187 3025 
Q 903 2953 641 2809 
L 641 3341 
Q 956 3463 1253 3523 
Q 1550 3584 1831 3584 
Q 2591 3584 2966 3190 
Q 3341 2797 3341 1997 
z
" transform="scale(0.015625)"/>
       <path id="DejaVuSans-67" d="M 2906 1791 
Q 2906 2416 2648 2759 
Q 2391 3103 1925 3103 
Q 1463 3103 1205 2759 
Q 947 2416 947 1791 
Q 947 1169 1205 825 
Q 1463 481 1925 481 
Q 2391 481 2648 825 
Q 2906 1169 2906 1791 
z
M 3481 434 
Q 3481 -459 3084 -895 
Q 2688 -1331 1869 -1331 
Q 1566 -1331 1297 -1286 
Q 1028 -1241 775 -1147 
L 775 -588 
Q 1028 -725 1275 -790 
Q 1522 -856 1778 -856 
Q 2344 -856 2625 -561 
Q 2906 -266 2906 331 
L 2906 616 
Q 2728 306 2450 153 
Q 2172 0 1784 0 
Q 1141 0 747 490 
Q 353 981 353 1791 
Q 353 2603 747 3093 
Q 1141 3584 1784 3584 
Q 2172 3584 2450 3431 
Q 2728 3278 2906 2969 
L 2906 3500 
L 3481 3500 
L 3481 434 
z
" transform="scale(0.015625)"/>
       <path id="DejaVuSans-20" transform="scale(0.015625)"/>
       <path id="DejaVuSans-74" d="M 1172 4494 
L 1172 3500 
L 2356 3500 
L 2356 3053 
L 1172 3053 
L 1172 1153 
Q 1172 725 1289 603 
Q 1406 481 1766 481 
L 2356 481 
L 2356 0 
L 1766 0 
Q 1100 0 847 248 
Q 594 497 594 1153 
L 594 3053 
L 172 3053 
L 172 3500 
L 594 3500 
L 594 4494 
L 1172 4494 
z
" transform="scale(0.015625)"/>
       <path id="DejaVuSans-65" d="M 3597 1894 
L 3597 1613 
L 953 1613 
Q 991 1019 1311 708 
Q 1631 397 2203 397 
Q 2534 397 2845 478 
Q 3156 559 3463 722 
L 3463 178 
Q 3153 47 2828 -22 
Q 2503 -91 2169 -91 
Q 1331 -91 842 396 
Q 353 884 353 1716 
Q 353 2575 817 3079 
Q 1281 3584 2069 3584 
Q 2775 3584 3186 3129 
Q 3597 2675 3597 1894 
z
M 3022 2063 
Q 3016 2534 2758 2815 
Q 2500 3097 2075 3097 
Q 1594 3097 1305 2825 
Q 1016 2553 972 2059 
L 3022 2063 
z
" transform="scale(0.015625)"/>
       <path id="DejaVuSans-6d" d="M 3328 2828 
Q 3544 3216 3844 3400 
Q 4144 3584 4550 3584 
Q 5097 3584 5394 3201 
Q 5691 2819 5691 2113 
L 5691 0 
L 5113 0 
L 5113 2094 
Q 5113 2597 4934 2840 
Q 4756 3084 4391 3084 
Q 3944 3084 3684 2787 
Q 3425 2491 3425 1978 
L 3425 0 
L 2847 0 
L 2847 2094 
Q 2847 2600 2669 2842 
Q 2491 3084 2119 3084 
Q 1678 3084 1418 2786 
Q 1159 2488 1159 1978 
L 1159 0 
L 581 0 
L 581 3500 
L 1159 3500 
L 1159 2956 
Q 1356 3278 1631 3431 
Q 1906 3584 2284 3584 
Q 2666 3584 2933 3390 
Q 3200 3197 3328 2828 
z
" transform="scale(0.015625)"/>
       <path id="DejaVuSans-70" d="M 1159 525 
L 1159 -1331 
L 581 -1331 
L 581 3500 
L 1159 3500 
L 1159 2969 
Q 1341 3281 1617 3432 
Q 1894 3584 2278 3584 
Q 2916 3584 3314 3078 
Q 3713 2572 3713 1747 
Q 3713 922 3314 415 
Q 2916 -91 2278 -91 
Q 1894 -91 1617 61 
Q 1341 213 1159 525 
z
M 3116 1747 
Q 3116 2381 2855 2742 
Q 2594 3103 2138 3103 
Q 1681 3103 1420 2742 
Q 1159 2381 1159 1747 
Q 1159 1113 1420 752 
Q 1681 391 2138 391 
Q 2594 391 2855 752 
Q 3116 1113 3116 1747 
z
" transform="scale(0.015625)"/>
       <path id="DejaVuSans-6f" d="M 1959 3097 
Q 1497 3097 1228 2736 
Q 959 2375 959 1747 
Q 959 1119 1226 758 
Q 1494 397 1959 397 
Q 2419 397 2687 759 
Q 2956 1122 2956 1747 
Q 2956 2369 2687 2733 
Q 2419 3097 1959 3097 
z
M 1959 3584 
Q 2709 3584 3137 3096 
Q 3566 2609 3566 1747 
Q 3566 888 3137 398 
Q 2709 -91 1959 -91 
Q 1206 -91 779 398 
Q 353 888 353 1747 
Q 353 2609 779 3096 
Q 1206 3584 1959 3584 
z
" transform="scale(0.015625)"/>
       <path id="DejaVuSans-72" d="M 2631 2963 
Q 2534 3019 2420 3045 
Q 2306 3072 2169 3072 
Q 1681 3072 1420 2755 
Q 1159 2438 1159 1844 
L 1159 0 
L 581 0 
L 581 3500 
L 1159 3500 
L 1159 2956 
Q 1341 3275 1631 3429 
Q 1922 3584 2338 3584 
Q 2397 3584 2469 3576 
Q 2541 3569 2628 3553 
L 2631 2963 
z
" transform="scale(0.015625)"/>
       <path id="DejaVuSans-5b" d="M 550 4863 
L 1875 4863 
L 1875 4416 
L 1125 4416 
L 1125 -397 
L 1875 -397 
L 1875 -844 
L 550 -844 
L 550 4863 
z
" transform="scale(0.015625)"/>
       <path id="DejaVuSans-4d" d="M 628 4666 
L 1569 4666 
L 2759 1491 
L 3956 4666 
L 4897 4666 
L 4897 0 
L 4281 0 
L 4281 4097 
L 3078 897 
L 2444 897 
L 1241 4097 
L 1241 0 
L 628 0 
L 628 4666 
z
" transform="scale(0.015625)"/>
       <path id="DejaVuSans-69" d="M 603 3500 
L 1178 3500 
L 1178 0 
L 603 0 
L 603 3500 
z
M 603 4863 
L 1178 4863 
L 1178 4134 
L 603 4134 
L 603 4863 
z
" transform="scale(0.015625)"/>
       <path id="DejaVuSans-6e" d="M 3513 2113 
L 3513 0 
L 2938 0 
L 2938 2094 
Q 2938 2591 2744 2837 
Q 2550 3084 2163 3084 
Q 1697 3084 1428 2787 
Q 1159 2491 1159 1978 
L 1159 0 
L 581 0 
L 581 3500 
L 1159 3500 
L 1159 2956 
Q 1366 3272 1645 3428 
Q 1925 3584 2291 3584 
Q 2894 3584 3203 3211 
Q 3513 2838 3513 2113 
z
" transform="scale(0.015625)"/>
       <path id="DejaVuSans-5d" d="M 1947 4863 
L 1947 -844 
L 622 -844 
L 622 -397 
L 1369 -397 
L 1369 4416 
L 622 4416 
L 622 4863 
L 1947 4863 
z
" transform="scale(0.015625)"/>
      </defs>
      <use xlink:href="#DejaVuSans-6c"/>
      <use xlink:href="#DejaVuSans-61" x="27.783203"/>
      <use xlink:href="#DejaVuSans-67" x="89.0625"/>
      <use xlink:href="#DejaVuSans-20" x="152.539062"/>
      <use xlink:href="#DejaVuSans-74" x="184.326172"/>
      <use xlink:href="#DejaVuSans-65" x="223.535156"/>
      <use xlink:href="#DejaVuSans-6d" x="285.058594"/>
      <use xlink:href="#DejaVuSans-70" x="382.470703"/>
      <use xlink:href="#DejaVuSans-6f" x="445.947266"/>
      <use xlink:href="#DejaVuSans-72" x="507.128906"/>
      <use xlink:href="#DejaVuSans-61" x="548.242188"/>
      <use xlink:href="#DejaVuSans-6c" x="609.521484"/>
      <use xlink:href="#DejaVuSans-65" x="637.304688"/>
      <use xlink:href="#DejaVuSans-20" x="698.828125"/>
      <use xlink:href="#DejaVuSans-5b" x="730.615234"/>
      <use xlink:href="#DejaVuSans-4d" x="769.628906"/>
      <use xlink:href="#DejaVuSans-69" x="855.908203"/>
      <use xlink:href="#DejaVuSans-6c" x="883.691406"/>
      <use xlink:href="#DejaVuSans-6c" x="911.474609"/>
      <use xlink:href="#DejaVuSans-65" x="939.257812"/>
      <use xlink:href="#DejaVuSans-6e" x="1000.78125"/>
      <use xlink:href="#DejaVuSans-6e" x="1064.160156"/>
      <use xlink:href="#DejaVuSans-69" x="1127.539062"/>
      <use xlink:href="#DejaVuSans-5d" x="1155.322266"/>
     </g>
    </g>
   </g>
   <g id="matplotlib.axis_2">
    <g id="ytick_1">
     <g id="line2d_10">
      <defs>
       <path id="m40ab9fe03e" d="M 0 0 
L -3.5 0 
" style="stroke: #000000; stroke-width: 0.8"/>
      </defs>
      <g>
       <use xlink:href="#m40ab9fe03e" x="57.6" y="287.238959" style="stroke: #000000; stroke-width: 0.8"/>
      </g>
     </g>
     <g id="text_11">
      <!-- −10 -->
      <g transform="translate(29.495313 291.038177) scale(0.1 -0.1)">
       <defs>
        <path id="DejaVuSans-2212" d="M 678 2272 
L 4684 2272 
L 4684 1741 
L 678 1741 
L 678 2272 
z
" transform="scale(0.015625)"/>
        <path id="DejaVuSans-31" d="M 794 531 
L 1825 531 
L 1825 4091 
L 703 3866 
L 703 4441 
L 1819 4666 
L 2450 4666 
L 2450 531 
L 3481 531 
L 3481 0 
L 794 0 
L 794 531 
z
" transform="scale(0.015625)"/>
       </defs>
       <use xlink:href="#DejaVuSans-2212"/>
       <use xlink:href="#DejaVuSans-31" x="83.789062"/>
       <use xlink:href="#DejaVuSans-30" x="147.412109"/>
      </g>
     </g>
    </g>
    <g id="ytick_2">
     <g id="line2d_11">
      <g>
       <use xlink:href="#m40ab9fe03e" x="57.6" y="255.293045" style="stroke: #000000; stroke-width: 0.8"/>
      </g>
     </g>
     <g id="text_12">
      <!-- −5 -->
      <g transform="translate(35.857813 259.092263) scale(0.1 -0.1)">
       <defs>
        <path id="DejaVuSans-35" d="M 691 4666 
L 3169 4666 
L 3169 4134 
L 1269 4134 
L 1269 2991 
Q 1406 3038 1543 3061 
Q 1681 3084 1819 3084 
Q 2600 3084 3056 2656 
Q 3513 2228 3513 1497 
Q 3513 744 3044 326 
Q 2575 -91 1722 -91 
Q 1428 -91 1123 -41 
Q 819 9 494 109 
L 494 744 
Q 775 591 1075 516 
Q 1375 441 1709 441 
Q 2250 441 2565 725 
Q 2881 1009 2881 1497 
Q 2881 1984 2565 2268 
Q 2250 2553 1709 2553 
Q 1456 2553 1204 2497 
Q 953 2441 691 2322 
L 691 4666 
z
" transform="scale(0.015625)"/>
       </defs>
       <use xlink:href="#DejaVuSans-2212"/>
       <use xlink:href="#DejaVuSans-35" x="83.789062"/>
      </g>
     </g>
    </g>
    <g id="ytick_3">
     <g id="line2d_12">
      <g>
       <use xlink:href="#m40ab9fe03e" x="57.6" y="223.347131" style="stroke: #000000; stroke-width: 0.8"/>
      </g>
     </g>
     <g id="text_13">
      <!-- 0 -->
      <g transform="translate(44.2375 227.146349) scale(0.1 -0.1)">
       <use xlink:href="#DejaVuSans-30"/>
      </g>
     </g>
    </g>
    <g id="ytick_4">
     <g id="line2d_13">
      <g>
       <use xlink:href="#m40ab9fe03e" x="57.6" y="191.401217" style="stroke: #000000; stroke-width: 0.8"/>
      </g>
     </g>
     <g id="text_14">
      <!-- 5 -->
      <g transform="translate(44.2375 195.200435) scale(0.1 -0.1)">
       <use xlink:href="#DejaVuSans-35"/>
      </g>
     </g>
    </g>
    <g id="ytick_5">
     <g id="line2d_14">
      <g>
       <use xlink:href="#m40ab9fe03e" x="57.6" y="159.455303" style="stroke: #000000; stroke-width: 0.8"/>
      </g>
     </g>
     <g id="text_15">
      <!-- 10 -->
      <g transform="translate(37.875 163.254521) scale(0.1 -0.1)">
       <use xlink:href="#DejaVuSans-31"/>
       <use xlink:href="#DejaVuSans-30" x="63.623047"/>
      </g>
     </g>
    </g>
    <g id="ytick_6">
     <g id="line2d_15">
      <g>
       <use xlink:href="#m40ab9fe03e" x="57.6" y="127.509389" style="stroke: #000000; stroke-width: 0.8"/>
      </g>
     </g>
     <g id="text_16">
      <!-- 15 -->
      <g transform="translate(37.875 131.308607) scale(0.1 -0.1)">
       <use xlink:href="#DejaVuSans-31"/>
       <use xlink:href="#DejaVuSans-35" x="63.623047"/>
      </g>
     </g>
    </g>
    <g id="ytick_7">
     <g id="line2d_16">
      <g>
       <use xlink:href="#m40ab9fe03e" x="57.6" y="95.563475" style="stroke: #000000; stroke-width: 0.8"/>
      </g>
     </g>
     <g id="text_17">
      <!-- 20 -->
      <g transform="translate(37.875 99.362693) scale(0.1 -0.1)">
       <use xlink:href="#DejaVuSans-32"/>
       <use xlink:href="#DejaVuSans-30" x="63.623047"/>
      </g>
     </g>
    </g>
    <g id="ytick_8">
     <g id="line2d_17">
      <g>
       <use xlink:href="#m40ab9fe03e" x="57.6" y="63.617561" style="stroke: #000000; stroke-width: 0.8"/>
      </g>
     </g>
     <g id="text_18">
      <!-- 25 -->
      <g transform="translate(37.875 67.41678) scale(0.1 -0.1)">
       <use xlink:href="#DejaVuSans-32"/>
       <use xlink:href="#DejaVuSans-35" x="63.623047"/>
      </g>
     </g>
    </g>
    <g id="text_19">
     <!-- cross correlation (x10000) -->
     <g transform="translate(22.167812 279.7005) rotate(-90) scale(0.16 -0.16)">
      <defs>
       <path id="DejaVuSans-63" d="M 3122 3366 
L 3122 2828 
Q 2878 2963 2633 3030 
Q 2388 3097 2138 3097 
Q 1578 3097 1268 2742 
Q 959 2388 959 1747 
Q 959 1106 1268 751 
Q 1578 397 2138 397 
Q 2388 397 2633 464 
Q 2878 531 3122 666 
L 3122 134 
Q 2881 22 2623 -34 
Q 2366 -91 2075 -91 
Q 1284 -91 818 406 
Q 353 903 353 1747 
Q 353 2603 823 3093 
Q 1294 3584 2113 3584 
Q 2378 3584 2631 3529 
Q 2884 3475 3122 3366 
z
" transform="scale(0.015625)"/>
       <path id="DejaVuSans-73" d="M 2834 3397 
L 2834 2853 
Q 2591 2978 2328 3040 
Q 2066 3103 1784 3103 
Q 1356 3103 1142 2972 
Q 928 2841 928 2578 
Q 928 2378 1081 2264 
Q 1234 2150 1697 2047 
L 1894 2003 
Q 2506 1872 2764 1633 
Q 3022 1394 3022 966 
Q 3022 478 2636 193 
Q 2250 -91 1575 -91 
Q 1294 -91 989 -36 
Q 684 19 347 128 
L 347 722 
Q 666 556 975 473 
Q 1284 391 1588 391 
Q 1994 391 2212 530 
Q 2431 669 2431 922 
Q 2431 1156 2273 1281 
Q 2116 1406 1581 1522 
L 1381 1569 
Q 847 1681 609 1914 
Q 372 2147 372 2553 
Q 372 3047 722 3315 
Q 1072 3584 1716 3584 
Q 2034 3584 2315 3537 
Q 2597 3491 2834 3397 
z
" transform="scale(0.015625)"/>
       <path id="DejaVuSans-28" d="M 1984 4856 
Q 1566 4138 1362 3434 
Q 1159 2731 1159 2009 
Q 1159 1288 1364 580 
Q 1569 -128 1984 -844 
L 1484 -844 
Q 1016 -109 783 600 
Q 550 1309 550 2009 
Q 550 2706 781 3412 
Q 1013 4119 1484 4856 
L 1984 4856 
z
" transform="scale(0.015625)"/>
       <path id="DejaVuSans-78" d="M 3513 3500 
L 2247 1797 
L 3578 0 
L 2900 0 
L 1881 1375 
L 863 0 
L 184 0 
L 1544 1831 
L 300 3500 
L 978 3500 
L 1906 2253 
L 2834 3500 
L 3513 3500 
z
" transform="scale(0.015625)"/>
       <path id="DejaVuSans-29" d="M 513 4856 
L 1013 4856 
Q 1481 4119 1714 3412 
Q 1947 2706 1947 2009 
Q 1947 1309 1714 600 
Q 1481 -109 1013 -844 
L 513 -844 
Q 928 -128 1133 580 
Q 1338 1288 1338 2009 
Q 1338 2731 1133 3434 
Q 928 4138 513 4856 
z
" transform="scale(0.015625)"/>
      </defs>
      <use xlink:href="#DejaVuSans-63"/>
      <use xlink:href="#DejaVuSans-72" x="54.980469"/>
      <use xlink:href="#DejaVuSans-6f" x="93.84375"/>
      <use xlink:href="#DejaVuSans-73" x="155.025391"/>
      <use xlink:href="#DejaVuSans-73" x="207.125"/>
      <use xlink:href="#DejaVuSans-20" x="259.224609"/>
      <use xlink:href="#DejaVuSans-63" x="291.011719"/>
      <use xlink:href="#DejaVuSans-6f" x="345.992188"/>
      <use xlink:href="#DejaVuSans-72" x="407.173828"/>
      <use xlink:href="#DejaVuSans-72" x="446.537109"/>
      <use xlink:href="#DejaVuSans-65" x="485.400391"/>
      <use xlink:href="#DejaVuSans-6c" x="546.923828"/>
      <use xlink:href="#DejaVuSans-61" x="574.707031"/>
      <use xlink:href="#DejaVuSans-74" x="635.986328"/>
      <use xlink:href="#DejaVuSans-69" x="675.195312"/>
      <use xlink:href="#DejaVuSans-6f" x="702.978516"/>
      <use xlink:href="#DejaVuSans-6e" x="764.160156"/>
      <use xlink:href="#DejaVuSans-20" x="827.539062"/>
      <use xlink:href="#DejaVuSans-28" x="859.326172"/>
      <use xlink:href="#DejaVuSans-78" x="898.339844"/>
      <use xlink:href="#DejaVuSans-31" x="957.519531"/>
      <use xlink:href="#DejaVuSans-30" x="1021.142578"/>
      <use xlink:href="#DejaVuSans-30" x="1084.765625"/>
      <use xlink:href="#DejaVuSans-30" x="1148.388672"/>
      <use xlink:href="#DejaVuSans-30" x="1212.011719"/>
      <use xlink:href="#DejaVuSans-29" x="1275.634766"/>
     </g>
    </g>
   </g>
   <g id="line2d_18">
    <path d="M 73.832727 223.587474 
L 74.685052 226.736252 
L 75.009747 227.232729 
L 75.253268 227.249714 
L 75.537377 226.990708 
L 75.902659 226.367131 
L 76.227354 225.381967 
L 77.039092 221.197988 
L 78.013177 217.124089 
L 78.419046 216.095396 
L 78.662567 215.91376 
L 78.865502 216.078412 
L 79.14961 216.703484 
L 80.083109 219.841793 
L 80.529564 222.0649 
L 81.016607 224.270161 
L 81.868932 227.333582 
L 82.274801 228.521434 
L 82.477735 228.667787 
L 82.924191 228.739551 
L 84.466493 229.238739 
L 84.710014 229.240488 
L 85.115883 229.610312 
L 85.765273 230.262493 
L 85.968208 230.118669 
L 86.171142 229.572504 
L 86.495837 227.950606 
L 87.713444 220.869658 
L 88.119313 220.073306 
L 88.403421 219.958569 
L 89.33692 220.300759 
L 89.621028 221.014738 
L 90.108071 222.262657 
L 90.757461 223.344758 
L 90.919809 223.115537 
L 91.16333 222.290837 
L 91.650373 220.929807 
L 92.178002 219.293179 
L 93.030327 216.155432 
L 93.476783 214.708075 
L 94.044999 213.047906 
L 94.450868 212.640502 
L 95.181432 212.180569 
L 95.587301 212.438034 
L 95.830822 213.082267 
L 96.480213 215.576807 
L 96.926669 217.836352 
L 98.428384 225.382023 
L 99.686577 229.21368 
L 100.011272 230.325882 
L 100.133033 230.243215 
L 100.579489 229.234732 
L 101.025945 227.601834 
L 102.121791 222.594269 
L 102.52766 221.992559 
L 102.974115 221.542504 
L 103.136463 221.669102 
L 103.339397 222.134695 
L 103.664093 223.593984 
L 104.557004 227.849052 
L 105.044047 229.060353 
L 105.936958 230.831066 
L 106.708109 233.634192 
L 106.951631 233.797774 
L 107.316913 233.946337 
L 107.763369 234.398185 
L 108.169238 234.82263 
L 108.331585 234.710988 
L 108.53452 234.142901 
L 108.899802 232.422599 
L 109.265084 229.314999 
L 111.416189 209.425187 
L 111.943818 206.543855 
L 112.430861 205.223264 
L 112.633796 205.106199 
L 112.917904 205.293287 
L 113.242599 205.938123 
L 113.48612 206.894521 
L 115.109596 215.895498 
L 115.31253 216.242367 
L 115.474878 216.146353 
L 115.758986 215.662812 
L 116.124268 214.946837 
L 116.286616 214.561317 
L 116.651898 212.362142 
L 116.976593 211.00834 
L 117.544809 209.920669 
L 118.113026 208.756384 
L 118.478308 206.766674 
L 118.924764 204.398819 
L 119.208872 203.815428 
L 119.452393 203.758805 
L 119.655328 204.226656 
L 120.548239 208.273457 
L 120.954108 211.550343 
L 121.603499 219.103273 
L 123.348735 240.932098 
L 124.241647 244.662297 
L 124.403994 244.751038 
L 124.647515 244.725841 
L 124.931624 244.89693 
L 125.175145 244.83473 
L 125.37808 244.869782 
L 125.946296 244.395344 
L 126.230404 244.414702 
L 126.433339 244.472546 
L 126.67686 244.176914 
L 126.920381 243.993862 
L 127.650945 243.990765 
L 128.097401 243.098151 
L 128.50327 241.160414 
L 128.949726 238.080318 
L 129.355595 235.908651 
L 129.761464 233.987631 
L 130.289093 231.523959 
L 130.776136 230.327144 
L 131.182005 229.559716 
L 132.074917 228.09366 
L 132.480786 226.220249 
L 132.886654 223.512965 
L 133.21135 219.747579 
L 135.240694 193.218996 
L 135.565389 191.68823 
L 135.808911 191.23135 
L 135.971258 191.198127 
L 136.133606 191.373952 
L 136.377127 192.092561 
L 137.067104 194.57321 
L 137.432386 195.912707 
L 137.960016 199.713787 
L 139.33997 211.858864 
L 141.653423 225.169691 
L 141.896944 225.815669 
L 142.059292 225.780602 
L 142.22164 225.544076 
L 143.073964 223.215403 
L 143.358072 222.582877 
L 143.966876 220.15164 
L 144.210397 219.365478 
L 144.372745 219.454433 
L 144.738027 219.804848 
L 145.062722 220.907142 
L 145.468591 223.540345 
L 146.280329 231.811278 
L 147.822631 247.84949 
L 148.309673 251.482436 
L 148.796716 253.390204 
L 148.99965 253.651711 
L 149.161998 253.557563 
L 149.324346 253.102697 
L 149.567867 251.77853 
L 150.014323 247.862967 
L 150.907234 239.571552 
L 151.759559 227.201105 
L 152.571297 215.368276 
L 153.301861 208.195666 
L 153.991838 204.452309 
L 154.438294 203.051823 
L 154.681815 203.142477 
L 154.925337 203.334595 
L 155.655901 204.605269 
L 156.021183 205.370771 
L 156.18353 205.344962 
L 156.386465 205.331856 
L 156.548812 205.744736 
L 156.914094 207.393318 
L 157.441724 209.734594 
L 157.563485 209.829358 
L 157.685245 209.545108 
L 158.091114 208.363289 
L 158.659331 207.05787 
L 159.105786 205.636755 
L 159.308721 205.51797 
L 159.471068 205.826583 
L 159.876937 207.351808 
L 160.769849 210.930329 
L 161.135131 211.8142 
L 161.419239 213.468408 
L 161.865695 217.520752 
L 162.555672 224.870616 
L 163.205062 237.306523 
L 164.422669 260.60741 
L 165.356168 272.511294 
L 165.802624 275.333084 
L 166.289666 276.928557 
L 166.330253 276.91539 
L 166.857883 276.306501 
L 167.060817 275.324437 
L 167.54786 271.651064 
L 168.156663 264.911049 
L 168.603119 257.309593 
L 169.252509 246.771335 
L 170.470116 232.723218 
L 170.794811 231.278228 
L 171.72831 228.510595 
L 172.053005 225.567434 
L 172.824156 218.630399 
L 173.351785 216.055089 
L 173.798241 213.802743 
L 174.163523 210.256119 
L 175.38113 194.183254 
L 176.842258 174.061234 
L 177.288714 171.57225 
L 177.410474 171.366616 
L 177.451061 171.385946 
L 177.613409 171.77591 
L 177.897517 173.185031 
L 178.181625 175.583497 
L 178.587494 180.907789 
L 179.764514 199.374024 
L 180.332731 212.68276 
L 181.915619 251.392664 
L 182.56501 258.647267 
L 183.701443 268.808036 
L 184.188485 270.155744 
L 184.432007 270.842472 
L 185.162571 273.193502 
L 185.6902 274.066978 
L 185.730787 274.035694 
L 185.852548 273.812396 
L 186.014895 273.3615 
L 186.420764 271.47579 
L 186.704873 269.31957 
L 187.597784 259.722613 
L 188.003653 257.978126 
L 188.450109 255.02225 
L 188.977739 251.626519 
L 189.505368 249.041143 
L 189.87065 247.303972 
L 190.114172 245.796547 
L 190.52004 241.338881 
L 191.088257 233.098176 
L 191.981169 215.020637 
L 193.645231 177.7805 
L 194.091687 171.183223 
L 194.375795 169.741641 
L 194.57873 169.297179 
L 194.619317 169.312558 
L 194.70049 169.377169 
L 195.025185 170.429845 
L 195.390467 172.31671 
L 195.999271 178.270437 
L 197.906855 202.379412 
L 198.637419 207.855245 
L 200.098547 224.949522 
L 200.301481 225.292263 
L 200.666763 225.98165 
L 200.788524 226.28641 
L 201.072632 226.979939 
L 201.194393 226.672357 
L 201.478501 225.847441 
L 201.640849 225.842038 
L 201.88437 226.081938 
L 202.249652 228.251459 
L 203.386085 239.327396 
L 204.441344 255.529464 
L 205.334256 270.589852 
L 205.821299 274.017333 
L 206.105407 274.843102 
L 206.348928 274.735461 
L 206.673623 273.951546 
L 207.323014 271.144356 
L 207.810056 266.446912 
L 208.41886 259.454811 
L 208.743555 257.586828 
L 208.987076 255.404264 
L 209.433532 248.238984 
L 210.24527 228.99802 
L 211.097594 211.241883 
L 211.746985 200.212891 
L 212.193441 195.62319 
L 212.355788 195.222821 
L 212.436962 195.280838 
L 212.761657 196.509454 
L 213.045765 198.052451 
L 213.411047 201.166723 
L 213.857503 205.466821 
L 214.060438 205.928248 
L 214.222785 205.944191 
L 214.466306 205.804833 
L 214.54748 205.609229 
L 214.831588 204.605678 
L 215.318631 200.364212 
L 215.7245 194.311656 
L 216.576825 179.259169 
L 217.469736 165.564193 
L 217.753845 163.702775 
L 217.916192 163.662878 
L 218.07854 164.344902 
L 218.403235 166.820742 
L 218.890278 172.667275 
L 219.742602 187.110517 
L 220.351406 200.971363 
L 222.015468 247.260034 
L 223.111314 281.211347 
L 223.679531 291.84989 
L 224.044813 294.997768 
L 224.247747 295.488 
L 224.369508 295.366948 
L 224.613029 294.676122 
L 225.100072 292.520884 
L 225.587115 287.848122 
L 226.236505 280.07696 
L 226.520613 278.536193 
L 226.642374 278.330835 
L 226.682961 278.369777 
L 226.764135 278.4471 
L 227.21059 280.312268 
L 227.73822 282.375546 
L 227.778807 282.362626 
L 228.26585 280.305515 
L 228.793479 275.462858 
L 229.118174 270.22512 
L 231.066345 230.078522 
L 232.324539 194.736975 
L 232.973929 171.22586 
L 235.733838 58.359695 
L 236.017946 53.568 
L 236.058533 53.597646 
L 236.139707 54.172557 
L 236.342641 61.196027 
L 237.479074 122.340796 
L 238.534333 172.6192 
L 239.386658 202.425634 
L 240.157809 223.092044 
L 242.065393 263.03086 
L 242.958304 278.543216 
L 243.567108 283.153663 
L 244.175911 286.785718 
L 244.541193 288.818713 
L 244.662954 288.895872 
L 244.865888 288.399107 
L 245.352931 286.816986 
L 245.474692 286.853014 
L 245.718213 287.524993 
L 246.042908 289.734216 
L 246.570538 293.428573 
L 246.854646 293.946664 
L 246.976407 293.861882 
L 247.138754 293.277065 
L 247.504036 290.881635 
L 247.828731 286.697637 
L 248.437535 275.420914 
L 248.965164 259.825642 
L 250.466879 213.777269 
L 251.075683 202.62189 
L 251.846834 193.282724 
L 252.333876 186.525844 
L 252.902093 179.322453 
L 253.551483 173.705602 
L 253.997939 172.020676 
L 254.200873 171.837877 
L 254.322634 171.928163 
L 254.444395 172.421694 
L 254.647329 174.681649 
L 256.473739 200.554551 
L 257.285477 202.367006 
L 257.528998 202.183335 
L 257.691346 201.431194 
L 258.381323 197.711415 
L 258.990126 195.792122 
L 259.030713 195.847391 
L 259.152474 196.338218 
L 259.436582 198.940056 
L 260.24832 210.213155 
L 261.100645 230.738275 
L 261.790622 246.735878 
L 262.764707 262.261798 
L 263.25175 265.637585 
L 263.576445 266.483647 
L 263.90114 267.274878 
L 264.104075 268.524961 
L 264.672291 272.881 
L 265.240508 274.524507 
L 265.484029 274.729996 
L 265.72755 274.609054 
L 265.889898 273.937161 
L 266.295767 271.006888 
L 266.78281 264.402746 
L 267.351026 254.219233 
L 268.000416 241.71614 
L 268.528046 235.173827 
L 268.893328 232.812705 
L 269.177436 232.281248 
L 269.420958 232.124367 
L 269.705066 232.124769 
L 269.826827 232.060822 
L 270.516804 231.532185 
L 270.638564 231.501555 
L 270.882086 230.929426 
L 271.73441 226.37774 
L 272.302627 221.038999 
L 272.667909 214.95533 
L 273.641994 197.322934 
L 274.047863 193.764989 
L 275.224883 185.685866 
L 277.254228 172.145512 
L 277.457162 171.970702 
L 277.578923 172.20437 
L 277.781857 173.250469 
L 278.065966 176.498157 
L 278.471834 184.109067 
L 279.121225 201.241914 
L 280.054723 226.245913 
L 280.704113 239.563979 
L 281.556438 251.416608 
L 281.92172 254.502188 
L 282.165242 255.122575 
L 282.530524 255.767408 
L 283.301675 259.190378 
L 284.600455 270.588977 
L 285.655714 275.96417 
L 285.736888 275.912449 
L 286.142757 275.190562 
L 286.345691 274.921821 
L 286.548626 273.880086 
L 286.913908 270.558245 
L 287.92858 261.937017 
L 288.293862 260.463184 
L 288.618557 258.594026 
L 289.1056 253.747857 
L 290.039099 241.045637 
L 290.566728 231.057391 
L 291.256705 214.569804 
L 292.271378 189.701599 
L 292.880181 181.653484 
L 293.245463 179.647634 
L 294.097788 177.414939 
L 294.260135 177.445116 
L 294.46307 177.771036 
L 294.706591 178.562725 
L 294.950112 179.698082 
L 295.680676 185.092961 
L 296.208306 191.803602 
L 297.58826 213.071272 
L 298.64352 229.213151 
L 300.632277 245.721516 
L 301.322254 248.391874 
L 301.849884 250.631216 
L 302.255753 254.721492 
L 303.392186 269.75096 
L 304.082163 277.631767 
L 304.447445 279.232162 
L 304.731553 279.859748 
L 304.893901 279.857913 
L 305.056248 279.511032 
L 305.29977 278.088191 
L 306.273855 270.785862 
L 307.085593 261.00175 
L 308.262613 242.851039 
L 309.683154 217.78105 
L 310.373131 210.513887 
L 310.941348 207.081818 
L 311.30663 205.788193 
L 311.793672 204.931299 
L 312.280715 204.036841 
L 312.524236 203.870043 
L 312.848932 204.105986 
L 313.092453 205.066014 
L 314.025951 209.248818 
L 314.391233 210.321525 
L 314.43182 210.280497 
L 314.634755 209.653998 
L 315.081211 208.043016 
L 315.324732 207.816678 
L 315.446493 207.860421 
L 315.852362 208.392477 
L 316.501752 209.478752 
L 317.110555 209.623238 
L 317.354077 209.840823 
L 317.557011 210.398653 
L 318.815205 216.394001 
L 320.276333 228.045432 
L 321.493939 237.797948 
L 322.711546 243.95405 
L 322.955068 244.177804 
L 323.076828 244.108084 
L 323.239176 243.533034 
L 323.563871 241.080616 
L 324.700304 229.297044 
L 325.187347 225.222267 
L 325.755563 221.378117 
L 326.283193 217.92933 
L 327.094931 214.518551 
L 327.297865 214.36587 
L 327.500799 214.756857 
L 327.825495 215.893091 
L 328.718406 219.457897 
L 328.961928 219.714104 
L 329.205449 219.701681 
L 329.651905 219.591703 
L 330.341882 219.9144 
L 330.504229 219.572571 
L 330.910098 217.947995 
L 331.559489 214.085124 
L 332.492987 208.337874 
L 332.777095 207.035098 
L 333.223551 203.070936 
L 333.994702 197.098067 
L 334.562919 194.308275 
L 335.374656 191.559201 
L 335.658765 191.74868 
L 335.902286 192.343005 
L 336.63285 195.294062 
L 336.957545 198.685092 
L 338.337499 215.803057 
L 339.433346 224.162486 
L 339.717454 224.887038 
L 340.407431 225.859819 
L 340.8133 225.981173 
L 341.056821 226.565491 
L 341.787385 229.559121 
L 342.923818 235.28469 
L 343.329687 237.304541 
L 344.222599 242.616091 
L 345.196684 245.612403 
L 345.521379 246.126836 
L 345.683727 246.003007 
L 345.846074 245.509224 
L 346.901334 241.352696 
L 347.144855 240.706292 
L 347.550724 238.809395 
L 348.403049 233.91305 
L 348.768331 230.328768 
L 349.417721 221.66735 
L 350.229459 210.169285 
L 350.919436 203.533388 
L 351.365892 201.860116 
L 351.731174 201.184158 
L 352.218216 200.812844 
L 352.786433 201.301525 
L 353.151715 202.803598 
L 353.801105 206.544709 
L 354.288148 209.503839 
L 354.572256 210.151203 
L 354.937538 210.888548 
L 355.221646 211.926108 
L 355.992797 214.636056 
L 356.155145 214.623239 
L 356.276906 214.461425 
L 356.804535 213.376443 
L 357.048056 212.712725 
L 357.616273 210.381258 
L 358.95564 203.902431 
L 359.158575 203.691647 
L 359.645618 203.881151 
L 359.848552 204.738855 
L 360.78205 210.646424 
L 361.228506 214.071479 
L 362.202592 222.080808 
L 362.689634 224.540998 
L 363.095503 225.837137 
L 363.420198 226.199375 
L 363.541959 226.131117 
L 364.191349 225.090557 
L 364.637805 223.935045 
L 365.49013 222.384894 
L 365.977173 220.792712 
L 366.423628 219.205941 
L 367.357127 217.925945 
L 368.128278 215.582553 
L 368.534147 214.316743 
L 368.818255 213.967707 
L 368.980603 214.038905 
L 369.224124 214.353276 
L 369.467645 214.988631 
L 369.873514 216.952122 
L 370.685252 221.137156 
L 370.928773 222.280774 
L 371.49699 225.064711 
L 371.821685 225.196494 
L 372.186967 224.881613 
L 372.430488 224.247525 
L 372.998705 221.834208 
L 373.607508 218.985809 
L 374.256898 215.93299 
L 375.352745 211.098681 
L 375.67744 210.6372 
L 375.880374 210.581508 
L 377.057394 210.871975 
L 377.463263 211.269867 
L 377.787958 211.436616 
L 378.072066 211.132848 
L 378.275001 211.065086 
L 378.477935 211.422488 
L 379.208499 213.283296 
L 380.141998 216.475627 
L 380.466693 216.855513 
L 380.791388 217.522716 
L 381.237844 218.560918 
L 381.603126 218.346518 
L 381.846647 217.970346 
L 382.739559 216.688777 
L 382.942493 216.673756 
L 383.754231 217.535398 
L 384.078926 218.821968 
L 384.850077 222.585634 
L 386.351792 230.469208 
L 386.554727 230.522344 
L 386.879422 230.612432 
L 387.204117 230.724517 
L 387.488225 230.644885 
L 387.69116 230.360421 
L 388.097028 229.484627 
L 388.827593 228.990016 
L 389.274048 228.07496 
L 389.63933 227.587373 
L 389.801678 227.389875 
L 390.572829 225.742145 
L 390.978698 224.064148 
L 391.628088 221.513895 
L 393.17039 216.235921 
L 393.454498 216.029776 
L 393.657433 216.104626 
L 393.941541 216.671454 
L 394.550344 218.995773 
L 395.970885 225.719945 
L 396.214407 226.346289 
L 396.417341 226.401589 
L 396.944971 226.306259 
L 397.310253 225.991874 
L 397.837882 224.934262 
L 398.487273 223.45074 
L 398.487273 223.45074 
" clip-path="url(#p797f6370ab)" style="fill: none; stroke: #1f77b4; stroke-width: 1.5; stroke-linecap: square"/>
   </g>
   <g id="patch_3">
    <path d="M 57.6 307.584 
L 57.6 41.472 
" style="fill: none; stroke: #000000; stroke-width: 0.8; stroke-linejoin: miter; stroke-linecap: square"/>
   </g>
   <g id="patch_4">
    <path d="M 414.72 307.584 
L 414.72 41.472 
" style="fill: none; stroke: #000000; stroke-width: 0.8; stroke-linejoin: miter; stroke-linecap: square"/>
   </g>
   <g id="patch_5">
    <path d="M 57.6 307.584 
L 414.72 307.584 
" style="fill: none; stroke: #000000; stroke-width: 0.8; stroke-linejoin: miter; stroke-linecap: square"/>
   </g>
   <g id="patch_6">
    <path d="M 57.6 41.472 
L 414.72 41.472 
" style="fill: none; stroke: #000000; stroke-width: 0.8; stroke-linejoin: miter; stroke-linecap: square"/>
   </g>
   <g id="legend_1">
    <g id="patch_7">
     <path d="M 372.941875 64.150125 
L 407.72 64.150125 
Q 409.72 64.150125 409.72 62.150125 
L 409.72 48.472 
Q 409.72 46.472 407.72 46.472 
L 372.941875 46.472 
Q 370.941875 46.472 370.941875 48.472 
L 370.941875 62.150125 
Q 370.941875 64.150125 372.941875 64.150125 
z
" style="fill: #ffffff; opacity: 0.8; stroke: #cccccc; stroke-linejoin: miter"/>
    </g>
    <g id="line2d_19">
     <path d="M 374.941875 54.570438 
L 384.941875 54.570438 
L 394.941875 54.570438 
" style="fill: none; stroke: #1f77b4; stroke-width: 1.5; stroke-linecap: square"/>
    </g>
    <g id="text_20">
     <!-- l -->
     <g transform="translate(402.941875 58.070438) scale(0.1 -0.1)">
      <use xlink:href="#DejaVuSans-6c"/>
     </g>
    </g>
   </g>
  </g>
 </g>
 <defs>
  <clipPath id="p797f6370ab">
   <rect x="57.6" y="41.472" width="357.12" height="266.112"/>
  </clipPath>
 </defs>
</svg>
