<?xml version="1.0" encoding="utf-8" standalone="no"?>
<!DOCTYPE svg PUBLIC "-//W3C//DTD SVG 1.1//EN"
  "http://www.w3.org/Graphics/SVG/1.1/DTD/svg11.dtd">
<svg xmlns:xlink="http://www.w3.org/1999/xlink" width="460.8pt" height="345.6pt" viewBox="0 0 460.8 345.6" xmlns="http://www.w3.org/2000/svg" version="1.1">
 <metadata>
  <rdf:RDF xmlns:dc="http://purl.org/dc/elements/1.1/" xmlns:cc="http://creativecommons.org/ns#" xmlns:rdf="http://www.w3.org/1999/02/22-rdf-syntax-ns#">
   <cc:Work>
    <dc:type rdf:resource="http://purl.org/dc/dcmitype/StillImage"/>
    <dc:date>2023-06-02T23:14:48.316681</dc:date>
    <dc:format>image/svg+xml</dc:format>
    <dc:creator>
     <cc:Agent>
      <dc:title>Matplotlib v3.7.1, https://matplotlib.org/</dc:title>
     </cc:Agent>
    </dc:creator>
   </cc:Work>
  </rdf:RDF>
 </metadata>
 <defs>
  <style type="text/css">*{stroke-linejoin: round; stroke-linecap: butt}</style>
 </defs>
 <g id="figure_1">
  <g id="patch_1">
   <path d="M 0 345.6 
L 460.8 345.6 
L 460.8 0 
L 0 0 
z
" style="fill: #ffffff"/>
  </g>
  <g id="axes_1">
   <g id="patch_2">
    <path d="M 57.6 307.584 
L 414.72 307.584 
L 414.72 41.472 
L 57.6 41.472 
z
" style="fill: #ffffff"/>
   </g>
   <g id="matplotlib.axis_1">
    <g id="xtick_1">
     <g id="line2d_1">
      <defs>
       <path id="m28ecb5522c" d="M 0 0 
L 0 3.5 
" style="stroke: #000000; stroke-width: 0.8"/>
      </defs>
      <g>
       <use xlink:href="#m28ecb5522c" x="73.832727" y="307.584" style="stroke: #000000; stroke-width: 0.8"/>
      </g>
     </g>
     <g id="text_1">
      <!-- −1000 -->
      <g transform="translate(56.917884 322.182437) scale(0.1 -0.1)">
       <defs>
        <path id="DejaVuSans-2212" d="M 678 2272 
L 4684 2272 
L 4684 1741 
L 678 1741 
L 678 2272 
z
" transform="scale(0.015625)"/>
        <path id="DejaVuSans-31" d="M 794 531 
L 1825 531 
L 1825 4091 
L 703 3866 
L 703 4441 
L 1819 4666 
L 2450 4666 
L 2450 531 
L 3481 531 
L 3481 0 
L 794 0 
L 794 531 
z
" transform="scale(0.015625)"/>
        <path id="DejaVuSans-30" d="M 2034 4250 
Q 1547 4250 1301 3770 
Q 1056 3291 1056 2328 
Q 1056 1369 1301 889 
Q 1547 409 2034 409 
Q 2525 409 2770 889 
Q 3016 1369 3016 2328 
Q 3016 3291 2770 3770 
Q 2525 4250 2034 4250 
z
M 2034 4750 
Q 2819 4750 3233 4129 
Q 3647 3509 3647 2328 
Q 3647 1150 3233 529 
Q 2819 -91 2034 -91 
Q 1250 -91 836 529 
Q 422 1150 422 2328 
Q 422 3509 836 4129 
Q 1250 4750 2034 4750 
z
" transform="scale(0.015625)"/>
       </defs>
       <use xlink:href="#DejaVuSans-2212"/>
       <use xlink:href="#DejaVuSans-31" x="83.789062"/>
       <use xlink:href="#DejaVuSans-30" x="147.412109"/>
       <use xlink:href="#DejaVuSans-30" x="211.035156"/>
       <use xlink:href="#DejaVuSans-30" x="274.658203"/>
      </g>
     </g>
    </g>
    <g id="xtick_2">
     <g id="line2d_2">
      <g>
       <use xlink:href="#m28ecb5522c" x="114.414545" y="307.584" style="stroke: #000000; stroke-width: 0.8"/>
      </g>
     </g>
     <g id="text_2">
      <!-- −750 -->
      <g transform="translate(100.680952 322.182437) scale(0.1 -0.1)">
       <defs>
        <path id="DejaVuSans-37" d="M 525 4666 
L 3525 4666 
L 3525 4397 
L 1831 0 
L 1172 0 
L 2766 4134 
L 525 4134 
L 525 4666 
z
" transform="scale(0.015625)"/>
        <path id="DejaVuSans-35" d="M 691 4666 
L 3169 4666 
L 3169 4134 
L 1269 4134 
L 1269 2991 
Q 1406 3038 1543 3061 
Q 1681 3084 1819 3084 
Q 2600 3084 3056 2656 
Q 3513 2228 3513 1497 
Q 3513 744 3044 326 
Q 2575 -91 1722 -91 
Q 1428 -91 1123 -41 
Q 819 9 494 109 
L 494 744 
Q 775 591 1075 516 
Q 1375 441 1709 441 
Q 2250 441 2565 725 
Q 2881 1009 2881 1497 
Q 2881 1984 2565 2268 
Q 2250 2553 1709 2553 
Q 1456 2553 1204 2497 
Q 953 2441 691 2322 
L 691 4666 
z
" transform="scale(0.015625)"/>
       </defs>
       <use xlink:href="#DejaVuSans-2212"/>
       <use xlink:href="#DejaVuSans-37" x="83.789062"/>
       <use xlink:href="#DejaVuSans-35" x="147.412109"/>
       <use xlink:href="#DejaVuSans-30" x="211.035156"/>
      </g>
     </g>
    </g>
    <g id="xtick_3">
     <g id="line2d_3">
      <g>
       <use xlink:href="#m28ecb5522c" x="154.996364" y="307.584" style="stroke: #000000; stroke-width: 0.8"/>
      </g>
     </g>
     <g id="text_3">
      <!-- −500 -->
      <g transform="translate(141.26277 322.182437) scale(0.1 -0.1)">
       <use xlink:href="#DejaVuSans-2212"/>
       <use xlink:href="#DejaVuSans-35" x="83.789062"/>
       <use xlink:href="#DejaVuSans-30" x="147.412109"/>
       <use xlink:href="#DejaVuSans-30" x="211.035156"/>
      </g>
     </g>
    </g>
    <g id="xtick_4">
     <g id="line2d_4">
      <g>
       <use xlink:href="#m28ecb5522c" x="195.578182" y="307.584" style="stroke: #000000; stroke-width: 0.8"/>
      </g>
     </g>
     <g id="text_4">
      <!-- −250 -->
      <g transform="translate(181.844588 322.182437) scale(0.1 -0.1)">
       <defs>
        <path id="DejaVuSans-32" d="M 1228 531 
L 3431 531 
L 3431 0 
L 469 0 
L 469 531 
Q 828 903 1448 1529 
Q 2069 2156 2228 2338 
Q 2531 2678 2651 2914 
Q 2772 3150 2772 3378 
Q 2772 3750 2511 3984 
Q 2250 4219 1831 4219 
Q 1534 4219 1204 4116 
Q 875 4013 500 3803 
L 500 4441 
Q 881 4594 1212 4672 
Q 1544 4750 1819 4750 
Q 2544 4750 2975 4387 
Q 3406 4025 3406 3419 
Q 3406 3131 3298 2873 
Q 3191 2616 2906 2266 
Q 2828 2175 2409 1742 
Q 1991 1309 1228 531 
z
" transform="scale(0.015625)"/>
       </defs>
       <use xlink:href="#DejaVuSans-2212"/>
       <use xlink:href="#DejaVuSans-32" x="83.789062"/>
       <use xlink:href="#DejaVuSans-35" x="147.412109"/>
       <use xlink:href="#DejaVuSans-30" x="211.035156"/>
      </g>
     </g>
    </g>
    <g id="xtick_5">
     <g id="line2d_5">
      <g>
       <use xlink:href="#m28ecb5522c" x="236.16" y="307.584" style="stroke: #000000; stroke-width: 0.8"/>
      </g>
     </g>
     <g id="text_5">
      <!-- 0 -->
      <g transform="translate(232.97875 322.182437) scale(0.1 -0.1)">
       <use xlink:href="#DejaVuSans-30"/>
      </g>
     </g>
    </g>
    <g id="xtick_6">
     <g id="line2d_6">
      <g>
       <use xlink:href="#m28ecb5522c" x="276.741818" y="307.584" style="stroke: #000000; stroke-width: 0.8"/>
      </g>
     </g>
     <g id="text_6">
      <!-- 250 -->
      <g transform="translate(267.198068 322.182437) scale(0.1 -0.1)">
       <use xlink:href="#DejaVuSans-32"/>
       <use xlink:href="#DejaVuSans-35" x="63.623047"/>
       <use xlink:href="#DejaVuSans-30" x="127.246094"/>
      </g>
     </g>
    </g>
    <g id="xtick_7">
     <g id="line2d_7">
      <g>
       <use xlink:href="#m28ecb5522c" x="317.323636" y="307.584" style="stroke: #000000; stroke-width: 0.8"/>
      </g>
     </g>
     <g id="text_7">
      <!-- 500 -->
      <g transform="translate(307.779886 322.182437) scale(0.1 -0.1)">
       <use xlink:href="#DejaVuSans-35"/>
       <use xlink:href="#DejaVuSans-30" x="63.623047"/>
       <use xlink:href="#DejaVuSans-30" x="127.246094"/>
      </g>
     </g>
    </g>
    <g id="xtick_8">
     <g id="line2d_8">
      <g>
       <use xlink:href="#m28ecb5522c" x="357.905455" y="307.584" style="stroke: #000000; stroke-width: 0.8"/>
      </g>
     </g>
     <g id="text_8">
      <!-- 750 -->
      <g transform="translate(348.361705 322.182437) scale(0.1 -0.1)">
       <use xlink:href="#DejaVuSans-37"/>
       <use xlink:href="#DejaVuSans-35" x="63.623047"/>
       <use xlink:href="#DejaVuSans-30" x="127.246094"/>
      </g>
     </g>
    </g>
    <g id="xtick_9">
     <g id="line2d_9">
      <g>
       <use xlink:href="#m28ecb5522c" x="398.487273" y="307.584" style="stroke: #000000; stroke-width: 0.8"/>
      </g>
     </g>
     <g id="text_9">
      <!-- 1000 -->
      <g transform="translate(385.762273 322.182437) scale(0.1 -0.1)">
       <use xlink:href="#DejaVuSans-31"/>
       <use xlink:href="#DejaVuSans-30" x="63.623047"/>
       <use xlink:href="#DejaVuSans-30" x="127.246094"/>
       <use xlink:href="#DejaVuSans-30" x="190.869141"/>
      </g>
     </g>
    </g>
    <g id="text_10">
     <!-- lag temporali -->
     <g transform="translate(182.9525 340.419625) scale(0.16 -0.16)">
      <defs>
       <path id="DejaVuSans-6c" d="M 603 4863 
L 1178 4863 
L 1178 0 
L 603 0 
L 603 4863 
z
" transform="scale(0.015625)"/>
       <path id="DejaVuSans-61" d="M 2194 1759 
Q 1497 1759 1228 1600 
Q 959 1441 959 1056 
Q 959 750 1161 570 
Q 1363 391 1709 391 
Q 2188 391 2477 730 
Q 2766 1069 2766 1631 
L 2766 1759 
L 2194 1759 
z
M 3341 1997 
L 3341 0 
L 2766 0 
L 2766 531 
Q 2569 213 2275 61 
Q 1981 -91 1556 -91 
Q 1019 -91 701 211 
Q 384 513 384 1019 
Q 384 1609 779 1909 
Q 1175 2209 1959 2209 
L 2766 2209 
L 2766 2266 
Q 2766 2663 2505 2880 
Q 2244 3097 1772 3097 
Q 1472 3097 1187 3025 
Q 903 2953 641 2809 
L 641 3341 
Q 956 3463 1253 3523 
Q 1550 3584 1831 3584 
Q 2591 3584 2966 3190 
Q 3341 2797 3341 1997 
z
" transform="scale(0.015625)"/>
       <path id="DejaVuSans-67" d="M 2906 1791 
Q 2906 2416 2648 2759 
Q 2391 3103 1925 3103 
Q 1463 3103 1205 2759 
Q 947 2416 947 1791 
Q 947 1169 1205 825 
Q 1463 481 1925 481 
Q 2391 481 2648 825 
Q 2906 1169 2906 1791 
z
M 3481 434 
Q 3481 -459 3084 -895 
Q 2688 -1331 1869 -1331 
Q 1566 -1331 1297 -1286 
Q 1028 -1241 775 -1147 
L 775 -588 
Q 1028 -725 1275 -790 
Q 1522 -856 1778 -856 
Q 2344 -856 2625 -561 
Q 2906 -266 2906 331 
L 2906 616 
Q 2728 306 2450 153 
Q 2172 0 1784 0 
Q 1141 0 747 490 
Q 353 981 353 1791 
Q 353 2603 747 3093 
Q 1141 3584 1784 3584 
Q 2172 3584 2450 3431 
Q 2728 3278 2906 2969 
L 2906 3500 
L 3481 3500 
L 3481 434 
z
" transform="scale(0.015625)"/>
       <path id="DejaVuSans-20" transform="scale(0.015625)"/>
       <path id="DejaVuSans-74" d="M 1172 4494 
L 1172 3500 
L 2356 3500 
L 2356 3053 
L 1172 3053 
L 1172 1153 
Q 1172 725 1289 603 
Q 1406 481 1766 481 
L 2356 481 
L 2356 0 
L 1766 0 
Q 1100 0 847 248 
Q 594 497 594 1153 
L 594 3053 
L 172 3053 
L 172 3500 
L 594 3500 
L 594 4494 
L 1172 4494 
z
" transform="scale(0.015625)"/>
       <path id="DejaVuSans-65" d="M 3597 1894 
L 3597 1613 
L 953 1613 
Q 991 1019 1311 708 
Q 1631 397 2203 397 
Q 2534 397 2845 478 
Q 3156 559 3463 722 
L 3463 178 
Q 3153 47 2828 -22 
Q 2503 -91 2169 -91 
Q 1331 -91 842 396 
Q 353 884 353 1716 
Q 353 2575 817 3079 
Q 1281 3584 2069 3584 
Q 2775 3584 3186 3129 
Q 3597 2675 3597 1894 
z
M 3022 2063 
Q 3016 2534 2758 2815 
Q 2500 3097 2075 3097 
Q 1594 3097 1305 2825 
Q 1016 2553 972 2059 
L 3022 2063 
z
" transform="scale(0.015625)"/>
       <path id="DejaVuSans-6d" d="M 3328 2828 
Q 3544 3216 3844 3400 
Q 4144 3584 4550 3584 
Q 5097 3584 5394 3201 
Q 5691 2819 5691 2113 
L 5691 0 
L 5113 0 
L 5113 2094 
Q 5113 2597 4934 2840 
Q 4756 3084 4391 3084 
Q 3944 3084 3684 2787 
Q 3425 2491 3425 1978 
L 3425 0 
L 2847 0 
L 2847 2094 
Q 2847 2600 2669 2842 
Q 2491 3084 2119 3084 
Q 1678 3084 1418 2786 
Q 1159 2488 1159 1978 
L 1159 0 
L 581 0 
L 581 3500 
L 1159 3500 
L 1159 2956 
Q 1356 3278 1631 3431 
Q 1906 3584 2284 3584 
Q 2666 3584 2933 3390 
Q 3200 3197 3328 2828 
z
" transform="scale(0.015625)"/>
       <path id="DejaVuSans-70" d="M 1159 525 
L 1159 -1331 
L 581 -1331 
L 581 3500 
L 1159 3500 
L 1159 2969 
Q 1341 3281 1617 3432 
Q 1894 3584 2278 3584 
Q 2916 3584 3314 3078 
Q 3713 2572 3713 1747 
Q 3713 922 3314 415 
Q 2916 -91 2278 -91 
Q 1894 -91 1617 61 
Q 1341 213 1159 525 
z
M 3116 1747 
Q 3116 2381 2855 2742 
Q 2594 3103 2138 3103 
Q 1681 3103 1420 2742 
Q 1159 2381 1159 1747 
Q 1159 1113 1420 752 
Q 1681 391 2138 391 
Q 2594 391 2855 752 
Q 3116 1113 3116 1747 
z
" transform="scale(0.015625)"/>
       <path id="DejaVuSans-6f" d="M 1959 3097 
Q 1497 3097 1228 2736 
Q 959 2375 959 1747 
Q 959 1119 1226 758 
Q 1494 397 1959 397 
Q 2419 397 2687 759 
Q 2956 1122 2956 1747 
Q 2956 2369 2687 2733 
Q 2419 3097 1959 3097 
z
M 1959 3584 
Q 2709 3584 3137 3096 
Q 3566 2609 3566 1747 
Q 3566 888 3137 398 
Q 2709 -91 1959 -91 
Q 1206 -91 779 398 
Q 353 888 353 1747 
Q 353 2609 779 3096 
Q 1206 3584 1959 3584 
z
" transform="scale(0.015625)"/>
       <path id="DejaVuSans-72" d="M 2631 2963 
Q 2534 3019 2420 3045 
Q 2306 3072 2169 3072 
Q 1681 3072 1420 2755 
Q 1159 2438 1159 1844 
L 1159 0 
L 581 0 
L 581 3500 
L 1159 3500 
L 1159 2956 
Q 1341 3275 1631 3429 
Q 1922 3584 2338 3584 
Q 2397 3584 2469 3576 
Q 2541 3569 2628 3553 
L 2631 2963 
z
" transform="scale(0.015625)"/>
       <path id="DejaVuSans-69" d="M 603 3500 
L 1178 3500 
L 1178 0 
L 603 0 
L 603 3500 
z
M 603 4863 
L 1178 4863 
L 1178 4134 
L 603 4134 
L 603 4863 
z
" transform="scale(0.015625)"/>
      </defs>
      <use xlink:href="#DejaVuSans-6c"/>
      <use xlink:href="#DejaVuSans-61" x="27.783203"/>
      <use xlink:href="#DejaVuSans-67" x="89.0625"/>
      <use xlink:href="#DejaVuSans-20" x="152.539062"/>
      <use xlink:href="#DejaVuSans-74" x="184.326172"/>
      <use xlink:href="#DejaVuSans-65" x="223.535156"/>
      <use xlink:href="#DejaVuSans-6d" x="285.058594"/>
      <use xlink:href="#DejaVuSans-70" x="382.470703"/>
      <use xlink:href="#DejaVuSans-6f" x="445.947266"/>
      <use xlink:href="#DejaVuSans-72" x="507.128906"/>
      <use xlink:href="#DejaVuSans-61" x="548.242188"/>
      <use xlink:href="#DejaVuSans-6c" x="609.521484"/>
      <use xlink:href="#DejaVuSans-69" x="637.304688"/>
     </g>
    </g>
   </g>
   <g id="matplotlib.axis_2">
    <g id="ytick_1">
     <g id="line2d_10">
      <defs>
       <path id="m11b6b58e2c" d="M 0 0 
L -3.5 0 
" style="stroke: #000000; stroke-width: 0.8"/>
      </defs>
      <g>
       <use xlink:href="#m11b6b58e2c" x="57.6" y="295.488" style="stroke: #000000; stroke-width: 0.8"/>
      </g>
     </g>
     <g id="text_11">
      <!-- −1.00 -->
      <g transform="translate(19.954687 299.287219) scale(0.1 -0.1)">
       <defs>
        <path id="DejaVuSans-2e" d="M 684 794 
L 1344 794 
L 1344 0 
L 684 0 
L 684 794 
z
" transform="scale(0.015625)"/>
       </defs>
       <use xlink:href="#DejaVuSans-2212"/>
       <use xlink:href="#DejaVuSans-31" x="83.789062"/>
       <use xlink:href="#DejaVuSans-2e" x="147.412109"/>
       <use xlink:href="#DejaVuSans-30" x="179.199219"/>
       <use xlink:href="#DejaVuSans-30" x="242.822266"/>
      </g>
     </g>
    </g>
    <g id="ytick_2">
     <g id="line2d_11">
      <g>
       <use xlink:href="#m11b6b58e2c" x="57.6" y="265.248" style="stroke: #000000; stroke-width: 0.8"/>
      </g>
     </g>
     <g id="text_12">
      <!-- −0.75 -->
      <g transform="translate(19.954687 269.047219) scale(0.1 -0.1)">
       <use xlink:href="#DejaVuSans-2212"/>
       <use xlink:href="#DejaVuSans-30" x="83.789062"/>
       <use xlink:href="#DejaVuSans-2e" x="147.412109"/>
       <use xlink:href="#DejaVuSans-37" x="179.199219"/>
       <use xlink:href="#DejaVuSans-35" x="242.822266"/>
      </g>
     </g>
    </g>
    <g id="ytick_3">
     <g id="line2d_12">
      <g>
       <use xlink:href="#m11b6b58e2c" x="57.6" y="235.008" style="stroke: #000000; stroke-width: 0.8"/>
      </g>
     </g>
     <g id="text_13">
      <!-- −0.50 -->
      <g transform="translate(19.954687 238.807219) scale(0.1 -0.1)">
       <use xlink:href="#DejaVuSans-2212"/>
       <use xlink:href="#DejaVuSans-30" x="83.789062"/>
       <use xlink:href="#DejaVuSans-2e" x="147.412109"/>
       <use xlink:href="#DejaVuSans-35" x="179.199219"/>
       <use xlink:href="#DejaVuSans-30" x="242.822266"/>
      </g>
     </g>
    </g>
    <g id="ytick_4">
     <g id="line2d_13">
      <g>
       <use xlink:href="#m11b6b58e2c" x="57.6" y="204.768" style="stroke: #000000; stroke-width: 0.8"/>
      </g>
     </g>
     <g id="text_14">
      <!-- −0.25 -->
      <g transform="translate(19.954687 208.567219) scale(0.1 -0.1)">
       <use xlink:href="#DejaVuSans-2212"/>
       <use xlink:href="#DejaVuSans-30" x="83.789062"/>
       <use xlink:href="#DejaVuSans-2e" x="147.412109"/>
       <use xlink:href="#DejaVuSans-32" x="179.199219"/>
       <use xlink:href="#DejaVuSans-35" x="242.822266"/>
      </g>
     </g>
    </g>
    <g id="ytick_5">
     <g id="line2d_14">
      <g>
       <use xlink:href="#m11b6b58e2c" x="57.6" y="174.528" style="stroke: #000000; stroke-width: 0.8"/>
      </g>
     </g>
     <g id="text_15">
      <!-- 0.00 -->
      <g transform="translate(28.334375 178.327219) scale(0.1 -0.1)">
       <use xlink:href="#DejaVuSans-30"/>
       <use xlink:href="#DejaVuSans-2e" x="63.623047"/>
       <use xlink:href="#DejaVuSans-30" x="95.410156"/>
       <use xlink:href="#DejaVuSans-30" x="159.033203"/>
      </g>
     </g>
    </g>
    <g id="ytick_6">
     <g id="line2d_15">
      <g>
       <use xlink:href="#m11b6b58e2c" x="57.6" y="144.288" style="stroke: #000000; stroke-width: 0.8"/>
      </g>
     </g>
     <g id="text_16">
      <!-- 0.25 -->
      <g transform="translate(28.334375 148.087219) scale(0.1 -0.1)">
       <use xlink:href="#DejaVuSans-30"/>
       <use xlink:href="#DejaVuSans-2e" x="63.623047"/>
       <use xlink:href="#DejaVuSans-32" x="95.410156"/>
       <use xlink:href="#DejaVuSans-35" x="159.033203"/>
      </g>
     </g>
    </g>
    <g id="ytick_7">
     <g id="line2d_16">
      <g>
       <use xlink:href="#m11b6b58e2c" x="57.6" y="114.048" style="stroke: #000000; stroke-width: 0.8"/>
      </g>
     </g>
     <g id="text_17">
      <!-- 0.50 -->
      <g transform="translate(28.334375 117.847219) scale(0.1 -0.1)">
       <use xlink:href="#DejaVuSans-30"/>
       <use xlink:href="#DejaVuSans-2e" x="63.623047"/>
       <use xlink:href="#DejaVuSans-35" x="95.410156"/>
       <use xlink:href="#DejaVuSans-30" x="159.033203"/>
      </g>
     </g>
    </g>
    <g id="ytick_8">
     <g id="line2d_17">
      <g>
       <use xlink:href="#m11b6b58e2c" x="57.6" y="83.808" style="stroke: #000000; stroke-width: 0.8"/>
      </g>
     </g>
     <g id="text_18">
      <!-- 0.75 -->
      <g transform="translate(28.334375 87.607219) scale(0.1 -0.1)">
       <use xlink:href="#DejaVuSans-30"/>
       <use xlink:href="#DejaVuSans-2e" x="63.623047"/>
       <use xlink:href="#DejaVuSans-37" x="95.410156"/>
       <use xlink:href="#DejaVuSans-35" x="159.033203"/>
      </g>
     </g>
    </g>
    <g id="ytick_9">
     <g id="line2d_18">
      <g>
       <use xlink:href="#m11b6b58e2c" x="57.6" y="53.568" style="stroke: #000000; stroke-width: 0.8"/>
      </g>
     </g>
     <g id="text_19">
      <!-- 1.00 -->
      <g transform="translate(28.334375 57.367219) scale(0.1 -0.1)">
       <use xlink:href="#DejaVuSans-31"/>
       <use xlink:href="#DejaVuSans-2e" x="63.623047"/>
       <use xlink:href="#DejaVuSans-30" x="95.410156"/>
       <use xlink:href="#DejaVuSans-30" x="159.033203"/>
      </g>
     </g>
    </g>
    <g id="text_20">
     <!-- lagged-cross-correlation -->
     <g transform="translate(12.627187 271.24425) rotate(-90) scale(0.16 -0.16)">
      <defs>
       <path id="DejaVuSans-64" d="M 2906 2969 
L 2906 4863 
L 3481 4863 
L 3481 0 
L 2906 0 
L 2906 525 
Q 2725 213 2448 61 
Q 2172 -91 1784 -91 
Q 1150 -91 751 415 
Q 353 922 353 1747 
Q 353 2572 751 3078 
Q 1150 3584 1784 3584 
Q 2172 3584 2448 3432 
Q 2725 3281 2906 2969 
z
M 947 1747 
Q 947 1113 1208 752 
Q 1469 391 1925 391 
Q 2381 391 2643 752 
Q 2906 1113 2906 1747 
Q 2906 2381 2643 2742 
Q 2381 3103 1925 3103 
Q 1469 3103 1208 2742 
Q 947 2381 947 1747 
z
" transform="scale(0.015625)"/>
       <path id="DejaVuSans-2d" d="M 313 2009 
L 1997 2009 
L 1997 1497 
L 313 1497 
L 313 2009 
z
" transform="scale(0.015625)"/>
       <path id="DejaVuSans-63" d="M 3122 3366 
L 3122 2828 
Q 2878 2963 2633 3030 
Q 2388 3097 2138 3097 
Q 1578 3097 1268 2742 
Q 959 2388 959 1747 
Q 959 1106 1268 751 
Q 1578 397 2138 397 
Q 2388 397 2633 464 
Q 2878 531 3122 666 
L 3122 134 
Q 2881 22 2623 -34 
Q 2366 -91 2075 -91 
Q 1284 -91 818 406 
Q 353 903 353 1747 
Q 353 2603 823 3093 
Q 1294 3584 2113 3584 
Q 2378 3584 2631 3529 
Q 2884 3475 3122 3366 
z
" transform="scale(0.015625)"/>
       <path id="DejaVuSans-73" d="M 2834 3397 
L 2834 2853 
Q 2591 2978 2328 3040 
Q 2066 3103 1784 3103 
Q 1356 3103 1142 2972 
Q 928 2841 928 2578 
Q 928 2378 1081 2264 
Q 1234 2150 1697 2047 
L 1894 2003 
Q 2506 1872 2764 1633 
Q 3022 1394 3022 966 
Q 3022 478 2636 193 
Q 2250 -91 1575 -91 
Q 1294 -91 989 -36 
Q 684 19 347 128 
L 347 722 
Q 666 556 975 473 
Q 1284 391 1588 391 
Q 1994 391 2212 530 
Q 2431 669 2431 922 
Q 2431 1156 2273 1281 
Q 2116 1406 1581 1522 
L 1381 1569 
Q 847 1681 609 1914 
Q 372 2147 372 2553 
Q 372 3047 722 3315 
Q 1072 3584 1716 3584 
Q 2034 3584 2315 3537 
Q 2597 3491 2834 3397 
z
" transform="scale(0.015625)"/>
       <path id="DejaVuSans-6e" d="M 3513 2113 
L 3513 0 
L 2938 0 
L 2938 2094 
Q 2938 2591 2744 2837 
Q 2550 3084 2163 3084 
Q 1697 3084 1428 2787 
Q 1159 2491 1159 1978 
L 1159 0 
L 581 0 
L 581 3500 
L 1159 3500 
L 1159 2956 
Q 1366 3272 1645 3428 
Q 1925 3584 2291 3584 
Q 2894 3584 3203 3211 
Q 3513 2838 3513 2113 
z
" transform="scale(0.015625)"/>
      </defs>
      <use xlink:href="#DejaVuSans-6c"/>
      <use xlink:href="#DejaVuSans-61" x="27.783203"/>
      <use xlink:href="#DejaVuSans-67" x="89.0625"/>
      <use xlink:href="#DejaVuSans-67" x="152.539062"/>
      <use xlink:href="#DejaVuSans-65" x="216.015625"/>
      <use xlink:href="#DejaVuSans-64" x="277.539062"/>
      <use xlink:href="#DejaVuSans-2d" x="341.015625"/>
      <use xlink:href="#DejaVuSans-63" x="377.099609"/>
      <use xlink:href="#DejaVuSans-72" x="432.080078"/>
      <use xlink:href="#DejaVuSans-6f" x="470.943359"/>
      <use xlink:href="#DejaVuSans-73" x="532.125"/>
      <use xlink:href="#DejaVuSans-73" x="584.224609"/>
      <use xlink:href="#DejaVuSans-2d" x="636.324219"/>
      <use xlink:href="#DejaVuSans-63" x="672.408203"/>
      <use xlink:href="#DejaVuSans-6f" x="727.388672"/>
      <use xlink:href="#DejaVuSans-72" x="788.570312"/>
      <use xlink:href="#DejaVuSans-72" x="827.933594"/>
      <use xlink:href="#DejaVuSans-65" x="866.796875"/>
      <use xlink:href="#DejaVuSans-6c" x="928.320312"/>
      <use xlink:href="#DejaVuSans-61" x="956.103516"/>
      <use xlink:href="#DejaVuSans-74" x="1017.382812"/>
      <use xlink:href="#DejaVuSans-69" x="1056.591797"/>
      <use xlink:href="#DejaVuSans-6f" x="1084.375"/>
      <use xlink:href="#DejaVuSans-6e" x="1145.556641"/>
     </g>
    </g>
   </g>
   <g id="line2d_19">
    <path d="M 73.832727 174.813266 
L 74.319709 173.992096 
L 74.482036 174.088973 
L 74.644364 174.778882 
L 74.806691 174.710262 
L 74.969018 174.042154 
L 75.131345 174.848189 
L 75.618327 179.861898 
L 76.267636 178.288567 
L 76.429964 178.082738 
L 76.754618 176.507281 
L 77.079273 177.908769 
L 77.403927 172.497277 
L 77.566255 172.323678 
L 77.890909 173.828069 
L 78.215564 177.850984 
L 78.377891 177.432878 
L 78.702545 175.259969 
L 78.864873 175.211592 
L 79.189527 173.387037 
L 79.351855 173.501793 
L 79.514182 175.121076 
L 79.676509 175.259641 
L 80.001164 172.237077 
L 80.163491 172.306019 
L 80.325818 174.359099 
L 80.650473 179.320285 
L 80.975127 173.448128 
L 81.299782 177.905431 
L 81.786764 172.989236 
L 81.949091 173.055186 
L 82.273745 171.213411 
L 82.436073 171.541266 
L 82.5984 172.592155 
L 82.923055 171.88758 
L 83.085382 171.92629 
L 83.247709 172.203647 
L 83.734691 175.199666 
L 84.059345 171.044269 
L 84.221673 171.038059 
L 84.708655 176.485893 
L 84.870982 174.228354 
L 85.195636 167.735407 
L 85.357964 169.031936 
L 85.682618 172.321251 
L 86.007273 170.657376 
L 86.1696 171.000228 
L 86.331927 171.784016 
L 86.494255 171.154229 
L 86.818909 167.028154 
L 86.981236 166.858532 
L 87.305891 169.72895 
L 87.468218 169.247766 
L 87.792873 167.220101 
L 87.9552 168.749073 
L 88.117527 171.666343 
L 88.279855 172.284878 
L 88.442182 170.704476 
L 88.604509 171.494122 
L 88.929164 176.798349 
L 89.091491 176.734759 
L 89.253818 175.592997 
L 89.578473 172.292852 
L 89.7408 172.582643 
L 89.903127 174.116459 
L 90.227782 178.357812 
L 90.390109 177.319414 
L 90.552436 177.042783 
L 90.714764 177.374697 
L 90.877091 177.104646 
L 91.039418 177.606353 
L 91.364073 179.156505 
L 91.688727 182.292832 
L 91.851055 179.796483 
L 92.175709 170.892714 
L 92.338036 170.426654 
L 92.662691 174.956183 
L 92.825018 175.285796 
L 92.987345 174.713473 
L 93.149673 175.235677 
L 93.474327 178.460869 
L 93.636655 177.969626 
L 93.798982 178.223248 
L 93.961309 179.124656 
L 94.123636 179.151007 
L 94.610618 173.940519 
L 94.772945 174.625181 
L 95.0976 177.18545 
L 95.259927 177.217278 
L 95.422255 176.287966 
L 95.746909 174.049986 
L 95.909236 174.21346 
L 96.071564 173.939737 
L 96.233891 173.986401 
L 96.396218 173.073444 
L 96.720873 170.024649 
L 96.8832 169.697198 
L 97.045527 170.889402 
L 97.370182 178.028849 
L 97.532509 178.578996 
L 97.857164 176.154454 
L 98.019491 177.21358 
L 98.181818 179.454154 
L 98.344145 179.784771 
L 98.6688 175.293909 
L 98.831127 175.637881 
L 98.993455 176.931283 
L 99.155782 176.682656 
L 99.318109 175.610684 
L 99.480436 175.502599 
L 99.642764 176.211145 
L 99.967418 176.496241 
L 100.129745 176.441494 
L 100.4544 174.801182 
L 100.616727 174.707673 
L 100.779055 174.840509 
L 100.941382 175.439985 
L 101.103709 175.1186 
L 101.266036 173.443814 
L 101.428364 173.625178 
L 101.753018 178.220797 
L 101.915345 177.44589 
L 102.24 170.840573 
L 102.402327 170.724452 
L 102.726982 176.561483 
L 103.051636 174.515952 
L 103.376291 176.574199 
L 103.538618 176.362538 
L 103.700945 176.4609 
L 103.863273 176.356993 
L 104.350255 172.319048 
L 104.837236 174.661247 
L 105.324218 172.25716 
L 105.486545 172.542845 
L 105.648873 172.452127 
L 105.8112 173.109278 
L 106.135855 175.000147 
L 106.622836 171.751416 
L 106.785164 172.956541 
L 106.947491 173.189521 
L 107.109818 172.598969 
L 107.272145 172.568075 
L 107.434473 172.674776 
L 107.5968 173.930975 
L 107.759127 176.289967 
L 107.921455 176.02204 
L 108.246109 173.284189 
L 108.570764 170.349272 
L 108.733091 171.090088 
L 109.057745 175.465148 
L 109.3824 171.003557 
L 109.544727 171.063437 
L 109.707055 173.148068 
L 109.869382 172.073162 
L 110.031709 169.114397 
L 110.194036 169.293241 
L 110.518691 172.025097 
L 110.681018 171.701157 
L 110.843345 170.610468 
L 111.005673 170.915515 
L 111.492655 179.908895 
L 111.817309 176.580652 
L 112.141964 179.73751 
L 112.628945 174.35125 
L 112.9536 179.823794 
L 113.440582 175.912554 
L 113.765236 177.416738 
L 114.252218 176.221153 
L 114.414545 175.256247 
L 114.576873 175.674263 
L 114.7392 176.597294 
L 115.063855 175.87642 
L 115.550836 182.08975 
L 115.713164 180.892285 
L 116.037818 175.502623 
L 116.200145 174.56838 
L 116.362473 174.49134 
L 116.5248 175.467929 
L 116.687127 175.743869 
L 117.011782 172.615931 
L 117.174109 173.832801 
L 117.498764 177.51434 
L 117.661091 178.12336 
L 117.823418 177.721381 
L 117.985745 177.011429 
L 118.3104 173.935284 
L 118.472727 174.354778 
L 118.797382 175.879244 
L 118.959709 175.580185 
L 119.284364 174.136161 
L 119.446691 173.809851 
L 119.771345 176.236691 
L 119.933673 175.663869 
L 120.258327 172.813229 
L 120.420655 171.922061 
L 120.582982 171.790639 
L 120.745309 172.401294 
L 120.907636 172.562261 
L 121.232291 175.122161 
L 121.394618 174.039042 
L 121.556945 172.105834 
L 121.719273 172.303592 
L 122.043927 176.352499 
L 122.206255 176.221159 
L 122.530909 172.616575 
L 122.693236 171.635033 
L 122.855564 171.697344 
L 123.342545 179.332784 
L 123.991855 172.240997 
L 124.154182 171.428021 
L 124.641164 167.679411 
L 124.803491 167.726831 
L 124.965818 168.212394 
L 125.128145 169.275102 
L 125.4528 172.112628 
L 125.615127 171.854763 
L 126.264436 174.088884 
L 126.426764 173.482899 
L 126.589091 173.444608 
L 127.076073 175.613084 
L 127.2384 175.37755 
L 127.725382 177.931394 
L 128.050036 176.424794 
L 128.212364 177.514174 
L 128.374691 177.556296 
L 128.699345 174.948889 
L 128.861673 174.857396 
L 129.024 175.527303 
L 129.186327 176.997351 
L 129.348655 176.96883 
L 129.510982 175.013868 
L 129.673309 174.869938 
L 129.997964 178.838398 
L 130.160291 179.283326 
L 130.484945 180.805468 
L 130.971927 178.265111 
L 131.296582 179.777761 
L 131.945891 174.524325 
L 132.432873 176.812451 
L 132.757527 172.9778 
L 133.082182 174.021674 
L 133.893818 180.919158 
L 134.218473 180.171059 
L 134.543127 177.824643 
L 134.867782 174.958997 
L 135.030109 172.778918 
L 135.192436 172.135792 
L 135.354764 173.479952 
L 135.841745 179.647093 
L 136.328727 175.344763 
L 136.653382 178.291928 
L 136.815709 176.567013 
L 136.978036 171.929501 
L 137.140364 170.933231 
L 137.465018 176.766644 
L 137.789673 174.079009 
L 137.952 174.92269 
L 138.114327 177.941947 
L 138.276655 177.861793 
L 138.601309 172.637384 
L 138.763636 171.921496 
L 138.925964 172.442972 
L 139.088291 171.780737 
L 139.250618 169.975401 
L 139.412945 170.141094 
L 139.7376 172.677192 
L 140.224582 170.124788 
L 140.386909 169.877051 
L 140.549236 169.379969 
L 140.711564 169.667662 
L 141.036218 172.726137 
L 141.198545 173.118033 
L 141.5232 172.569784 
L 142.010182 176.936071 
L 142.172509 176.346739 
L 142.334836 176.454773 
L 142.497164 177.100804 
L 142.659491 175.872201 
L 142.984145 172.127194 
L 143.146473 172.020032 
L 143.3088 173.792985 
L 143.471127 173.323974 
L 143.633455 171.260735 
L 143.795782 171.410513 
L 143.958109 170.65667 
L 144.120436 168.516626 
L 144.282764 168.23847 
L 144.445091 169.430408 
L 144.607418 169.472575 
L 144.769745 168.480394 
L 144.932073 168.75383 
L 145.256727 171.506059 
L 145.419055 170.983841 
L 145.581382 172.191644 
L 146.068364 178.391567 
L 146.230691 178.261316 
L 146.88 173.677888 
L 147.042327 171.879304 
L 147.204655 172.199477 
L 147.529309 176.065608 
L 147.691636 174.409149 
L 147.853964 174.231449 
L 148.016291 177.10384 
L 148.178618 177.815583 
L 148.6656 168.028133 
L 148.990255 172.022322 
L 149.152582 172.802495 
L 149.477236 177.44247 
L 149.639564 177.500482 
L 149.964218 175.841603 
L 150.126545 176.106787 
L 150.288873 177.787801 
L 150.4512 178.298534 
L 150.775855 177.633151 
L 151.262836 173.439439 
L 151.425164 173.84634 
L 152.074473 177.187442 
L 152.2368 176.230399 
L 152.399127 174.580859 
L 152.561455 174.159777 
L 152.886109 175.078349 
L 153.048436 175.004962 
L 153.373091 176.461169 
L 153.697745 173.543315 
L 154.0224 170.795921 
L 154.184727 171.971581 
L 154.834036 181.226627 
L 154.996364 181.90163 
L 155.483345 177.868752 
L 155.970327 180.630265 
L 156.294982 176.792615 
L 156.457309 174.145586 
L 156.619636 173.328086 
L 157.106618 175.901631 
L 157.431273 172.254879 
L 157.5936 172.327657 
L 157.918255 176.067791 
L 158.405236 173.407647 
L 158.567564 172.35791 
L 158.729891 172.86868 
L 159.054545 175.031617 
L 159.216873 174.98298 
L 159.541527 173.094684 
L 159.866182 172.007241 
L 160.028509 173.758548 
L 160.190836 176.925072 
L 160.353164 177.22447 
L 160.840145 174.121345 
L 161.489455 172.671179 
L 161.814109 169.622249 
L 161.976436 168.996206 
L 162.138764 169.345275 
L 162.301091 170.160353 
L 162.463418 169.585424 
L 162.788073 165.857056 
L 162.9504 165.809586 
L 163.275055 171.776903 
L 163.437382 172.336036 
L 163.599709 172.291383 
L 163.924364 175.359347 
L 164.249018 175.991899 
L 164.411345 175.241459 
L 164.736 171.845804 
L 164.898327 171.348377 
L 165.060655 171.737108 
L 165.385309 176.387563 
L 165.547636 176.068636 
L 165.872291 170.988058 
L 166.034618 170.207316 
L 166.359273 173.533521 
L 166.5216 173.065292 
L 166.846255 166.451256 
L 167.008582 166.493245 
L 167.820218 175.011882 
L 168.144873 178.464979 
L 168.3072 176.85429 
L 168.631855 171.364213 
L 168.956509 172.518953 
L 169.443491 174.47113 
L 169.605818 175.244707 
L 169.768145 174.623312 
L 170.0928 171.00639 
L 170.255127 171.208595 
L 170.579782 173.754683 
L 170.742109 173.091861 
L 170.904436 171.48364 
L 171.066764 171.137605 
L 171.229091 172.001269 
L 171.716073 176.474435 
L 172.040727 174.970259 
L 172.203055 176.599883 
L 172.365382 179.56009 
L 172.527709 179.433733 
L 172.690036 177.725321 
L 172.852364 177.5882 
L 173.339345 179.269012 
L 173.664 175.07675 
L 173.826327 175.238338 
L 173.988655 176.632493 
L 174.150982 176.887717 
L 174.637964 172.85568 
L 174.962618 178.029064 
L 175.124945 178.138484 
L 175.611927 168.621396 
L 175.936582 172.299731 
L 176.098909 173.859146 
L 176.261236 174.177347 
L 176.585891 173.016339 
L 176.748218 173.821369 
L 176.910545 173.216476 
L 177.2352 169.909824 
L 177.559855 172.334199 
L 177.884509 169.975129 
L 178.046836 170.341248 
L 178.533818 172.956034 
L 178.696145 172.601079 
L 178.858473 171.514931 
L 179.0208 171.330515 
L 179.183127 173.351521 
L 179.345455 173.104595 
L 179.670109 169.726936 
L 179.832436 169.842317 
L 180.319418 171.714423 
L 180.481745 170.469719 
L 180.644073 170.536431 
L 180.968727 174.4485 
L 181.131055 175.567609 
L 181.293382 175.500225 
L 181.618036 173.610613 
L 181.780364 173.769211 
L 181.942691 174.811232 
L 182.105018 174.71776 
L 182.267345 174.372541 
L 182.429673 174.996014 
L 182.754327 178.480523 
L 183.078982 173.785476 
L 183.241309 173.830654 
L 183.403636 174.431465 
L 183.565964 173.784593 
L 183.890618 171.831353 
L 184.215273 170.193111 
L 184.3776 170.049352 
L 184.539927 170.496378 
L 185.189236 177.574319 
L 185.351564 177.200004 
L 185.676218 175.853631 
L 186.325527 177.388945 
L 186.974836 180.04397 
L 187.461818 178.176708 
L 187.786473 175.341872 
L 187.9488 175.334368 
L 188.111127 176.048218 
L 188.273455 177.289482 
L 188.435782 177.15904 
L 188.760436 174.835409 
L 188.922764 174.729379 
L 189.085091 175.124949 
L 189.247418 176.078464 
L 189.409745 176.360076 
L 189.572073 175.586595 
L 189.7344 175.662155 
L 190.059055 178.686727 
L 190.708364 180.712108 
L 190.870691 180.209534 
L 191.195345 178.76263 
L 191.357673 178.598793 
L 191.682327 177.725949 
L 192.006982 175.752152 
L 192.169309 176.408129 
L 192.493964 180.166784 
L 192.818618 178.667084 
L 192.980945 178.335597 
L 193.3056 176.047951 
L 193.467927 176.6879 
L 193.792582 178.127138 
L 194.279564 174.294635 
L 194.441891 175.244869 
L 194.766545 178.693932 
L 195.0912 180.190611 
L 195.253527 180.669793 
L 195.415855 180.772602 
L 195.578182 179.741494 
L 195.902836 176.778389 
L 196.065164 177.144041 
L 196.227491 177.156222 
L 196.389818 177.415765 
L 196.552145 176.455416 
L 196.8768 171.059674 
L 197.039127 170.106754 
L 197.526109 173.292175 
L 197.688436 172.347855 
L 197.850764 170.561969 
L 198.013091 170.303958 
L 198.500073 173.488853 
L 198.987055 170.496944 
L 199.149382 170.692376 
L 199.474036 172.326447 
L 199.636364 172.645681 
L 199.798691 173.277553 
L 200.123345 175.289272 
L 200.610327 176.488558 
L 200.934982 174.936194 
L 201.421964 177.020207 
L 201.584291 177.253487 
L 201.746618 176.991214 
L 201.908945 176.988959 
L 202.2336 180.078896 
L 202.395927 180.419034 
L 202.558255 179.88327 
L 202.720582 179.975817 
L 202.882909 180.376819 
L 203.207564 173.708863 
L 203.369891 173.853508 
L 203.856873 178.020687 
L 204.0192 177.615431 
L 204.181527 176.136745 
L 204.506182 171.839121 
L 204.668509 171.800222 
L 204.993164 174.905242 
L 205.317818 175.92862 
L 205.480145 175.678866 
L 205.642473 175.907716 
L 205.8048 177.134435 
L 205.967127 177.44854 
L 206.454109 172.765732 
L 206.616436 172.992847 
L 206.778764 174.320304 
L 207.103418 178.605816 
L 207.265745 179.133188 
L 207.428073 178.263951 
L 207.5904 178.178652 
L 207.915055 179.605517 
L 208.077382 177.910416 
L 208.402036 170.220367 
L 208.564364 170.387275 
L 209.051345 178.377315 
L 209.213673 178.535715 
L 209.376 179.269491 
L 209.700655 181.719332 
L 210.025309 182.439539 
L 210.512291 178.522717 
L 210.836945 178.093034 
L 211.1616 175.801178 
L 211.323927 175.52678 
L 211.648582 173.497397 
L 211.810909 174.732308 
L 211.973236 176.826154 
L 212.135564 175.739712 
L 212.297891 173.861618 
L 212.460218 174.045 
L 212.622545 173.650098 
L 212.784873 172.548494 
L 212.9472 172.229534 
L 213.271855 174.159692 
L 213.758836 172.849021 
L 213.921164 174.162688 
L 214.083491 177.447676 
L 214.245818 178.258747 
L 214.570473 171.290059 
L 214.7328 172.103098 
L 215.219782 180.595902 
L 215.382109 180.007485 
L 216.031418 173.286564 
L 216.356073 174.52435 
L 216.5184 173.76185 
L 216.843055 169.727119 
L 217.330036 175.568739 
L 217.492364 176.367058 
L 217.654691 175.954803 
L 217.979345 172.012477 
L 218.141673 172.327162 
L 218.466327 175.073128 
L 218.953309 171.156949 
L 219.277964 175.550908 
L 219.440291 175.278922 
L 219.602618 174.026481 
L 219.764945 174.565448 
L 220.0896 177.690804 
L 220.251927 176.826934 
L 220.576582 172.548955 
L 220.738909 172.21585 
L 220.901236 172.7441 
L 221.063564 172.606556 
L 221.225891 173.563514 
L 221.712873 180.009359 
L 222.037527 177.521618 
L 222.199855 177.599942 
L 222.362182 178.096212 
L 222.524509 177.777799 
L 222.686836 176.462714 
L 223.011491 170.95129 
L 223.173818 171.651971 
L 223.498473 176.938082 
L 223.6608 176.430554 
L 223.823127 175.060307 
L 223.985455 175.124961 
L 224.147782 175.473477 
L 224.310109 175.304127 
L 224.472436 175.303602 
L 224.959418 177.023267 
L 225.121745 177.037777 
L 225.4464 174.77316 
L 225.608727 174.759712 
L 225.933382 173.483725 
L 226.095709 173.748452 
L 226.258036 174.508209 
L 226.582691 176.75997 
L 226.907345 177.670416 
L 227.394327 173.79827 
L 227.718982 179.215589 
L 227.881309 178.208393 
L 228.205964 173.501766 
L 228.368291 174.630573 
L 228.530618 174.851722 
L 229.0176 171.604251 
L 229.342255 174.874769 
L 229.504582 175.000806 
L 229.991564 177.488888 
L 230.153891 177.247176 
L 230.316218 176.631904 
L 230.478545 176.518994 
L 230.640873 176.671485 
L 230.8032 176.032638 
L 231.127855 172.48207 
L 231.452509 173.058713 
L 231.777164 171.163501 
L 232.101818 173.410815 
L 232.264145 173.515871 
L 232.426473 174.365267 
L 232.5888 174.5657 
L 232.913455 175.55456 
L 233.238109 173.770812 
L 233.400436 175.032937 
L 233.725091 178.560087 
L 234.212073 175.433187 
L 235.186036 160.86395 
L 235.673018 148.904746 
L 235.997673 143.102559 
L 236.16 142.927435 
L 236.16 142.927435 
" clip-path="url(#p725cf3103d)" style="fill: none; stroke: #9ab973; stroke-width: 3; stroke-linecap: square"/>
   </g>
   <g id="line2d_20">
    <path d="M 236.16 142.927435 
L 236.646982 150.997606 
L 236.971636 152.849713 
L 237.133964 155.113656 
L 237.458618 161.764706 
L 237.783273 166.613724 
L 237.9456 169.537067 
L 238.107927 169.855426 
L 238.270255 168.523436 
L 238.432582 169.082636 
L 238.594909 168.932602 
L 238.757236 169.384149 
L 238.919564 170.527887 
L 239.081891 170.453759 
L 239.406545 172.988824 
L 239.893527 170.773138 
L 240.055855 171.291103 
L 240.218182 170.465652 
L 240.380509 170.89491 
L 240.542836 172.211358 
L 240.705164 170.513791 
L 240.867491 170.529923 
L 241.354473 174.942921 
L 241.5168 175.275196 
L 241.841455 171.689245 
L 242.003782 174.913 
L 242.328436 174.484996 
L 242.490764 175.729444 
L 242.653091 175.086042 
L 242.815418 175.304573 
L 242.977745 173.694415 
L 243.140073 173.84661 
L 243.3024 175.260136 
L 243.464727 173.710616 
L 243.789382 168.335936 
L 244.114036 173.088194 
L 244.438691 169.690712 
L 244.763345 171.081103 
L 244.925673 172.097288 
L 245.250327 172.525257 
L 245.412655 172.041236 
L 245.574982 172.612816 
L 245.737309 173.74834 
L 246.061964 171.200897 
L 246.224291 172.633151 
L 246.386618 175.515321 
L 246.548945 174.831869 
L 246.711273 173.446398 
L 246.8736 173.79878 
L 247.035927 175.093786 
L 247.198255 174.348694 
L 247.522909 169.285874 
L 247.847564 174.963678 
L 248.009891 174.269659 
L 248.172218 174.926378 
L 248.334545 178.171952 
L 248.496873 177.472738 
L 248.821527 171.743713 
L 248.983855 172.762398 
L 249.146182 176.176355 
L 249.308509 176.677506 
L 249.470836 175.39101 
L 249.633164 176.89571 
L 249.795491 177.173194 
L 249.957818 176.048187 
L 250.120145 176.331418 
L 250.282473 176.009723 
L 250.607127 178.0112 
L 250.931782 175.910942 
L 251.094109 175.976204 
L 251.418764 178.907986 
L 251.743418 174.610521 
L 251.905745 176.764403 
L 252.068073 176.473529 
L 252.2304 175.055297 
L 252.392727 175.197083 
L 252.555055 177.438266 
L 252.717382 178.086526 
L 253.042036 172.378838 
L 253.366691 175.413284 
L 253.691345 177.994743 
L 254.016 176.257582 
L 254.178327 174.713868 
L 254.340655 174.753759 
L 254.502982 175.620159 
L 254.665309 175.602938 
L 254.827636 175.170541 
L 254.989964 173.431787 
L 255.152291 169.534379 
L 255.314618 170.238089 
L 255.476945 174.526338 
L 255.639273 174.924304 
L 255.8016 174.603423 
L 256.288582 179.283531 
L 256.450909 181.785394 
L 256.613236 181.61183 
L 256.937891 177.439854 
L 257.100218 178.046183 
L 257.262545 177.675174 
L 257.5872 173.332228 
L 257.749527 173.078087 
L 258.074182 175.932188 
L 258.236509 175.188351 
L 258.561164 171.013526 
L 258.723491 172.680635 
L 258.885818 175.860578 
L 259.048145 175.796212 
L 259.210473 175.122023 
L 259.3728 175.879908 
L 259.535127 175.283574 
L 259.697455 173.844705 
L 260.184436 177.731495 
L 260.346764 177.529344 
L 260.509091 176.159385 
L 260.833745 179.727072 
L 261.1584 177.137764 
L 261.483055 172.734362 
L 261.645382 174.827437 
L 261.807709 178.842756 
L 261.970036 177.621706 
L 262.294691 173.87707 
L 262.457018 174.299586 
L 262.619345 175.874677 
L 262.781673 175.005612 
L 263.268655 168.889773 
L 263.430982 169.839468 
L 263.755636 176.480568 
L 264.242618 179.594186 
L 264.404945 178.882709 
L 264.567273 178.782706 
L 264.7296 179.332335 
L 264.891927 179.060272 
L 265.216582 177.037211 
L 265.378909 179.240258 
L 265.541236 179.916953 
L 265.703564 179.321037 
L 265.865891 181.366627 
L 266.028218 180.314588 
L 266.190545 178.307513 
L 266.352873 180.837291 
L 266.5152 181.024453 
L 266.677527 175.874617 
L 266.839855 176.578924 
L 267.002182 180.768499 
L 267.326836 174.887493 
L 267.651491 171.270486 
L 267.813818 171.836905 
L 267.976145 172.894984 
L 268.3008 178.89299 
L 268.463127 177.239117 
L 268.625455 176.788057 
L 268.787782 175.796431 
L 268.950109 175.856806 
L 269.112436 177.402594 
L 269.274764 177.463967 
L 269.437091 176.793901 
L 269.761745 181.473825 
L 270.0864 177.271976 
L 270.248727 178.212382 
L 270.573382 181.583317 
L 270.735709 180.959926 
L 271.385018 170.345555 
L 271.547345 169.512857 
L 271.709673 171.426287 
L 272.034327 177.694392 
L 272.358982 177.252016 
L 272.521309 177.694018 
L 272.683636 178.739375 
L 272.845964 178.306319 
L 273.008291 176.428105 
L 273.170618 172.702711 
L 273.332945 172.01653 
L 273.495273 174.131882 
L 273.6576 172.092096 
L 273.819927 168.046104 
L 273.982255 167.351626 
L 274.306909 167.863818 
L 274.469236 169.091898 
L 274.793891 169.117001 
L 274.956218 169.511492 
L 275.280873 168.078928 
L 275.4432 170.597539 
L 275.605527 171.038908 
L 275.930182 168.064452 
L 276.092509 168.183917 
L 276.579491 175.079448 
L 276.741818 175.461775 
L 276.904145 175.365596 
L 277.066473 178.306697 
L 277.2288 177.643197 
L 277.391127 174.83724 
L 277.553455 174.856022 
L 277.878109 177.20032 
L 278.040436 175.935348 
L 278.202764 173.48998 
L 278.527418 179.845234 
L 278.689745 179.676675 
L 279.0144 177.616699 
L 279.339055 173.413869 
L 279.501382 173.805374 
L 279.663709 174.914144 
L 279.826036 175.233679 
L 279.988364 174.614525 
L 280.150691 174.522716 
L 280.313018 177.837368 
L 280.475345 177.937373 
L 280.637673 175.893912 
L 280.8 176.115192 
L 281.124655 178.497852 
L 281.286982 177.896607 
L 281.449309 177.990528 
L 281.773964 175.627467 
L 281.936291 175.929727 
L 282.098618 175.680474 
L 282.260945 176.054654 
L 282.5856 174.034548 
L 282.747927 175.355122 
L 283.072582 180.950156 
L 283.397236 180.37549 
L 283.721891 179.044616 
L 283.884218 179.787591 
L 284.208873 176.278318 
L 284.3712 176.59249 
L 284.533527 176.095063 
L 284.695855 176.81561 
L 284.858182 179.347791 
L 285.020509 179.570246 
L 285.182836 175.892699 
L 285.345164 175.611908 
L 285.507491 176.877994 
L 285.669818 174.563077 
L 285.832145 174.191029 
L 286.1568 177.015873 
L 286.319127 180.291028 
L 286.481455 180.84146 
L 286.643782 178.585124 
L 286.806109 178.924185 
L 287.130764 182.377085 
L 287.293091 182.571382 
L 287.455418 180.925149 
L 287.780073 174.037206 
L 288.104727 175.057019 
L 288.429382 178.538799 
L 288.591709 181.229866 
L 288.916364 177.427455 
L 289.078691 180.04779 
L 289.403345 177.998925 
L 289.728 180.652401 
L 289.890327 179.57656 
L 290.214982 174.44212 
L 290.377309 174.62141 
L 290.539636 175.19075 
L 290.864291 179.100805 
L 291.188945 175.677403 
L 291.351273 178.409184 
L 291.675927 173.281157 
L 291.838255 174.621218 
L 292.162909 179.544354 
L 292.325236 177.864707 
L 292.487564 174.480206 
L 292.812218 173.997313 
L 292.974545 172.924274 
L 293.136873 172.964152 
L 293.461527 171.509841 
L 293.786182 173.011815 
L 294.110836 174.711866 
L 294.273164 173.958586 
L 294.597818 171.779337 
L 294.922473 174.320149 
L 295.247127 169.291964 
L 295.409455 169.352971 
L 295.896436 172.78287 
L 296.058764 172.56702 
L 296.221091 171.569468 
L 296.383418 172.593979 
L 296.545745 172.101581 
L 296.708073 172.470981 
L 296.8704 175.664065 
L 297.032727 175.582432 
L 297.195055 174.763361 
L 297.357382 175.590167 
L 297.519709 177.704435 
L 297.682036 178.185503 
L 297.844364 177.070247 
L 298.006691 177.502194 
L 298.493673 174.586256 
L 298.656 171.434393 
L 298.818327 170.907942 
L 299.142982 175.967385 
L 299.305309 176.687674 
L 299.954618 172.02263 
L 300.116945 172.69659 
L 300.279273 172.81536 
L 300.4416 172.526047 
L 300.603927 173.673653 
L 300.766255 173.962169 
L 300.928582 173.189672 
L 301.253236 175.485845 
L 301.577891 172.297093 
L 301.902545 174.215896 
L 302.064873 173.677589 
L 302.2272 173.765499 
L 302.389527 175.299019 
L 302.551855 178.30102 
L 302.714182 177.476983 
L 303.038836 167.788443 
L 303.525818 171.35275 
L 303.688145 171.07058 
L 304.0128 169.154072 
L 304.175127 169.957669 
L 304.499782 176.126522 
L 304.662109 173.329254 
L 304.824436 173.391652 
L 304.986764 173.809642 
L 305.149091 169.756998 
L 305.311418 168.556814 
L 305.473745 170.957647 
L 305.636073 171.470835 
L 305.960727 168.653379 
L 306.123055 168.791806 
L 306.285382 170.680147 
L 306.447709 170.774935 
L 306.610036 169.630241 
L 306.772364 173.145811 
L 306.934691 173.655427 
L 307.097018 171.853871 
L 307.259345 171.613704 
L 307.421673 169.942803 
L 307.584 171.017403 
L 307.746327 173.407714 
L 307.908655 172.646009 
L 308.070982 169.936943 
L 308.233309 171.228194 
L 308.395636 173.819706 
L 308.720291 171.040167 
L 308.882618 170.146177 
L 309.207273 165.429452 
L 309.3696 165.273631 
L 309.694255 167.420527 
L 309.856582 166.700196 
L 310.181236 169.159201 
L 310.668218 166.072434 
L 310.992873 172.995785 
L 311.1552 173.457211 
L 311.479855 171.85348 
L 311.642182 171.763059 
L 311.804509 170.919548 
L 311.966836 171.845339 
L 312.129164 171.965801 
L 312.291491 170.418053 
L 312.453818 170.25525 
L 312.778473 176.814491 
L 313.103127 169.207207 
L 313.590109 176.363423 
L 313.752436 176.005306 
L 313.914764 177.21918 
L 314.401745 170.540226 
L 314.564073 170.200099 
L 314.7264 172.569702 
L 314.888727 173.089522 
L 315.051055 172.861359 
L 315.375709 177.272972 
L 315.538036 176.272984 
L 315.700364 176.151547 
L 315.862691 175.888806 
L 316.349673 173.19311 
L 316.512 173.61493 
L 316.836655 177.630416 
L 316.998982 178.518542 
L 317.161309 178.49587 
L 317.648291 174.006953 
L 317.810618 174.352495 
L 317.972945 176.776728 
L 318.135273 177.340952 
L 318.2976 173.874819 
L 318.459927 173.687387 
L 319.109236 179.254259 
L 319.433891 175.159405 
L 319.758545 174.379029 
L 319.920873 175.576613 
L 320.245527 179.874451 
L 320.407855 180.433607 
L 320.732509 177.773496 
L 320.894836 178.927862 
L 321.057164 178.364292 
L 321.219491 177.385902 
L 321.544145 181.351858 
L 321.706473 179.479531 
L 321.8688 178.915593 
L 322.193455 180.32672 
L 322.355782 178.843857 
L 322.518109 174.83359 
L 322.680436 175.440782 
L 322.842764 176.713211 
L 323.329745 169.113189 
L 323.816727 175.833756 
L 323.979055 174.175661 
L 324.141382 170.622174 
L 324.303709 171.411237 
L 324.628364 183.304103 
L 324.790691 185.482711 
L 324.953018 185.937634 
L 325.277673 181.220559 
L 325.44 182.83737 
L 325.602327 182.699759 
L 325.764655 181.303208 
L 326.251636 180.989916 
L 326.413964 180.040778 
L 327.063273 170.668747 
L 327.2256 169.590868 
L 327.387927 171.185827 
L 327.550255 175.109093 
L 327.712582 176.274296 
L 327.874909 173.15567 
L 328.037236 173.708278 
L 328.199564 175.859718 
L 328.361891 175.2081 
L 328.524218 175.02222 
L 328.686545 175.553055 
L 329.0112 173.032353 
L 329.173527 173.076711 
L 329.335855 172.473231 
L 329.498182 173.588733 
L 329.822836 176.523543 
L 330.147491 173.733411 
L 330.309818 175.978743 
L 330.472145 174.201314 
L 330.634473 170.789911 
L 330.7968 171.596217 
L 330.959127 171.561321 
L 331.121455 170.0689 
L 331.283782 170.423712 
L 331.446109 171.434099 
L 331.608436 170.705197 
L 331.770764 166.310022 
L 331.933091 165.015876 
L 332.257745 166.316449 
L 332.420073 169.93744 
L 332.5824 168.850241 
L 332.744727 169.177606 
L 332.907055 173.339546 
L 333.069382 173.01563 
L 333.231709 170.689568 
L 333.394036 170.741162 
L 333.718691 172.788974 
L 333.881018 174.721004 
L 334.043345 174.761601 
L 334.205673 172.910202 
L 334.368 172.871111 
L 334.530327 172.540363 
L 334.692655 171.712824 
L 334.854982 171.895361 
L 335.017309 172.373842 
L 335.341964 170.333126 
L 335.504291 171.880469 
L 335.666618 171.799014 
L 335.828945 171.194244 
L 336.315927 172.904478 
L 336.478255 173.986533 
L 336.640582 176.256608 
L 336.965236 172.281358 
L 337.127564 176.072078 
L 337.289891 175.768763 
L 337.614545 172.923514 
L 337.776873 172.299026 
L 338.263855 179.368379 
L 338.426182 178.396973 
L 338.750836 178.739188 
L 338.913164 176.264807 
L 339.237818 169.493235 
L 339.562473 171.25481 
L 340.049455 176.423361 
L 340.374109 174.405401 
L 340.536436 174.313326 
L 340.861091 177.330314 
L 341.348073 174.698822 
L 341.5104 173.092704 
L 341.672727 172.7809 
L 341.997382 169.28688 
L 342.159709 169.404757 
L 342.322036 170.445308 
L 342.646691 175.887276 
L 342.809018 175.846416 
L 342.971345 175.628544 
L 343.133673 177.456889 
L 343.296 176.43435 
L 343.458327 174.356362 
L 343.620655 174.416735 
L 343.782982 174.898248 
L 343.945309 177.958758 
L 344.107636 177.905125 
L 344.269964 175.987668 
L 344.432291 178.181456 
L 344.594618 177.777377 
L 344.756945 176.910589 
L 344.919273 177.096469 
L 345.406255 172.020682 
L 345.730909 176.306613 
L 345.893236 175.333755 
L 346.055564 173.174653 
L 346.217891 172.917511 
L 346.380218 172.306888 
L 346.542545 173.039206 
L 346.704873 176.462438 
L 346.8672 176.405365 
L 347.516509 163.973764 
L 347.841164 166.14605 
L 348.165818 167.157073 
L 348.328145 168.663119 
L 348.815127 176.059188 
L 348.977455 176.776558 
L 349.139782 175.406644 
L 349.302109 175.421005 
L 349.626764 179.066387 
L 349.789091 180.310826 
L 350.113745 178.362902 
L 350.4384 179.317444 
L 350.600727 179.028734 
L 350.763055 177.131297 
L 350.925382 177.63692 
L 351.087709 177.609435 
L 351.250036 176.329403 
L 351.574691 179.42035 
L 351.899345 173.837388 
L 352.061673 175.299919 
L 352.224 178.641774 
L 352.386327 177.961396 
L 352.710982 175.473692 
L 352.873309 176.104648 
L 353.197964 173.205042 
L 353.522618 174.145694 
L 353.847273 177.023879 
L 354.171927 176.390122 
L 354.334255 178.539062 
L 354.496582 178.079624 
L 354.658909 176.911132 
L 354.821236 177.443898 
L 355.145891 175.159013 
L 355.308218 174.992143 
L 355.470545 175.825468 
L 355.7952 178.627843 
L 355.957527 179.545684 
L 356.282182 177.434501 
L 356.444509 177.97931 
L 356.606836 179.261244 
L 356.769164 178.87972 
L 356.931491 177.17499 
L 357.093818 177.038538 
L 357.5808 179.173735 
L 357.905455 178.024022 
L 358.230109 178.817822 
L 358.554764 179.961198 
L 359.041745 174.186598 
L 359.204073 173.981269 
L 359.528727 178.799045 
L 359.691055 178.945206 
L 359.853382 177.876606 
L 360.502691 185.306135 
L 360.827345 179.2174 
L 360.989673 180.422898 
L 361.152 179.26226 
L 361.476655 173.030712 
L 361.638982 171.171668 
L 361.801309 171.639967 
L 361.963636 173.407918 
L 362.125964 173.744934 
L 362.450618 168.073686 
L 362.612945 168.507124 
L 362.9376 173.497507 
L 363.099927 173.589768 
L 363.424582 171.060789 
L 363.749236 176.777751 
L 363.911564 176.70595 
L 364.236218 173.348644 
L 364.398545 174.769327 
L 364.7232 179.539179 
L 365.047855 174.503401 
L 365.210182 172.207596 
L 365.372509 171.642784 
L 365.534836 171.657755 
L 365.859491 174.617372 
L 366.021818 173.248727 
L 366.184145 170.013417 
L 366.346473 170.227576 
L 366.5088 172.27728 
L 366.671127 172.257002 
L 366.995782 174.714646 
L 367.645091 169.809207 
L 367.807418 170.507261 
L 367.969745 173.744169 
L 368.132073 174.557268 
L 368.2944 172.395094 
L 368.456727 172.049769 
L 368.619055 174.376252 
L 368.781382 173.664978 
L 368.943709 171.461762 
L 369.268364 175.727545 
L 369.430691 174.660575 
L 369.917673 169.436623 
L 370.08 169.009679 
L 370.242327 168.069908 
L 370.404655 170.674274 
L 370.729309 177.541195 
L 370.891636 178.644763 
L 371.216291 177.244973 
L 371.378618 179.236577 
L 371.540945 177.612527 
L 371.8656 169.247988 
L 372.027927 169.345851 
L 372.190255 171.701977 
L 372.352582 172.210619 
L 372.677236 169.409897 
L 372.839564 168.781487 
L 373.001891 169.865394 
L 373.164218 169.070456 
L 373.326545 166.029116 
L 373.6512 172.099174 
L 373.975855 170.265603 
L 374.300509 170.864321 
L 374.625164 171.63441 
L 374.949818 174.324612 
L 375.274473 171.767208 
L 375.599127 174.36667 
L 375.761455 173.352915 
L 376.086109 175.368043 
L 376.248436 176.732995 
L 376.410764 179.387673 
L 376.573091 180.198472 
L 376.735418 178.612693 
L 377.060073 177.950568 
L 377.384727 172.638503 
L 377.547055 172.553887 
L 377.709382 171.562875 
L 377.871709 168.926195 
L 378.358691 170.325609 
L 378.683345 177.922541 
L 378.845673 177.698711 
L 379.008 176.64204 
L 379.170327 176.893989 
L 379.332655 177.860369 
L 379.494982 177.887493 
L 379.819636 174.296625 
L 379.981964 176.031137 
L 380.144291 180.658069 
L 380.306618 179.997585 
L 380.468945 177.600978 
L 380.7936 182.173953 
L 380.955927 180.159586 
L 381.118255 176.729212 
L 381.280582 176.104401 
L 381.767564 180.21026 
L 381.929891 179.087386 
L 382.092218 180.815715 
L 382.254545 180.395367 
L 382.416873 177.973612 
L 382.5792 178.688551 
L 383.066182 173.093662 
L 383.228509 172.694076 
L 383.553164 174.443939 
L 383.715491 174.517756 
L 383.877818 173.453318 
L 384.202473 170.63194 
L 384.3648 170.227852 
L 384.527127 170.98707 
L 385.176436 180.276907 
L 385.825745 169.928167 
L 385.988073 169.579396 
L 386.312727 165.589323 
L 387.286691 179.47622 
L 387.449018 178.80834 
L 387.936 171.935655 
L 388.098327 172.427453 
L 388.260655 175.681263 
L 388.422982 175.911609 
L 388.585309 173.938485 
L 388.747636 175.08948 
L 389.072291 180.075852 
L 389.234618 183.172547 
L 389.559273 175.8007 
L 390.046255 177.989554 
L 390.208582 176.924856 
L 390.370909 173.793207 
L 390.533236 173.825458 
L 390.857891 177.627135 
L 391.182545 173.130284 
L 391.669527 177.453198 
L 391.831855 176.476381 
L 391.994182 174.713577 
L 392.156509 175.238601 
L 392.318836 176.228718 
L 392.481164 174.785286 
L 392.643491 172.299385 
L 392.968145 175.543327 
L 393.2928 173.960491 
L 393.455127 175.294047 
L 393.617455 175.428788 
L 393.779782 174.698595 
L 394.266764 180.70569 
L 394.753745 174.250985 
L 395.0784 178.414923 
L 395.240727 178.268727 
L 395.403055 178.474864 
L 395.727709 179.970184 
L 395.890036 179.86437 
L 396.377018 175.378388 
L 396.701673 170.577379 
L 396.864 170.667811 
L 397.026327 172.005389 
L 397.188655 171.005711 
L 397.513309 174.166536 
L 397.675636 173.067478 
L 397.837964 173.913377 
L 398.000291 175.516804 
L 398.324945 170.680715 
L 398.487273 174.186899 
L 398.487273 174.186899 
" clip-path="url(#p725cf3103d)" style="fill: none; stroke: #c04000; stroke-width: 3; stroke-linecap: square"/>
   </g>
   <g id="LineCollection_1">
    <path d="M 236.16 295.488 
L 236.16 53.568 
" clip-path="url(#p725cf3103d)" style="fill: none; stroke-dasharray: 3.7,1.6; stroke-dashoffset: 0; stroke: #000000"/>
   </g>
   <g id="patch_3">
    <path d="M 57.6 307.584 
L 57.6 41.472 
" style="fill: none; stroke: #000000; stroke-width: 0.8; stroke-linejoin: miter; stroke-linecap: square"/>
   </g>
   <g id="patch_4">
    <path d="M 414.72 307.584 
L 414.72 41.472 
" style="fill: none; stroke: #000000; stroke-width: 0.8; stroke-linejoin: miter; stroke-linecap: square"/>
   </g>
   <g id="patch_5">
    <path d="M 57.6 307.584 
L 414.72 307.584 
" style="fill: none; stroke: #000000; stroke-width: 0.8; stroke-linejoin: miter; stroke-linecap: square"/>
   </g>
   <g id="patch_6">
    <path d="M 57.6 41.472 
L 414.72 41.472 
" style="fill: none; stroke: #000000; stroke-width: 0.8; stroke-linejoin: miter; stroke-linecap: square"/>
   </g>
   <g id="text_21">
    <!-- TEMP precede CO2 -->
    <g style="fill: #9ab973" transform="translate(219.927273 77.76) scale(0.16 -0.16)">
     <defs>
      <path id="DejaVuSans-54" d="M -19 4666 
L 3928 4666 
L 3928 4134 
L 2272 4134 
L 2272 0 
L 1638 0 
L 1638 4134 
L -19 4134 
L -19 4666 
z
" transform="scale(0.015625)"/>
      <path id="DejaVuSans-45" d="M 628 4666 
L 3578 4666 
L 3578 4134 
L 1259 4134 
L 1259 2753 
L 3481 2753 
L 3481 2222 
L 1259 2222 
L 1259 531 
L 3634 531 
L 3634 0 
L 628 0 
L 628 4666 
z
" transform="scale(0.015625)"/>
      <path id="DejaVuSans-4d" d="M 628 4666 
L 1569 4666 
L 2759 1491 
L 3956 4666 
L 4897 4666 
L 4897 0 
L 4281 0 
L 4281 4097 
L 3078 897 
L 2444 897 
L 1241 4097 
L 1241 0 
L 628 0 
L 628 4666 
z
" transform="scale(0.015625)"/>
      <path id="DejaVuSans-50" d="M 1259 4147 
L 1259 2394 
L 2053 2394 
Q 2494 2394 2734 2622 
Q 2975 2850 2975 3272 
Q 2975 3691 2734 3919 
Q 2494 4147 2053 4147 
L 1259 4147 
z
M 628 4666 
L 2053 4666 
Q 2838 4666 3239 4311 
Q 3641 3956 3641 3272 
Q 3641 2581 3239 2228 
Q 2838 1875 2053 1875 
L 1259 1875 
L 1259 0 
L 628 0 
L 628 4666 
z
" transform="scale(0.015625)"/>
      <path id="DejaVuSans-43" d="M 4122 4306 
L 4122 3641 
Q 3803 3938 3442 4084 
Q 3081 4231 2675 4231 
Q 1875 4231 1450 3742 
Q 1025 3253 1025 2328 
Q 1025 1406 1450 917 
Q 1875 428 2675 428 
Q 3081 428 3442 575 
Q 3803 722 4122 1019 
L 4122 359 
Q 3791 134 3420 21 
Q 3050 -91 2638 -91 
Q 1578 -91 968 557 
Q 359 1206 359 2328 
Q 359 3453 968 4101 
Q 1578 4750 2638 4750 
Q 3056 4750 3426 4639 
Q 3797 4528 4122 4306 
z
" transform="scale(0.015625)"/>
      <path id="DejaVuSans-4f" d="M 2522 4238 
Q 1834 4238 1429 3725 
Q 1025 3213 1025 2328 
Q 1025 1447 1429 934 
Q 1834 422 2522 422 
Q 3209 422 3611 934 
Q 4013 1447 4013 2328 
Q 4013 3213 3611 3725 
Q 3209 4238 2522 4238 
z
M 2522 4750 
Q 3503 4750 4090 4092 
Q 4678 3434 4678 2328 
Q 4678 1225 4090 567 
Q 3503 -91 2522 -91 
Q 1538 -91 948 565 
Q 359 1222 359 2328 
Q 359 3434 948 4092 
Q 1538 4750 2522 4750 
z
" transform="scale(0.015625)"/>
     </defs>
     <use xlink:href="#DejaVuSans-54"/>
     <use xlink:href="#DejaVuSans-45" x="61.083984"/>
     <use xlink:href="#DejaVuSans-4d" x="124.267578"/>
     <use xlink:href="#DejaVuSans-50" x="210.546875"/>
     <use xlink:href="#DejaVuSans-20" x="270.849609"/>
     <use xlink:href="#DejaVuSans-70" x="302.636719"/>
     <use xlink:href="#DejaVuSans-72" x="366.113281"/>
     <use xlink:href="#DejaVuSans-65" x="404.976562"/>
     <use xlink:href="#DejaVuSans-63" x="466.5"/>
     <use xlink:href="#DejaVuSans-65" x="521.480469"/>
     <use xlink:href="#DejaVuSans-64" x="583.003906"/>
     <use xlink:href="#DejaVuSans-65" x="646.480469"/>
     <use xlink:href="#DejaVuSans-20" x="708.003906"/>
     <use xlink:href="#DejaVuSans-43" x="739.791016"/>
     <use xlink:href="#DejaVuSans-4f" x="809.615234"/>
     <use xlink:href="#DejaVuSans-32" x="888.326172"/>
    </g>
   </g>
   <g id="text_22">
    <!-- CO2 precede TEMP -->
    <g style="fill: #c04000" transform="translate(236.971636 77.76) scale(0.16 -0.16)">
     <use xlink:href="#DejaVuSans-43"/>
     <use xlink:href="#DejaVuSans-4f" x="69.824219"/>
     <use xlink:href="#DejaVuSans-32" x="148.535156"/>
     <use xlink:href="#DejaVuSans-20" x="212.158203"/>
     <use xlink:href="#DejaVuSans-70" x="243.945312"/>
     <use xlink:href="#DejaVuSans-72" x="307.421875"/>
     <use xlink:href="#DejaVuSans-65" x="346.285156"/>
     <use xlink:href="#DejaVuSans-63" x="407.808594"/>
     <use xlink:href="#DejaVuSans-65" x="462.789062"/>
     <use xlink:href="#DejaVuSans-64" x="524.3125"/>
     <use xlink:href="#DejaVuSans-65" x="587.789062"/>
     <use xlink:href="#DejaVuSans-20" x="649.3125"/>
     <use xlink:href="#DejaVuSans-54" x="681.099609"/>
     <use xlink:href="#DejaVuSans-45" x="742.183594"/>
     <use xlink:href="#DejaVuSans-4d" x="805.367188"/>
     <use xlink:href="#DejaVuSans-50" x="891.646484"/>
    </g>
   </g>
  </g>
 </g>
 <defs>
  <clipPath id="p725cf3103d">
   <rect x="57.6" y="41.472" width="357.12" height="266.112"/>
  </clipPath>
 </defs>
</svg>
