<?xml version="1.0" encoding="utf-8" standalone="no"?>
<!DOCTYPE svg PUBLIC "-//W3C//DTD SVG 1.1//EN"
  "http://www.w3.org/Graphics/SVG/1.1/DTD/svg11.dtd">
<svg xmlns:xlink="http://www.w3.org/1999/xlink" width="1080pt" height="360pt" viewBox="0 0 1080 360" xmlns="http://www.w3.org/2000/svg" version="1.1">
 <metadata>
  <rdf:RDF xmlns:dc="http://purl.org/dc/elements/1.1/" xmlns:cc="http://creativecommons.org/ns#" xmlns:rdf="http://www.w3.org/1999/02/22-rdf-syntax-ns#">
   <cc:Work>
    <dc:type rdf:resource="http://purl.org/dc/dcmitype/StillImage"/>
    <dc:date>2023-06-07T23:14:56.226545</dc:date>
    <dc:format>image/svg+xml</dc:format>
    <dc:creator>
     <cc:Agent>
      <dc:title>Matplotlib v3.7.1, https://matplotlib.org/</dc:title>
     </cc:Agent>
    </dc:creator>
   </cc:Work>
  </rdf:RDF>
 </metadata>
 <defs>
  <style type="text/css">*{stroke-linejoin: round; stroke-linecap: butt}</style>
 </defs>
 <g id="figure_1">
  <g id="patch_1">
   <path d="M 0 360 
L 1080 360 
L 1080 0 
L 0 0 
z
" style="fill: #ffffff"/>
  </g>
  <g id="axes_1">
   <g id="patch_2">
    <path d="M 135 320.4 
L 381.176471 320.4 
L 381.176471 43.2 
L 135 43.2 
z
" style="fill: #ffffff"/>
   </g>
   <g id="patch_3">
    <path d="M 146.18984 320.4 
L 152.584034 320.4 
L 152.584034 316.808163 
L 146.18984 316.808163 
z
" clip-path="url(#p9978b798b8)" style="fill: #ed7465"/>
   </g>
   <g id="patch_4">
    <path d="M 152.584034 320.4 
L 158.978228 320.4 
L 158.978228 320.4 
L 152.584034 320.4 
z
" clip-path="url(#p9978b798b8)" style="fill: #ed7465"/>
   </g>
   <g id="patch_5">
    <path d="M 158.978228 320.4 
L 165.372422 320.4 
L 165.372422 319.502041 
L 158.978228 319.502041 
z
" clip-path="url(#p9978b798b8)" style="fill: #ed7465"/>
   </g>
   <g id="patch_6">
    <path d="M 165.372422 320.4 
L 171.766616 320.4 
L 171.766616 315.910204 
L 165.372422 315.910204 
z
" clip-path="url(#p9978b798b8)" style="fill: #ed7465"/>
   </g>
   <g id="patch_7">
    <path d="M 171.766616 320.4 
L 178.16081 320.4 
L 178.16081 304.236735 
L 171.766616 304.236735 
z
" clip-path="url(#p9978b798b8)" style="fill: #ed7465"/>
   </g>
   <g id="patch_8">
    <path d="M 178.16081 320.4 
L 184.555004 320.4 
L 184.555004 299.746939 
L 178.16081 299.746939 
z
" clip-path="url(#p9978b798b8)" style="fill: #ed7465"/>
   </g>
   <g id="patch_9">
    <path d="M 184.555004 320.4 
L 190.949198 320.4 
L 190.949198 290.767347 
L 184.555004 290.767347 
z
" clip-path="url(#p9978b798b8)" style="fill: #ed7465"/>
   </g>
   <g id="patch_10">
    <path d="M 190.949198 320.4 
L 197.343392 320.4 
L 197.343392 279.093878 
L 190.949198 279.093878 
z
" clip-path="url(#p9978b798b8)" style="fill: #ed7465"/>
   </g>
   <g id="patch_11">
    <path d="M 197.343392 320.4 
L 203.737586 320.4 
L 203.737586 275.502041 
L 197.343392 275.502041 
z
" clip-path="url(#p9978b798b8)" style="fill: #ed7465"/>
   </g>
   <g id="patch_12">
    <path d="M 203.737586 320.4 
L 210.13178 320.4 
L 210.13178 252.155102 
L 203.737586 252.155102 
z
" clip-path="url(#p9978b798b8)" style="fill: #ed7465"/>
   </g>
   <g id="patch_13">
    <path d="M 210.13178 320.4 
L 216.525974 320.4 
L 216.525974 228.808163 
L 210.13178 228.808163 
z
" clip-path="url(#p9978b798b8)" style="fill: #ed7465"/>
   </g>
   <g id="patch_14">
    <path d="M 216.525974 320.4 
L 222.920168 320.4 
L 222.920168 221.62449 
L 216.525974 221.62449 
z
" clip-path="url(#p9978b798b8)" style="fill: #ed7465"/>
   </g>
   <g id="patch_15">
    <path d="M 222.920168 320.4 
L 229.314362 320.4 
L 229.314362 185.706122 
L 222.920168 185.706122 
z
" clip-path="url(#p9978b798b8)" style="fill: #ed7465"/>
   </g>
   <g id="patch_16">
    <path d="M 229.314362 320.4 
L 235.708556 320.4 
L 235.708556 152.481633 
L 229.314362 152.481633 
z
" clip-path="url(#p9978b798b8)" style="fill: #ed7465"/>
   </g>
   <g id="patch_17">
    <path d="M 235.708556 320.4 
L 242.10275 320.4 
L 242.10275 117.461224 
L 235.708556 117.461224 
z
" clip-path="url(#p9978b798b8)" style="fill: #ed7465"/>
   </g>
   <g id="patch_18">
    <path d="M 242.10275 320.4 
L 248.496944 320.4 
L 248.496944 125.542857 
L 242.10275 125.542857 
z
" clip-path="url(#p9978b798b8)" style="fill: #ed7465"/>
   </g>
   <g id="patch_19">
    <path d="M 248.496944 320.4 
L 254.891138 320.4 
L 254.891138 114.767347 
L 248.496944 114.767347 
z
" clip-path="url(#p9978b798b8)" style="fill: #ed7465"/>
   </g>
   <g id="patch_20">
    <path d="M 254.891138 320.4 
L 261.285332 320.4 
L 261.285332 106.685714 
L 254.891138 106.685714 
z
" clip-path="url(#p9978b798b8)" style="fill: #ed7465"/>
   </g>
   <g id="patch_21">
    <path d="M 261.285332 320.4 
L 267.679526 320.4 
L 267.679526 107.583673 
L 261.285332 107.583673 
z
" clip-path="url(#p9978b798b8)" style="fill: #ed7465"/>
   </g>
   <g id="patch_22">
    <path d="M 267.679526 320.4 
L 274.07372 320.4 
L 274.07372 130.032653 
L 267.679526 130.032653 
z
" clip-path="url(#p9978b798b8)" style="fill: #ed7465"/>
   </g>
   <g id="patch_23">
    <path d="M 274.07372 320.4 
L 280.467914 320.4 
L 280.467914 144.4 
L 274.07372 144.4 
z
" clip-path="url(#p9978b798b8)" style="fill: #ed7465"/>
   </g>
   <g id="patch_24">
    <path d="M 280.467914 320.4 
L 286.862108 320.4 
L 286.862108 175.828571 
L 280.467914 175.828571 
z
" clip-path="url(#p9978b798b8)" style="fill: #ed7465"/>
   </g>
   <g id="patch_25">
    <path d="M 286.862108 320.4 
L 293.256303 320.4 
L 293.256303 214.440816 
L 286.862108 214.440816 
z
" clip-path="url(#p9978b798b8)" style="fill: #ed7465"/>
   </g>
   <g id="patch_26">
    <path d="M 293.256303 320.4 
L 299.650497 320.4 
L 299.650497 222.522449 
L 293.256303 222.522449 
z
" clip-path="url(#p9978b798b8)" style="fill: #ed7465"/>
   </g>
   <g id="patch_27">
    <path d="M 299.650497 320.4 
L 306.044691 320.4 
L 306.044691 247.665306 
L 299.650497 247.665306 
z
" clip-path="url(#p9978b798b8)" style="fill: #ed7465"/>
   </g>
   <g id="patch_28">
    <path d="M 306.044691 320.4 
L 312.438885 320.4 
L 312.438885 260.236735 
L 306.044691 260.236735 
z
" clip-path="url(#p9978b798b8)" style="fill: #ed7465"/>
   </g>
   <g id="patch_29">
    <path d="M 312.438885 320.4 
L 318.833079 320.4 
L 318.833079 289.869388 
L 312.438885 289.869388 
z
" clip-path="url(#p9978b798b8)" style="fill: #ed7465"/>
   </g>
   <g id="patch_30">
    <path d="M 318.833079 320.4 
L 325.227273 320.4 
L 325.227273 301.542857 
L 318.833079 301.542857 
z
" clip-path="url(#p9978b798b8)" style="fill: #ed7465"/>
   </g>
   <g id="patch_31">
    <path d="M 325.227273 320.4 
L 331.621467 320.4 
L 331.621467 303.338776 
L 325.227273 303.338776 
z
" clip-path="url(#p9978b798b8)" style="fill: #ed7465"/>
   </g>
   <g id="patch_32">
    <path d="M 331.621467 320.4 
L 338.015661 320.4 
L 338.015661 306.930612 
L 331.621467 306.930612 
z
" clip-path="url(#p9978b798b8)" style="fill: #ed7465"/>
   </g>
   <g id="patch_33">
    <path d="M 338.015661 320.4 
L 344.409855 320.4 
L 344.409855 315.910204 
L 338.015661 315.910204 
z
" clip-path="url(#p9978b798b8)" style="fill: #ed7465"/>
   </g>
   <g id="patch_34">
    <path d="M 344.409855 320.4 
L 350.804049 320.4 
L 350.804049 315.910204 
L 344.409855 315.910204 
z
" clip-path="url(#p9978b798b8)" style="fill: #ed7465"/>
   </g>
   <g id="patch_35">
    <path d="M 350.804049 320.4 
L 357.198243 320.4 
L 357.198243 318.604082 
L 350.804049 318.604082 
z
" clip-path="url(#p9978b798b8)" style="fill: #ed7465"/>
   </g>
   <g id="patch_36">
    <path d="M 357.198243 320.4 
L 363.592437 320.4 
L 363.592437 318.604082 
L 357.198243 318.604082 
z
" clip-path="url(#p9978b798b8)" style="fill: #ed7465"/>
   </g>
   <g id="patch_37">
    <path d="M 363.592437 320.4 
L 369.986631 320.4 
L 369.986631 319.502041 
L 363.592437 319.502041 
z
" clip-path="url(#p9978b798b8)" style="fill: #ed7465"/>
   </g>
   <g id="patch_38">
    <path d="M 213.355215 320.4 
L 216.582112 320.4 
L 216.582112 311.420408 
L 213.355215 311.420408 
z
" clip-path="url(#p9978b798b8)" style="fill: #5f9ea0"/>
   </g>
   <g id="patch_39">
    <path d="M 216.582112 320.4 
L 219.80901 320.4 
L 219.80901 304.236735 
L 216.582112 304.236735 
z
" clip-path="url(#p9978b798b8)" style="fill: #5f9ea0"/>
   </g>
   <g id="patch_40">
    <path d="M 219.80901 320.4 
L 223.035907 320.4 
L 223.035907 275.502041 
L 219.80901 275.502041 
z
" clip-path="url(#p9978b798b8)" style="fill: #5f9ea0"/>
   </g>
   <g id="patch_41">
    <path d="M 223.035907 320.4 
L 226.262805 320.4 
L 226.262805 251.257143 
L 223.035907 251.257143 
z
" clip-path="url(#p9978b798b8)" style="fill: #5f9ea0"/>
   </g>
   <g id="patch_42">
    <path d="M 226.262805 320.4 
L 229.489702 320.4 
L 229.489702 119.257143 
L 226.262805 119.257143 
z
" clip-path="url(#p9978b798b8)" style="fill: #5f9ea0"/>
   </g>
   <g id="patch_43">
    <path d="M 229.489702 320.4 
L 232.7166 320.4 
L 232.7166 123.746939 
L 229.489702 123.746939 
z
" clip-path="url(#p9978b798b8)" style="fill: #5f9ea0"/>
   </g>
   <g id="patch_44">
    <path d="M 232.7166 320.4 
L 235.943497 320.4 
L 235.943497 129.134694 
L 232.7166 129.134694 
z
" clip-path="url(#p9978b798b8)" style="fill: #5f9ea0"/>
   </g>
   <g id="patch_45">
    <path d="M 235.943497 320.4 
L 239.170395 320.4 
L 239.170395 112.971429 
L 235.943497 112.971429 
z
" clip-path="url(#p9978b798b8)" style="fill: #5f9ea0"/>
   </g>
   <g id="patch_46">
    <path d="M 239.170395 320.4 
L 242.397292 320.4 
L 242.397292 56.4 
L 239.170395 56.4 
z
" clip-path="url(#p9978b798b8)" style="fill: #5f9ea0"/>
   </g>
   <g id="patch_47">
    <path d="M 242.397292 320.4 
L 245.62419 320.4 
L 245.62419 121.95102 
L 242.397292 121.95102 
z
" clip-path="url(#p9978b798b8)" style="fill: #5f9ea0"/>
   </g>
   <g id="patch_48">
    <path d="M 245.62419 320.4 
L 248.851087 320.4 
L 248.851087 193.787755 
L 245.62419 193.787755 
z
" clip-path="url(#p9978b798b8)" style="fill: #5f9ea0"/>
   </g>
   <g id="patch_49">
    <path d="M 248.851087 320.4 
L 252.077985 320.4 
L 252.077985 165.053061 
L 248.851087 165.053061 
z
" clip-path="url(#p9978b798b8)" style="fill: #5f9ea0"/>
   </g>
   <g id="patch_50">
    <path d="M 252.077985 320.4 
L 255.304882 320.4 
L 255.304882 161.461224 
L 252.077985 161.461224 
z
" clip-path="url(#p9978b798b8)" style="fill: #5f9ea0"/>
   </g>
   <g id="patch_51">
    <path d="M 255.304882 320.4 
L 258.53178 320.4 
L 258.53178 170.440816 
L 255.304882 170.440816 
z
" clip-path="url(#p9978b798b8)" style="fill: #5f9ea0"/>
   </g>
   <g id="patch_52">
    <path d="M 258.53178 320.4 
L 261.758677 320.4 
L 261.758677 73.461224 
L 258.53178 73.461224 
z
" clip-path="url(#p9978b798b8)" style="fill: #5f9ea0"/>
   </g>
   <g id="patch_53">
    <path d="M 261.758677 320.4 
L 264.985575 320.4 
L 264.985575 130.930612 
L 261.758677 130.930612 
z
" clip-path="url(#p9978b798b8)" style="fill: #5f9ea0"/>
   </g>
   <g id="patch_54">
    <path d="M 264.985575 320.4 
L 268.212472 320.4 
L 268.212472 127.338776 
L 264.985575 127.338776 
z
" clip-path="url(#p9978b798b8)" style="fill: #5f9ea0"/>
   </g>
   <g id="patch_55">
    <path d="M 268.212472 320.4 
L 271.43937 320.4 
L 271.43937 183.910204 
L 268.212472 183.910204 
z
" clip-path="url(#p9978b798b8)" style="fill: #5f9ea0"/>
   </g>
   <g id="patch_56">
    <path d="M 271.43937 320.4 
L 274.666267 320.4 
L 274.666267 150.685714 
L 271.43937 150.685714 
z
" clip-path="url(#p9978b798b8)" style="fill: #5f9ea0"/>
   </g>
   <g id="patch_57">
    <path d="M 274.666267 320.4 
L 277.893164 320.4 
L 277.893164 195.583673 
L 274.666267 195.583673 
z
" clip-path="url(#p9978b798b8)" style="fill: #5f9ea0"/>
   </g>
   <g id="patch_58">
    <path d="M 277.893164 320.4 
L 281.120062 320.4 
L 281.120062 206.359184 
L 277.893164 206.359184 
z
" clip-path="url(#p9978b798b8)" style="fill: #5f9ea0"/>
   </g>
   <g id="patch_59">
    <path d="M 281.120062 320.4 
L 284.346959 320.4 
L 284.346959 245.869388 
L 281.120062 245.869388 
z
" clip-path="url(#p9978b798b8)" style="fill: #5f9ea0"/>
   </g>
   <g id="patch_60">
    <path d="M 284.346959 320.4 
L 287.573857 320.4 
L 287.573857 275.502041 
L 284.346959 275.502041 
z
" clip-path="url(#p9978b798b8)" style="fill: #5f9ea0"/>
   </g>
   <g id="patch_61">
    <path d="M 287.573857 320.4 
L 290.800754 320.4 
L 290.800754 271.910204 
L 287.573857 271.910204 
z
" clip-path="url(#p9978b798b8)" style="fill: #5f9ea0"/>
   </g>
   <g id="patch_62">
    <path d="M 290.800754 320.4 
L 294.027652 320.4 
L 294.027652 262.930612 
L 290.800754 262.930612 
z
" clip-path="url(#p9978b798b8)" style="fill: #5f9ea0"/>
   </g>
   <g id="patch_63">
    <path d="M 294.027652 320.4 
L 297.254549 320.4 
L 297.254549 253.053061 
L 294.027652 253.053061 
z
" clip-path="url(#p9978b798b8)" style="fill: #5f9ea0"/>
   </g>
   <g id="patch_64">
    <path d="M 297.254549 320.4 
L 300.481447 320.4 
L 300.481447 269.216327 
L 297.254549 269.216327 
z
" clip-path="url(#p9978b798b8)" style="fill: #5f9ea0"/>
   </g>
   <g id="patch_65">
    <path d="M 300.481447 320.4 
L 303.708344 320.4 
L 303.708344 283.583673 
L 300.481447 283.583673 
z
" clip-path="url(#p9978b798b8)" style="fill: #5f9ea0"/>
   </g>
   <g id="patch_66">
    <path d="M 303.708344 320.4 
L 306.935242 320.4 
L 306.935242 280.889796 
L 303.708344 280.889796 
z
" clip-path="url(#p9978b798b8)" style="fill: #5f9ea0"/>
   </g>
   <g id="patch_67">
    <path d="M 306.935242 320.4 
L 310.162139 320.4 
L 310.162139 315.012245 
L 306.935242 315.012245 
z
" clip-path="url(#p9978b798b8)" style="fill: #5f9ea0"/>
   </g>
   <g id="patch_68">
    <path d="M 310.162139 320.4 
L 313.389037 320.4 
L 313.389037 318.604082 
L 310.162139 318.604082 
z
" clip-path="url(#p9978b798b8)" style="fill: #5f9ea0"/>
   </g>
   <g id="patch_69">
    <path d="M 313.389037 320.4 
L 316.615934 320.4 
L 316.615934 319.502041 
L 313.389037 319.502041 
z
" clip-path="url(#p9978b798b8)" style="fill: #5f9ea0"/>
   </g>
   <g id="patch_70">
    <path d="M 316.615934 320.4 
L 319.842832 320.4 
L 319.842832 320.4 
L 316.615934 320.4 
z
" clip-path="url(#p9978b798b8)" style="fill: #5f9ea0"/>
   </g>
   <g id="patch_71">
    <path d="M 319.842832 320.4 
L 323.069729 320.4 
L 323.069729 320.4 
L 319.842832 320.4 
z
" clip-path="url(#p9978b798b8)" style="fill: #5f9ea0"/>
   </g>
   <g id="patch_72">
    <path d="M 323.069729 320.4 
L 326.296627 320.4 
L 326.296627 319.502041 
L 323.069729 319.502041 
z
" clip-path="url(#p9978b798b8)" style="fill: #5f9ea0"/>
   </g>
   <g id="matplotlib.axis_1">
    <g id="xtick_1">
     <g id="line2d_1">
      <defs>
       <path id="m06e918ccbc" d="M 0 0 
L 0 3.5 
" style="stroke: #000000; stroke-width: 0.8"/>
      </defs>
      <g>
       <use xlink:href="#m06e918ccbc" x="174.390981" y="320.4" style="stroke: #000000; stroke-width: 0.8"/>
      </g>
     </g>
     <g id="text_1">
      <!-- −100 -->
      <g transform="translate(160.657387 334.998438) scale(0.1 -0.1)">
       <defs>
        <path id="DejaVuSans-2212" d="M 678 2272 
L 4684 2272 
L 4684 1741 
L 678 1741 
L 678 2272 
z
" transform="scale(0.015625)"/>
        <path id="DejaVuSans-31" d="M 794 531 
L 1825 531 
L 1825 4091 
L 703 3866 
L 703 4441 
L 1819 4666 
L 2450 4666 
L 2450 531 
L 3481 531 
L 3481 0 
L 794 0 
L 794 531 
z
" transform="scale(0.015625)"/>
        <path id="DejaVuSans-30" d="M 2034 4250 
Q 1547 4250 1301 3770 
Q 1056 3291 1056 2328 
Q 1056 1369 1301 889 
Q 1547 409 2034 409 
Q 2525 409 2770 889 
Q 3016 1369 3016 2328 
Q 3016 3291 2770 3770 
Q 2525 4250 2034 4250 
z
M 2034 4750 
Q 2819 4750 3233 4129 
Q 3647 3509 3647 2328 
Q 3647 1150 3233 529 
Q 2819 -91 2034 -91 
Q 1250 -91 836 529 
Q 422 1150 422 2328 
Q 422 3509 836 4129 
Q 1250 4750 2034 4750 
z
" transform="scale(0.015625)"/>
       </defs>
       <use xlink:href="#DejaVuSans-2212"/>
       <use xlink:href="#DejaVuSans-31" x="83.789062"/>
       <use xlink:href="#DejaVuSans-30" x="147.412109"/>
       <use xlink:href="#DejaVuSans-30" x="211.035156"/>
      </g>
     </g>
    </g>
    <g id="xtick_2">
     <g id="line2d_2">
      <g>
       <use xlink:href="#m06e918ccbc" x="214.994019" y="320.4" style="stroke: #000000; stroke-width: 0.8"/>
      </g>
     </g>
     <g id="text_2">
      <!-- −50 -->
      <g transform="translate(204.441675 334.998438) scale(0.1 -0.1)">
       <defs>
        <path id="DejaVuSans-35" d="M 691 4666 
L 3169 4666 
L 3169 4134 
L 1269 4134 
L 1269 2991 
Q 1406 3038 1543 3061 
Q 1681 3084 1819 3084 
Q 2600 3084 3056 2656 
Q 3513 2228 3513 1497 
Q 3513 744 3044 326 
Q 2575 -91 1722 -91 
Q 1428 -91 1123 -41 
Q 819 9 494 109 
L 494 744 
Q 775 591 1075 516 
Q 1375 441 1709 441 
Q 2250 441 2565 725 
Q 2881 1009 2881 1497 
Q 2881 1984 2565 2268 
Q 2250 2553 1709 2553 
Q 1456 2553 1204 2497 
Q 953 2441 691 2322 
L 691 4666 
z
" transform="scale(0.015625)"/>
       </defs>
       <use xlink:href="#DejaVuSans-2212"/>
       <use xlink:href="#DejaVuSans-35" x="83.789062"/>
       <use xlink:href="#DejaVuSans-30" x="147.412109"/>
      </g>
     </g>
    </g>
    <g id="xtick_3">
     <g id="line2d_3">
      <g>
       <use xlink:href="#m06e918ccbc" x="255.597057" y="320.4" style="stroke: #000000; stroke-width: 0.8"/>
      </g>
     </g>
     <g id="text_3">
      <!-- 0 -->
      <g transform="translate(252.415807 334.998438) scale(0.1 -0.1)">
       <use xlink:href="#DejaVuSans-30"/>
      </g>
     </g>
    </g>
    <g id="xtick_4">
     <g id="line2d_4">
      <g>
       <use xlink:href="#m06e918ccbc" x="296.200096" y="320.4" style="stroke: #000000; stroke-width: 0.8"/>
      </g>
     </g>
     <g id="text_4">
      <!-- 50 -->
      <g transform="translate(289.837596 334.998438) scale(0.1 -0.1)">
       <use xlink:href="#DejaVuSans-35"/>
       <use xlink:href="#DejaVuSans-30" x="63.623047"/>
      </g>
     </g>
    </g>
    <g id="xtick_5">
     <g id="line2d_5">
      <g>
       <use xlink:href="#m06e918ccbc" x="336.803134" y="320.4" style="stroke: #000000; stroke-width: 0.8"/>
      </g>
     </g>
     <g id="text_5">
      <!-- 100 -->
      <g transform="translate(327.259384 334.998438) scale(0.1 -0.1)">
       <use xlink:href="#DejaVuSans-31"/>
       <use xlink:href="#DejaVuSans-30" x="63.623047"/>
       <use xlink:href="#DejaVuSans-30" x="127.246094"/>
      </g>
     </g>
    </g>
    <g id="xtick_6">
     <g id="line2d_6">
      <g>
       <use xlink:href="#m06e918ccbc" x="377.406173" y="320.4" style="stroke: #000000; stroke-width: 0.8"/>
      </g>
     </g>
     <g id="text_6">
      <!-- 150 -->
      <g transform="translate(367.862423 334.998438) scale(0.1 -0.1)">
       <use xlink:href="#DejaVuSans-31"/>
       <use xlink:href="#DejaVuSans-35" x="63.623047"/>
       <use xlink:href="#DejaVuSans-30" x="127.246094"/>
      </g>
     </g>
    </g>
    <g id="text_7">
     <!-- CO2 [Tons] -->
     <g transform="translate(214.670735 353.235625) scale(0.16 -0.16)">
      <defs>
       <path id="DejaVuSans-43" d="M 4122 4306 
L 4122 3641 
Q 3803 3938 3442 4084 
Q 3081 4231 2675 4231 
Q 1875 4231 1450 3742 
Q 1025 3253 1025 2328 
Q 1025 1406 1450 917 
Q 1875 428 2675 428 
Q 3081 428 3442 575 
Q 3803 722 4122 1019 
L 4122 359 
Q 3791 134 3420 21 
Q 3050 -91 2638 -91 
Q 1578 -91 968 557 
Q 359 1206 359 2328 
Q 359 3453 968 4101 
Q 1578 4750 2638 4750 
Q 3056 4750 3426 4639 
Q 3797 4528 4122 4306 
z
" transform="scale(0.015625)"/>
       <path id="DejaVuSans-4f" d="M 2522 4238 
Q 1834 4238 1429 3725 
Q 1025 3213 1025 2328 
Q 1025 1447 1429 934 
Q 1834 422 2522 422 
Q 3209 422 3611 934 
Q 4013 1447 4013 2328 
Q 4013 3213 3611 3725 
Q 3209 4238 2522 4238 
z
M 2522 4750 
Q 3503 4750 4090 4092 
Q 4678 3434 4678 2328 
Q 4678 1225 4090 567 
Q 3503 -91 2522 -91 
Q 1538 -91 948 565 
Q 359 1222 359 2328 
Q 359 3434 948 4092 
Q 1538 4750 2522 4750 
z
" transform="scale(0.015625)"/>
       <path id="DejaVuSans-32" d="M 1228 531 
L 3431 531 
L 3431 0 
L 469 0 
L 469 531 
Q 828 903 1448 1529 
Q 2069 2156 2228 2338 
Q 2531 2678 2651 2914 
Q 2772 3150 2772 3378 
Q 2772 3750 2511 3984 
Q 2250 4219 1831 4219 
Q 1534 4219 1204 4116 
Q 875 4013 500 3803 
L 500 4441 
Q 881 4594 1212 4672 
Q 1544 4750 1819 4750 
Q 2544 4750 2975 4387 
Q 3406 4025 3406 3419 
Q 3406 3131 3298 2873 
Q 3191 2616 2906 2266 
Q 2828 2175 2409 1742 
Q 1991 1309 1228 531 
z
" transform="scale(0.015625)"/>
       <path id="DejaVuSans-20" transform="scale(0.015625)"/>
       <path id="DejaVuSans-5b" d="M 550 4863 
L 1875 4863 
L 1875 4416 
L 1125 4416 
L 1125 -397 
L 1875 -397 
L 1875 -844 
L 550 -844 
L 550 4863 
z
" transform="scale(0.015625)"/>
       <path id="DejaVuSans-54" d="M -19 4666 
L 3928 4666 
L 3928 4134 
L 2272 4134 
L 2272 0 
L 1638 0 
L 1638 4134 
L -19 4134 
L -19 4666 
z
" transform="scale(0.015625)"/>
       <path id="DejaVuSans-6f" d="M 1959 3097 
Q 1497 3097 1228 2736 
Q 959 2375 959 1747 
Q 959 1119 1226 758 
Q 1494 397 1959 397 
Q 2419 397 2687 759 
Q 2956 1122 2956 1747 
Q 2956 2369 2687 2733 
Q 2419 3097 1959 3097 
z
M 1959 3584 
Q 2709 3584 3137 3096 
Q 3566 2609 3566 1747 
Q 3566 888 3137 398 
Q 2709 -91 1959 -91 
Q 1206 -91 779 398 
Q 353 888 353 1747 
Q 353 2609 779 3096 
Q 1206 3584 1959 3584 
z
" transform="scale(0.015625)"/>
       <path id="DejaVuSans-6e" d="M 3513 2113 
L 3513 0 
L 2938 0 
L 2938 2094 
Q 2938 2591 2744 2837 
Q 2550 3084 2163 3084 
Q 1697 3084 1428 2787 
Q 1159 2491 1159 1978 
L 1159 0 
L 581 0 
L 581 3500 
L 1159 3500 
L 1159 2956 
Q 1366 3272 1645 3428 
Q 1925 3584 2291 3584 
Q 2894 3584 3203 3211 
Q 3513 2838 3513 2113 
z
" transform="scale(0.015625)"/>
       <path id="DejaVuSans-73" d="M 2834 3397 
L 2834 2853 
Q 2591 2978 2328 3040 
Q 2066 3103 1784 3103 
Q 1356 3103 1142 2972 
Q 928 2841 928 2578 
Q 928 2378 1081 2264 
Q 1234 2150 1697 2047 
L 1894 2003 
Q 2506 1872 2764 1633 
Q 3022 1394 3022 966 
Q 3022 478 2636 193 
Q 2250 -91 1575 -91 
Q 1294 -91 989 -36 
Q 684 19 347 128 
L 347 722 
Q 666 556 975 473 
Q 1284 391 1588 391 
Q 1994 391 2212 530 
Q 2431 669 2431 922 
Q 2431 1156 2273 1281 
Q 2116 1406 1581 1522 
L 1381 1569 
Q 847 1681 609 1914 
Q 372 2147 372 2553 
Q 372 3047 722 3315 
Q 1072 3584 1716 3584 
Q 2034 3584 2315 3537 
Q 2597 3491 2834 3397 
z
" transform="scale(0.015625)"/>
       <path id="DejaVuSans-5d" d="M 1947 4863 
L 1947 -844 
L 622 -844 
L 622 -397 
L 1369 -397 
L 1369 4416 
L 622 4416 
L 622 4863 
L 1947 4863 
z
" transform="scale(0.015625)"/>
      </defs>
      <use xlink:href="#DejaVuSans-43"/>
      <use xlink:href="#DejaVuSans-4f" x="69.824219"/>
      <use xlink:href="#DejaVuSans-32" x="148.535156"/>
      <use xlink:href="#DejaVuSans-20" x="212.158203"/>
      <use xlink:href="#DejaVuSans-5b" x="243.945312"/>
      <use xlink:href="#DejaVuSans-54" x="282.958984"/>
      <use xlink:href="#DejaVuSans-6f" x="327.042969"/>
      <use xlink:href="#DejaVuSans-6e" x="388.224609"/>
      <use xlink:href="#DejaVuSans-73" x="451.603516"/>
      <use xlink:href="#DejaVuSans-5d" x="503.703125"/>
     </g>
    </g>
   </g>
   <g id="matplotlib.axis_2">
    <g id="ytick_1">
     <g id="line2d_7">
      <defs>
       <path id="m56b6d5353d" d="M 0 0 
L -3.5 0 
" style="stroke: #000000; stroke-width: 0.8"/>
      </defs>
      <g>
       <use xlink:href="#m56b6d5353d" x="135" y="320.4" style="stroke: #000000; stroke-width: 0.8"/>
      </g>
     </g>
     <g id="text_8">
      <!-- 0 -->
      <g transform="translate(121.6375 324.199219) scale(0.1 -0.1)">
       <use xlink:href="#DejaVuSans-30"/>
      </g>
     </g>
    </g>
    <g id="ytick_2">
     <g id="line2d_8">
      <g>
       <use xlink:href="#m56b6d5353d" x="135" y="275.502041" style="stroke: #000000; stroke-width: 0.8"/>
      </g>
     </g>
     <g id="text_9">
      <!-- 50 -->
      <g transform="translate(115.275 279.30126) scale(0.1 -0.1)">
       <use xlink:href="#DejaVuSans-35"/>
       <use xlink:href="#DejaVuSans-30" x="63.623047"/>
      </g>
     </g>
    </g>
    <g id="ytick_3">
     <g id="line2d_9">
      <g>
       <use xlink:href="#m56b6d5353d" x="135" y="230.604082" style="stroke: #000000; stroke-width: 0.8"/>
      </g>
     </g>
     <g id="text_10">
      <!-- 100 -->
      <g transform="translate(108.9125 234.4033) scale(0.1 -0.1)">
       <use xlink:href="#DejaVuSans-31"/>
       <use xlink:href="#DejaVuSans-30" x="63.623047"/>
       <use xlink:href="#DejaVuSans-30" x="127.246094"/>
      </g>
     </g>
    </g>
    <g id="ytick_4">
     <g id="line2d_10">
      <g>
       <use xlink:href="#m56b6d5353d" x="135" y="185.706122" style="stroke: #000000; stroke-width: 0.8"/>
      </g>
     </g>
     <g id="text_11">
      <!-- 150 -->
      <g transform="translate(108.9125 189.505341) scale(0.1 -0.1)">
       <use xlink:href="#DejaVuSans-31"/>
       <use xlink:href="#DejaVuSans-35" x="63.623047"/>
       <use xlink:href="#DejaVuSans-30" x="127.246094"/>
      </g>
     </g>
    </g>
    <g id="ytick_5">
     <g id="line2d_11">
      <g>
       <use xlink:href="#m56b6d5353d" x="135" y="140.808163" style="stroke: #000000; stroke-width: 0.8"/>
      </g>
     </g>
     <g id="text_12">
      <!-- 200 -->
      <g transform="translate(108.9125 144.607382) scale(0.1 -0.1)">
       <use xlink:href="#DejaVuSans-32"/>
       <use xlink:href="#DejaVuSans-30" x="63.623047"/>
       <use xlink:href="#DejaVuSans-30" x="127.246094"/>
      </g>
     </g>
    </g>
    <g id="ytick_6">
     <g id="line2d_12">
      <g>
       <use xlink:href="#m56b6d5353d" x="135" y="95.910204" style="stroke: #000000; stroke-width: 0.8"/>
      </g>
     </g>
     <g id="text_13">
      <!-- 250 -->
      <g transform="translate(108.9125 99.709423) scale(0.1 -0.1)">
       <use xlink:href="#DejaVuSans-32"/>
       <use xlink:href="#DejaVuSans-35" x="63.623047"/>
       <use xlink:href="#DejaVuSans-30" x="127.246094"/>
      </g>
     </g>
    </g>
    <g id="ytick_7">
     <g id="line2d_13">
      <g>
       <use xlink:href="#m56b6d5353d" x="135" y="51.012245" style="stroke: #000000; stroke-width: 0.8"/>
      </g>
     </g>
     <g id="text_14">
      <!-- 300 -->
      <g transform="translate(108.9125 54.811464) scale(0.1 -0.1)">
       <defs>
        <path id="DejaVuSans-33" d="M 2597 2516 
Q 3050 2419 3304 2112 
Q 3559 1806 3559 1356 
Q 3559 666 3084 287 
Q 2609 -91 1734 -91 
Q 1441 -91 1130 -33 
Q 819 25 488 141 
L 488 750 
Q 750 597 1062 519 
Q 1375 441 1716 441 
Q 2309 441 2620 675 
Q 2931 909 2931 1356 
Q 2931 1769 2642 2001 
Q 2353 2234 1838 2234 
L 1294 2234 
L 1294 2753 
L 1863 2753 
Q 2328 2753 2575 2939 
Q 2822 3125 2822 3475 
Q 2822 3834 2567 4026 
Q 2313 4219 1838 4219 
Q 1578 4219 1281 4162 
Q 984 4106 628 3988 
L 628 4550 
Q 988 4650 1302 4700 
Q 1616 4750 1894 4750 
Q 2613 4750 3031 4423 
Q 3450 4097 3450 3541 
Q 3450 3153 3228 2886 
Q 3006 2619 2597 2516 
z
" transform="scale(0.015625)"/>
       </defs>
       <use xlink:href="#DejaVuSans-33"/>
       <use xlink:href="#DejaVuSans-30" x="63.623047"/>
       <use xlink:href="#DejaVuSans-30" x="127.246094"/>
      </g>
     </g>
    </g>
   </g>
   <g id="patch_73">
    <path d="M 135 320.4 
L 135 43.2 
" style="fill: none; stroke: #000000; stroke-width: 0.8; stroke-linejoin: miter; stroke-linecap: square"/>
   </g>
   <g id="patch_74">
    <path d="M 381.176471 320.4 
L 381.176471 43.2 
" style="fill: none; stroke: #000000; stroke-width: 0.8; stroke-linejoin: miter; stroke-linecap: square"/>
   </g>
   <g id="patch_75">
    <path d="M 135 320.4 
L 381.176471 320.4 
" style="fill: none; stroke: #000000; stroke-width: 0.8; stroke-linejoin: miter; stroke-linecap: square"/>
   </g>
   <g id="patch_76">
    <path d="M 135 43.2 
L 381.176471 43.2 
" style="fill: none; stroke: #000000; stroke-width: 0.8; stroke-linejoin: miter; stroke-linecap: square"/>
   </g>
   <g id="legend_1">
    <g id="patch_77">
     <path d="M 146.2 102.97 
L 273.03 102.97 
Q 276.23 102.97 276.23 99.77 
L 276.23 54.4 
Q 276.23 51.2 273.03 51.2 
L 146.2 51.2 
Q 143 51.2 143 54.4 
L 143 99.77 
Q 143 102.97 146.2 102.97 
z
" style="fill: #ffffff; opacity: 0.8; stroke: #cccccc; stroke-linejoin: miter"/>
    </g>
    <g id="patch_78">
     <path d="M 149.4 69.7575 
L 181.4 69.7575 
L 181.4 58.5575 
L 149.4 58.5575 
z
" style="fill: #ed7465"/>
    </g>
    <g id="text_15">
     <!-- Gauss -->
     <g transform="translate(194.2 69.7575) scale(0.16 -0.16)">
      <defs>
       <path id="DejaVuSans-47" d="M 3809 666 
L 3809 1919 
L 2778 1919 
L 2778 2438 
L 4434 2438 
L 4434 434 
Q 4069 175 3628 42 
Q 3188 -91 2688 -91 
Q 1594 -91 976 548 
Q 359 1188 359 2328 
Q 359 3472 976 4111 
Q 1594 4750 2688 4750 
Q 3144 4750 3555 4637 
Q 3966 4525 4313 4306 
L 4313 3634 
Q 3963 3931 3569 4081 
Q 3175 4231 2741 4231 
Q 1884 4231 1454 3753 
Q 1025 3275 1025 2328 
Q 1025 1384 1454 906 
Q 1884 428 2741 428 
Q 3075 428 3337 486 
Q 3600 544 3809 666 
z
" transform="scale(0.015625)"/>
       <path id="DejaVuSans-61" d="M 2194 1759 
Q 1497 1759 1228 1600 
Q 959 1441 959 1056 
Q 959 750 1161 570 
Q 1363 391 1709 391 
Q 2188 391 2477 730 
Q 2766 1069 2766 1631 
L 2766 1759 
L 2194 1759 
z
M 3341 1997 
L 3341 0 
L 2766 0 
L 2766 531 
Q 2569 213 2275 61 
Q 1981 -91 1556 -91 
Q 1019 -91 701 211 
Q 384 513 384 1019 
Q 384 1609 779 1909 
Q 1175 2209 1959 2209 
L 2766 2209 
L 2766 2266 
Q 2766 2663 2505 2880 
Q 2244 3097 1772 3097 
Q 1472 3097 1187 3025 
Q 903 2953 641 2809 
L 641 3341 
Q 956 3463 1253 3523 
Q 1550 3584 1831 3584 
Q 2591 3584 2966 3190 
Q 3341 2797 3341 1997 
z
" transform="scale(0.015625)"/>
       <path id="DejaVuSans-75" d="M 544 1381 
L 544 3500 
L 1119 3500 
L 1119 1403 
Q 1119 906 1312 657 
Q 1506 409 1894 409 
Q 2359 409 2629 706 
Q 2900 1003 2900 1516 
L 2900 3500 
L 3475 3500 
L 3475 0 
L 2900 0 
L 2900 538 
Q 2691 219 2414 64 
Q 2138 -91 1772 -91 
Q 1169 -91 856 284 
Q 544 659 544 1381 
z
M 1991 3584 
L 1991 3584 
z
" transform="scale(0.015625)"/>
      </defs>
      <use xlink:href="#DejaVuSans-47"/>
      <use xlink:href="#DejaVuSans-61" x="77.490234"/>
      <use xlink:href="#DejaVuSans-75" x="138.769531"/>
      <use xlink:href="#DejaVuSans-73" x="202.148438"/>
      <use xlink:href="#DejaVuSans-73" x="254.248047"/>
     </g>
    </g>
    <g id="patch_79">
     <path d="M 149.4 93.2425 
L 181.4 93.2425 
L 181.4 82.0425 
L 149.4 82.0425 
z
" style="fill: #5f9ea0"/>
    </g>
    <g id="text_16">
     <!-- Emissioni -->
     <g transform="translate(194.2 93.2425) scale(0.16 -0.16)">
      <defs>
       <path id="DejaVuSans-45" d="M 628 4666 
L 3578 4666 
L 3578 4134 
L 1259 4134 
L 1259 2753 
L 3481 2753 
L 3481 2222 
L 1259 2222 
L 1259 531 
L 3634 531 
L 3634 0 
L 628 0 
L 628 4666 
z
" transform="scale(0.015625)"/>
       <path id="DejaVuSans-6d" d="M 3328 2828 
Q 3544 3216 3844 3400 
Q 4144 3584 4550 3584 
Q 5097 3584 5394 3201 
Q 5691 2819 5691 2113 
L 5691 0 
L 5113 0 
L 5113 2094 
Q 5113 2597 4934 2840 
Q 4756 3084 4391 3084 
Q 3944 3084 3684 2787 
Q 3425 2491 3425 1978 
L 3425 0 
L 2847 0 
L 2847 2094 
Q 2847 2600 2669 2842 
Q 2491 3084 2119 3084 
Q 1678 3084 1418 2786 
Q 1159 2488 1159 1978 
L 1159 0 
L 581 0 
L 581 3500 
L 1159 3500 
L 1159 2956 
Q 1356 3278 1631 3431 
Q 1906 3584 2284 3584 
Q 2666 3584 2933 3390 
Q 3200 3197 3328 2828 
z
" transform="scale(0.015625)"/>
       <path id="DejaVuSans-69" d="M 603 3500 
L 1178 3500 
L 1178 0 
L 603 0 
L 603 3500 
z
M 603 4863 
L 1178 4863 
L 1178 4134 
L 603 4134 
L 603 4863 
z
" transform="scale(0.015625)"/>
      </defs>
      <use xlink:href="#DejaVuSans-45"/>
      <use xlink:href="#DejaVuSans-6d" x="63.183594"/>
      <use xlink:href="#DejaVuSans-69" x="160.595703"/>
      <use xlink:href="#DejaVuSans-73" x="188.378906"/>
      <use xlink:href="#DejaVuSans-73" x="240.478516"/>
      <use xlink:href="#DejaVuSans-69" x="292.578125"/>
      <use xlink:href="#DejaVuSans-6f" x="320.361328"/>
      <use xlink:href="#DejaVuSans-6e" x="381.542969"/>
      <use xlink:href="#DejaVuSans-69" x="444.921875"/>
     </g>
    </g>
   </g>
  </g>
  <g id="axes_2">
   <g id="patch_80">
    <path d="M 430.411765 320.4 
L 676.588235 320.4 
L 676.588235 43.2 
L 430.411765 43.2 
z
" style="fill: #ffffff"/>
   </g>
   <g id="patch_81">
    <path d="M 441.601604 320.4 
L 447.71123 320.4 
L 447.71123 308.921739 
L 441.601604 308.921739 
z
" clip-path="url(#pa0ecdc916b)" style="fill: #ed7465"/>
   </g>
   <g id="patch_82">
    <path d="M 447.71123 320.4 
L 453.820855 320.4 
L 453.820855 320.4 
L 447.71123 320.4 
z
" clip-path="url(#pa0ecdc916b)" style="fill: #ed7465"/>
   </g>
   <g id="patch_83">
    <path d="M 453.820855 320.4 
L 459.930481 320.4 
L 459.930481 320.4 
L 453.820855 320.4 
z
" clip-path="url(#pa0ecdc916b)" style="fill: #ed7465"/>
   </g>
   <g id="patch_84">
    <path d="M 459.930481 320.4 
L 466.040106 320.4 
L 466.040106 297.443478 
L 459.930481 297.443478 
z
" clip-path="url(#pa0ecdc916b)" style="fill: #ed7465"/>
   </g>
   <g id="patch_85">
    <path d="M 466.040106 320.4 
L 472.149731 320.4 
L 472.149731 285.965217 
L 466.040106 285.965217 
z
" clip-path="url(#pa0ecdc916b)" style="fill: #ed7465"/>
   </g>
   <g id="patch_86">
    <path d="M 472.149731 320.4 
L 478.259357 320.4 
L 478.259357 297.443478 
L 472.149731 297.443478 
z
" clip-path="url(#pa0ecdc916b)" style="fill: #ed7465"/>
   </g>
   <g id="patch_87">
    <path d="M 478.259357 320.4 
L 484.368982 320.4 
L 484.368982 263.008696 
L 478.259357 263.008696 
z
" clip-path="url(#pa0ecdc916b)" style="fill: #ed7465"/>
   </g>
   <g id="patch_88">
    <path d="M 484.368982 320.4 
L 490.478608 320.4 
L 490.478608 263.008696 
L 484.368982 263.008696 
z
" clip-path="url(#pa0ecdc916b)" style="fill: #ed7465"/>
   </g>
   <g id="patch_89">
    <path d="M 490.478608 320.4 
L 496.588233 320.4 
L 496.588233 240.052174 
L 490.478608 240.052174 
z
" clip-path="url(#pa0ecdc916b)" style="fill: #ed7465"/>
   </g>
   <g id="patch_90">
    <path d="M 496.588233 320.4 
L 502.697858 320.4 
L 502.697858 194.13913 
L 496.588233 194.13913 
z
" clip-path="url(#pa0ecdc916b)" style="fill: #ed7465"/>
   </g>
   <g id="patch_91">
    <path d="M 502.697858 320.4 
L 508.807484 320.4 
L 508.807484 228.573913 
L 502.697858 228.573913 
z
" clip-path="url(#pa0ecdc916b)" style="fill: #ed7465"/>
   </g>
   <g id="patch_92">
    <path d="M 508.807484 320.4 
L 514.917109 320.4 
L 514.917109 194.13913 
L 508.807484 194.13913 
z
" clip-path="url(#pa0ecdc916b)" style="fill: #ed7465"/>
   </g>
   <g id="patch_93">
    <path d="M 514.917109 320.4 
L 521.026735 320.4 
L 521.026735 205.617391 
L 514.917109 205.617391 
z
" clip-path="url(#pa0ecdc916b)" style="fill: #ed7465"/>
   </g>
   <g id="patch_94">
    <path d="M 521.026735 320.4 
L 527.13636 320.4 
L 527.13636 182.66087 
L 521.026735 182.66087 
z
" clip-path="url(#pa0ecdc916b)" style="fill: #ed7465"/>
   </g>
   <g id="patch_95">
    <path d="M 527.13636 320.4 
L 533.245985 320.4 
L 533.245985 159.704348 
L 527.13636 159.704348 
z
" clip-path="url(#pa0ecdc916b)" style="fill: #ed7465"/>
   </g>
   <g id="patch_96">
    <path d="M 533.245985 320.4 
L 539.355611 320.4 
L 539.355611 56.4 
L 533.245985 56.4 
z
" clip-path="url(#pa0ecdc916b)" style="fill: #ed7465"/>
   </g>
   <g id="patch_97">
    <path d="M 539.355611 320.4 
L 545.465236 320.4 
L 545.465236 159.704348 
L 539.355611 159.704348 
z
" clip-path="url(#pa0ecdc916b)" style="fill: #ed7465"/>
   </g>
   <g id="patch_98">
    <path d="M 545.465236 320.4 
L 551.574862 320.4 
L 551.574862 171.182609 
L 545.465236 171.182609 
z
" clip-path="url(#pa0ecdc916b)" style="fill: #ed7465"/>
   </g>
   <g id="patch_99">
    <path d="M 551.574862 320.4 
L 557.684487 320.4 
L 557.684487 194.13913 
L 551.574862 194.13913 
z
" clip-path="url(#pa0ecdc916b)" style="fill: #ed7465"/>
   </g>
   <g id="patch_100">
    <path d="M 557.684487 320.4 
L 563.794112 320.4 
L 563.794112 205.617391 
L 557.684487 205.617391 
z
" clip-path="url(#pa0ecdc916b)" style="fill: #ed7465"/>
   </g>
   <g id="patch_101">
    <path d="M 563.794112 320.4 
L 569.903738 320.4 
L 569.903738 228.573913 
L 563.794112 228.573913 
z
" clip-path="url(#pa0ecdc916b)" style="fill: #ed7465"/>
   </g>
   <g id="patch_102">
    <path d="M 569.903738 320.4 
L 576.013363 320.4 
L 576.013363 205.617391 
L 569.903738 205.617391 
z
" clip-path="url(#pa0ecdc916b)" style="fill: #ed7465"/>
   </g>
   <g id="patch_103">
    <path d="M 576.013363 320.4 
L 582.122989 320.4 
L 582.122989 251.530435 
L 576.013363 251.530435 
z
" clip-path="url(#pa0ecdc916b)" style="fill: #ed7465"/>
   </g>
   <g id="patch_104">
    <path d="M 582.122989 320.4 
L 588.232614 320.4 
L 588.232614 308.921739 
L 582.122989 308.921739 
z
" clip-path="url(#pa0ecdc916b)" style="fill: #ed7465"/>
   </g>
   <g id="patch_105">
    <path d="M 588.232614 320.4 
L 594.34224 320.4 
L 594.34224 274.486957 
L 588.232614 274.486957 
z
" clip-path="url(#pa0ecdc916b)" style="fill: #ed7465"/>
   </g>
   <g id="patch_106">
    <path d="M 594.34224 320.4 
L 600.451865 320.4 
L 600.451865 274.486957 
L 594.34224 274.486957 
z
" clip-path="url(#pa0ecdc916b)" style="fill: #ed7465"/>
   </g>
   <g id="patch_107">
    <path d="M 600.451865 320.4 
L 606.56149 320.4 
L 606.56149 285.965217 
L 600.451865 285.965217 
z
" clip-path="url(#pa0ecdc916b)" style="fill: #ed7465"/>
   </g>
   <g id="patch_108">
    <path d="M 606.56149 320.4 
L 612.671116 320.4 
L 612.671116 320.4 
L 606.56149 320.4 
z
" clip-path="url(#pa0ecdc916b)" style="fill: #ed7465"/>
   </g>
   <g id="patch_109">
    <path d="M 612.671116 320.4 
L 618.780741 320.4 
L 618.780741 320.4 
L 612.671116 320.4 
z
" clip-path="url(#pa0ecdc916b)" style="fill: #ed7465"/>
   </g>
   <g id="patch_110">
    <path d="M 618.780741 320.4 
L 624.890367 320.4 
L 624.890367 297.443478 
L 618.780741 297.443478 
z
" clip-path="url(#pa0ecdc916b)" style="fill: #ed7465"/>
   </g>
   <g id="patch_111">
    <path d="M 526.176996 320.4 
L 530.817709 320.4 
L 530.817709 228.573913 
L 526.176996 228.573913 
z
" clip-path="url(#pa0ecdc916b)" style="fill: #5f9ea0"/>
   </g>
   <g id="patch_112">
    <path d="M 530.817709 320.4 
L 535.458423 320.4 
L 535.458423 228.573913 
L 530.817709 228.573913 
z
" clip-path="url(#pa0ecdc916b)" style="fill: #5f9ea0"/>
   </g>
   <g id="patch_113">
    <path d="M 535.458423 320.4 
L 540.099136 320.4 
L 540.099136 205.617391 
L 535.458423 205.617391 
z
" clip-path="url(#pa0ecdc916b)" style="fill: #5f9ea0"/>
   </g>
   <g id="patch_114">
    <path d="M 540.099136 320.4 
L 544.739849 320.4 
L 544.739849 125.269565 
L 540.099136 125.269565 
z
" clip-path="url(#pa0ecdc916b)" style="fill: #5f9ea0"/>
   </g>
   <g id="patch_115">
    <path d="M 544.739849 320.4 
L 549.380563 320.4 
L 549.380563 274.486957 
L 544.739849 274.486957 
z
" clip-path="url(#pa0ecdc916b)" style="fill: #5f9ea0"/>
   </g>
   <g id="patch_116">
    <path d="M 549.380563 320.4 
L 554.021276 320.4 
L 554.021276 308.921739 
L 549.380563 308.921739 
z
" clip-path="url(#pa0ecdc916b)" style="fill: #5f9ea0"/>
   </g>
   <g id="patch_117">
    <path d="M 554.021276 320.4 
L 558.661989 320.4 
L 558.661989 274.486957 
L 554.021276 274.486957 
z
" clip-path="url(#pa0ecdc916b)" style="fill: #5f9ea0"/>
   </g>
   <g id="patch_118">
    <path d="M 558.661989 320.4 
L 563.302703 320.4 
L 563.302703 285.965217 
L 558.661989 285.965217 
z
" clip-path="url(#pa0ecdc916b)" style="fill: #5f9ea0"/>
   </g>
   <g id="patch_119">
    <path d="M 563.302703 320.4 
L 567.943416 320.4 
L 567.943416 297.443478 
L 563.302703 297.443478 
z
" clip-path="url(#pa0ecdc916b)" style="fill: #5f9ea0"/>
   </g>
   <g id="patch_120">
    <path d="M 567.943416 320.4 
L 572.584129 320.4 
L 572.584129 320.4 
L 567.943416 320.4 
z
" clip-path="url(#pa0ecdc916b)" style="fill: #5f9ea0"/>
   </g>
   <g id="patch_121">
    <path d="M 572.584129 320.4 
L 577.224843 320.4 
L 577.224843 320.4 
L 572.584129 320.4 
z
" clip-path="url(#pa0ecdc916b)" style="fill: #5f9ea0"/>
   </g>
   <g id="patch_122">
    <path d="M 577.224843 320.4 
L 581.865556 320.4 
L 581.865556 320.4 
L 577.224843 320.4 
z
" clip-path="url(#pa0ecdc916b)" style="fill: #5f9ea0"/>
   </g>
   <g id="patch_123">
    <path d="M 581.865556 320.4 
L 586.506269 320.4 
L 586.506269 308.921739 
L 581.865556 308.921739 
z
" clip-path="url(#pa0ecdc916b)" style="fill: #5f9ea0"/>
   </g>
   <g id="patch_124">
    <path d="M 586.506269 320.4 
L 591.146983 320.4 
L 591.146983 320.4 
L 586.506269 320.4 
z
" clip-path="url(#pa0ecdc916b)" style="fill: #5f9ea0"/>
   </g>
   <g id="patch_125">
    <path d="M 591.146983 320.4 
L 595.787696 320.4 
L 595.787696 320.4 
L 591.146983 320.4 
z
" clip-path="url(#pa0ecdc916b)" style="fill: #5f9ea0"/>
   </g>
   <g id="patch_126">
    <path d="M 595.787696 320.4 
L 600.428409 320.4 
L 600.428409 320.4 
L 595.787696 320.4 
z
" clip-path="url(#pa0ecdc916b)" style="fill: #5f9ea0"/>
   </g>
   <g id="patch_127">
    <path d="M 600.428409 320.4 
L 605.069123 320.4 
L 605.069123 297.443478 
L 600.428409 297.443478 
z
" clip-path="url(#pa0ecdc916b)" style="fill: #5f9ea0"/>
   </g>
   <g id="patch_128">
    <path d="M 605.069123 320.4 
L 609.709836 320.4 
L 609.709836 263.008696 
L 605.069123 263.008696 
z
" clip-path="url(#pa0ecdc916b)" style="fill: #5f9ea0"/>
   </g>
   <g id="patch_129">
    <path d="M 609.709836 320.4 
L 614.350549 320.4 
L 614.350549 194.13913 
L 609.709836 194.13913 
z
" clip-path="url(#pa0ecdc916b)" style="fill: #5f9ea0"/>
   </g>
   <g id="patch_130">
    <path d="M 614.350549 320.4 
L 618.991262 320.4 
L 618.991262 125.269565 
L 614.350549 125.269565 
z
" clip-path="url(#pa0ecdc916b)" style="fill: #5f9ea0"/>
   </g>
   <g id="patch_131">
    <path d="M 618.991262 320.4 
L 623.631976 320.4 
L 623.631976 148.226087 
L 618.991262 148.226087 
z
" clip-path="url(#pa0ecdc916b)" style="fill: #5f9ea0"/>
   </g>
   <g id="patch_132">
    <path d="M 623.631976 320.4 
L 628.272689 320.4 
L 628.272689 251.530435 
L 623.631976 251.530435 
z
" clip-path="url(#pa0ecdc916b)" style="fill: #5f9ea0"/>
   </g>
   <g id="patch_133">
    <path d="M 628.272689 320.4 
L 632.913402 320.4 
L 632.913402 308.921739 
L 628.272689 308.921739 
z
" clip-path="url(#pa0ecdc916b)" style="fill: #5f9ea0"/>
   </g>
   <g id="patch_134">
    <path d="M 632.913402 320.4 
L 637.554116 320.4 
L 637.554116 263.008696 
L 632.913402 263.008696 
z
" clip-path="url(#pa0ecdc916b)" style="fill: #5f9ea0"/>
   </g>
   <g id="patch_135">
    <path d="M 637.554116 320.4 
L 642.194829 320.4 
L 642.194829 320.4 
L 637.554116 320.4 
z
" clip-path="url(#pa0ecdc916b)" style="fill: #5f9ea0"/>
   </g>
   <g id="patch_136">
    <path d="M 642.194829 320.4 
L 646.835542 320.4 
L 646.835542 251.530435 
L 642.194829 251.530435 
z
" clip-path="url(#pa0ecdc916b)" style="fill: #5f9ea0"/>
   </g>
   <g id="patch_137">
    <path d="M 646.835542 320.4 
L 651.476256 320.4 
L 651.476256 308.921739 
L 646.835542 308.921739 
z
" clip-path="url(#pa0ecdc916b)" style="fill: #5f9ea0"/>
   </g>
   <g id="patch_138">
    <path d="M 651.476256 320.4 
L 656.116969 320.4 
L 656.116969 297.443478 
L 651.476256 297.443478 
z
" clip-path="url(#pa0ecdc916b)" style="fill: #5f9ea0"/>
   </g>
   <g id="patch_139">
    <path d="M 656.116969 320.4 
L 660.757682 320.4 
L 660.757682 320.4 
L 656.116969 320.4 
z
" clip-path="url(#pa0ecdc916b)" style="fill: #5f9ea0"/>
   </g>
   <g id="patch_140">
    <path d="M 660.757682 320.4 
L 665.398396 320.4 
L 665.398396 297.443478 
L 660.757682 297.443478 
z
" clip-path="url(#pa0ecdc916b)" style="fill: #5f9ea0"/>
   </g>
   <g id="matplotlib.axis_3">
    <g id="xtick_7">
     <g id="line2d_14">
      <g>
       <use xlink:href="#m06e918ccbc" x="449.947893" y="320.4" style="stroke: #000000; stroke-width: 0.8"/>
      </g>
     </g>
     <g id="text_17">
      <!-- −4 -->
      <g transform="translate(442.576799 334.998438) scale(0.1 -0.1)">
       <defs>
        <path id="DejaVuSans-34" d="M 2419 4116 
L 825 1625 
L 2419 1625 
L 2419 4116 
z
M 2253 4666 
L 3047 4666 
L 3047 1625 
L 3713 1625 
L 3713 1100 
L 3047 1100 
L 3047 0 
L 2419 0 
L 2419 1100 
L 313 1100 
L 313 1709 
L 2253 4666 
z
" transform="scale(0.015625)"/>
       </defs>
       <use xlink:href="#DejaVuSans-2212"/>
       <use xlink:href="#DejaVuSans-34" x="83.789062"/>
      </g>
     </g>
    </g>
    <g id="xtick_8">
     <g id="line2d_15">
      <g>
       <use xlink:href="#m06e918ccbc" x="494.354055" y="320.4" style="stroke: #000000; stroke-width: 0.8"/>
      </g>
     </g>
     <g id="text_18">
      <!-- −2 -->
      <g transform="translate(486.982961 334.998438) scale(0.1 -0.1)">
       <use xlink:href="#DejaVuSans-2212"/>
       <use xlink:href="#DejaVuSans-32" x="83.789062"/>
      </g>
     </g>
    </g>
    <g id="xtick_9">
     <g id="line2d_16">
      <g>
       <use xlink:href="#m06e918ccbc" x="538.760217" y="320.4" style="stroke: #000000; stroke-width: 0.8"/>
      </g>
     </g>
     <g id="text_19">
      <!-- 0 -->
      <g transform="translate(535.578967 334.998438) scale(0.1 -0.1)">
       <use xlink:href="#DejaVuSans-30"/>
      </g>
     </g>
    </g>
    <g id="xtick_10">
     <g id="line2d_17">
      <g>
       <use xlink:href="#m06e918ccbc" x="583.16638" y="320.4" style="stroke: #000000; stroke-width: 0.8"/>
      </g>
     </g>
     <g id="text_20">
      <!-- 2 -->
      <g transform="translate(579.98513 334.998438) scale(0.1 -0.1)">
       <use xlink:href="#DejaVuSans-32"/>
      </g>
     </g>
    </g>
    <g id="xtick_11">
     <g id="line2d_18">
      <g>
       <use xlink:href="#m06e918ccbc" x="627.572542" y="320.4" style="stroke: #000000; stroke-width: 0.8"/>
      </g>
     </g>
     <g id="text_21">
      <!-- 4 -->
      <g transform="translate(624.391292 334.998438) scale(0.1 -0.1)">
       <use xlink:href="#DejaVuSans-34"/>
      </g>
     </g>
    </g>
    <g id="xtick_12">
     <g id="line2d_19">
      <g>
       <use xlink:href="#m06e918ccbc" x="671.978704" y="320.4" style="stroke: #000000; stroke-width: 0.8"/>
      </g>
     </g>
     <g id="text_22">
      <!-- 6 -->
      <g transform="translate(668.797454 334.998438) scale(0.1 -0.1)">
       <defs>
        <path id="DejaVuSans-36" d="M 2113 2584 
Q 1688 2584 1439 2293 
Q 1191 2003 1191 1497 
Q 1191 994 1439 701 
Q 1688 409 2113 409 
Q 2538 409 2786 701 
Q 3034 994 3034 1497 
Q 3034 2003 2786 2293 
Q 2538 2584 2113 2584 
z
M 3366 4563 
L 3366 3988 
Q 3128 4100 2886 4159 
Q 2644 4219 2406 4219 
Q 1781 4219 1451 3797 
Q 1122 3375 1075 2522 
Q 1259 2794 1537 2939 
Q 1816 3084 2150 3084 
Q 2853 3084 3261 2657 
Q 3669 2231 3669 1497 
Q 3669 778 3244 343 
Q 2819 -91 2113 -91 
Q 1303 -91 875 529 
Q 447 1150 447 2328 
Q 447 3434 972 4092 
Q 1497 4750 2381 4750 
Q 2619 4750 2861 4703 
Q 3103 4656 3366 4563 
z
" transform="scale(0.015625)"/>
       </defs>
       <use xlink:href="#DejaVuSans-36"/>
      </g>
     </g>
    </g>
    <g id="text_23">
     <!-- CO2 [Tons] -->
     <g transform="translate(510.0825 353.235625) scale(0.16 -0.16)">
      <use xlink:href="#DejaVuSans-43"/>
      <use xlink:href="#DejaVuSans-4f" x="69.824219"/>
      <use xlink:href="#DejaVuSans-32" x="148.535156"/>
      <use xlink:href="#DejaVuSans-20" x="212.158203"/>
      <use xlink:href="#DejaVuSans-5b" x="243.945312"/>
      <use xlink:href="#DejaVuSans-54" x="282.958984"/>
      <use xlink:href="#DejaVuSans-6f" x="327.042969"/>
      <use xlink:href="#DejaVuSans-6e" x="388.224609"/>
      <use xlink:href="#DejaVuSans-73" x="451.603516"/>
      <use xlink:href="#DejaVuSans-5d" x="503.703125"/>
     </g>
    </g>
   </g>
   <g id="matplotlib.axis_4">
    <g id="ytick_8">
     <g id="line2d_20">
      <g>
       <use xlink:href="#m56b6d5353d" x="430.411765" y="320.4" style="stroke: #000000; stroke-width: 0.8"/>
      </g>
     </g>
     <g id="text_24">
      <!-- 0 -->
      <g transform="translate(417.049265 324.199219) scale(0.1 -0.1)">
       <use xlink:href="#DejaVuSans-30"/>
      </g>
     </g>
    </g>
    <g id="ytick_9">
     <g id="line2d_21">
      <g>
       <use xlink:href="#m56b6d5353d" x="430.411765" y="263.008696" style="stroke: #000000; stroke-width: 0.8"/>
      </g>
     </g>
     <g id="text_25">
      <!-- 5 -->
      <g transform="translate(417.049265 266.807914) scale(0.1 -0.1)">
       <use xlink:href="#DejaVuSans-35"/>
      </g>
     </g>
    </g>
    <g id="ytick_10">
     <g id="line2d_22">
      <g>
       <use xlink:href="#m56b6d5353d" x="430.411765" y="205.617391" style="stroke: #000000; stroke-width: 0.8"/>
      </g>
     </g>
     <g id="text_26">
      <!-- 10 -->
      <g transform="translate(410.686765 209.41661) scale(0.1 -0.1)">
       <use xlink:href="#DejaVuSans-31"/>
       <use xlink:href="#DejaVuSans-30" x="63.623047"/>
      </g>
     </g>
    </g>
    <g id="ytick_11">
     <g id="line2d_23">
      <g>
       <use xlink:href="#m56b6d5353d" x="430.411765" y="148.226087" style="stroke: #000000; stroke-width: 0.8"/>
      </g>
     </g>
     <g id="text_27">
      <!-- 15 -->
      <g transform="translate(410.686765 152.025306) scale(0.1 -0.1)">
       <use xlink:href="#DejaVuSans-31"/>
       <use xlink:href="#DejaVuSans-35" x="63.623047"/>
      </g>
     </g>
    </g>
    <g id="ytick_12">
     <g id="line2d_24">
      <g>
       <use xlink:href="#m56b6d5353d" x="430.411765" y="90.834783" style="stroke: #000000; stroke-width: 0.8"/>
      </g>
     </g>
     <g id="text_28">
      <!-- 20 -->
      <g transform="translate(410.686765 94.634001) scale(0.1 -0.1)">
       <use xlink:href="#DejaVuSans-32"/>
       <use xlink:href="#DejaVuSans-30" x="63.623047"/>
      </g>
     </g>
    </g>
   </g>
   <g id="patch_141">
    <path d="M 430.411765 320.4 
L 430.411765 43.2 
" style="fill: none; stroke: #000000; stroke-width: 0.8; stroke-linejoin: miter; stroke-linecap: square"/>
   </g>
   <g id="patch_142">
    <path d="M 676.588235 320.4 
L 676.588235 43.2 
" style="fill: none; stroke: #000000; stroke-width: 0.8; stroke-linejoin: miter; stroke-linecap: square"/>
   </g>
   <g id="patch_143">
    <path d="M 430.411765 320.4 
L 676.588235 320.4 
" style="fill: none; stroke: #000000; stroke-width: 0.8; stroke-linejoin: miter; stroke-linecap: square"/>
   </g>
   <g id="patch_144">
    <path d="M 430.411765 43.2 
L 676.588235 43.2 
" style="fill: none; stroke: #000000; stroke-width: 0.8; stroke-linejoin: miter; stroke-linecap: square"/>
   </g>
   <g id="legend_2">
    <g id="patch_145">
     <path d="M 538.558235 102.97 
L 665.388235 102.97 
Q 668.588235 102.97 668.588235 99.77 
L 668.588235 54.4 
Q 668.588235 51.2 665.388235 51.2 
L 538.558235 51.2 
Q 535.358235 51.2 535.358235 54.4 
L 535.358235 99.77 
Q 535.358235 102.97 538.558235 102.97 
z
" style="fill: #ffffff; opacity: 0.8; stroke: #cccccc; stroke-linejoin: miter"/>
    </g>
    <g id="patch_146">
     <path d="M 541.758235 69.7575 
L 573.758235 69.7575 
L 573.758235 58.5575 
L 541.758235 58.5575 
z
" style="fill: #ed7465"/>
    </g>
    <g id="text_29">
     <!-- Gauss -->
     <g transform="translate(586.558235 69.7575) scale(0.16 -0.16)">
      <use xlink:href="#DejaVuSans-47"/>
      <use xlink:href="#DejaVuSans-61" x="77.490234"/>
      <use xlink:href="#DejaVuSans-75" x="138.769531"/>
      <use xlink:href="#DejaVuSans-73" x="202.148438"/>
      <use xlink:href="#DejaVuSans-73" x="254.248047"/>
     </g>
    </g>
    <g id="patch_147">
     <path d="M 541.758235 93.2425 
L 573.758235 93.2425 
L 573.758235 82.0425 
L 541.758235 82.0425 
z
" style="fill: #5f9ea0"/>
    </g>
    <g id="text_30">
     <!-- Emissioni -->
     <g transform="translate(586.558235 93.2425) scale(0.16 -0.16)">
      <use xlink:href="#DejaVuSans-45"/>
      <use xlink:href="#DejaVuSans-6d" x="63.183594"/>
      <use xlink:href="#DejaVuSans-69" x="160.595703"/>
      <use xlink:href="#DejaVuSans-73" x="188.378906"/>
      <use xlink:href="#DejaVuSans-73" x="240.478516"/>
      <use xlink:href="#DejaVuSans-69" x="292.578125"/>
      <use xlink:href="#DejaVuSans-6f" x="320.361328"/>
      <use xlink:href="#DejaVuSans-6e" x="381.542969"/>
      <use xlink:href="#DejaVuSans-69" x="444.921875"/>
     </g>
    </g>
   </g>
  </g>
  <g id="axes_3">
   <g id="patch_148">
    <path d="M 725.823529 320.4 
L 972 320.4 
L 972 43.2 
L 725.823529 43.2 
z
" style="fill: #ffffff"/>
   </g>
   <g id="patch_149">
    <path d="M 737.013369 320.4 
L 743.04785 320.4 
L 743.04785 308.4 
L 737.013369 308.4 
z
" clip-path="url(#p618dbbfbb9)" style="fill: #ed7465"/>
   </g>
   <g id="patch_150">
    <path d="M 743.04785 320.4 
L 749.082331 320.4 
L 749.082331 320.4 
L 743.04785 320.4 
z
" clip-path="url(#p618dbbfbb9)" style="fill: #ed7465"/>
   </g>
   <g id="patch_151">
    <path d="M 749.082331 320.4 
L 755.116812 320.4 
L 755.116812 320.4 
L 749.082331 320.4 
z
" clip-path="url(#p618dbbfbb9)" style="fill: #ed7465"/>
   </g>
   <g id="patch_152">
    <path d="M 755.116812 320.4 
L 761.151292 320.4 
L 761.151292 320.4 
L 755.116812 320.4 
z
" clip-path="url(#p618dbbfbb9)" style="fill: #ed7465"/>
   </g>
   <g id="patch_153">
    <path d="M 761.151292 320.4 
L 767.185773 320.4 
L 767.185773 320.4 
L 761.151292 320.4 
z
" clip-path="url(#p618dbbfbb9)" style="fill: #ed7465"/>
   </g>
   <g id="patch_154">
    <path d="M 767.185773 320.4 
L 773.220254 320.4 
L 773.220254 320.4 
L 767.185773 320.4 
z
" clip-path="url(#p618dbbfbb9)" style="fill: #ed7465"/>
   </g>
   <g id="patch_155">
    <path d="M 773.220254 320.4 
L 779.254735 320.4 
L 779.254735 296.4 
L 773.220254 296.4 
z
" clip-path="url(#p618dbbfbb9)" style="fill: #ed7465"/>
   </g>
   <g id="patch_156">
    <path d="M 779.254735 320.4 
L 785.289216 320.4 
L 785.289216 272.4 
L 779.254735 272.4 
z
" clip-path="url(#p618dbbfbb9)" style="fill: #ed7465"/>
   </g>
   <g id="patch_157">
    <path d="M 785.289216 320.4 
L 791.323697 320.4 
L 791.323697 236.4 
L 785.289216 236.4 
z
" clip-path="url(#p618dbbfbb9)" style="fill: #ed7465"/>
   </g>
   <g id="patch_158">
    <path d="M 791.323697 320.4 
L 797.358177 320.4 
L 797.358177 236.4 
L 791.323697 236.4 
z
" clip-path="url(#p618dbbfbb9)" style="fill: #ed7465"/>
   </g>
   <g id="patch_159">
    <path d="M 797.358177 320.4 
L 803.392658 320.4 
L 803.392658 200.4 
L 797.358177 200.4 
z
" clip-path="url(#p618dbbfbb9)" style="fill: #ed7465"/>
   </g>
   <g id="patch_160">
    <path d="M 803.392658 320.4 
L 809.427139 320.4 
L 809.427139 116.4 
L 803.392658 116.4 
z
" clip-path="url(#p618dbbfbb9)" style="fill: #ed7465"/>
   </g>
   <g id="patch_161">
    <path d="M 809.427139 320.4 
L 815.46162 320.4 
L 815.46162 104.4 
L 809.427139 104.4 
z
" clip-path="url(#p618dbbfbb9)" style="fill: #ed7465"/>
   </g>
   <g id="patch_162">
    <path d="M 815.46162 320.4 
L 821.496101 320.4 
L 821.496101 104.4 
L 815.46162 104.4 
z
" clip-path="url(#p618dbbfbb9)" style="fill: #ed7465"/>
   </g>
   <g id="patch_163">
    <path d="M 821.496101 320.4 
L 827.530582 320.4 
L 827.530582 56.4 
L 821.496101 56.4 
z
" clip-path="url(#p618dbbfbb9)" style="fill: #ed7465"/>
   </g>
   <g id="patch_164">
    <path d="M 827.530582 320.4 
L 833.565063 320.4 
L 833.565063 140.4 
L 827.530582 140.4 
z
" clip-path="url(#p618dbbfbb9)" style="fill: #ed7465"/>
   </g>
   <g id="patch_165">
    <path d="M 833.565063 320.4 
L 839.599543 320.4 
L 839.599543 176.4 
L 833.565063 176.4 
z
" clip-path="url(#p618dbbfbb9)" style="fill: #ed7465"/>
   </g>
   <g id="patch_166">
    <path d="M 839.599543 320.4 
L 845.634024 320.4 
L 845.634024 176.4 
L 839.599543 176.4 
z
" clip-path="url(#p618dbbfbb9)" style="fill: #ed7465"/>
   </g>
   <g id="patch_167">
    <path d="M 845.634024 320.4 
L 851.668505 320.4 
L 851.668505 92.4 
L 845.634024 92.4 
z
" clip-path="url(#p618dbbfbb9)" style="fill: #ed7465"/>
   </g>
   <g id="patch_168">
    <path d="M 851.668505 320.4 
L 857.702986 320.4 
L 857.702986 188.4 
L 851.668505 188.4 
z
" clip-path="url(#p618dbbfbb9)" style="fill: #ed7465"/>
   </g>
   <g id="patch_169">
    <path d="M 857.702986 320.4 
L 863.737467 320.4 
L 863.737467 224.4 
L 857.702986 224.4 
z
" clip-path="url(#p618dbbfbb9)" style="fill: #ed7465"/>
   </g>
   <g id="patch_170">
    <path d="M 863.737467 320.4 
L 869.771948 320.4 
L 869.771948 236.4 
L 863.737467 236.4 
z
" clip-path="url(#p618dbbfbb9)" style="fill: #ed7465"/>
   </g>
   <g id="patch_171">
    <path d="M 869.771948 320.4 
L 875.806428 320.4 
L 875.806428 248.4 
L 869.771948 248.4 
z
" clip-path="url(#p618dbbfbb9)" style="fill: #ed7465"/>
   </g>
   <g id="patch_172">
    <path d="M 875.806428 320.4 
L 881.840909 320.4 
L 881.840909 284.4 
L 875.806428 284.4 
z
" clip-path="url(#p618dbbfbb9)" style="fill: #ed7465"/>
   </g>
   <g id="patch_173">
    <path d="M 881.840909 320.4 
L 887.87539 320.4 
L 887.87539 308.4 
L 881.840909 308.4 
z
" clip-path="url(#p618dbbfbb9)" style="fill: #ed7465"/>
   </g>
   <g id="patch_174">
    <path d="M 818.294615 320.4 
L 823.995237 320.4 
L 823.995237 164.4 
L 818.294615 164.4 
z
" clip-path="url(#p618dbbfbb9)" style="fill: #5f9ea0"/>
   </g>
   <g id="patch_175">
    <path d="M 823.995237 320.4 
L 829.695858 320.4 
L 829.695858 212.4 
L 823.995237 212.4 
z
" clip-path="url(#p618dbbfbb9)" style="fill: #5f9ea0"/>
   </g>
   <g id="patch_176">
    <path d="M 829.695858 320.4 
L 835.39648 320.4 
L 835.39648 152.4 
L 829.695858 152.4 
z
" clip-path="url(#p618dbbfbb9)" style="fill: #5f9ea0"/>
   </g>
   <g id="patch_177">
    <path d="M 835.39648 320.4 
L 841.097102 320.4 
L 841.097102 236.4 
L 835.39648 236.4 
z
" clip-path="url(#p618dbbfbb9)" style="fill: #5f9ea0"/>
   </g>
   <g id="patch_178">
    <path d="M 841.097102 320.4 
L 846.797724 320.4 
L 846.797724 260.4 
L 841.097102 260.4 
z
" clip-path="url(#p618dbbfbb9)" style="fill: #5f9ea0"/>
   </g>
   <g id="patch_179">
    <path d="M 846.797724 320.4 
L 852.498346 320.4 
L 852.498346 308.4 
L 846.797724 308.4 
z
" clip-path="url(#p618dbbfbb9)" style="fill: #5f9ea0"/>
   </g>
   <g id="patch_180">
    <path d="M 852.498346 320.4 
L 858.198968 320.4 
L 858.198968 308.4 
L 852.498346 308.4 
z
" clip-path="url(#p618dbbfbb9)" style="fill: #5f9ea0"/>
   </g>
   <g id="patch_181">
    <path d="M 858.198968 320.4 
L 863.899589 320.4 
L 863.899589 284.4 
L 858.198968 284.4 
z
" clip-path="url(#p618dbbfbb9)" style="fill: #5f9ea0"/>
   </g>
   <g id="patch_182">
    <path d="M 863.899589 320.4 
L 869.600211 320.4 
L 869.600211 224.4 
L 863.899589 224.4 
z
" clip-path="url(#p618dbbfbb9)" style="fill: #5f9ea0"/>
   </g>
   <g id="patch_183">
    <path d="M 869.600211 320.4 
L 875.300833 320.4 
L 875.300833 224.4 
L 869.600211 224.4 
z
" clip-path="url(#p618dbbfbb9)" style="fill: #5f9ea0"/>
   </g>
   <g id="patch_184">
    <path d="M 875.300833 320.4 
L 881.001455 320.4 
L 881.001455 260.4 
L 875.300833 260.4 
z
" clip-path="url(#p618dbbfbb9)" style="fill: #5f9ea0"/>
   </g>
   <g id="patch_185">
    <path d="M 881.001455 320.4 
L 886.702077 320.4 
L 886.702077 272.4 
L 881.001455 272.4 
z
" clip-path="url(#p618dbbfbb9)" style="fill: #5f9ea0"/>
   </g>
   <g id="patch_186">
    <path d="M 886.702077 320.4 
L 892.402699 320.4 
L 892.402699 296.4 
L 886.702077 296.4 
z
" clip-path="url(#p618dbbfbb9)" style="fill: #5f9ea0"/>
   </g>
   <g id="patch_187">
    <path d="M 892.402699 320.4 
L 898.10332 320.4 
L 898.10332 224.4 
L 892.402699 224.4 
z
" clip-path="url(#p618dbbfbb9)" style="fill: #5f9ea0"/>
   </g>
   <g id="patch_188">
    <path d="M 898.10332 320.4 
L 903.803942 320.4 
L 903.803942 284.4 
L 898.10332 284.4 
z
" clip-path="url(#p618dbbfbb9)" style="fill: #5f9ea0"/>
   </g>
   <g id="patch_189">
    <path d="M 903.803942 320.4 
L 909.504564 320.4 
L 909.504564 296.4 
L 903.803942 296.4 
z
" clip-path="url(#p618dbbfbb9)" style="fill: #5f9ea0"/>
   </g>
   <g id="patch_190">
    <path d="M 909.504564 320.4 
L 915.205186 320.4 
L 915.205186 272.4 
L 909.504564 272.4 
z
" clip-path="url(#p618dbbfbb9)" style="fill: #5f9ea0"/>
   </g>
   <g id="patch_191">
    <path d="M 915.205186 320.4 
L 920.905808 320.4 
L 920.905808 236.4 
L 915.205186 236.4 
z
" clip-path="url(#p618dbbfbb9)" style="fill: #5f9ea0"/>
   </g>
   <g id="patch_192">
    <path d="M 920.905808 320.4 
L 926.606429 320.4 
L 926.606429 260.4 
L 920.905808 260.4 
z
" clip-path="url(#p618dbbfbb9)" style="fill: #5f9ea0"/>
   </g>
   <g id="patch_193">
    <path d="M 926.606429 320.4 
L 932.307051 320.4 
L 932.307051 296.4 
L 926.606429 296.4 
z
" clip-path="url(#p618dbbfbb9)" style="fill: #5f9ea0"/>
   </g>
   <g id="patch_194">
    <path d="M 932.307051 320.4 
L 938.007673 320.4 
L 938.007673 296.4 
L 932.307051 296.4 
z
" clip-path="url(#p618dbbfbb9)" style="fill: #5f9ea0"/>
   </g>
   <g id="patch_195">
    <path d="M 938.007673 320.4 
L 943.708295 320.4 
L 943.708295 308.4 
L 938.007673 308.4 
z
" clip-path="url(#p618dbbfbb9)" style="fill: #5f9ea0"/>
   </g>
   <g id="patch_196">
    <path d="M 943.708295 320.4 
L 949.408917 320.4 
L 949.408917 296.4 
L 943.708295 296.4 
z
" clip-path="url(#p618dbbfbb9)" style="fill: #5f9ea0"/>
   </g>
   <g id="patch_197">
    <path d="M 949.408917 320.4 
L 955.109539 320.4 
L 955.109539 308.4 
L 949.408917 308.4 
z
" clip-path="url(#p618dbbfbb9)" style="fill: #5f9ea0"/>
   </g>
   <g id="patch_198">
    <path d="M 955.109539 320.4 
L 960.81016 320.4 
L 960.81016 308.4 
L 955.109539 308.4 
z
" clip-path="url(#p618dbbfbb9)" style="fill: #5f9ea0"/>
   </g>
   <g id="matplotlib.axis_5">
    <g id="xtick_13">
     <g id="line2d_25">
      <g>
       <use xlink:href="#m06e918ccbc" x="745.664988" y="320.4" style="stroke: #000000; stroke-width: 0.8"/>
      </g>
     </g>
     <g id="text_31">
      <!-- 2.0 -->
      <g transform="translate(737.713425 334.998438) scale(0.1 -0.1)">
       <defs>
        <path id="DejaVuSans-2e" d="M 684 794 
L 1344 794 
L 1344 0 
L 684 0 
L 684 794 
z
" transform="scale(0.015625)"/>
       </defs>
       <use xlink:href="#DejaVuSans-32"/>
       <use xlink:href="#DejaVuSans-2e" x="63.623047"/>
       <use xlink:href="#DejaVuSans-30" x="95.410156"/>
      </g>
     </g>
    </g>
    <g id="xtick_14">
     <g id="line2d_26">
      <g>
       <use xlink:href="#m06e918ccbc" x="795.13684" y="320.4" style="stroke: #000000; stroke-width: 0.8"/>
      </g>
     </g>
     <g id="text_32">
      <!-- 2.5 -->
      <g transform="translate(787.185278 334.998438) scale(0.1 -0.1)">
       <use xlink:href="#DejaVuSans-32"/>
       <use xlink:href="#DejaVuSans-2e" x="63.623047"/>
       <use xlink:href="#DejaVuSans-35" x="95.410156"/>
      </g>
     </g>
    </g>
    <g id="xtick_15">
     <g id="line2d_27">
      <g>
       <use xlink:href="#m06e918ccbc" x="844.608693" y="320.4" style="stroke: #000000; stroke-width: 0.8"/>
      </g>
     </g>
     <g id="text_33">
      <!-- 3.0 -->
      <g transform="translate(836.657131 334.998438) scale(0.1 -0.1)">
       <use xlink:href="#DejaVuSans-33"/>
       <use xlink:href="#DejaVuSans-2e" x="63.623047"/>
       <use xlink:href="#DejaVuSans-30" x="95.410156"/>
      </g>
     </g>
    </g>
    <g id="xtick_16">
     <g id="line2d_28">
      <g>
       <use xlink:href="#m06e918ccbc" x="894.080546" y="320.4" style="stroke: #000000; stroke-width: 0.8"/>
      </g>
     </g>
     <g id="text_34">
      <!-- 3.5 -->
      <g transform="translate(886.128984 334.998438) scale(0.1 -0.1)">
       <use xlink:href="#DejaVuSans-33"/>
       <use xlink:href="#DejaVuSans-2e" x="63.623047"/>
       <use xlink:href="#DejaVuSans-35" x="95.410156"/>
      </g>
     </g>
    </g>
    <g id="xtick_17">
     <g id="line2d_29">
      <g>
       <use xlink:href="#m06e918ccbc" x="943.552399" y="320.4" style="stroke: #000000; stroke-width: 0.8"/>
      </g>
     </g>
     <g id="text_35">
      <!-- 4.0 -->
      <g transform="translate(935.600837 334.998438) scale(0.1 -0.1)">
       <use xlink:href="#DejaVuSans-34"/>
       <use xlink:href="#DejaVuSans-2e" x="63.623047"/>
       <use xlink:href="#DejaVuSans-30" x="95.410156"/>
      </g>
     </g>
    </g>
    <g id="text_36">
     <!-- Temperatura [°C] -->
     <g transform="translate(779.709265 353.235625) scale(0.16 -0.16)">
      <defs>
       <path id="DejaVuSans-65" d="M 3597 1894 
L 3597 1613 
L 953 1613 
Q 991 1019 1311 708 
Q 1631 397 2203 397 
Q 2534 397 2845 478 
Q 3156 559 3463 722 
L 3463 178 
Q 3153 47 2828 -22 
Q 2503 -91 2169 -91 
Q 1331 -91 842 396 
Q 353 884 353 1716 
Q 353 2575 817 3079 
Q 1281 3584 2069 3584 
Q 2775 3584 3186 3129 
Q 3597 2675 3597 1894 
z
M 3022 2063 
Q 3016 2534 2758 2815 
Q 2500 3097 2075 3097 
Q 1594 3097 1305 2825 
Q 1016 2553 972 2059 
L 3022 2063 
z
" transform="scale(0.015625)"/>
       <path id="DejaVuSans-70" d="M 1159 525 
L 1159 -1331 
L 581 -1331 
L 581 3500 
L 1159 3500 
L 1159 2969 
Q 1341 3281 1617 3432 
Q 1894 3584 2278 3584 
Q 2916 3584 3314 3078 
Q 3713 2572 3713 1747 
Q 3713 922 3314 415 
Q 2916 -91 2278 -91 
Q 1894 -91 1617 61 
Q 1341 213 1159 525 
z
M 3116 1747 
Q 3116 2381 2855 2742 
Q 2594 3103 2138 3103 
Q 1681 3103 1420 2742 
Q 1159 2381 1159 1747 
Q 1159 1113 1420 752 
Q 1681 391 2138 391 
Q 2594 391 2855 752 
Q 3116 1113 3116 1747 
z
" transform="scale(0.015625)"/>
       <path id="DejaVuSans-72" d="M 2631 2963 
Q 2534 3019 2420 3045 
Q 2306 3072 2169 3072 
Q 1681 3072 1420 2755 
Q 1159 2438 1159 1844 
L 1159 0 
L 581 0 
L 581 3500 
L 1159 3500 
L 1159 2956 
Q 1341 3275 1631 3429 
Q 1922 3584 2338 3584 
Q 2397 3584 2469 3576 
Q 2541 3569 2628 3553 
L 2631 2963 
z
" transform="scale(0.015625)"/>
       <path id="DejaVuSans-74" d="M 1172 4494 
L 1172 3500 
L 2356 3500 
L 2356 3053 
L 1172 3053 
L 1172 1153 
Q 1172 725 1289 603 
Q 1406 481 1766 481 
L 2356 481 
L 2356 0 
L 1766 0 
Q 1100 0 847 248 
Q 594 497 594 1153 
L 594 3053 
L 172 3053 
L 172 3500 
L 594 3500 
L 594 4494 
L 1172 4494 
z
" transform="scale(0.015625)"/>
       <path id="DejaVuSans-b0" d="M 1600 4347 
Q 1350 4347 1178 4173 
Q 1006 4000 1006 3750 
Q 1006 3503 1178 3333 
Q 1350 3163 1600 3163 
Q 1850 3163 2022 3333 
Q 2194 3503 2194 3750 
Q 2194 3997 2020 4172 
Q 1847 4347 1600 4347 
z
M 1600 4750 
Q 1800 4750 1984 4673 
Q 2169 4597 2303 4453 
Q 2447 4313 2519 4134 
Q 2591 3956 2591 3750 
Q 2591 3338 2302 3052 
Q 2013 2766 1594 2766 
Q 1172 2766 890 3047 
Q 609 3328 609 3750 
Q 609 4169 896 4459 
Q 1184 4750 1600 4750 
z
" transform="scale(0.015625)"/>
      </defs>
      <use xlink:href="#DejaVuSans-54"/>
      <use xlink:href="#DejaVuSans-65" x="44.083984"/>
      <use xlink:href="#DejaVuSans-6d" x="105.607422"/>
      <use xlink:href="#DejaVuSans-70" x="203.019531"/>
      <use xlink:href="#DejaVuSans-65" x="266.496094"/>
      <use xlink:href="#DejaVuSans-72" x="328.019531"/>
      <use xlink:href="#DejaVuSans-61" x="369.132812"/>
      <use xlink:href="#DejaVuSans-74" x="430.412109"/>
      <use xlink:href="#DejaVuSans-75" x="469.621094"/>
      <use xlink:href="#DejaVuSans-72" x="533"/>
      <use xlink:href="#DejaVuSans-61" x="574.113281"/>
      <use xlink:href="#DejaVuSans-20" x="635.392578"/>
      <use xlink:href="#DejaVuSans-5b" x="667.179688"/>
      <use xlink:href="#DejaVuSans-b0" x="706.193359"/>
      <use xlink:href="#DejaVuSans-43" x="756.193359"/>
      <use xlink:href="#DejaVuSans-5d" x="826.017578"/>
     </g>
    </g>
   </g>
   <g id="matplotlib.axis_6">
    <g id="ytick_13">
     <g id="line2d_30">
      <g>
       <use xlink:href="#m56b6d5353d" x="725.823529" y="320.4" style="stroke: #000000; stroke-width: 0.8"/>
      </g>
     </g>
     <g id="text_37">
      <!-- 0 -->
      <g transform="translate(712.461029 324.199219) scale(0.1 -0.1)">
       <use xlink:href="#DejaVuSans-30"/>
      </g>
     </g>
    </g>
    <g id="ytick_14">
     <g id="line2d_31">
      <g>
       <use xlink:href="#m56b6d5353d" x="725.823529" y="260.4" style="stroke: #000000; stroke-width: 0.8"/>
      </g>
     </g>
     <g id="text_38">
      <!-- 5 -->
      <g transform="translate(712.461029 264.199219) scale(0.1 -0.1)">
       <use xlink:href="#DejaVuSans-35"/>
      </g>
     </g>
    </g>
    <g id="ytick_15">
     <g id="line2d_32">
      <g>
       <use xlink:href="#m56b6d5353d" x="725.823529" y="200.4" style="stroke: #000000; stroke-width: 0.8"/>
      </g>
     </g>
     <g id="text_39">
      <!-- 10 -->
      <g transform="translate(706.098529 204.199219) scale(0.1 -0.1)">
       <use xlink:href="#DejaVuSans-31"/>
       <use xlink:href="#DejaVuSans-30" x="63.623047"/>
      </g>
     </g>
    </g>
    <g id="ytick_16">
     <g id="line2d_33">
      <g>
       <use xlink:href="#m56b6d5353d" x="725.823529" y="140.4" style="stroke: #000000; stroke-width: 0.8"/>
      </g>
     </g>
     <g id="text_40">
      <!-- 15 -->
      <g transform="translate(706.098529 144.199219) scale(0.1 -0.1)">
       <use xlink:href="#DejaVuSans-31"/>
       <use xlink:href="#DejaVuSans-35" x="63.623047"/>
      </g>
     </g>
    </g>
    <g id="ytick_17">
     <g id="line2d_34">
      <g>
       <use xlink:href="#m56b6d5353d" x="725.823529" y="80.4" style="stroke: #000000; stroke-width: 0.8"/>
      </g>
     </g>
     <g id="text_41">
      <!-- 20 -->
      <g transform="translate(706.098529 84.199219) scale(0.1 -0.1)">
       <use xlink:href="#DejaVuSans-32"/>
       <use xlink:href="#DejaVuSans-30" x="63.623047"/>
      </g>
     </g>
    </g>
   </g>
   <g id="patch_199">
    <path d="M 725.823529 320.4 
L 725.823529 43.2 
" style="fill: none; stroke: #000000; stroke-width: 0.8; stroke-linejoin: miter; stroke-linecap: square"/>
   </g>
   <g id="patch_200">
    <path d="M 972 320.4 
L 972 43.2 
" style="fill: none; stroke: #000000; stroke-width: 0.8; stroke-linejoin: miter; stroke-linecap: square"/>
   </g>
   <g id="patch_201">
    <path d="M 725.823529 320.4 
L 972 320.4 
" style="fill: none; stroke: #000000; stroke-width: 0.8; stroke-linejoin: miter; stroke-linecap: square"/>
   </g>
   <g id="patch_202">
    <path d="M 725.823529 43.2 
L 972 43.2 
" style="fill: none; stroke: #000000; stroke-width: 0.8; stroke-linejoin: miter; stroke-linecap: square"/>
   </g>
   <g id="legend_3">
    <g id="patch_203">
     <path d="M 807.9375 102.97 
L 960.8 102.97 
Q 964 102.97 964 99.77 
L 964 54.4 
Q 964 51.2 960.8 51.2 
L 807.9375 51.2 
Q 804.7375 51.2 804.7375 54.4 
L 804.7375 99.77 
Q 804.7375 102.97 807.9375 102.97 
z
" style="fill: #ffffff; opacity: 0.8; stroke: #cccccc; stroke-linejoin: miter"/>
    </g>
    <g id="patch_204">
     <path d="M 811.1375 69.7575 
L 843.1375 69.7575 
L 843.1375 58.5575 
L 811.1375 58.5575 
z
" style="fill: #ed7465"/>
    </g>
    <g id="text_42">
     <!-- Gauss -->
     <g transform="translate(855.9375 69.7575) scale(0.16 -0.16)">
      <use xlink:href="#DejaVuSans-47"/>
      <use xlink:href="#DejaVuSans-61" x="77.490234"/>
      <use xlink:href="#DejaVuSans-75" x="138.769531"/>
      <use xlink:href="#DejaVuSans-73" x="202.148438"/>
      <use xlink:href="#DejaVuSans-73" x="254.248047"/>
     </g>
    </g>
    <g id="patch_205">
     <path d="M 811.1375 93.2425 
L 843.1375 93.2425 
L 843.1375 82.0425 
L 811.1375 82.0425 
z
" style="fill: #5f9ea0"/>
    </g>
    <g id="text_43">
     <!-- Temperatura -->
     <g transform="translate(855.9375 93.2425) scale(0.16 -0.16)">
      <use xlink:href="#DejaVuSans-54"/>
      <use xlink:href="#DejaVuSans-65" x="44.083984"/>
      <use xlink:href="#DejaVuSans-6d" x="105.607422"/>
      <use xlink:href="#DejaVuSans-70" x="203.019531"/>
      <use xlink:href="#DejaVuSans-65" x="266.496094"/>
      <use xlink:href="#DejaVuSans-72" x="328.019531"/>
      <use xlink:href="#DejaVuSans-61" x="369.132812"/>
      <use xlink:href="#DejaVuSans-74" x="430.412109"/>
      <use xlink:href="#DejaVuSans-75" x="469.621094"/>
      <use xlink:href="#DejaVuSans-72" x="533"/>
      <use xlink:href="#DejaVuSans-61" x="574.113281"/>
     </g>
    </g>
   </g>
  </g>
 </g>
 <defs>
  <clipPath id="p9978b798b8">
   <rect x="135" y="43.2" width="246.176471" height="277.2"/>
  </clipPath>
  <clipPath id="pa0ecdc916b">
   <rect x="430.411765" y="43.2" width="246.176471" height="277.2"/>
  </clipPath>
  <clipPath id="p618dbbfbb9">
   <rect x="725.823529" y="43.2" width="246.176471" height="277.2"/>
  </clipPath>
 </defs>
</svg>
