<?xml version="1.0" encoding="utf-8" standalone="no"?>
<!DOCTYPE svg PUBLIC "-//W3C//DTD SVG 1.1//EN"
  "http://www.w3.org/Graphics/SVG/1.1/DTD/svg11.dtd">
<svg xmlns:xlink="http://www.w3.org/1999/xlink" width="460.8pt" height="345.6pt" viewBox="0 0 460.8 345.6" xmlns="http://www.w3.org/2000/svg" version="1.1">
 <metadata>
  <rdf:RDF xmlns:dc="http://purl.org/dc/elements/1.1/" xmlns:cc="http://creativecommons.org/ns#" xmlns:rdf="http://www.w3.org/1999/02/22-rdf-syntax-ns#">
   <cc:Work>
    <dc:type rdf:resource="http://purl.org/dc/dcmitype/StillImage"/>
    <dc:date>2023-04-08T14:48:42.135593</dc:date>
    <dc:format>image/svg+xml</dc:format>
    <dc:creator>
     <cc:Agent>
      <dc:title>Matplotlib v3.7.1, https://matplotlib.org/</dc:title>
     </cc:Agent>
    </dc:creator>
   </cc:Work>
  </rdf:RDF>
 </metadata>
 <defs>
  <style type="text/css">*{stroke-linejoin: round; stroke-linecap: butt}</style>
 </defs>
 <g id="figure_1">
  <g id="patch_1">
   <path d="M 0 345.6 
L 460.8 345.6 
L 460.8 0 
L 0 0 
z
" style="fill: #ffffff"/>
  </g>
  <g id="axes_1">
   <g id="patch_2">
    <path d="M 57.6 307.584 
L 414.72 307.584 
L 414.72 41.472 
L 57.6 41.472 
z
" style="fill: #ffffff"/>
   </g>
   <g id="matplotlib.axis_1">
    <g id="xtick_1">
     <g id="line2d_1">
      <defs>
       <path id="maeced05e40" d="M 0 0 
L 0 3.5 
" style="stroke: #000000; stroke-width: 0.8"/>
      </defs>
      <g>
       <use xlink:href="#maeced05e40" x="57.6" y="307.584" style="stroke: #000000; stroke-width: 0.8"/>
      </g>
     </g>
     <g id="text_1">
      <!-- 0 -->
      <g transform="translate(54.41875 322.182437) scale(0.1 -0.1)">
       <defs>
        <path id="DejaVuSans-30" d="M 2034 4250 
Q 1547 4250 1301 3770 
Q 1056 3291 1056 2328 
Q 1056 1369 1301 889 
Q 1547 409 2034 409 
Q 2525 409 2770 889 
Q 3016 1369 3016 2328 
Q 3016 3291 2770 3770 
Q 2525 4250 2034 4250 
z
M 2034 4750 
Q 2819 4750 3233 4129 
Q 3647 3509 3647 2328 
Q 3647 1150 3233 529 
Q 2819 -91 2034 -91 
Q 1250 -91 836 529 
Q 422 1150 422 2328 
Q 422 3509 836 4129 
Q 1250 4750 2034 4750 
z
" transform="scale(0.015625)"/>
       </defs>
       <use xlink:href="#DejaVuSans-30"/>
      </g>
     </g>
    </g>
    <g id="xtick_2">
     <g id="line2d_2">
      <g>
       <use xlink:href="#maeced05e40" x="117.12" y="307.584" style="stroke: #000000; stroke-width: 0.8"/>
      </g>
     </g>
     <g id="text_2">
      <!-- 50 -->
      <g transform="translate(110.7575 322.182437) scale(0.1 -0.1)">
       <defs>
        <path id="DejaVuSans-35" d="M 691 4666 
L 3169 4666 
L 3169 4134 
L 1269 4134 
L 1269 2991 
Q 1406 3038 1543 3061 
Q 1681 3084 1819 3084 
Q 2600 3084 3056 2656 
Q 3513 2228 3513 1497 
Q 3513 744 3044 326 
Q 2575 -91 1722 -91 
Q 1428 -91 1123 -41 
Q 819 9 494 109 
L 494 744 
Q 775 591 1075 516 
Q 1375 441 1709 441 
Q 2250 441 2565 725 
Q 2881 1009 2881 1497 
Q 2881 1984 2565 2268 
Q 2250 2553 1709 2553 
Q 1456 2553 1204 2497 
Q 953 2441 691 2322 
L 691 4666 
z
" transform="scale(0.015625)"/>
       </defs>
       <use xlink:href="#DejaVuSans-35"/>
       <use xlink:href="#DejaVuSans-30" x="63.623047"/>
      </g>
     </g>
    </g>
    <g id="xtick_3">
     <g id="line2d_3">
      <g>
       <use xlink:href="#maeced05e40" x="176.64" y="307.584" style="stroke: #000000; stroke-width: 0.8"/>
      </g>
     </g>
     <g id="text_3">
      <!-- 100 -->
      <g transform="translate(167.09625 322.182437) scale(0.1 -0.1)">
       <defs>
        <path id="DejaVuSans-31" d="M 794 531 
L 1825 531 
L 1825 4091 
L 703 3866 
L 703 4441 
L 1819 4666 
L 2450 4666 
L 2450 531 
L 3481 531 
L 3481 0 
L 794 0 
L 794 531 
z
" transform="scale(0.015625)"/>
       </defs>
       <use xlink:href="#DejaVuSans-31"/>
       <use xlink:href="#DejaVuSans-30" x="63.623047"/>
       <use xlink:href="#DejaVuSans-30" x="127.246094"/>
      </g>
     </g>
    </g>
    <g id="xtick_4">
     <g id="line2d_4">
      <g>
       <use xlink:href="#maeced05e40" x="236.16" y="307.584" style="stroke: #000000; stroke-width: 0.8"/>
      </g>
     </g>
     <g id="text_4">
      <!-- 150 -->
      <g transform="translate(226.61625 322.182437) scale(0.1 -0.1)">
       <use xlink:href="#DejaVuSans-31"/>
       <use xlink:href="#DejaVuSans-35" x="63.623047"/>
       <use xlink:href="#DejaVuSans-30" x="127.246094"/>
      </g>
     </g>
    </g>
    <g id="xtick_5">
     <g id="line2d_5">
      <g>
       <use xlink:href="#maeced05e40" x="295.68" y="307.584" style="stroke: #000000; stroke-width: 0.8"/>
      </g>
     </g>
     <g id="text_5">
      <!-- 200 -->
      <g transform="translate(286.13625 322.182437) scale(0.1 -0.1)">
       <defs>
        <path id="DejaVuSans-32" d="M 1228 531 
L 3431 531 
L 3431 0 
L 469 0 
L 469 531 
Q 828 903 1448 1529 
Q 2069 2156 2228 2338 
Q 2531 2678 2651 2914 
Q 2772 3150 2772 3378 
Q 2772 3750 2511 3984 
Q 2250 4219 1831 4219 
Q 1534 4219 1204 4116 
Q 875 4013 500 3803 
L 500 4441 
Q 881 4594 1212 4672 
Q 1544 4750 1819 4750 
Q 2544 4750 2975 4387 
Q 3406 4025 3406 3419 
Q 3406 3131 3298 2873 
Q 3191 2616 2906 2266 
Q 2828 2175 2409 1742 
Q 1991 1309 1228 531 
z
" transform="scale(0.015625)"/>
       </defs>
       <use xlink:href="#DejaVuSans-32"/>
       <use xlink:href="#DejaVuSans-30" x="63.623047"/>
       <use xlink:href="#DejaVuSans-30" x="127.246094"/>
      </g>
     </g>
    </g>
    <g id="xtick_6">
     <g id="line2d_6">
      <g>
       <use xlink:href="#maeced05e40" x="355.2" y="307.584" style="stroke: #000000; stroke-width: 0.8"/>
      </g>
     </g>
     <g id="text_6">
      <!-- 250 -->
      <g transform="translate(345.65625 322.182437) scale(0.1 -0.1)">
       <use xlink:href="#DejaVuSans-32"/>
       <use xlink:href="#DejaVuSans-35" x="63.623047"/>
       <use xlink:href="#DejaVuSans-30" x="127.246094"/>
      </g>
     </g>
    </g>
    <g id="xtick_7">
     <g id="line2d_7">
      <g>
       <use xlink:href="#maeced05e40" x="414.72" y="307.584" style="stroke: #000000; stroke-width: 0.8"/>
      </g>
     </g>
     <g id="text_7">
      <!-- 300 -->
      <g transform="translate(405.17625 322.182437) scale(0.1 -0.1)">
       <defs>
        <path id="DejaVuSans-33" d="M 2597 2516 
Q 3050 2419 3304 2112 
Q 3559 1806 3559 1356 
Q 3559 666 3084 287 
Q 2609 -91 1734 -91 
Q 1441 -91 1130 -33 
Q 819 25 488 141 
L 488 750 
Q 750 597 1062 519 
Q 1375 441 1716 441 
Q 2309 441 2620 675 
Q 2931 909 2931 1356 
Q 2931 1769 2642 2001 
Q 2353 2234 1838 2234 
L 1294 2234 
L 1294 2753 
L 1863 2753 
Q 2328 2753 2575 2939 
Q 2822 3125 2822 3475 
Q 2822 3834 2567 4026 
Q 2313 4219 1838 4219 
Q 1578 4219 1281 4162 
Q 984 4106 628 3988 
L 628 4550 
Q 988 4650 1302 4700 
Q 1616 4750 1894 4750 
Q 2613 4750 3031 4423 
Q 3450 4097 3450 3541 
Q 3450 3153 3228 2886 
Q 3006 2619 2597 2516 
z
" transform="scale(0.015625)"/>
       </defs>
       <use xlink:href="#DejaVuSans-33"/>
       <use xlink:href="#DejaVuSans-30" x="63.623047"/>
       <use xlink:href="#DejaVuSans-30" x="127.246094"/>
      </g>
     </g>
    </g>
    <g id="text_8">
     <!-- cumulativa CO2 [Tons] -->
     <g transform="translate(145.7475 340.419625) scale(0.16 -0.16)">
      <defs>
       <path id="DejaVuSans-63" d="M 3122 3366 
L 3122 2828 
Q 2878 2963 2633 3030 
Q 2388 3097 2138 3097 
Q 1578 3097 1268 2742 
Q 959 2388 959 1747 
Q 959 1106 1268 751 
Q 1578 397 2138 397 
Q 2388 397 2633 464 
Q 2878 531 3122 666 
L 3122 134 
Q 2881 22 2623 -34 
Q 2366 -91 2075 -91 
Q 1284 -91 818 406 
Q 353 903 353 1747 
Q 353 2603 823 3093 
Q 1294 3584 2113 3584 
Q 2378 3584 2631 3529 
Q 2884 3475 3122 3366 
z
" transform="scale(0.015625)"/>
       <path id="DejaVuSans-75" d="M 544 1381 
L 544 3500 
L 1119 3500 
L 1119 1403 
Q 1119 906 1312 657 
Q 1506 409 1894 409 
Q 2359 409 2629 706 
Q 2900 1003 2900 1516 
L 2900 3500 
L 3475 3500 
L 3475 0 
L 2900 0 
L 2900 538 
Q 2691 219 2414 64 
Q 2138 -91 1772 -91 
Q 1169 -91 856 284 
Q 544 659 544 1381 
z
M 1991 3584 
L 1991 3584 
z
" transform="scale(0.015625)"/>
       <path id="DejaVuSans-6d" d="M 3328 2828 
Q 3544 3216 3844 3400 
Q 4144 3584 4550 3584 
Q 5097 3584 5394 3201 
Q 5691 2819 5691 2113 
L 5691 0 
L 5113 0 
L 5113 2094 
Q 5113 2597 4934 2840 
Q 4756 3084 4391 3084 
Q 3944 3084 3684 2787 
Q 3425 2491 3425 1978 
L 3425 0 
L 2847 0 
L 2847 2094 
Q 2847 2600 2669 2842 
Q 2491 3084 2119 3084 
Q 1678 3084 1418 2786 
Q 1159 2488 1159 1978 
L 1159 0 
L 581 0 
L 581 3500 
L 1159 3500 
L 1159 2956 
Q 1356 3278 1631 3431 
Q 1906 3584 2284 3584 
Q 2666 3584 2933 3390 
Q 3200 3197 3328 2828 
z
" transform="scale(0.015625)"/>
       <path id="DejaVuSans-6c" d="M 603 4863 
L 1178 4863 
L 1178 0 
L 603 0 
L 603 4863 
z
" transform="scale(0.015625)"/>
       <path id="DejaVuSans-61" d="M 2194 1759 
Q 1497 1759 1228 1600 
Q 959 1441 959 1056 
Q 959 750 1161 570 
Q 1363 391 1709 391 
Q 2188 391 2477 730 
Q 2766 1069 2766 1631 
L 2766 1759 
L 2194 1759 
z
M 3341 1997 
L 3341 0 
L 2766 0 
L 2766 531 
Q 2569 213 2275 61 
Q 1981 -91 1556 -91 
Q 1019 -91 701 211 
Q 384 513 384 1019 
Q 384 1609 779 1909 
Q 1175 2209 1959 2209 
L 2766 2209 
L 2766 2266 
Q 2766 2663 2505 2880 
Q 2244 3097 1772 3097 
Q 1472 3097 1187 3025 
Q 903 2953 641 2809 
L 641 3341 
Q 956 3463 1253 3523 
Q 1550 3584 1831 3584 
Q 2591 3584 2966 3190 
Q 3341 2797 3341 1997 
z
" transform="scale(0.015625)"/>
       <path id="DejaVuSans-74" d="M 1172 4494 
L 1172 3500 
L 2356 3500 
L 2356 3053 
L 1172 3053 
L 1172 1153 
Q 1172 725 1289 603 
Q 1406 481 1766 481 
L 2356 481 
L 2356 0 
L 1766 0 
Q 1100 0 847 248 
Q 594 497 594 1153 
L 594 3053 
L 172 3053 
L 172 3500 
L 594 3500 
L 594 4494 
L 1172 4494 
z
" transform="scale(0.015625)"/>
       <path id="DejaVuSans-69" d="M 603 3500 
L 1178 3500 
L 1178 0 
L 603 0 
L 603 3500 
z
M 603 4863 
L 1178 4863 
L 1178 4134 
L 603 4134 
L 603 4863 
z
" transform="scale(0.015625)"/>
       <path id="DejaVuSans-76" d="M 191 3500 
L 800 3500 
L 1894 563 
L 2988 3500 
L 3597 3500 
L 2284 0 
L 1503 0 
L 191 3500 
z
" transform="scale(0.015625)"/>
       <path id="DejaVuSans-20" transform="scale(0.015625)"/>
       <path id="DejaVuSans-43" d="M 4122 4306 
L 4122 3641 
Q 3803 3938 3442 4084 
Q 3081 4231 2675 4231 
Q 1875 4231 1450 3742 
Q 1025 3253 1025 2328 
Q 1025 1406 1450 917 
Q 1875 428 2675 428 
Q 3081 428 3442 575 
Q 3803 722 4122 1019 
L 4122 359 
Q 3791 134 3420 21 
Q 3050 -91 2638 -91 
Q 1578 -91 968 557 
Q 359 1206 359 2328 
Q 359 3453 968 4101 
Q 1578 4750 2638 4750 
Q 3056 4750 3426 4639 
Q 3797 4528 4122 4306 
z
" transform="scale(0.015625)"/>
       <path id="DejaVuSans-4f" d="M 2522 4238 
Q 1834 4238 1429 3725 
Q 1025 3213 1025 2328 
Q 1025 1447 1429 934 
Q 1834 422 2522 422 
Q 3209 422 3611 934 
Q 4013 1447 4013 2328 
Q 4013 3213 3611 3725 
Q 3209 4238 2522 4238 
z
M 2522 4750 
Q 3503 4750 4090 4092 
Q 4678 3434 4678 2328 
Q 4678 1225 4090 567 
Q 3503 -91 2522 -91 
Q 1538 -91 948 565 
Q 359 1222 359 2328 
Q 359 3434 948 4092 
Q 1538 4750 2522 4750 
z
" transform="scale(0.015625)"/>
       <path id="DejaVuSans-5b" d="M 550 4863 
L 1875 4863 
L 1875 4416 
L 1125 4416 
L 1125 -397 
L 1875 -397 
L 1875 -844 
L 550 -844 
L 550 4863 
z
" transform="scale(0.015625)"/>
       <path id="DejaVuSans-54" d="M -19 4666 
L 3928 4666 
L 3928 4134 
L 2272 4134 
L 2272 0 
L 1638 0 
L 1638 4134 
L -19 4134 
L -19 4666 
z
" transform="scale(0.015625)"/>
       <path id="DejaVuSans-6f" d="M 1959 3097 
Q 1497 3097 1228 2736 
Q 959 2375 959 1747 
Q 959 1119 1226 758 
Q 1494 397 1959 397 
Q 2419 397 2687 759 
Q 2956 1122 2956 1747 
Q 2956 2369 2687 2733 
Q 2419 3097 1959 3097 
z
M 1959 3584 
Q 2709 3584 3137 3096 
Q 3566 2609 3566 1747 
Q 3566 888 3137 398 
Q 2709 -91 1959 -91 
Q 1206 -91 779 398 
Q 353 888 353 1747 
Q 353 2609 779 3096 
Q 1206 3584 1959 3584 
z
" transform="scale(0.015625)"/>
       <path id="DejaVuSans-6e" d="M 3513 2113 
L 3513 0 
L 2938 0 
L 2938 2094 
Q 2938 2591 2744 2837 
Q 2550 3084 2163 3084 
Q 1697 3084 1428 2787 
Q 1159 2491 1159 1978 
L 1159 0 
L 581 0 
L 581 3500 
L 1159 3500 
L 1159 2956 
Q 1366 3272 1645 3428 
Q 1925 3584 2291 3584 
Q 2894 3584 3203 3211 
Q 3513 2838 3513 2113 
z
" transform="scale(0.015625)"/>
       <path id="DejaVuSans-73" d="M 2834 3397 
L 2834 2853 
Q 2591 2978 2328 3040 
Q 2066 3103 1784 3103 
Q 1356 3103 1142 2972 
Q 928 2841 928 2578 
Q 928 2378 1081 2264 
Q 1234 2150 1697 2047 
L 1894 2003 
Q 2506 1872 2764 1633 
Q 3022 1394 3022 966 
Q 3022 478 2636 193 
Q 2250 -91 1575 -91 
Q 1294 -91 989 -36 
Q 684 19 347 128 
L 347 722 
Q 666 556 975 473 
Q 1284 391 1588 391 
Q 1994 391 2212 530 
Q 2431 669 2431 922 
Q 2431 1156 2273 1281 
Q 2116 1406 1581 1522 
L 1381 1569 
Q 847 1681 609 1914 
Q 372 2147 372 2553 
Q 372 3047 722 3315 
Q 1072 3584 1716 3584 
Q 2034 3584 2315 3537 
Q 2597 3491 2834 3397 
z
" transform="scale(0.015625)"/>
       <path id="DejaVuSans-5d" d="M 1947 4863 
L 1947 -844 
L 622 -844 
L 622 -397 
L 1369 -397 
L 1369 4416 
L 622 4416 
L 622 4863 
L 1947 4863 
z
" transform="scale(0.015625)"/>
      </defs>
      <use xlink:href="#DejaVuSans-63"/>
      <use xlink:href="#DejaVuSans-75" x="54.980469"/>
      <use xlink:href="#DejaVuSans-6d" x="118.359375"/>
      <use xlink:href="#DejaVuSans-75" x="215.771484"/>
      <use xlink:href="#DejaVuSans-6c" x="279.150391"/>
      <use xlink:href="#DejaVuSans-61" x="306.933594"/>
      <use xlink:href="#DejaVuSans-74" x="368.212891"/>
      <use xlink:href="#DejaVuSans-69" x="407.421875"/>
      <use xlink:href="#DejaVuSans-76" x="435.205078"/>
      <use xlink:href="#DejaVuSans-61" x="494.384766"/>
      <use xlink:href="#DejaVuSans-20" x="555.664062"/>
      <use xlink:href="#DejaVuSans-43" x="587.451172"/>
      <use xlink:href="#DejaVuSans-4f" x="657.275391"/>
      <use xlink:href="#DejaVuSans-32" x="735.986328"/>
      <use xlink:href="#DejaVuSans-20" x="799.609375"/>
      <use xlink:href="#DejaVuSans-5b" x="831.396484"/>
      <use xlink:href="#DejaVuSans-54" x="870.410156"/>
      <use xlink:href="#DejaVuSans-6f" x="914.494141"/>
      <use xlink:href="#DejaVuSans-6e" x="975.675781"/>
      <use xlink:href="#DejaVuSans-73" x="1039.054688"/>
      <use xlink:href="#DejaVuSans-5d" x="1091.154297"/>
     </g>
    </g>
   </g>
   <g id="matplotlib.axis_2">
    <g id="ytick_1">
     <g id="line2d_8">
      <defs>
       <path id="macded65d59" d="M 0 0 
L -3.5 0 
" style="stroke: #000000; stroke-width: 0.8"/>
      </defs>
      <g>
       <use xlink:href="#macded65d59" x="57.6" y="276.755983" style="stroke: #000000; stroke-width: 0.8"/>
      </g>
     </g>
     <g id="text_9">
      <!-- 0.0 -->
      <g transform="translate(34.696875 280.555202) scale(0.1 -0.1)">
       <defs>
        <path id="DejaVuSans-2e" d="M 684 794 
L 1344 794 
L 1344 0 
L 684 0 
L 684 794 
z
" transform="scale(0.015625)"/>
       </defs>
       <use xlink:href="#DejaVuSans-30"/>
       <use xlink:href="#DejaVuSans-2e" x="63.623047"/>
       <use xlink:href="#DejaVuSans-30" x="95.410156"/>
      </g>
     </g>
    </g>
    <g id="ytick_2">
     <g id="line2d_9">
      <g>
       <use xlink:href="#macded65d59" x="57.6" y="243.164614" style="stroke: #000000; stroke-width: 0.8"/>
      </g>
     </g>
     <g id="text_10">
      <!-- 0.2 -->
      <g transform="translate(34.696875 246.963833) scale(0.1 -0.1)">
       <use xlink:href="#DejaVuSans-30"/>
       <use xlink:href="#DejaVuSans-2e" x="63.623047"/>
       <use xlink:href="#DejaVuSans-32" x="95.410156"/>
      </g>
     </g>
    </g>
    <g id="ytick_3">
     <g id="line2d_10">
      <g>
       <use xlink:href="#macded65d59" x="57.6" y="209.573245" style="stroke: #000000; stroke-width: 0.8"/>
      </g>
     </g>
     <g id="text_11">
      <!-- 0.4 -->
      <g transform="translate(34.696875 213.372464) scale(0.1 -0.1)">
       <defs>
        <path id="DejaVuSans-34" d="M 2419 4116 
L 825 1625 
L 2419 1625 
L 2419 4116 
z
M 2253 4666 
L 3047 4666 
L 3047 1625 
L 3713 1625 
L 3713 1100 
L 3047 1100 
L 3047 0 
L 2419 0 
L 2419 1100 
L 313 1100 
L 313 1709 
L 2253 4666 
z
" transform="scale(0.015625)"/>
       </defs>
       <use xlink:href="#DejaVuSans-30"/>
       <use xlink:href="#DejaVuSans-2e" x="63.623047"/>
       <use xlink:href="#DejaVuSans-34" x="95.410156"/>
      </g>
     </g>
    </g>
    <g id="ytick_4">
     <g id="line2d_11">
      <g>
       <use xlink:href="#macded65d59" x="57.6" y="175.981876" style="stroke: #000000; stroke-width: 0.8"/>
      </g>
     </g>
     <g id="text_12">
      <!-- 0.6 -->
      <g transform="translate(34.696875 179.781095) scale(0.1 -0.1)">
       <defs>
        <path id="DejaVuSans-36" d="M 2113 2584 
Q 1688 2584 1439 2293 
Q 1191 2003 1191 1497 
Q 1191 994 1439 701 
Q 1688 409 2113 409 
Q 2538 409 2786 701 
Q 3034 994 3034 1497 
Q 3034 2003 2786 2293 
Q 2538 2584 2113 2584 
z
M 3366 4563 
L 3366 3988 
Q 3128 4100 2886 4159 
Q 2644 4219 2406 4219 
Q 1781 4219 1451 3797 
Q 1122 3375 1075 2522 
Q 1259 2794 1537 2939 
Q 1816 3084 2150 3084 
Q 2853 3084 3261 2657 
Q 3669 2231 3669 1497 
Q 3669 778 3244 343 
Q 2819 -91 2113 -91 
Q 1303 -91 875 529 
Q 447 1150 447 2328 
Q 447 3434 972 4092 
Q 1497 4750 2381 4750 
Q 2619 4750 2861 4703 
Q 3103 4656 3366 4563 
z
" transform="scale(0.015625)"/>
       </defs>
       <use xlink:href="#DejaVuSans-30"/>
       <use xlink:href="#DejaVuSans-2e" x="63.623047"/>
       <use xlink:href="#DejaVuSans-36" x="95.410156"/>
      </g>
     </g>
    </g>
    <g id="ytick_5">
     <g id="line2d_12">
      <g>
       <use xlink:href="#macded65d59" x="57.6" y="142.390508" style="stroke: #000000; stroke-width: 0.8"/>
      </g>
     </g>
     <g id="text_13">
      <!-- 0.8 -->
      <g transform="translate(34.696875 146.189726) scale(0.1 -0.1)">
       <defs>
        <path id="DejaVuSans-38" d="M 2034 2216 
Q 1584 2216 1326 1975 
Q 1069 1734 1069 1313 
Q 1069 891 1326 650 
Q 1584 409 2034 409 
Q 2484 409 2743 651 
Q 3003 894 3003 1313 
Q 3003 1734 2745 1975 
Q 2488 2216 2034 2216 
z
M 1403 2484 
Q 997 2584 770 2862 
Q 544 3141 544 3541 
Q 544 4100 942 4425 
Q 1341 4750 2034 4750 
Q 2731 4750 3128 4425 
Q 3525 4100 3525 3541 
Q 3525 3141 3298 2862 
Q 3072 2584 2669 2484 
Q 3125 2378 3379 2068 
Q 3634 1759 3634 1313 
Q 3634 634 3220 271 
Q 2806 -91 2034 -91 
Q 1263 -91 848 271 
Q 434 634 434 1313 
Q 434 1759 690 2068 
Q 947 2378 1403 2484 
z
M 1172 3481 
Q 1172 3119 1398 2916 
Q 1625 2713 2034 2713 
Q 2441 2713 2670 2916 
Q 2900 3119 2900 3481 
Q 2900 3844 2670 4047 
Q 2441 4250 2034 4250 
Q 1625 4250 1398 4047 
Q 1172 3844 1172 3481 
z
" transform="scale(0.015625)"/>
       </defs>
       <use xlink:href="#DejaVuSans-30"/>
       <use xlink:href="#DejaVuSans-2e" x="63.623047"/>
       <use xlink:href="#DejaVuSans-38" x="95.410156"/>
      </g>
     </g>
    </g>
    <g id="ytick_6">
     <g id="line2d_13">
      <g>
       <use xlink:href="#macded65d59" x="57.6" y="108.799139" style="stroke: #000000; stroke-width: 0.8"/>
      </g>
     </g>
     <g id="text_14">
      <!-- 1.0 -->
      <g transform="translate(34.696875 112.598357) scale(0.1 -0.1)">
       <use xlink:href="#DejaVuSans-31"/>
       <use xlink:href="#DejaVuSans-2e" x="63.623047"/>
       <use xlink:href="#DejaVuSans-30" x="95.410156"/>
      </g>
     </g>
    </g>
    <g id="ytick_7">
     <g id="line2d_14">
      <g>
       <use xlink:href="#macded65d59" x="57.6" y="75.20777" style="stroke: #000000; stroke-width: 0.8"/>
      </g>
     </g>
     <g id="text_15">
      <!-- 1.2 -->
      <g transform="translate(34.696875 79.006989) scale(0.1 -0.1)">
       <use xlink:href="#DejaVuSans-31"/>
       <use xlink:href="#DejaVuSans-2e" x="63.623047"/>
       <use xlink:href="#DejaVuSans-32" x="95.410156"/>
      </g>
     </g>
    </g>
    <g id="ytick_8">
     <g id="line2d_15">
      <g>
       <use xlink:href="#macded65d59" x="57.6" y="41.616401" style="stroke: #000000; stroke-width: 0.8"/>
      </g>
     </g>
     <g id="text_16">
      <!-- 1.4 -->
      <g transform="translate(34.696875 45.41562) scale(0.1 -0.1)">
       <use xlink:href="#DejaVuSans-31"/>
       <use xlink:href="#DejaVuSans-2e" x="63.623047"/>
       <use xlink:href="#DejaVuSans-34" x="95.410156"/>
      </g>
     </g>
    </g>
    <g id="text_17">
     <!-- temperatura [°C] -->
     <g transform="translate(27.369375 243.3405) rotate(-90) scale(0.16 -0.16)">
      <defs>
       <path id="DejaVuSans-65" d="M 3597 1894 
L 3597 1613 
L 953 1613 
Q 991 1019 1311 708 
Q 1631 397 2203 397 
Q 2534 397 2845 478 
Q 3156 559 3463 722 
L 3463 178 
Q 3153 47 2828 -22 
Q 2503 -91 2169 -91 
Q 1331 -91 842 396 
Q 353 884 353 1716 
Q 353 2575 817 3079 
Q 1281 3584 2069 3584 
Q 2775 3584 3186 3129 
Q 3597 2675 3597 1894 
z
M 3022 2063 
Q 3016 2534 2758 2815 
Q 2500 3097 2075 3097 
Q 1594 3097 1305 2825 
Q 1016 2553 972 2059 
L 3022 2063 
z
" transform="scale(0.015625)"/>
       <path id="DejaVuSans-70" d="M 1159 525 
L 1159 -1331 
L 581 -1331 
L 581 3500 
L 1159 3500 
L 1159 2969 
Q 1341 3281 1617 3432 
Q 1894 3584 2278 3584 
Q 2916 3584 3314 3078 
Q 3713 2572 3713 1747 
Q 3713 922 3314 415 
Q 2916 -91 2278 -91 
Q 1894 -91 1617 61 
Q 1341 213 1159 525 
z
M 3116 1747 
Q 3116 2381 2855 2742 
Q 2594 3103 2138 3103 
Q 1681 3103 1420 2742 
Q 1159 2381 1159 1747 
Q 1159 1113 1420 752 
Q 1681 391 2138 391 
Q 2594 391 2855 752 
Q 3116 1113 3116 1747 
z
" transform="scale(0.015625)"/>
       <path id="DejaVuSans-72" d="M 2631 2963 
Q 2534 3019 2420 3045 
Q 2306 3072 2169 3072 
Q 1681 3072 1420 2755 
Q 1159 2438 1159 1844 
L 1159 0 
L 581 0 
L 581 3500 
L 1159 3500 
L 1159 2956 
Q 1341 3275 1631 3429 
Q 1922 3584 2338 3584 
Q 2397 3584 2469 3576 
Q 2541 3569 2628 3553 
L 2631 2963 
z
" transform="scale(0.015625)"/>
       <path id="DejaVuSans-b0" d="M 1600 4347 
Q 1350 4347 1178 4173 
Q 1006 4000 1006 3750 
Q 1006 3503 1178 3333 
Q 1350 3163 1600 3163 
Q 1850 3163 2022 3333 
Q 2194 3503 2194 3750 
Q 2194 3997 2020 4172 
Q 1847 4347 1600 4347 
z
M 1600 4750 
Q 1800 4750 1984 4673 
Q 2169 4597 2303 4453 
Q 2447 4313 2519 4134 
Q 2591 3956 2591 3750 
Q 2591 3338 2302 3052 
Q 2013 2766 1594 2766 
Q 1172 2766 890 3047 
Q 609 3328 609 3750 
Q 609 4169 896 4459 
Q 1184 4750 1600 4750 
z
" transform="scale(0.015625)"/>
      </defs>
      <use xlink:href="#DejaVuSans-74"/>
      <use xlink:href="#DejaVuSans-65" x="39.208984"/>
      <use xlink:href="#DejaVuSans-6d" x="100.732422"/>
      <use xlink:href="#DejaVuSans-70" x="198.144531"/>
      <use xlink:href="#DejaVuSans-65" x="261.621094"/>
      <use xlink:href="#DejaVuSans-72" x="323.144531"/>
      <use xlink:href="#DejaVuSans-61" x="364.257812"/>
      <use xlink:href="#DejaVuSans-74" x="425.537109"/>
      <use xlink:href="#DejaVuSans-75" x="464.746094"/>
      <use xlink:href="#DejaVuSans-72" x="528.125"/>
      <use xlink:href="#DejaVuSans-61" x="569.238281"/>
      <use xlink:href="#DejaVuSans-20" x="630.517578"/>
      <use xlink:href="#DejaVuSans-5b" x="662.304688"/>
      <use xlink:href="#DejaVuSans-b0" x="701.318359"/>
      <use xlink:href="#DejaVuSans-43" x="751.318359"/>
      <use xlink:href="#DejaVuSans-5d" x="821.142578"/>
     </g>
    </g>
   </g>
   <g id="line2d_16">
    <defs>
     <path id="m6cb7d90590" d="M -4 4 
L 4 -4 
M -4 -4 
L 4 4 
" style="stroke: #cd5c5c"/>
    </defs>
    <g clip-path="url(#p9ca5510d65)">
     <use xlink:href="#m6cb7d90590" x="51.232587" y="295.278054" style="fill: #cd5c5c; stroke: #cd5c5c"/>
     <use xlink:href="#m6cb7d90590" x="51.066472" y="274.594169" style="fill: #cd5c5c; stroke: #cd5c5c"/>
     <use xlink:href="#m6cb7d90590" x="51.022301" y="287.521807" style="fill: #cd5c5c; stroke: #cd5c5c"/>
     <use xlink:href="#m6cb7d90590" x="51.152614" y="274.78396" style="fill: #cd5c5c; stroke: #cd5c5c"/>
     <use xlink:href="#m6cb7d90590" x="51.276276" y="280.272789" style="fill: #cd5c5c; stroke: #cd5c5c"/>
     <use xlink:href="#m6cb7d90590" x="51.340733" y="271.742261" style="fill: #cd5c5c; stroke: #cd5c5c"/>
     <use xlink:href="#m6cb7d90590" x="51.379949" y="294.24344" style="fill: #cd5c5c; stroke: #cd5c5c"/>
     <use xlink:href="#m6cb7d90590" x="51.55214" y="293.378462" style="fill: #cd5c5c; stroke: #cd5c5c"/>
     <use xlink:href="#m6cb7d90590" x="51.834172" y="282.303388" style="fill: #cd5c5c; stroke: #cd5c5c"/>
     <use xlink:href="#m6cb7d90590" x="52.221702" y="290.335084" style="fill: #cd5c5c; stroke: #cd5c5c"/>
     <use xlink:href="#m6cb7d90590" x="52.490354" y="274.639517" style="fill: #cd5c5c; stroke: #cd5c5c"/>
     <use xlink:href="#m6cb7d90590" x="52.634184" y="269.290091" style="fill: #cd5c5c; stroke: #cd5c5c"/>
     <use xlink:href="#m6cb7d90590" x="52.808263" y="273.957612" style="fill: #cd5c5c; stroke: #cd5c5c"/>
     <use xlink:href="#m6cb7d90590" x="52.934949" y="280.50457" style="fill: #cd5c5c; stroke: #cd5c5c"/>
     <use xlink:href="#m6cb7d90590" x="52.939642" y="280.795135" style="fill: #cd5c5c; stroke: #cd5c5c"/>
     <use xlink:href="#m6cb7d90590" x="52.69392" y="265.803307" style="fill: #cd5c5c; stroke: #cd5c5c"/>
     <use xlink:href="#m6cb7d90590" x="52.570238" y="263.314187" style="fill: #cd5c5c; stroke: #cd5c5c"/>
     <use xlink:href="#m6cb7d90590" x="52.38738" y="266.963889" style="fill: #cd5c5c; stroke: #cd5c5c"/>
     <use xlink:href="#m6cb7d90590" x="52.32656" y="268.949139" style="fill: #cd5c5c; stroke: #cd5c5c"/>
     <use xlink:href="#m6cb7d90590" x="52.428343" y="266.285343" style="fill: #cd5c5c; stroke: #cd5c5c"/>
     <use xlink:href="#m6cb7d90590" x="52.600205" y="271.231673" style="fill: #cd5c5c; stroke: #cd5c5c"/>
     <use xlink:href="#m6cb7d90590" x="52.76368" y="272.931396" style="fill: #cd5c5c; stroke: #cd5c5c"/>
     <use xlink:href="#m6cb7d90590" x="52.889116" y="281.823031" style="fill: #cd5c5c; stroke: #cd5c5c"/>
     <use xlink:href="#m6cb7d90590" x="53.182124" y="278.218677" style="fill: #cd5c5c; stroke: #cd5c5c"/>
     <use xlink:href="#m6cb7d90590" x="53.420623" y="266.866474" style="fill: #cd5c5c; stroke: #cd5c5c"/>
     <use xlink:href="#m6cb7d90590" x="53.80724" y="281.068905" style="fill: #cd5c5c; stroke: #cd5c5c"/>
     <use xlink:href="#m6cb7d90590" x="54.041345" y="287.402558" style="fill: #cd5c5c; stroke: #cd5c5c"/>
     <use xlink:href="#m6cb7d90590" x="54.064163" y="293.591767" style="fill: #cd5c5c; stroke: #cd5c5c"/>
     <use xlink:href="#m6cb7d90590" x="53.944934" y="255.425254" style="fill: #cd5c5c; stroke: #cd5c5c"/>
     <use xlink:href="#m6cb7d90590" x="53.842104" y="264.644405" style="fill: #cd5c5c; stroke: #cd5c5c"/>
     <use xlink:href="#m6cb7d90590" x="53.937292" y="267.136885" style="fill: #cd5c5c; stroke: #cd5c5c"/>
     <use xlink:href="#m6cb7d90590" x="54.145479" y="251.320389" style="fill: #cd5c5c; stroke: #cd5c5c"/>
     <use xlink:href="#m6cb7d90590" x="54.631243" y="254.530044" style="fill: #cd5c5c; stroke: #cd5c5c"/>
     <use xlink:href="#m6cb7d90590" x="55.460078" y="264.54699" style="fill: #cd5c5c; stroke: #cd5c5c"/>
     <use xlink:href="#m6cb7d90590" x="56.21405" y="290.486245" style="fill: #cd5c5c; stroke: #cd5c5c"/>
     <use xlink:href="#m6cb7d90590" x="57.6" y="268.457025" style="fill: #cd5c5c; stroke: #cd5c5c"/>
     <use xlink:href="#m6cb7d90590" x="59.087997" y="294.550801" style="fill: #cd5c5c; stroke: #cd5c5c"/>
     <use xlink:href="#m6cb7d90590" x="60.388693" y="294.853123" style="fill: #cd5c5c; stroke: #cd5c5c"/>
     <use xlink:href="#m6cb7d90590" x="61.422535" y="292.196046" style="fill: #cd5c5c; stroke: #cd5c5c"/>
     <use xlink:href="#m6cb7d90590" x="62.451052" y="284.001431" style="fill: #cd5c5c; stroke: #cd5c5c"/>
     <use xlink:href="#m6cb7d90590" x="63.652883" y="295.1756" style="fill: #cd5c5c; stroke: #cd5c5c"/>
     <use xlink:href="#m6cb7d90590" x="64.189721" y="276.329163" style="fill: #cd5c5c; stroke: #cd5c5c"/>
     <use xlink:href="#m6cb7d90590" x="65.338759" y="261.810973" style="fill: #cd5c5c; stroke: #cd5c5c"/>
     <use xlink:href="#m6cb7d90590" x="67.802812" y="209.114513" style="fill: #cd5c5c; stroke: #cd5c5c"/>
     <use xlink:href="#m6cb7d90590" x="68.810523" y="194.443483" style="fill: #cd5c5c; stroke: #cd5c5c"/>
     <use xlink:href="#m6cb7d90590" x="72.18068" y="231.088307" style="fill: #cd5c5c; stroke: #cd5c5c"/>
     <use xlink:href="#m6cb7d90590" x="76.238219" y="273.903866" style="fill: #cd5c5c; stroke: #cd5c5c"/>
     <use xlink:href="#m6cb7d90590" x="82.017831" y="295.488" style="fill: #cd5c5c; stroke: #cd5c5c"/>
     <use xlink:href="#m6cb7d90590" x="85.437813" y="259.363842" style="fill: #cd5c5c; stroke: #cd5c5c"/>
     <use xlink:href="#m6cb7d90590" x="89.17398" y="250.641843" style="fill: #cd5c5c; stroke: #cd5c5c"/>
     <use xlink:href="#m6cb7d90590" x="95.963582" y="193.968165" style="fill: #cd5c5c; stroke: #cd5c5c"/>
     <use xlink:href="#m6cb7d90590" x="101.572868" y="219.415306" style="fill: #cd5c5c; stroke: #cd5c5c"/>
     <use xlink:href="#m6cb7d90590" x="108.350955" y="249.956579" style="fill: #cd5c5c; stroke: #cd5c5c"/>
     <use xlink:href="#m6cb7d90590" x="113.130489" y="238.345722" style="fill: #cd5c5c; stroke: #cd5c5c"/>
     <use xlink:href="#m6cb7d90590" x="117.178402" y="225.930352" style="fill: #cd5c5c; stroke: #cd5c5c"/>
     <use xlink:href="#m6cb7d90590" x="121.726813" y="210.948602" style="fill: #cd5c5c; stroke: #cd5c5c"/>
     <use xlink:href="#m6cb7d90590" x="125.759083" y="206.873969" style="fill: #cd5c5c; stroke: #cd5c5c"/>
     <use xlink:href="#m6cb7d90590" x="129.843179" y="215.89829" style="fill: #cd5c5c; stroke: #cd5c5c"/>
     <use xlink:href="#m6cb7d90590" x="134.049415" y="207.327452" style="fill: #cd5c5c; stroke: #cd5c5c"/>
     <use xlink:href="#m6cb7d90590" x="138.647463" y="207.010014" style="fill: #cd5c5c; stroke: #cd5c5c"/>
     <use xlink:href="#m6cb7d90590" x="143.190343" y="214.484094" style="fill: #cd5c5c; stroke: #cd5c5c"/>
     <use xlink:href="#m6cb7d90590" x="147.479877" y="200.743544" style="fill: #cd5c5c; stroke: #cd5c5c"/>
     <use xlink:href="#m6cb7d90590" x="151.548409" y="200.91654" style="fill: #cd5c5c; stroke: #cd5c5c"/>
     <use xlink:href="#m6cb7d90590" x="155.953722" y="192.812622" style="fill: #cd5c5c; stroke: #cd5c5c"/>
     <use xlink:href="#m6cb7d90590" x="160.300935" y="178.984735" style="fill: #cd5c5c; stroke: #cd5c5c"/>
     <use xlink:href="#m6cb7d90590" x="165.588974" y="162.056365" style="fill: #cd5c5c; stroke: #cd5c5c"/>
     <use xlink:href="#m6cb7d90590" x="171.336397" y="138.715402" style="fill: #cd5c5c; stroke: #cd5c5c"/>
     <use xlink:href="#m6cb7d90590" x="176.981084" y="200.108667" style="fill: #cd5c5c; stroke: #cd5c5c"/>
     <use xlink:href="#m6cb7d90590" x="182.607869" y="193.009131" style="fill: #cd5c5c; stroke: #cd5c5c"/>
     <use xlink:href="#m6cb7d90590" x="188.684624" y="184.76245" style="fill: #cd5c5c; stroke: #cd5c5c"/>
     <use xlink:href="#m6cb7d90590" x="194.266498" y="177.887977" style="fill: #cd5c5c; stroke: #cd5c5c"/>
     <use xlink:href="#m6cb7d90590" x="199.306093" y="214.695719" style="fill: #cd5c5c; stroke: #cd5c5c"/>
     <use xlink:href="#m6cb7d90590" x="205.468539" y="205.866228" style="fill: #cd5c5c; stroke: #cd5c5c"/>
     <use xlink:href="#m6cb7d90590" x="210.738361" y="216.168701" style="fill: #cd5c5c; stroke: #cd5c5c"/>
     <use xlink:href="#m6cb7d90590" x="215.857581" y="215.221424" style="fill: #cd5c5c; stroke: #cd5c5c"/>
     <use xlink:href="#m6cb7d90590" x="221.04382" y="223.867842" style="fill: #cd5c5c; stroke: #cd5c5c"/>
     <use xlink:href="#m6cb7d90590" x="226.101984" y="212.418224" style="fill: #cd5c5c; stroke: #cd5c5c"/>
     <use xlink:href="#m6cb7d90590" x="230.58313" y="203.340157" style="fill: #cd5c5c; stroke: #cd5c5c"/>
     <use xlink:href="#m6cb7d90590" x="234.992425" y="181.861836" style="fill: #cd5c5c; stroke: #cd5c5c"/>
     <use xlink:href="#m6cb7d90590" x="238.829027" y="182.278369" style="fill: #cd5c5c; stroke: #cd5c5c"/>
     <use xlink:href="#m6cb7d90590" x="243.354304" y="135.473835" style="fill: #cd5c5c; stroke: #cd5c5c"/>
     <use xlink:href="#m6cb7d90590" x="248.152998" y="150.158302" style="fill: #cd5c5c; stroke: #cd5c5c"/>
     <use xlink:href="#m6cb7d90590" x="252.060484" y="156.130847" style="fill: #cd5c5c; stroke: #cd5c5c"/>
     <use xlink:href="#m6cb7d90590" x="255.952864" y="134.202401" style="fill: #cd5c5c; stroke: #cd5c5c"/>
     <use xlink:href="#m6cb7d90590" x="260.018553" y="146.260023" style="fill: #cd5c5c; stroke: #cd5c5c"/>
     <use xlink:href="#m6cb7d90590" x="264.346464" y="160.754699" style="fill: #cd5c5c; stroke: #cd5c5c"/>
     <use xlink:href="#m6cb7d90590" x="268.584592" y="156.8581" style="fill: #cd5c5c; stroke: #cd5c5c"/>
     <use xlink:href="#m6cb7d90590" x="274.539462" y="131.246361" style="fill: #cd5c5c; stroke: #cd5c5c"/>
     <use xlink:href="#m6cb7d90590" x="278.506457" y="168.971148" style="fill: #cd5c5c; stroke: #cd5c5c"/>
     <use xlink:href="#m6cb7d90590" x="282.587482" y="166.698692" style="fill: #cd5c5c; stroke: #cd5c5c"/>
     <use xlink:href="#m6cb7d90590" x="286.596335" y="182.165838" style="fill: #cd5c5c; stroke: #cd5c5c"/>
     <use xlink:href="#m6cb7d90590" x="290.522272" y="191.571421" style="fill: #cd5c5c; stroke: #cd5c5c"/>
     <use xlink:href="#m6cb7d90590" x="294.506454" y="165.669116" style="fill: #cd5c5c; stroke: #cd5c5c"/>
     <use xlink:href="#m6cb7d90590" x="298.508668" y="168.526062" style="fill: #cd5c5c; stroke: #cd5c5c"/>
     <use xlink:href="#m6cb7d90590" x="302.200791" y="162.004298" style="fill: #cd5c5c; stroke: #cd5c5c"/>
     <use xlink:href="#m6cb7d90590" x="305.933059" y="164.936824" style="fill: #cd5c5c; stroke: #cd5c5c"/>
     <use xlink:href="#m6cb7d90590" x="310.088036" y="153.027005" style="fill: #cd5c5c; stroke: #cd5c5c"/>
     <use xlink:href="#m6cb7d90590" x="314.299188" y="123.125648" style="fill: #cd5c5c; stroke: #cd5c5c"/>
     <use xlink:href="#m6cb7d90590" x="318.510143" y="116.600524" style="fill: #cd5c5c; stroke: #cd5c5c"/>
     <use xlink:href="#m6cb7d90590" x="322.892571" y="122.613379" style="fill: #cd5c5c; stroke: #cd5c5c"/>
     <use xlink:href="#m6cb7d90590" x="327.39174" y="124.660773" style="fill: #cd5c5c; stroke: #cd5c5c"/>
     <use xlink:href="#m6cb7d90590" x="331.924855" y="109.949433" style="fill: #cd5c5c; stroke: #cd5c5c"/>
     <use xlink:href="#m6cb7d90590" x="336.529812" y="122.383278" style="fill: #cd5c5c; stroke: #cd5c5c"/>
     <use xlink:href="#m6cb7d90590" x="341.20359" y="122.673844" style="fill: #cd5c5c; stroke: #cd5c5c"/>
     <use xlink:href="#m6cb7d90590" x="345.822365" y="95.896484" style="fill: #cd5c5c; stroke: #cd5c5c"/>
     <use xlink:href="#m6cb7d90590" x="350.125031" y="119.138352" style="fill: #cd5c5c; stroke: #cd5c5c"/>
     <use xlink:href="#m6cb7d90590" x="354.53625" y="80.38231" style="fill: #cd5c5c; stroke: #cd5c5c"/>
     <use xlink:href="#m6cb7d90590" x="358.950007" y="101.082991" style="fill: #cd5c5c; stroke: #cd5c5c"/>
     <use xlink:href="#m6cb7d90590" x="363.36858" y="83.489512" style="fill: #cd5c5c; stroke: #cd5c5c"/>
     <use xlink:href="#m6cb7d90590" x="367.627779" y="119.41716" style="fill: #cd5c5c; stroke: #cd5c5c"/>
     <use xlink:href="#m6cb7d90590" x="371.864236" y="123.647993" style="fill: #cd5c5c; stroke: #cd5c5c"/>
     <use xlink:href="#m6cb7d90590" x="376.038271" y="120.1209" style="fill: #cd5c5c; stroke: #cd5c5c"/>
     <use xlink:href="#m6cb7d90590" x="380.113912" y="123.580811" style="fill: #cd5c5c; stroke: #cd5c5c"/>
     <use xlink:href="#m6cb7d90590" x="384.213304" y="106.126735" style="fill: #cd5c5c; stroke: #cd5c5c"/>
     <use xlink:href="#m6cb7d90590" x="388.27382" y="113.19268" style="fill: #cd5c5c; stroke: #cd5c5c"/>
     <use xlink:href="#m6cb7d90590" x="392.242013" y="53.568" style="fill: #cd5c5c; stroke: #cd5c5c"/>
     <use xlink:href="#m6cb7d90590" x="395.818158" y="73.848789" style="fill: #cd5c5c; stroke: #cd5c5c"/>
     <use xlink:href="#m6cb7d90590" x="399.590274" y="66.574578" style="fill: #cd5c5c; stroke: #cd5c5c"/>
    </g>
   </g>
   <g id="line2d_17">
    <path d="M 51.232587 271.432641 
L 51.066472 271.52014 
L 51.022301 271.543407 
L 51.152614 271.474766 
L 51.276276 271.409628 
L 51.340733 271.375676 
L 51.379949 271.355019 
L 51.55214 271.26432 
L 51.834172 271.115762 
L 52.221702 270.911635 
L 52.490354 270.770125 
L 52.634184 270.694364 
L 52.808263 270.602669 
L 52.934949 270.535939 
L 52.939642 270.533467 
L 52.69392 270.662898 
L 52.570238 270.728047 
L 52.38738 270.824365 
L 52.32656 270.856401 
L 52.428343 270.802788 
L 52.600205 270.712262 
L 52.76368 270.626153 
L 52.889116 270.560081 
L 53.182124 270.405742 
L 53.420623 270.280115 
L 53.80724 270.076468 
L 54.041345 269.953156 
L 54.064163 269.941137 
L 53.944934 270.00394 
L 53.842104 270.058104 
L 53.937292 270.007965 
L 54.145479 269.898304 
L 54.631243 269.642433 
L 55.460078 269.205852 
L 56.21405 268.808705 
L 57.6 268.07867 
L 59.087997 267.294883 
L 60.388693 266.609754 
L 61.422535 266.065188 
L 62.451052 265.523427 
L 63.652883 264.890374 
L 64.189721 264.6076 
L 65.338759 264.002356 
L 67.802812 262.704441 
L 68.810523 262.173639 
L 72.18068 260.398443 
L 76.238219 258.261175 
L 82.017831 255.216822 
L 85.437813 253.415381 
L 89.17398 251.447393 
L 95.963582 247.871038 
L 101.572868 244.916402 
L 108.350955 241.346113 
L 113.130489 238.828541 
L 117.178402 236.696344 
L 121.726813 234.300514 
L 125.759083 232.176556 
L 129.843179 230.0253 
L 134.049415 227.809707 
L 138.647463 225.387731 
L 143.190343 222.994815 
L 147.479877 220.735346 
L 151.548409 218.592287 
L 155.953722 216.271833 
L 160.300935 213.981982 
L 165.588974 211.196561 
L 171.336397 208.169163 
L 176.981084 205.19588 
L 182.607869 202.232028 
L 188.684624 199.031158 
L 194.266498 196.090962 
L 199.306093 193.436406 
L 205.468539 190.190399 
L 210.738361 187.414573 
L 215.857581 184.718075 
L 221.04382 181.986276 
L 226.101984 179.321939 
L 230.58313 176.96154 
L 234.992425 174.638988 
L 238.829027 172.618096 
L 243.354304 170.234452 
L 248.152998 167.706788 
L 252.060484 165.648559 
L 255.952864 163.598287 
L 260.018553 161.456726 
L 264.346464 159.177042 
L 268.584592 156.944651 
L 274.539462 153.807983 
L 278.506457 151.718408 
L 282.587482 149.568769 
L 286.596335 147.457146 
L 290.522272 145.389198 
L 294.506454 143.29057 
L 298.508668 141.182444 
L 302.200791 139.237655 
L 305.933059 137.27172 
L 310.088036 135.083128 
L 314.299188 132.864946 
L 318.510143 130.646867 
L 322.892571 128.338468 
L 327.39174 125.968575 
L 331.924855 123.580802 
L 336.529812 121.155188 
L 341.20359 118.693321 
L 345.822365 116.260428 
L 350.125031 113.994042 
L 354.53625 111.670476 
L 358.950007 109.345575 
L 363.36858 107.018135 
L 367.627779 104.774645 
L 371.864236 102.543134 
L 376.038271 100.344503 
L 380.113912 98.197699 
L 384.213304 96.038386 
L 388.27382 93.89955 
L 392.242013 91.809344 
L 395.818158 89.925645 
L 399.590274 87.938721 
" clip-path="url(#p9ca5510d65)" style="fill: none; stroke: #0f52ba; stroke-width: 2.5; stroke-linecap: square"/>
   </g>
   <g id="patch_3">
    <path d="M 57.6 307.584 
L 57.6 41.472 
" style="fill: none; stroke: #000000; stroke-width: 0.8; stroke-linejoin: miter; stroke-linecap: square"/>
   </g>
   <g id="patch_4">
    <path d="M 414.72 307.584 
L 414.72 41.472 
" style="fill: none; stroke: #000000; stroke-width: 0.8; stroke-linejoin: miter; stroke-linecap: square"/>
   </g>
   <g id="patch_5">
    <path d="M 57.6 307.584 
L 414.72 307.584 
" style="fill: none; stroke: #000000; stroke-width: 0.8; stroke-linejoin: miter; stroke-linecap: square"/>
   </g>
   <g id="patch_6">
    <path d="M 57.6 41.472 
L 414.72 41.472 
" style="fill: none; stroke: #000000; stroke-width: 0.8; stroke-linejoin: miter; stroke-linecap: square"/>
   </g>
   <g id="legend_1">
    <g id="patch_7">
     <path d="M 68.8 101.242 
L 187.7725 101.242 
Q 190.9725 101.242 190.9725 98.042 
L 190.9725 52.672 
Q 190.9725 49.472 187.7725 49.472 
L 68.8 49.472 
Q 65.6 49.472 65.6 52.672 
L 65.6 98.042 
Q 65.6 101.242 68.8 101.242 
z
" style="fill: #ffffff; opacity: 0.8; stroke: #cccccc; stroke-linejoin: miter"/>
    </g>
    <g id="line2d_18">
     <g>
      <use xlink:href="#m6cb7d90590" x="88" y="62.4295" style="fill: #cd5c5c; stroke: #cd5c5c"/>
     </g>
    </g>
    <g id="text_18">
     <!-- air temp -->
     <g transform="translate(116.8 68.0295) scale(0.16 -0.16)">
      <use xlink:href="#DejaVuSans-61"/>
      <use xlink:href="#DejaVuSans-69" x="61.279297"/>
      <use xlink:href="#DejaVuSans-72" x="89.0625"/>
      <use xlink:href="#DejaVuSans-20" x="130.175781"/>
      <use xlink:href="#DejaVuSans-74" x="161.962891"/>
      <use xlink:href="#DejaVuSans-65" x="201.171875"/>
      <use xlink:href="#DejaVuSans-6d" x="262.695312"/>
      <use xlink:href="#DejaVuSans-70" x="360.107422"/>
     </g>
    </g>
    <g id="line2d_19">
     <path d="M 72 85.9145 
L 88 85.9145 
L 104 85.9145 
" style="fill: none; stroke: #0f52ba; stroke-width: 2.5; stroke-linecap: square"/>
    </g>
    <g id="text_19">
     <!-- fit exp -->
     <g transform="translate(116.8 91.5145) scale(0.16 -0.16)">
      <defs>
       <path id="DejaVuSans-66" d="M 2375 4863 
L 2375 4384 
L 1825 4384 
Q 1516 4384 1395 4259 
Q 1275 4134 1275 3809 
L 1275 3500 
L 2222 3500 
L 2222 3053 
L 1275 3053 
L 1275 0 
L 697 0 
L 697 3053 
L 147 3053 
L 147 3500 
L 697 3500 
L 697 3744 
Q 697 4328 969 4595 
Q 1241 4863 1831 4863 
L 2375 4863 
z
" transform="scale(0.015625)"/>
       <path id="DejaVuSans-78" d="M 3513 3500 
L 2247 1797 
L 3578 0 
L 2900 0 
L 1881 1375 
L 863 0 
L 184 0 
L 1544 1831 
L 300 3500 
L 978 3500 
L 1906 2253 
L 2834 3500 
L 3513 3500 
z
" transform="scale(0.015625)"/>
      </defs>
      <use xlink:href="#DejaVuSans-66"/>
      <use xlink:href="#DejaVuSans-69" x="35.205078"/>
      <use xlink:href="#DejaVuSans-74" x="62.988281"/>
      <use xlink:href="#DejaVuSans-20" x="102.197266"/>
      <use xlink:href="#DejaVuSans-65" x="133.984375"/>
      <use xlink:href="#DejaVuSans-78" x="193.757812"/>
      <use xlink:href="#DejaVuSans-70" x="252.9375"/>
     </g>
    </g>
   </g>
   <g id="legend_2">
    <g id="patch_8">
     <path d="M 68.8 101.242 
L 187.7725 101.242 
Q 190.9725 101.242 190.9725 98.042 
L 190.9725 52.672 
Q 190.9725 49.472 187.7725 49.472 
L 68.8 49.472 
Q 65.6 49.472 65.6 52.672 
L 65.6 98.042 
Q 65.6 101.242 68.8 101.242 
z
" style="fill: #ffffff; opacity: 0.8; stroke: #cccccc; stroke-linejoin: miter"/>
    </g>
    <g id="line2d_20">
     <g>
      <use xlink:href="#m6cb7d90590" x="88" y="62.4295" style="fill: #cd5c5c; stroke: #cd5c5c"/>
     </g>
    </g>
    <g id="text_20">
     <!-- air temp -->
     <g transform="translate(116.8 68.0295) scale(0.16 -0.16)">
      <use xlink:href="#DejaVuSans-61"/>
      <use xlink:href="#DejaVuSans-69" x="61.279297"/>
      <use xlink:href="#DejaVuSans-72" x="89.0625"/>
      <use xlink:href="#DejaVuSans-20" x="130.175781"/>
      <use xlink:href="#DejaVuSans-74" x="161.962891"/>
      <use xlink:href="#DejaVuSans-65" x="201.171875"/>
      <use xlink:href="#DejaVuSans-6d" x="262.695312"/>
      <use xlink:href="#DejaVuSans-70" x="360.107422"/>
     </g>
    </g>
    <g id="line2d_21">
     <path d="M 72 85.9145 
L 88 85.9145 
L 104 85.9145 
" style="fill: none; stroke: #0f52ba; stroke-width: 2.5; stroke-linecap: square"/>
    </g>
    <g id="text_21">
     <!-- fit exp -->
     <g transform="translate(116.8 91.5145) scale(0.16 -0.16)">
      <use xlink:href="#DejaVuSans-66"/>
      <use xlink:href="#DejaVuSans-69" x="35.205078"/>
      <use xlink:href="#DejaVuSans-74" x="62.988281"/>
      <use xlink:href="#DejaVuSans-20" x="102.197266"/>
      <use xlink:href="#DejaVuSans-65" x="133.984375"/>
      <use xlink:href="#DejaVuSans-78" x="193.757812"/>
      <use xlink:href="#DejaVuSans-70" x="252.9375"/>
     </g>
    </g>
   </g>
  </g>
 </g>
 <defs>
  <clipPath id="p9ca5510d65">
   <rect x="57.6" y="41.472" width="357.12" height="266.112"/>
  </clipPath>
 </defs>
</svg>
