<?xml version="1.0" encoding="utf-8" standalone="no"?>
<!DOCTYPE svg PUBLIC "-//W3C//DTD SVG 1.1//EN"
  "http://www.w3.org/Graphics/SVG/1.1/DTD/svg11.dtd">
<svg xmlns:xlink="http://www.w3.org/1999/xlink" width="460.8pt" height="345.6pt" viewBox="0 0 460.8 345.6" xmlns="http://www.w3.org/2000/svg" version="1.1">
 <metadata>
  <rdf:RDF xmlns:dc="http://purl.org/dc/elements/1.1/" xmlns:cc="http://creativecommons.org/ns#" xmlns:rdf="http://www.w3.org/1999/02/22-rdf-syntax-ns#">
   <cc:Work>
    <dc:type rdf:resource="http://purl.org/dc/dcmitype/StillImage"/>
    <dc:date>2023-06-07T23:14:50.988138</dc:date>
    <dc:format>image/svg+xml</dc:format>
    <dc:creator>
     <cc:Agent>
      <dc:title>Matplotlib v3.7.1, https://matplotlib.org/</dc:title>
     </cc:Agent>
    </dc:creator>
   </cc:Work>
  </rdf:RDF>
 </metadata>
 <defs>
  <style type="text/css">*{stroke-linejoin: round; stroke-linecap: butt}</style>
 </defs>
 <g id="figure_1">
  <g id="patch_1">
   <path d="M 0 345.6 
L 460.8 345.6 
L 460.8 0 
L 0 0 
z
" style="fill: #ffffff"/>
  </g>
  <g id="axes_1">
   <g id="patch_2">
    <path d="M 57.6 307.584 
L 414.72 307.584 
L 414.72 41.472 
L 57.6 41.472 
z
" style="fill: #ffffff"/>
   </g>
   <g id="matplotlib.axis_1">
    <g id="xtick_1">
     <g id="line2d_1">
      <defs>
       <path id="me4005a54c4" d="M 0 0 
L 0 3.5 
" style="stroke: #000000; stroke-width: 0.8"/>
      </defs>
      <g>
       <use xlink:href="#me4005a54c4" x="73.832727" y="307.584" style="stroke: #000000; stroke-width: 0.8"/>
      </g>
     </g>
     <g id="text_1">
      <!-- -800 -->
      <g transform="translate(62.485071 322.182437) scale(0.1 -0.1)">
       <defs>
        <path id="DejaVuSans-2d" d="M 313 2009 
L 1997 2009 
L 1997 1497 
L 313 1497 
L 313 2009 
z
" transform="scale(0.015625)"/>
        <path id="DejaVuSans-38" d="M 2034 2216 
Q 1584 2216 1326 1975 
Q 1069 1734 1069 1313 
Q 1069 891 1326 650 
Q 1584 409 2034 409 
Q 2484 409 2743 651 
Q 3003 894 3003 1313 
Q 3003 1734 2745 1975 
Q 2488 2216 2034 2216 
z
M 1403 2484 
Q 997 2584 770 2862 
Q 544 3141 544 3541 
Q 544 4100 942 4425 
Q 1341 4750 2034 4750 
Q 2731 4750 3128 4425 
Q 3525 4100 3525 3541 
Q 3525 3141 3298 2862 
Q 3072 2584 2669 2484 
Q 3125 2378 3379 2068 
Q 3634 1759 3634 1313 
Q 3634 634 3220 271 
Q 2806 -91 2034 -91 
Q 1263 -91 848 271 
Q 434 634 434 1313 
Q 434 1759 690 2068 
Q 947 2378 1403 2484 
z
M 1172 3481 
Q 1172 3119 1398 2916 
Q 1625 2713 2034 2713 
Q 2441 2713 2670 2916 
Q 2900 3119 2900 3481 
Q 2900 3844 2670 4047 
Q 2441 4250 2034 4250 
Q 1625 4250 1398 4047 
Q 1172 3844 1172 3481 
z
" transform="scale(0.015625)"/>
        <path id="DejaVuSans-30" d="M 2034 4250 
Q 1547 4250 1301 3770 
Q 1056 3291 1056 2328 
Q 1056 1369 1301 889 
Q 1547 409 2034 409 
Q 2525 409 2770 889 
Q 3016 1369 3016 2328 
Q 3016 3291 2770 3770 
Q 2525 4250 2034 4250 
z
M 2034 4750 
Q 2819 4750 3233 4129 
Q 3647 3509 3647 2328 
Q 3647 1150 3233 529 
Q 2819 -91 2034 -91 
Q 1250 -91 836 529 
Q 422 1150 422 2328 
Q 422 3509 836 4129 
Q 1250 4750 2034 4750 
z
" transform="scale(0.015625)"/>
       </defs>
       <use xlink:href="#DejaVuSans-2d"/>
       <use xlink:href="#DejaVuSans-38" x="36.083984"/>
       <use xlink:href="#DejaVuSans-30" x="99.707031"/>
       <use xlink:href="#DejaVuSans-30" x="163.330078"/>
      </g>
     </g>
    </g>
    <g id="xtick_2">
     <g id="line2d_2">
      <g>
       <use xlink:href="#me4005a54c4" x="154.996364" y="307.584" style="stroke: #000000; stroke-width: 0.8"/>
      </g>
     </g>
     <g id="text_2">
      <!-- -600 -->
      <g transform="translate(143.648707 322.182437) scale(0.1 -0.1)">
       <defs>
        <path id="DejaVuSans-36" d="M 2113 2584 
Q 1688 2584 1439 2293 
Q 1191 2003 1191 1497 
Q 1191 994 1439 701 
Q 1688 409 2113 409 
Q 2538 409 2786 701 
Q 3034 994 3034 1497 
Q 3034 2003 2786 2293 
Q 2538 2584 2113 2584 
z
M 3366 4563 
L 3366 3988 
Q 3128 4100 2886 4159 
Q 2644 4219 2406 4219 
Q 1781 4219 1451 3797 
Q 1122 3375 1075 2522 
Q 1259 2794 1537 2939 
Q 1816 3084 2150 3084 
Q 2853 3084 3261 2657 
Q 3669 2231 3669 1497 
Q 3669 778 3244 343 
Q 2819 -91 2113 -91 
Q 1303 -91 875 529 
Q 447 1150 447 2328 
Q 447 3434 972 4092 
Q 1497 4750 2381 4750 
Q 2619 4750 2861 4703 
Q 3103 4656 3366 4563 
z
" transform="scale(0.015625)"/>
       </defs>
       <use xlink:href="#DejaVuSans-2d"/>
       <use xlink:href="#DejaVuSans-36" x="36.083984"/>
       <use xlink:href="#DejaVuSans-30" x="99.707031"/>
       <use xlink:href="#DejaVuSans-30" x="163.330078"/>
      </g>
     </g>
    </g>
    <g id="xtick_3">
     <g id="line2d_3">
      <g>
       <use xlink:href="#me4005a54c4" x="236.16" y="307.584" style="stroke: #000000; stroke-width: 0.8"/>
      </g>
     </g>
     <g id="text_3">
      <!-- -400 -->
      <g transform="translate(224.812344 322.182437) scale(0.1 -0.1)">
       <defs>
        <path id="DejaVuSans-34" d="M 2419 4116 
L 825 1625 
L 2419 1625 
L 2419 4116 
z
M 2253 4666 
L 3047 4666 
L 3047 1625 
L 3713 1625 
L 3713 1100 
L 3047 1100 
L 3047 0 
L 2419 0 
L 2419 1100 
L 313 1100 
L 313 1709 
L 2253 4666 
z
" transform="scale(0.015625)"/>
       </defs>
       <use xlink:href="#DejaVuSans-2d"/>
       <use xlink:href="#DejaVuSans-34" x="36.083984"/>
       <use xlink:href="#DejaVuSans-30" x="99.707031"/>
       <use xlink:href="#DejaVuSans-30" x="163.330078"/>
      </g>
     </g>
    </g>
    <g id="xtick_4">
     <g id="line2d_4">
      <g>
       <use xlink:href="#me4005a54c4" x="317.323636" y="307.584" style="stroke: #000000; stroke-width: 0.8"/>
      </g>
     </g>
     <g id="text_4">
      <!-- -200 -->
      <g transform="translate(305.97598 322.182437) scale(0.1 -0.1)">
       <defs>
        <path id="DejaVuSans-32" d="M 1228 531 
L 3431 531 
L 3431 0 
L 469 0 
L 469 531 
Q 828 903 1448 1529 
Q 2069 2156 2228 2338 
Q 2531 2678 2651 2914 
Q 2772 3150 2772 3378 
Q 2772 3750 2511 3984 
Q 2250 4219 1831 4219 
Q 1534 4219 1204 4116 
Q 875 4013 500 3803 
L 500 4441 
Q 881 4594 1212 4672 
Q 1544 4750 1819 4750 
Q 2544 4750 2975 4387 
Q 3406 4025 3406 3419 
Q 3406 3131 3298 2873 
Q 3191 2616 2906 2266 
Q 2828 2175 2409 1742 
Q 1991 1309 1228 531 
z
" transform="scale(0.015625)"/>
       </defs>
       <use xlink:href="#DejaVuSans-2d"/>
       <use xlink:href="#DejaVuSans-32" x="36.083984"/>
       <use xlink:href="#DejaVuSans-30" x="99.707031"/>
       <use xlink:href="#DejaVuSans-30" x="163.330078"/>
      </g>
     </g>
    </g>
    <g id="xtick_5">
     <g id="line2d_5">
      <g>
       <use xlink:href="#me4005a54c4" x="398.487273" y="307.584" style="stroke: #000000; stroke-width: 0.8"/>
      </g>
     </g>
     <g id="text_5">
      <!-- 0 -->
      <g transform="translate(395.306023 322.182437) scale(0.1 -0.1)">
       <use xlink:href="#DejaVuSans-30"/>
      </g>
     </g>
    </g>
    <g id="text_6">
     <!-- Tempo [Millenni] -->
     <g transform="translate(170.305 340.419625) scale(0.16 -0.16)">
      <defs>
       <path id="DejaVuSans-54" d="M -19 4666 
L 3928 4666 
L 3928 4134 
L 2272 4134 
L 2272 0 
L 1638 0 
L 1638 4134 
L -19 4134 
L -19 4666 
z
" transform="scale(0.015625)"/>
       <path id="DejaVuSans-65" d="M 3597 1894 
L 3597 1613 
L 953 1613 
Q 991 1019 1311 708 
Q 1631 397 2203 397 
Q 2534 397 2845 478 
Q 3156 559 3463 722 
L 3463 178 
Q 3153 47 2828 -22 
Q 2503 -91 2169 -91 
Q 1331 -91 842 396 
Q 353 884 353 1716 
Q 353 2575 817 3079 
Q 1281 3584 2069 3584 
Q 2775 3584 3186 3129 
Q 3597 2675 3597 1894 
z
M 3022 2063 
Q 3016 2534 2758 2815 
Q 2500 3097 2075 3097 
Q 1594 3097 1305 2825 
Q 1016 2553 972 2059 
L 3022 2063 
z
" transform="scale(0.015625)"/>
       <path id="DejaVuSans-6d" d="M 3328 2828 
Q 3544 3216 3844 3400 
Q 4144 3584 4550 3584 
Q 5097 3584 5394 3201 
Q 5691 2819 5691 2113 
L 5691 0 
L 5113 0 
L 5113 2094 
Q 5113 2597 4934 2840 
Q 4756 3084 4391 3084 
Q 3944 3084 3684 2787 
Q 3425 2491 3425 1978 
L 3425 0 
L 2847 0 
L 2847 2094 
Q 2847 2600 2669 2842 
Q 2491 3084 2119 3084 
Q 1678 3084 1418 2786 
Q 1159 2488 1159 1978 
L 1159 0 
L 581 0 
L 581 3500 
L 1159 3500 
L 1159 2956 
Q 1356 3278 1631 3431 
Q 1906 3584 2284 3584 
Q 2666 3584 2933 3390 
Q 3200 3197 3328 2828 
z
" transform="scale(0.015625)"/>
       <path id="DejaVuSans-70" d="M 1159 525 
L 1159 -1331 
L 581 -1331 
L 581 3500 
L 1159 3500 
L 1159 2969 
Q 1341 3281 1617 3432 
Q 1894 3584 2278 3584 
Q 2916 3584 3314 3078 
Q 3713 2572 3713 1747 
Q 3713 922 3314 415 
Q 2916 -91 2278 -91 
Q 1894 -91 1617 61 
Q 1341 213 1159 525 
z
M 3116 1747 
Q 3116 2381 2855 2742 
Q 2594 3103 2138 3103 
Q 1681 3103 1420 2742 
Q 1159 2381 1159 1747 
Q 1159 1113 1420 752 
Q 1681 391 2138 391 
Q 2594 391 2855 752 
Q 3116 1113 3116 1747 
z
" transform="scale(0.015625)"/>
       <path id="DejaVuSans-6f" d="M 1959 3097 
Q 1497 3097 1228 2736 
Q 959 2375 959 1747 
Q 959 1119 1226 758 
Q 1494 397 1959 397 
Q 2419 397 2687 759 
Q 2956 1122 2956 1747 
Q 2956 2369 2687 2733 
Q 2419 3097 1959 3097 
z
M 1959 3584 
Q 2709 3584 3137 3096 
Q 3566 2609 3566 1747 
Q 3566 888 3137 398 
Q 2709 -91 1959 -91 
Q 1206 -91 779 398 
Q 353 888 353 1747 
Q 353 2609 779 3096 
Q 1206 3584 1959 3584 
z
" transform="scale(0.015625)"/>
       <path id="DejaVuSans-20" transform="scale(0.015625)"/>
       <path id="DejaVuSans-5b" d="M 550 4863 
L 1875 4863 
L 1875 4416 
L 1125 4416 
L 1125 -397 
L 1875 -397 
L 1875 -844 
L 550 -844 
L 550 4863 
z
" transform="scale(0.015625)"/>
       <path id="DejaVuSans-4d" d="M 628 4666 
L 1569 4666 
L 2759 1491 
L 3956 4666 
L 4897 4666 
L 4897 0 
L 4281 0 
L 4281 4097 
L 3078 897 
L 2444 897 
L 1241 4097 
L 1241 0 
L 628 0 
L 628 4666 
z
" transform="scale(0.015625)"/>
       <path id="DejaVuSans-69" d="M 603 3500 
L 1178 3500 
L 1178 0 
L 603 0 
L 603 3500 
z
M 603 4863 
L 1178 4863 
L 1178 4134 
L 603 4134 
L 603 4863 
z
" transform="scale(0.015625)"/>
       <path id="DejaVuSans-6c" d="M 603 4863 
L 1178 4863 
L 1178 0 
L 603 0 
L 603 4863 
z
" transform="scale(0.015625)"/>
       <path id="DejaVuSans-6e" d="M 3513 2113 
L 3513 0 
L 2938 0 
L 2938 2094 
Q 2938 2591 2744 2837 
Q 2550 3084 2163 3084 
Q 1697 3084 1428 2787 
Q 1159 2491 1159 1978 
L 1159 0 
L 581 0 
L 581 3500 
L 1159 3500 
L 1159 2956 
Q 1366 3272 1645 3428 
Q 1925 3584 2291 3584 
Q 2894 3584 3203 3211 
Q 3513 2838 3513 2113 
z
" transform="scale(0.015625)"/>
       <path id="DejaVuSans-5d" d="M 1947 4863 
L 1947 -844 
L 622 -844 
L 622 -397 
L 1369 -397 
L 1369 4416 
L 622 4416 
L 622 4863 
L 1947 4863 
z
" transform="scale(0.015625)"/>
      </defs>
      <use xlink:href="#DejaVuSans-54"/>
      <use xlink:href="#DejaVuSans-65" x="44.083984"/>
      <use xlink:href="#DejaVuSans-6d" x="105.607422"/>
      <use xlink:href="#DejaVuSans-70" x="203.019531"/>
      <use xlink:href="#DejaVuSans-6f" x="266.496094"/>
      <use xlink:href="#DejaVuSans-20" x="327.677734"/>
      <use xlink:href="#DejaVuSans-5b" x="359.464844"/>
      <use xlink:href="#DejaVuSans-4d" x="398.478516"/>
      <use xlink:href="#DejaVuSans-69" x="484.757812"/>
      <use xlink:href="#DejaVuSans-6c" x="512.541016"/>
      <use xlink:href="#DejaVuSans-6c" x="540.324219"/>
      <use xlink:href="#DejaVuSans-65" x="568.107422"/>
      <use xlink:href="#DejaVuSans-6e" x="629.630859"/>
      <use xlink:href="#DejaVuSans-6e" x="693.009766"/>
      <use xlink:href="#DejaVuSans-69" x="756.388672"/>
      <use xlink:href="#DejaVuSans-5d" x="784.171875"/>
     </g>
    </g>
   </g>
   <g id="matplotlib.axis_2">
    <g id="ytick_1">
     <g id="line2d_6">
      <defs>
       <path id="m1132292081" d="M 0 0 
L -3.5 0 
" style="stroke: #000000; stroke-width: 0.8"/>
      </defs>
      <g>
       <use xlink:href="#m1132292081" x="57.6" y="294.270483" style="stroke: #000000; stroke-width: 0.8"/>
      </g>
     </g>
     <g id="text_7">
      <!-- −2 -->
      <g transform="translate(35.857813 298.069702) scale(0.1 -0.1)">
       <defs>
        <path id="DejaVuSans-2212" d="M 678 2272 
L 4684 2272 
L 4684 1741 
L 678 1741 
L 678 2272 
z
" transform="scale(0.015625)"/>
       </defs>
       <use xlink:href="#DejaVuSans-2212"/>
       <use xlink:href="#DejaVuSans-32" x="83.789062"/>
      </g>
     </g>
    </g>
    <g id="ytick_2">
     <g id="line2d_7">
      <g>
       <use xlink:href="#m1132292081" x="57.6" y="249.638323" style="stroke: #000000; stroke-width: 0.8"/>
      </g>
     </g>
     <g id="text_8">
      <!-- −1 -->
      <g transform="translate(35.857813 253.437541) scale(0.1 -0.1)">
       <defs>
        <path id="DejaVuSans-31" d="M 794 531 
L 1825 531 
L 1825 4091 
L 703 3866 
L 703 4441 
L 1819 4666 
L 2450 4666 
L 2450 531 
L 3481 531 
L 3481 0 
L 794 0 
L 794 531 
z
" transform="scale(0.015625)"/>
       </defs>
       <use xlink:href="#DejaVuSans-2212"/>
       <use xlink:href="#DejaVuSans-31" x="83.789062"/>
      </g>
     </g>
    </g>
    <g id="ytick_3">
     <g id="line2d_8">
      <g>
       <use xlink:href="#m1132292081" x="57.6" y="205.006162" style="stroke: #000000; stroke-width: 0.8"/>
      </g>
     </g>
     <g id="text_9">
      <!-- 0 -->
      <g transform="translate(44.2375 208.805381) scale(0.1 -0.1)">
       <use xlink:href="#DejaVuSans-30"/>
      </g>
     </g>
    </g>
    <g id="ytick_4">
     <g id="line2d_9">
      <g>
       <use xlink:href="#m1132292081" x="57.6" y="160.374001" style="stroke: #000000; stroke-width: 0.8"/>
      </g>
     </g>
     <g id="text_10">
      <!-- 1 -->
      <g transform="translate(44.2375 164.17322) scale(0.1 -0.1)">
       <use xlink:href="#DejaVuSans-31"/>
      </g>
     </g>
    </g>
    <g id="ytick_5">
     <g id="line2d_10">
      <g>
       <use xlink:href="#m1132292081" x="57.6" y="115.74184" style="stroke: #000000; stroke-width: 0.8"/>
      </g>
     </g>
     <g id="text_11">
      <!-- 2 -->
      <g transform="translate(44.2375 119.541059) scale(0.1 -0.1)">
       <use xlink:href="#DejaVuSans-32"/>
      </g>
     </g>
    </g>
    <g id="ytick_6">
     <g id="line2d_11">
      <g>
       <use xlink:href="#m1132292081" x="57.6" y="71.10968" style="stroke: #000000; stroke-width: 0.8"/>
      </g>
     </g>
     <g id="text_12">
      <!-- 3 -->
      <g transform="translate(44.2375 74.908898) scale(0.1 -0.1)">
       <defs>
        <path id="DejaVuSans-33" d="M 2597 2516 
Q 3050 2419 3304 2112 
Q 3559 1806 3559 1356 
Q 3559 666 3084 287 
Q 2609 -91 1734 -91 
Q 1441 -91 1130 -33 
Q 819 25 488 141 
L 488 750 
Q 750 597 1062 519 
Q 1375 441 1716 441 
Q 2309 441 2620 675 
Q 2931 909 2931 1356 
Q 2931 1769 2642 2001 
Q 2353 2234 1838 2234 
L 1294 2234 
L 1294 2753 
L 1863 2753 
Q 2328 2753 2575 2939 
Q 2822 3125 2822 3475 
Q 2822 3834 2567 4026 
Q 2313 4219 1838 4219 
Q 1578 4219 1281 4162 
Q 984 4106 628 3988 
L 628 4550 
Q 988 4650 1302 4700 
Q 1616 4750 1894 4750 
Q 2613 4750 3031 4423 
Q 3450 4097 3450 3541 
Q 3450 3153 3228 2886 
Q 3006 2619 2597 2516 
z
" transform="scale(0.015625)"/>
       </defs>
       <use xlink:href="#DejaVuSans-33"/>
      </g>
     </g>
    </g>
    <g id="text_13">
     <!-- scostamenti in dev. std -->
     <g transform="translate(28.530312 267.3005) rotate(-90) scale(0.16 -0.16)">
      <defs>
       <path id="DejaVuSans-73" d="M 2834 3397 
L 2834 2853 
Q 2591 2978 2328 3040 
Q 2066 3103 1784 3103 
Q 1356 3103 1142 2972 
Q 928 2841 928 2578 
Q 928 2378 1081 2264 
Q 1234 2150 1697 2047 
L 1894 2003 
Q 2506 1872 2764 1633 
Q 3022 1394 3022 966 
Q 3022 478 2636 193 
Q 2250 -91 1575 -91 
Q 1294 -91 989 -36 
Q 684 19 347 128 
L 347 722 
Q 666 556 975 473 
Q 1284 391 1588 391 
Q 1994 391 2212 530 
Q 2431 669 2431 922 
Q 2431 1156 2273 1281 
Q 2116 1406 1581 1522 
L 1381 1569 
Q 847 1681 609 1914 
Q 372 2147 372 2553 
Q 372 3047 722 3315 
Q 1072 3584 1716 3584 
Q 2034 3584 2315 3537 
Q 2597 3491 2834 3397 
z
" transform="scale(0.015625)"/>
       <path id="DejaVuSans-63" d="M 3122 3366 
L 3122 2828 
Q 2878 2963 2633 3030 
Q 2388 3097 2138 3097 
Q 1578 3097 1268 2742 
Q 959 2388 959 1747 
Q 959 1106 1268 751 
Q 1578 397 2138 397 
Q 2388 397 2633 464 
Q 2878 531 3122 666 
L 3122 134 
Q 2881 22 2623 -34 
Q 2366 -91 2075 -91 
Q 1284 -91 818 406 
Q 353 903 353 1747 
Q 353 2603 823 3093 
Q 1294 3584 2113 3584 
Q 2378 3584 2631 3529 
Q 2884 3475 3122 3366 
z
" transform="scale(0.015625)"/>
       <path id="DejaVuSans-74" d="M 1172 4494 
L 1172 3500 
L 2356 3500 
L 2356 3053 
L 1172 3053 
L 1172 1153 
Q 1172 725 1289 603 
Q 1406 481 1766 481 
L 2356 481 
L 2356 0 
L 1766 0 
Q 1100 0 847 248 
Q 594 497 594 1153 
L 594 3053 
L 172 3053 
L 172 3500 
L 594 3500 
L 594 4494 
L 1172 4494 
z
" transform="scale(0.015625)"/>
       <path id="DejaVuSans-61" d="M 2194 1759 
Q 1497 1759 1228 1600 
Q 959 1441 959 1056 
Q 959 750 1161 570 
Q 1363 391 1709 391 
Q 2188 391 2477 730 
Q 2766 1069 2766 1631 
L 2766 1759 
L 2194 1759 
z
M 3341 1997 
L 3341 0 
L 2766 0 
L 2766 531 
Q 2569 213 2275 61 
Q 1981 -91 1556 -91 
Q 1019 -91 701 211 
Q 384 513 384 1019 
Q 384 1609 779 1909 
Q 1175 2209 1959 2209 
L 2766 2209 
L 2766 2266 
Q 2766 2663 2505 2880 
Q 2244 3097 1772 3097 
Q 1472 3097 1187 3025 
Q 903 2953 641 2809 
L 641 3341 
Q 956 3463 1253 3523 
Q 1550 3584 1831 3584 
Q 2591 3584 2966 3190 
Q 3341 2797 3341 1997 
z
" transform="scale(0.015625)"/>
       <path id="DejaVuSans-64" d="M 2906 2969 
L 2906 4863 
L 3481 4863 
L 3481 0 
L 2906 0 
L 2906 525 
Q 2725 213 2448 61 
Q 2172 -91 1784 -91 
Q 1150 -91 751 415 
Q 353 922 353 1747 
Q 353 2572 751 3078 
Q 1150 3584 1784 3584 
Q 2172 3584 2448 3432 
Q 2725 3281 2906 2969 
z
M 947 1747 
Q 947 1113 1208 752 
Q 1469 391 1925 391 
Q 2381 391 2643 752 
Q 2906 1113 2906 1747 
Q 2906 2381 2643 2742 
Q 2381 3103 1925 3103 
Q 1469 3103 1208 2742 
Q 947 2381 947 1747 
z
" transform="scale(0.015625)"/>
       <path id="DejaVuSans-76" d="M 191 3500 
L 800 3500 
L 1894 563 
L 2988 3500 
L 3597 3500 
L 2284 0 
L 1503 0 
L 191 3500 
z
" transform="scale(0.015625)"/>
       <path id="DejaVuSans-2e" d="M 684 794 
L 1344 794 
L 1344 0 
L 684 0 
L 684 794 
z
" transform="scale(0.015625)"/>
      </defs>
      <use xlink:href="#DejaVuSans-73"/>
      <use xlink:href="#DejaVuSans-63" x="52.099609"/>
      <use xlink:href="#DejaVuSans-6f" x="107.080078"/>
      <use xlink:href="#DejaVuSans-73" x="168.261719"/>
      <use xlink:href="#DejaVuSans-74" x="220.361328"/>
      <use xlink:href="#DejaVuSans-61" x="259.570312"/>
      <use xlink:href="#DejaVuSans-6d" x="320.849609"/>
      <use xlink:href="#DejaVuSans-65" x="418.261719"/>
      <use xlink:href="#DejaVuSans-6e" x="479.785156"/>
      <use xlink:href="#DejaVuSans-74" x="543.164062"/>
      <use xlink:href="#DejaVuSans-69" x="582.373047"/>
      <use xlink:href="#DejaVuSans-20" x="610.15625"/>
      <use xlink:href="#DejaVuSans-69" x="641.943359"/>
      <use xlink:href="#DejaVuSans-6e" x="669.726562"/>
      <use xlink:href="#DejaVuSans-20" x="733.105469"/>
      <use xlink:href="#DejaVuSans-64" x="764.892578"/>
      <use xlink:href="#DejaVuSans-65" x="828.369141"/>
      <use xlink:href="#DejaVuSans-76" x="889.892578"/>
      <use xlink:href="#DejaVuSans-2e" x="941.322266"/>
      <use xlink:href="#DejaVuSans-20" x="973.109375"/>
      <use xlink:href="#DejaVuSans-73" x="1004.896484"/>
      <use xlink:href="#DejaVuSans-74" x="1056.996094"/>
      <use xlink:href="#DejaVuSans-64" x="1096.205078"/>
     </g>
    </g>
   </g>
   <g id="line2d_12">
    <path d="M 73.832727 131.477561 
L 73.995055 147.439911 
L 74.076218 133.371417 
L 74.157382 141.085232 
L 74.238545 120.69073 
L 74.400873 146.775034 
L 74.482036 137.080194 
L 74.5632 148.852485 
L 74.644364 141.626345 
L 74.725527 161.085826 
L 74.887855 133.180501 
L 75.131345 137.699887 
L 75.212509 142.672526 
L 75.293673 131.489889 
L 75.374836 143.14158 
L 75.618327 132.264664 
L 75.780655 143.997758 
L 75.861818 134.419606 
L 75.942982 148.997572 
L 76.105309 119.903484 
L 76.3488 150.247494 
L 76.429964 156.304584 
L 76.592291 144.629513 
L 76.754618 162.038175 
L 76.835782 129.34473 
L 76.916945 159.942481 
L 76.998109 157.271632 
L 77.079273 163.276939 
L 77.160436 162.878905 
L 77.2416 145.168451 
L 77.322764 162.559018 
L 77.566255 136.645228 
L 77.647418 139.526786 
L 77.728582 151.858056 
L 77.890909 135.250187 
L 78.053236 147.87847 
L 78.296727 128.772695 
L 78.540218 172.005653 
L 78.621382 165.007438 
L 78.864873 210.917101 
L 78.946036 207.498828 
L 79.0272 196.042328 
L 79.108364 196.757272 
L 79.270691 211.168375 
L 79.351855 208.44893 
L 79.433018 183.442907 
L 79.676509 217.163777 
L 79.757673 199.199354 
L 79.92 219.331003 
L 80.001164 208.140361 
L 80.082327 213.977428 
L 80.325818 246.91033 
L 80.406982 239.96041 
L 80.8128 280.527151 
L 80.893964 276.343292 
L 80.975127 284.824994 
L 81.056291 272.76181 
L 81.137455 279.988231 
L 81.218618 276.118738 
L 81.462109 287.025453 
L 81.543273 264.706598 
L 81.7056 290.67363 
L 81.786764 269.439865 
L 81.867927 276.814121 
L 81.949091 278.436372 
L 82.030255 291.142525 
L 82.192582 279.051895 
L 82.273745 281.093379 
L 82.354909 288.467231 
L 82.436073 263.904931 
L 82.517236 286.392355 
L 82.5984 266.240117 
L 82.679564 280.13648 
L 82.760727 270.675954 
L 83.004218 280.618116 
L 83.085382 267.454223 
L 83.166545 275.381805 
L 83.247709 273.600609 
L 83.328873 270.54406 
L 83.4912 292.422078 
L 83.572364 273.376555 
L 83.734691 290.887987 
L 83.815855 283.299794 
L 83.897018 287.025132 
L 83.978182 285.696115 
L 84.140509 280.64515 
L 84.221673 282.644542 
L 84.302836 291.522241 
L 84.384 277.289889 
L 84.546327 290.122059 
L 84.789818 268.602324 
L 84.870982 275.364854 
L 84.952145 266.519842 
L 85.114473 290.531325 
L 85.195636 283.078398 
L 85.2768 257.506035 
L 85.439127 276.231011 
L 85.601455 251.782693 
L 85.682618 275.382267 
L 85.763782 263.315519 
L 85.844945 283.384464 
L 86.007273 269.818234 
L 86.088436 274.8191 
L 86.250764 266.224025 
L 86.413091 281.393171 
L 86.494255 273.836691 
L 86.575418 286.580823 
L 86.737745 245.417809 
L 86.900073 272.932088 
L 86.981236 284.764732 
L 87.0624 279.671605 
L 87.224727 256.054686 
L 87.305891 258.966476 
L 87.387055 253.75474 
L 87.549382 281.128201 
L 88.036364 246.641119 
L 88.117527 258.971726 
L 88.198691 255.202445 
L 88.442182 266.310792 
L 88.523345 258.6238 
L 88.685673 270.300156 
L 88.848 237.430542 
L 88.929164 246.683081 
L 89.091491 210.365953 
L 89.172655 250.685739 
L 89.253818 250.081592 
L 89.416145 232.540345 
L 89.497309 229.647817 
L 89.659636 259.253828 
L 89.7408 258.156946 
L 89.821964 275.343964 
L 89.984291 248.809036 
L 90.065455 267.077142 
L 90.146618 250.050873 
L 90.227782 268.789119 
L 90.471273 240.029313 
L 90.6336 263.257166 
L 90.795927 269.719139 
L 90.877091 268.57731 
L 91.039418 253.991589 
L 91.120582 253.036792 
L 91.282909 240.758031 
L 91.364073 241.304133 
L 91.688727 269.868382 
L 91.769891 246.281691 
L 91.851055 262.849562 
L 92.175709 236.970574 
L 92.256873 239.117741 
L 92.338036 223.417849 
L 92.500364 231.924439 
L 92.662691 216.457447 
L 92.743855 235.231223 
L 92.825018 231.363482 
L 92.906182 233.512499 
L 93.230836 257.888709 
L 93.393164 238.475094 
L 93.474327 254.449289 
L 93.555491 249.51144 
L 93.717818 254.38039 
L 93.880145 249.924372 
L 93.961309 240.04031 
L 94.042473 250.433957 
L 94.123636 240.497331 
L 94.2048 243.119172 
L 94.285964 259.014582 
L 94.367127 236.661698 
L 94.448291 240.361253 
L 94.529455 245.105965 
L 94.691782 241.789385 
L 94.854109 212.197391 
L 94.935273 235.351202 
L 95.016436 227.719791 
L 95.0976 224.85704 
L 95.178764 228.626386 
L 95.422255 211.46318 
L 95.503418 238.786362 
L 95.584582 229.754079 
L 95.665745 236.333023 
L 95.746909 224.885934 
L 95.909236 252.391071 
L 95.9904 226.650067 
L 96.071564 230.670279 
L 96.315055 247.834938 
L 96.396218 247.592559 
L 96.477382 254.942522 
L 96.558545 237.481825 
L 96.639709 243.084603 
L 96.720873 244.911022 
L 96.964364 216.646367 
L 97.045527 235.889089 
L 97.126691 230.743712 
L 97.207855 240.531318 
L 97.370182 209.545321 
L 97.451345 223.274888 
L 97.532509 215.215291 
L 97.613673 223.983555 
L 97.694836 223.20908 
L 97.776 205.470341 
L 97.938327 225.282955 
L 98.019491 225.436289 
L 98.181818 243.127349 
L 98.344145 223.955104 
L 98.506473 251.663598 
L 98.587636 244.288393 
L 98.6688 258.535003 
L 98.749964 254.062962 
L 98.831127 253.763461 
L 98.912291 267.050983 
L 99.074618 256.07243 
L 99.318109 285.887747 
L 99.480436 273.193822 
L 99.5616 238.909978 
L 99.642764 263.469475 
L 99.723927 252.659019 
L 99.805091 267.792882 
L 99.886255 261.576178 
L 100.048582 274.715619 
L 100.129745 253.404932 
L 100.292073 278.520757 
L 100.373236 265.559836 
L 100.535564 281.505591 
L 100.616727 281.34715 
L 100.779055 269.521878 
L 101.022545 278.542935 
L 101.184873 273.520032 
L 101.266036 247.618865 
L 101.428364 279.023347 
L 101.509527 256.593394 
L 101.590691 260.009188 
L 101.671855 274.215067 
L 101.753018 272.687487 
L 101.834182 276.082636 
L 101.915345 248.211334 
L 101.996509 252.819225 
L 102.077673 256.921731 
L 102.402327 220.946386 
L 102.483491 222.821653 
L 102.564655 232.841301 
L 102.645818 229.005558 
L 102.726982 243.322522 
L 102.808145 238.14001 
L 102.970473 243.182738 
L 103.1328 262.468393 
L 103.213964 260.914358 
L 103.376291 239.379033 
L 103.457455 242.776924 
L 103.782109 219.597769 
L 103.863273 207.213579 
L 103.944436 211.899337 
L 104.0256 199.013044 
L 104.187927 232.090743 
L 104.269091 225.881474 
L 104.512582 256.094112 
L 104.593745 239.14169 
L 104.674909 241.245871 
L 104.756073 249.126577 
L 104.837236 229.548036 
L 104.9184 237.379631 
L 105.080727 221.943334 
L 105.243055 242.777764 
L 105.567709 219.273163 
L 105.648873 219.815522 
L 105.8112 235.140071 
L 105.973527 214.867604 
L 106.054691 218.545819 
L 106.217018 211.318983 
L 106.298182 225.680993 
L 106.460509 207.128988 
L 106.541673 205.36386 
L 106.622836 216.921612 
L 106.704 214.869966 
L 106.785164 215.220209 
L 106.947491 196.265469 
L 107.028655 201.023332 
L 107.190982 183.453616 
L 107.272145 189.062114 
L 107.353309 186.923135 
L 107.515636 177.656018 
L 107.759127 205.073569 
L 107.840291 190.082252 
L 107.921455 204.303772 
L 108.083782 188.638484 
L 108.164945 202.912121 
L 108.246109 201.114924 
L 108.327273 185.257158 
L 108.408436 211.402262 
L 108.4896 211.27606 
L 108.570764 216.885616 
L 108.651927 207.326276 
L 108.895418 231.268815 
L 109.057745 223.676008 
L 109.138909 251.255304 
L 109.220073 229.425315 
L 109.301236 239.626348 
L 109.463564 224.118398 
L 109.625891 233.180054 
L 109.707055 230.064628 
L 109.788218 220.037274 
L 109.869382 231.70427 
L 109.950545 228.797687 
L 110.031709 212.260089 
L 110.112873 230.21189 
L 110.2752 207.54271 
L 110.518691 236.022824 
L 110.681018 221.927369 
L 110.843345 227.983919 
L 111.005673 219.06229 
L 111.086836 216.320122 
L 111.168 224.505128 
L 111.330327 206.955525 
L 111.411491 209.999717 
L 111.492655 225.77455 
L 111.573818 219.264183 
L 111.654982 203.789302 
L 111.736145 210.913777 
L 111.898473 204.745826 
L 111.979636 207.211846 
L 112.141964 213.889957 
L 112.223127 178.344758 
L 112.466618 216.044729 
L 112.547782 206.537961 
L 112.628945 206.721839 
L 112.710109 217.052353 
L 112.791273 197.729078 
L 112.872436 204.447599 
L 113.034764 207.818984 
L 113.115927 219.120767 
L 113.197091 200.488218 
L 113.278255 207.050309 
L 113.359418 213.446231 
L 113.440582 202.424551 
L 113.521745 206.318455 
L 113.602909 216.739809 
L 113.684073 205.293102 
L 113.765236 205.330162 
L 113.8464 210.566711 
L 113.927564 202.205863 
L 114.008727 220.987799 
L 114.089891 214.104813 
L 114.414545 196.762044 
L 114.495709 200.358474 
L 114.576873 209.065586 
L 114.658036 199.564592 
L 114.7392 213.785088 
L 114.901527 185.440713 
L 114.982691 204.845738 
L 115.063855 203.55738 
L 115.226182 211.339787 
L 115.307345 211.644143 
L 115.632 226.807804 
L 115.794327 239.566198 
L 116.037818 209.783064 
L 116.118982 218.88542 
L 116.200145 219.523563 
L 116.362473 204.862417 
L 116.443636 220.654693 
L 116.605964 209.631324 
L 116.687127 214.071246 
L 117.011782 181.08891 
L 117.092945 210.461811 
L 117.174109 207.020039 
L 117.661091 239.470649 
L 117.742255 236.300003 
L 117.904582 241.51253 
L 117.985745 251.910213 
L 118.066909 229.665457 
L 118.148073 236.868736 
L 118.391564 207.956571 
L 118.472727 224.873906 
L 118.553891 210.389367 
L 118.635055 219.290505 
L 118.716218 214.583478 
L 118.797382 217.844462 
L 118.878545 198.02526 
L 118.959709 206.819156 
L 119.040873 203.429066 
L 119.2032 217.52192 
L 119.446691 196.032538 
L 119.527855 207.269895 
L 119.690182 188.163478 
L 119.771345 200.957179 
L 120.014836 178.295625 
L 120.096 181.393314 
L 120.177164 166.23859 
L 120.258327 180.099116 
L 120.339491 164.448797 
L 120.420655 171.418849 
L 120.501818 166.392425 
L 120.582982 168.370113 
L 120.745309 157.291306 
L 120.907636 176.946716 
L 120.9888 150.084277 
L 121.069964 157.37805 
L 121.151127 160.300697 
L 121.313455 142.263372 
L 121.394618 145.573643 
L 121.638109 113.881635 
L 121.719273 139.552918 
L 121.800436 127.089583 
L 121.8816 136.293328 
L 121.962764 134.547237 
L 122.043927 112.578377 
L 122.206255 136.353877 
L 122.287418 118.202973 
L 122.368582 122.325553 
L 122.449745 127.07562 
L 122.612073 121.241738 
L 122.693236 121.496651 
L 122.855564 105.540318 
L 122.936727 114.372818 
L 123.017891 111.426644 
L 123.099055 116.506482 
L 123.180218 109.361384 
L 123.261382 113.759318 
L 123.423709 102.736175 
L 123.504873 107.099024 
L 123.586036 95.874397 
L 123.6672 102.285599 
L 123.748364 98.196418 
L 123.829527 115.166482 
L 123.910691 113.998229 
L 124.073018 109.472687 
L 124.154182 76.574531 
L 124.316509 116.090329 
L 124.397673 108.030328 
L 124.478836 117.14636 
L 124.641164 106.612937 
L 124.803491 124.278777 
L 124.884655 117.635163 
L 124.965818 121.296883 
L 125.128145 113.007577 
L 125.290473 95.082749 
L 125.4528 105.155483 
L 125.696291 76.496399 
L 125.777455 82.3464 
L 125.858618 68.275448 
L 125.939782 77.119499 
L 126.020945 64.162532 
L 126.102109 79.702316 
L 126.183273 76.102566 
L 126.264436 70.461679 
L 126.589091 101.474674 
L 126.670255 96.01538 
L 126.913745 127.465288 
L 127.157236 146.198361 
L 127.319564 174.852466 
L 127.400727 157.845145 
L 127.725382 201.479258 
L 127.806545 185.785537 
L 127.887709 189.087616 
L 127.968873 204.332492 
L 128.050036 191.769051 
L 128.212364 213.522447 
L 128.455855 228.61089 
L 128.537018 253.599921 
L 128.618182 250.935372 
L 128.699345 253.57146 
L 128.780509 244.252853 
L 128.861673 256.087644 
L 128.942836 240.032221 
L 129.105164 267.174939 
L 129.186327 266.032776 
L 129.267491 262.723008 
L 129.348655 266.345465 
L 129.429818 249.226369 
L 129.510982 260.657385 
L 129.592145 258.90587 
L 129.673309 263.440224 
L 129.754473 258.771998 
L 130.241455 277.969708 
L 130.322618 266.595826 
L 130.403782 269.694691 
L 130.484945 269.295604 
L 130.566109 267.344048 
L 130.647273 275.627588 
L 130.728436 264.355751 
L 130.8096 273.545804 
L 130.890764 272.995621 
L 130.971927 275.569967 
L 131.134255 266.164279 
L 131.215418 273.27511 
L 131.377745 255.56687 
L 131.458909 269.86769 
L 131.540073 268.973591 
L 131.7024 256.356056 
L 131.864727 271.896994 
L 131.945891 256.461686 
L 132.027055 267.480216 
L 132.108218 263.492196 
L 132.189382 271.571588 
L 132.270545 254.0066 
L 132.351709 262.760965 
L 132.432873 260.16256 
L 132.514036 263.443133 
L 132.5952 262.708666 
L 132.757527 259.335706 
L 132.838691 263.901872 
L 132.919855 276.505622 
L 133.001018 256.701618 
L 133.082182 262.520936 
L 133.163345 260.335402 
L 133.244509 252.87119 
L 133.325673 258.08567 
L 133.406836 253.907731 
L 133.569164 270.025249 
L 133.731491 260.93267 
L 133.812655 247.629658 
L 134.056145 262.458502 
L 134.137309 256.932347 
L 134.299636 261.193664 
L 134.543127 241.641761 
L 134.624291 242.162877 
L 134.705455 242.403981 
L 135.030109 253.180727 
L 135.111273 247.300288 
L 135.192436 253.295092 
L 135.2736 252.084273 
L 135.354764 252.827386 
L 135.435927 255.21265 
L 135.679418 245.244688 
L 135.760582 259.45834 
L 135.841745 255.869223 
L 135.922909 258.734199 
L 136.004073 258.644619 
L 136.085236 253.472247 
L 136.247564 274.140058 
L 136.328727 258.266606 
L 136.409891 263.850507 
L 136.491055 273.835966 
L 136.572218 272.078468 
L 136.653382 274.459014 
L 136.734545 267.186155 
L 136.815709 270.821337 
L 136.896873 263.30481 
L 136.978036 266.946563 
L 137.140364 287.638554 
L 137.221527 273.151323 
L 137.302691 276.351325 
L 137.383855 265.913102 
L 137.627345 274.676409 
L 137.708509 263.519812 
L 137.952 274.19726 
L 138.033164 273.699319 
L 138.276655 234.186313 
L 138.601309 251.485715 
L 138.763636 248.428902 
L 139.088291 260.671933 
L 139.169455 272.274128 
L 139.250618 264.070717 
L 139.331782 244.109463 
L 139.412945 246.634794 
L 139.575273 233.264649 
L 139.7376 249.516307 
L 139.818764 240.227778 
L 139.899927 240.594849 
L 140.062255 266.594626 
L 140.143418 251.843364 
L 140.224582 257.214091 
L 140.386909 280.573503 
L 140.549236 267.733644 
L 140.6304 266.402303 
L 140.792727 271.059368 
L 140.873891 256.097387 
L 140.955055 265.656025 
L 141.036218 262.888058 
L 141.117382 257.784968 
L 141.198545 268.98854 
L 141.279709 257.13515 
L 141.442036 269.556306 
L 141.5232 250.077451 
L 141.604364 250.74286 
L 141.685527 246.477866 
L 141.766691 255.944645 
L 142.010182 224.782339 
L 142.253673 257.073868 
L 142.334836 235.154449 
L 142.416 237.283086 
L 142.497164 251.27671 
L 142.578327 246.247777 
L 142.659491 240.701958 
L 142.902982 261.030505 
L 142.984145 261.245801 
L 143.065309 260.520388 
L 143.146473 265.794393 
L 143.227636 260.564547 
L 143.552291 224.562477 
L 143.795782 241.083521 
L 143.958109 261.532796 
L 144.039273 258.835922 
L 144.120436 257.092514 
L 144.282764 263.160876 
L 144.363927 258.107806 
L 144.445091 258.420465 
L 144.526255 262.812048 
L 144.688582 250.699379 
L 144.769745 262.939374 
L 144.850909 251.267099 
L 145.0944 274.871631 
L 145.175564 266.752798 
L 145.256727 267.655424 
L 145.337891 268.13479 
L 145.500218 248.628003 
L 145.581382 231.921371 
L 145.662545 234.660424 
L 145.743709 238.061869 
L 145.824873 252.284337 
L 145.906036 222.46962 
L 145.9872 226.62851 
L 146.393018 253.630585 
L 146.555345 267.813764 
L 146.636509 264.97406 
L 146.717673 246.785807 
L 146.798836 267.910389 
L 146.88 250.511953 
L 147.042327 269.551418 
L 147.123491 262.410864 
L 147.204655 264.221483 
L 147.285818 271.876205 
L 147.366982 267.209588 
L 147.448145 274.090117 
L 147.529309 270.042066 
L 147.610473 276.75162 
L 147.691636 264.815407 
L 147.7728 265.148372 
L 148.097455 276.174299 
L 148.178618 270.27508 
L 148.259782 276.109133 
L 148.422109 265.934518 
L 148.584436 270.732711 
L 148.6656 268.132103 
L 148.746764 269.524874 
L 148.909091 251.411729 
L 148.990255 264.93366 
L 149.071418 261.581913 
L 149.152582 260.602882 
L 149.314909 253.379966 
L 149.396073 252.848375 
L 149.477236 237.839931 
L 149.5584 240.890164 
L 149.639564 236.616953 
L 149.964218 196.537786 
L 150.045382 197.008812 
L 150.126545 222.139245 
L 150.207709 220.508001 
L 150.370036 232.427808 
L 150.4512 219.464611 
L 150.613527 238.157134 
L 150.694691 232.403797 
L 150.775855 237.948861 
L 150.857018 236.962896 
L 150.938182 239.622994 
L 151.019345 257.516721 
L 151.100509 251.124824 
L 151.181673 258.543482 
L 151.262836 243.502394 
L 151.344 245.739563 
L 151.506327 234.301878 
L 151.749818 207.654437 
L 151.912145 230.262257 
L 151.993309 229.427986 
L 152.074473 220.39089 
L 152.155636 242.516508 
L 152.2368 236.226421 
L 152.480291 243.805163 
L 152.642618 230.001153 
L 152.804945 227.356067 
L 152.967273 216.011424 
L 153.1296 209.226902 
L 153.210764 211.89682 
L 153.291927 204.08354 
L 153.373091 209.054564 
L 153.454255 208.301948 
L 153.535418 207.928282 
L 153.778909 184.199995 
L 153.860073 189.487395 
L 153.941236 179.383558 
L 154.0224 180.606772 
L 154.184727 175.771757 
L 154.265891 174.900473 
L 154.347055 161.698703 
L 154.428218 178.523275 
L 154.590545 168.203302 
L 154.671709 168.457178 
L 154.752873 175.278588 
L 154.834036 158.225549 
L 154.996364 174.063312 
L 155.077527 172.215926 
L 155.158691 164.047891 
L 155.239855 167.427267 
L 155.321018 164.979136 
L 155.402182 176.685406 
L 155.483345 162.426144 
L 155.726836 187.247828 
L 155.808 191.409423 
L 155.889164 187.983592 
L 156.132655 209.686389 
L 156.213818 199.561989 
L 156.294982 201.40262 
L 156.376145 208.226353 
L 156.457309 202.021659 
L 156.538473 209.910803 
L 156.7008 197.673695 
L 156.781964 191.63121 
L 156.863127 199.948799 
L 156.944291 186.205844 
L 157.025455 186.376715 
L 157.106618 182.96364 
L 157.187782 189.354356 
L 157.268945 183.248528 
L 157.350109 187.516277 
L 157.431273 183.191581 
L 157.512436 172.298792 
L 157.674764 185.204224 
L 157.755927 179.684384 
L 157.837091 181.012413 
L 157.918255 180.224877 
L 158.080582 170.032168 
L 158.161745 171.023718 
L 158.242909 168.939387 
L 158.324073 175.208069 
L 158.405236 163.004688 
L 158.4864 170.355507 
L 158.567564 160.15421 
L 158.648727 163.249111 
L 158.729891 164.681757 
L 158.811055 163.572909 
L 159.054545 148.011312 
L 159.298036 168.129258 
L 159.3792 151.617345 
L 159.460364 166.038199 
L 159.541527 161.615131 
L 159.622691 171.493241 
L 159.703855 169.806571 
L 159.785018 162.870642 
L 159.947345 173.638477 
L 160.109673 165.188816 
L 160.190836 166.949811 
L 160.272 167.899266 
L 160.353164 164.24356 
L 160.434327 176.952324 
L 160.515491 162.555397 
L 160.596655 169.795598 
L 160.677818 165.191398 
L 160.758982 166.78982 
L 160.840145 164.786177 
L 161.002473 152.403013 
L 161.083636 155.18681 
L 161.489455 181.861306 
L 161.570618 178.633473 
L 161.651782 179.213598 
L 161.814109 197.422083 
L 161.895273 199.494399 
L 161.976436 193.765895 
L 162.0576 209.239493 
L 162.138764 206.453957 
L 162.301091 221.148682 
L 162.382255 214.989149 
L 162.463418 216.098673 
L 162.625745 210.432549 
L 162.706909 222.431821 
L 162.788073 212.915559 
L 162.9504 226.9387 
L 163.031564 223.904518 
L 163.193891 237.900184 
L 163.275055 235.399658 
L 163.680873 262.327062 
L 163.8432 244.601515 
L 164.005527 260.339633 
L 164.167855 260.157305 
L 164.249018 266.100717 
L 164.330182 264.113178 
L 164.411345 261.352654 
L 164.492509 266.583343 
L 164.573673 266.542407 
L 164.654836 266.601961 
L 164.736 260.926001 
L 164.817164 263.118161 
L 165.060655 249.57341 
L 165.141818 254.666971 
L 165.466473 222.159267 
L 165.547636 205.733891 
L 165.709964 232.66942 
L 165.791127 229.322853 
L 165.872291 229.769198 
L 165.953455 233.594179 
L 166.115782 252.468724 
L 166.196945 248.707202 
L 166.359273 262.484371 
L 166.5216 262.195774 
L 166.683927 255.507584 
L 167.008582 224.469207 
L 167.252073 253.083767 
L 167.333236 252.513308 
L 167.982545 220.216882 
L 168.063709 228.302153 
L 168.144873 227.774913 
L 168.226036 228.009614 
L 168.388364 223.448755 
L 168.469527 223.97809 
L 168.550691 209.643308 
L 168.631855 211.13418 
L 168.713018 206.693139 
L 168.794182 209.595403 
L 168.875345 209.25453 
L 169.037673 205.461269 
L 169.2 187.186002 
L 169.443491 190.529748 
L 169.605818 169.773359 
L 169.686982 175.329213 
L 169.768145 171.058335 
L 169.930473 178.302212 
L 170.0928 169.146762 
L 170.173964 178.137646 
L 170.336291 165.423732 
L 170.417455 177.132692 
L 170.660945 159.152492 
L 170.742109 159.924546 
L 170.823273 171.260757 
L 170.904436 165.974233 
L 170.9856 172.50147 
L 171.147927 154.587218 
L 171.310255 147.741926 
L 171.391418 150.472495 
L 171.716073 122.421648 
L 171.797236 123.1358 
L 171.8784 96.336484 
L 171.959564 103.902014 
L 172.121891 97.835021 
L 172.284218 115.469734 
L 172.365382 109.617409 
L 172.446545 123.755358 
L 172.527709 120.719011 
L 172.608873 117.795978 
L 172.933527 167.220349 
L 173.177018 180.933414 
L 174.069818 245.508088 
L 174.232145 223.171147 
L 174.313309 233.968758 
L 174.475636 221.323045 
L 174.5568 228.357144 
L 174.637964 224.673857 
L 174.800291 233.676746 
L 174.881455 231.637706 
L 175.124945 248.333823 
L 175.206109 251.772237 
L 175.287273 250.925146 
L 175.368436 251.742227 
L 175.4496 254.512567 
L 175.611927 249.405632 
L 175.693091 248.893792 
L 175.774255 247.008258 
L 176.017745 264.603144 
L 176.261236 257.22895 
L 176.423564 258.754365 
L 176.585891 264.095491 
L 176.829382 249.914402 
L 176.910545 245.379769 
L 177.072873 260.320676 
L 177.2352 250.548704 
L 177.559855 266.059815 
L 177.803345 248.016973 
L 177.884509 242.810971 
L 177.965673 250.771616 
L 178.128 241.379288 
L 178.209164 258.024857 
L 178.371491 242.836501 
L 178.452655 242.709677 
L 178.614982 229.706174 
L 179.0208 258.180631 
L 179.183127 247.043989 
L 179.345455 261.454806 
L 179.426618 260.013743 
L 179.507782 258.021689 
L 179.670109 244.168693 
L 179.751273 243.206811 
L 179.994764 262.824534 
L 180.157091 248.732403 
L 180.319418 253.154896 
L 180.400582 245.557224 
L 180.481745 252.146392 
L 180.644073 229.680745 
L 180.725236 229.486782 
L 180.8064 239.666681 
L 180.887564 235.378883 
L 181.049891 245.596705 
L 181.131055 240.48236 
L 181.374545 249.947179 
L 181.455709 247.298795 
L 181.6992 254.65486 
L 181.780364 260.737969 
L 181.861527 260.608129 
L 182.023855 250.922084 
L 182.348509 270.634692 
L 182.510836 262.983348 
L 182.592 265.110131 
L 182.673164 264.91469 
L 182.835491 266.532798 
L 182.916655 271.262997 
L 182.997818 268.074008 
L 183.160145 274.341834 
L 183.241309 269.372045 
L 183.403636 272.538693 
L 183.4848 265.45096 
L 183.565964 265.940547 
L 183.728291 281.430063 
L 183.890618 274.799438 
L 184.052945 278.523485 
L 184.215273 277.020347 
L 184.296436 278.919152 
L 184.3776 274.762117 
L 184.539927 277.960181 
L 184.702255 273.594046 
L 184.783418 275.489573 
L 184.864582 273.910507 
L 184.945745 274.67481 
L 185.026909 274.159941 
L 185.189236 269.149105 
L 185.2704 270.680482 
L 185.351564 267.8004 
L 185.513891 273.379041 
L 185.676218 257.71814 
L 185.757382 258.75022 
L 185.919709 269.765484 
L 186.000873 269.522885 
L 186.082036 265.616182 
L 186.244364 278.828822 
L 186.487855 253.924509 
L 186.812509 271.913756 
L 186.893673 256.276334 
L 186.974836 258.728338 
L 187.056 266.058844 
L 187.461818 236.801376 
L 187.542982 225.525037 
L 187.705309 242.905036 
L 187.786473 239.374811 
L 187.9488 254.008374 
L 188.029964 249.22216 
L 188.192291 238.579694 
L 188.273455 238.28901 
L 188.516945 229.801816 
L 188.598109 231.394808 
L 188.760436 226.170322 
L 188.8416 223.725784 
L 189.003927 228.199394 
L 189.166255 221.805693 
L 189.247418 223.885833 
L 189.328582 222.53611 
L 189.409745 223.329365 
L 189.490909 232.871507 
L 189.572073 216.76444 
L 189.653236 218.856151 
L 189.7344 220.085245 
L 189.977891 211.793091 
L 190.140218 217.810196 
L 190.221382 214.401437 
L 190.302545 218.173656 
L 190.464873 210.079294 
L 190.546036 211.042008 
L 190.6272 205.477239 
L 190.870691 213.681978 
L 190.951855 208.884075 
L 191.033018 213.39073 
L 191.114182 212.883141 
L 191.195345 211.166144 
L 191.276509 211.303154 
L 191.438836 195.155412 
L 191.52 193.625461 
L 191.763491 207.905648 
L 192.088145 228.543004 
L 192.169309 219.780995 
L 192.331636 234.188801 
L 192.4128 234.035182 
L 192.575127 230.729236 
L 192.899782 252.616311 
L 193.143273 237.755793 
L 193.3056 252.998547 
L 193.386764 258.541826 
L 193.873745 217.477144 
L 193.954909 218.550127 
L 194.441891 254.563432 
L 194.523055 252.333719 
L 194.604218 251.408024 
L 194.685382 253.340425 
L 195.172364 232.727598 
L 195.253527 236.323876 
L 195.334691 235.805059 
L 195.659345 211.385412 
L 195.902836 235.410157 
L 196.065164 251.009514 
L 196.470982 227.322436 
L 196.633309 231.960563 
L 196.8768 216.76804 
L 196.957964 220.947512 
L 197.039127 209.432396 
L 197.120291 216.803546 
L 197.201455 214.333269 
L 197.282618 216.449754 
L 197.444945 212.058269 
L 197.526109 211.187465 
L 197.688436 198.457026 
L 198.013091 218.59291 
L 198.094255 212.753105 
L 198.337745 249.400329 
L 198.418909 244.855824 
L 198.905891 220.477118 
L 198.987055 228.452886 
L 199.149382 217.116362 
L 199.392873 230.649462 
L 199.5552 221.373638 
L 199.636364 220.24162 
L 199.717527 222.005982 
L 199.798691 221.424707 
L 199.879855 214.63443 
L 199.961018 215.590407 
L 200.123345 218.517472 
L 200.448 203.761033 
L 200.610327 209.909672 
L 200.691491 196.82455 
L 200.772655 197.884769 
L 200.853818 198.170836 
L 201.016145 187.925072 
L 201.097309 186.01343 
L 201.178473 189.743641 
L 201.259636 185.145927 
L 201.3408 189.846593 
L 201.584291 176.280255 
L 201.665455 191.426594 
L 202.071273 158.939825 
L 202.2336 180.167228 
L 202.395927 183.616231 
L 202.477091 189.220844 
L 202.558255 187.523723 
L 202.639418 190.303692 
L 202.720582 185.757694 
L 203.045236 214.545068 
L 203.207564 202.496851 
L 203.288727 201.855967 
L 203.369891 202.889899 
L 203.451055 202.533477 
L 203.613382 194.060144 
L 203.694545 198.0261 
L 203.938036 181.001038 
L 204.0192 181.665567 
L 204.100364 168.300675 
L 204.181527 178.972338 
L 204.262691 171.117468 
L 204.343855 171.390721 
L 204.668509 157.573414 
L 204.749673 162.657567 
L 204.912 150.354761 
L 204.993164 146.820773 
L 205.074327 155.327328 
L 205.317818 133.092849 
L 205.398982 134.736749 
L 205.480145 141.48692 
L 205.723636 132.778686 
L 205.8048 141.376593 
L 205.967127 123.382201 
L 206.048291 119.913566 
L 206.210618 128.021016 
L 206.291782 125.183655 
L 206.372945 129.399068 
L 206.454109 125.24637 
L 206.535273 128.186855 
L 206.616436 128.003343 
L 206.6976 117.751187 
L 206.778764 124.407425 
L 206.859927 122.864503 
L 206.941091 122.372858 
L 207.022255 120.152334 
L 207.103418 113.556442 
L 207.428073 131.824799 
L 207.509236 124.1197 
L 207.5904 127.218215 
L 207.752727 119.779003 
L 208.077382 137.111628 
L 208.239709 134.876398 
L 208.320873 130.373118 
L 208.564364 106.403565 
L 208.970182 80.012459 
L 209.213673 88.194761 
L 209.294836 78.794539 
L 209.781818 122.677999 
L 209.862982 124.514782 
L 210.106473 151.984595 
L 210.349964 168.300526 
L 210.512291 178.921379 
L 210.593455 180.114783 
L 210.836945 193.411222 
L 211.080436 209.536238 
L 211.242764 221.062209 
L 211.323927 220.596089 
L 211.729745 242.102817 
L 211.810909 243.699274 
L 212.297891 280.791061 
L 212.460218 273.244946 
L 212.541382 275.400684 
L 212.703709 282.340388 
L 213.109527 262.943107 
L 213.271855 272.122979 
L 213.353018 268.097772 
L 213.434182 268.989993 
L 213.515345 270.793386 
L 213.596509 270.697394 
L 213.758836 265.889121 
L 213.84 267.433228 
L 213.921164 266.676218 
L 214.002327 262.652886 
L 214.083491 263.41217 
L 214.245818 270.058468 
L 214.408145 258.837686 
L 214.570473 264.997104 
L 214.651636 264.172898 
L 214.7328 252.833343 
L 214.813964 253.860933 
L 215.057455 268.421848 
L 215.138618 267.160359 
L 215.300945 249.614076 
L 215.382109 236.933204 
L 215.463273 249.734549 
L 215.544436 249.46872 
L 215.6256 245.659872 
L 215.706764 246.534385 
L 215.787927 247.400538 
L 215.950255 258.883816 
L 216.031418 254.347622 
L 216.112582 252.825066 
L 216.274909 255.715625 
L 216.356073 255.920302 
L 216.437236 255.711457 
L 216.5184 254.150093 
L 216.599564 254.156537 
L 216.761891 256.722805 
L 216.843055 255.404143 
L 217.005382 251.590642 
L 217.167709 249.086164 
L 217.248873 254.796023 
L 217.330036 254.078968 
L 217.4112 252.031194 
L 217.735855 268.582118 
L 217.898182 272.412591 
L 217.979345 272.367537 
L 218.385164 266.037917 
L 218.466327 266.553316 
L 218.628655 269.459669 
L 218.709818 268.716383 
L 218.953309 272.656928 
L 219.034473 272.418472 
L 219.1968 267.905746 
L 219.277964 264.284411 
L 219.359127 264.977914 
L 219.521455 267.824411 
L 219.683782 255.289125 
L 219.846109 264.410325 
L 219.927273 257.039179 
L 220.0896 268.305847 
L 220.251927 256.462061 
L 220.333091 262.984504 
L 220.576582 249.354264 
L 220.657745 250.170502 
L 220.820073 259.451655 
L 220.9824 241.592874 
L 221.063564 231.137852 
L 221.307055 249.450983 
L 221.388218 248.257308 
L 221.469382 245.945608 
L 221.631709 253.748075 
L 221.794036 260.36279 
L 221.8752 257.261546 
L 222.037527 246.693009 
L 222.118691 247.144247 
L 222.281018 251.005285 
L 222.443345 249.650678 
L 222.605673 254.249899 
L 222.930327 240.1905 
L 223.011491 241.836575 
L 223.336145 260.994567 
L 223.498473 254.180461 
L 223.6608 248.22911 
L 223.741964 247.434779 
L 223.904291 240.405624 
L 224.066618 243.150742 
L 224.228945 230.077063 
L 224.310109 233.491508 
L 224.391273 234.231456 
L 224.715927 232.267965 
L 225.040582 212.900311 
L 225.121745 218.272554 
L 225.4464 233.690744 
L 225.608727 242.575721 
L 225.771055 255.981858 
L 226.501527 242.979702 
L 226.663855 234.485596 
L 226.745018 236.579115 
L 227.069673 232.581633 
L 227.150836 231.096762 
L 227.232 237.395479 
L 227.313164 237.053274 
L 227.556655 225.092922 
L 227.800145 220.870869 
L 227.962473 210.688105 
L 228.043636 210.741924 
L 228.205964 215.406421 
L 228.530618 202.791978 
L 228.611782 204.885722 
L 228.774109 196.296157 
L 229.0176 214.462313 
L 229.098764 214.828132 
L 229.179927 213.190338 
L 229.342255 226.154697 
L 229.423418 225.138076 
L 229.585745 226.856732 
L 230.072727 204.288959 
L 230.235055 210.235331 
L 230.559709 189.357714 
L 230.640873 180.118536 
L 230.722036 181.612493 
L 230.965527 206.170894 
L 231.696 237.076351 
L 231.777164 235.102104 
L 231.939491 223.99168 
L 232.020655 225.471287 
L 232.101818 224.593089 
L 232.345309 206.731166 
L 232.426473 207.24924 
L 232.5888 210.16128 
L 233.887418 165.904561 
L 233.968582 169.648015 
L 234.049745 167.576656 
L 234.212073 150.588404 
L 234.3744 159.141261 
L 234.617891 149.397011 
L 234.699055 148.874881 
L 234.861382 141.223021 
L 235.104873 133.396561 
L 235.186036 134.504581 
L 235.429527 146.863223 
L 235.673018 127.52809 
L 235.754182 128.255965 
L 235.835345 133.85118 
L 236.322327 112.997113 
L 236.484655 120.534343 
L 236.646982 108.748397 
L 236.890473 110.180531 
L 236.971636 101.379177 
L 237.0528 111.049229 
L 237.296291 97.479108 
L 237.539782 103.011332 
L 237.620945 100.667962 
L 237.783273 107.300868 
L 237.864436 98.756233 
L 238.026764 106.259625 
L 238.107927 103.322791 
L 238.189091 106.940358 
L 238.432582 93.634372 
L 238.513745 94.357223 
L 238.676073 102.99668 
L 238.919564 89.13961 
L 239.000727 99.881471 
L 239.081891 90.968795 
L 239.163055 101.667789 
L 239.244218 95.72884 
L 239.325382 96.662417 
L 239.568873 106.660403 
L 239.7312 100.754005 
L 239.812364 107.192803 
L 239.893527 101.763646 
L 240.137018 110.306183 
L 240.218182 109.88773 
L 240.299345 108.50495 
L 240.380509 111.421643 
L 240.461673 108.419048 
L 240.624 113.282468 
L 240.705164 109.283919 
L 240.948655 126.859845 
L 241.110982 127.45022 
L 241.273309 130.981203 
L 241.354473 124.626236 
L 241.5168 130.433937 
L 241.679127 124.98221 
L 241.841455 134.472474 
L 242.003782 128.293548 
L 242.166109 132.248086 
L 242.247273 130.618232 
L 242.328436 125.413295 
L 242.490764 129.728349 
L 242.571927 131.34554 
L 242.653091 130.561859 
L 242.734255 125.178501 
L 242.815418 128.965833 
L 242.977745 122.911152 
L 243.058909 124.087434 
L 243.221236 129.544759 
L 243.3024 126.171263 
L 243.708218 139.224586 
L 243.870545 138.627693 
L 243.951709 139.863664 
L 244.032873 136.875251 
L 244.1952 143.493301 
L 244.357527 139.768514 
L 244.519855 144.124517 
L 244.601018 145.936495 
L 244.844509 156.805701 
L 245.088 162.834147 
L 245.250327 158.112897 
L 245.331491 158.957573 
L 245.574982 173.395479 
L 245.737309 168.493777 
L 245.818473 168.548626 
L 246.143127 133.502111 
L 246.305455 146.430078 
L 246.467782 163.590581 
L 246.548945 163.032544 
L 246.792436 175.445678 
L 246.8736 171.844023 
L 246.954764 172.520149 
L 247.685236 225.542175 
L 247.847564 230.59567 
L 248.091055 238.368532 
L 248.253382 246.39727 
L 248.496873 257.785622 
L 248.6592 260.056031 
L 248.821527 260.643786 
L 249.146182 260.643786 
L 249.227345 261.062806 
L 249.389673 263.327779 
L 249.470836 262.750088 
L 249.633164 259.752978 
L 249.876655 266.261315 
L 250.038982 261.239649 
L 250.120145 261.480683 
L 250.282473 265.0586 
L 250.525964 258.376997 
L 251.012945 282.021848 
L 251.175273 277.694535 
L 251.256436 278.249987 
L 251.418764 282.100441 
L 251.662255 270.514386 
L 251.743418 271.764847 
L 251.986909 275.876339 
L 252.149236 275.455812 
L 252.392727 273.752825 
L 252.473891 273.886746 
L 252.636218 274.179632 
L 253.1232 262.909788 
L 253.204364 263.386952 
L 253.285527 263.864117 
L 253.366691 263.313434 
L 253.772509 246.333799 
L 253.853673 246.736003 
L 254.016 253.888907 
L 254.097164 252.581246 
L 254.340655 249.246442 
L 254.421818 249.246442 
L 254.502982 249.566623 
L 254.746473 251.868257 
L 254.9088 250.034065 
L 255.233455 230.089896 
L 255.314618 231.133047 
L 255.558109 235.19884 
L 255.8016 251.032839 
L 255.882764 249.434035 
L 256.126255 246.493096 
L 256.207418 246.384632 
L 256.288582 247.175182 
L 256.6944 255.917272 
L 256.856727 246.675019 
L 257.019055 238.814092 
L 257.262545 246.888426 
L 257.424873 255.735704 
L 257.749527 241.974003 
L 257.911855 232.528256 
L 258.723491 253.532518 
L 259.129309 271.670736 
L 259.453964 268.731396 
L 259.697455 270.454985 
L 259.778618 270.383843 
L 259.940945 270.129268 
L 260.022109 269.623695 
L 260.427927 263.949389 
L 260.833745 261.483375 
L 261.320727 245.713937 
L 261.401891 245.222096 
L 261.726545 252.127766 
L 261.888873 252.317327 
L 262.538182 264.820165 
L 262.700509 265.343739 
L 262.944 261.531234 
L 263.187491 258.98458 
L 263.268655 258.360483 
L 263.593309 266.215996 
L 264.161455 235.902631 
L 264.323782 244.137782 
L 264.404945 244.117466 
L 265.297745 197.486251 
L 266.109382 242.378147 
L 266.190545 241.768174 
L 266.352873 239.89986 
L 266.839855 211.372643 
L 267.326836 196.451432 
L 267.408 196.810821 
L 267.976145 226.3333 
L 268.219636 221.033489 
L 268.544291 211.48094 
L 268.787782 207.845663 
L 268.950109 210.116122 
L 269.031273 209.054303 
L 269.518255 196.765262 
L 269.599418 196.349097 
L 269.680582 197.612116 
L 269.761745 197.394125 
L 269.924073 192.126625 
L 270.005236 192.270904 
L 270.0864 192.384885 
L 270.248727 186.613712 
L 270.329891 187.436324 
L 270.411055 188.788679 
L 270.492218 188.414452 
L 270.735709 186.831238 
L 270.816873 186.871352 
L 270.898036 187.097849 
L 271.060364 184.691744 
L 271.385018 176.882839 
L 271.709673 171.579584 
L 271.790836 172.76931 
L 271.872 173.330058 
L 272.034327 157.835741 
L 272.196655 172.602473 
L 272.440145 169.275474 
L 272.521309 169.621634 
L 272.683636 171.315819 
L 273.495273 186.948273 
L 273.738764 187.715014 
L 273.819927 188.340468 
L 273.982255 184.419651 
L 274.144582 194.976188 
L 274.225745 193.680028 
L 274.306909 192.314349 
L 274.388073 192.486035 
L 274.5504 192.721777 
L 274.712727 192.798401 
L 274.793891 192.87541 
L 274.956218 189.641414 
L 275.199709 192.434068 
L 275.280873 192.840613 
L 275.4432 195.384201 
L 275.605527 191.170423 
L 275.767855 195.440685 
L 275.930182 193.662558 
L 276.092509 194.683628 
L 276.336 192.031517 
L 276.417164 193.782791 
L 276.579491 200.524586 
L 276.660655 200.135651 
L 276.741818 200.219947 
L 277.147636 202.933103 
L 277.309964 207.699066 
L 277.553455 200.033779 
L 277.715782 202.855853 
L 277.796945 203.015457 
L 277.959273 201.863255 
L 278.1216 199.38596 
L 278.283927 202.595237 
L 278.446255 197.02918 
L 278.933236 215.908231 
L 279.095564 213.287868 
L 279.420218 206.469446 
L 279.663709 204.124226 
L 279.744873 204.379505 
L 279.826036 205.206608 
L 279.988364 213.605483 
L 280.150691 226.672049 
L 280.313018 225.208987 
L 280.475345 222.934228 
L 280.556509 223.323163 
L 280.637673 222.666641 
L 280.8 220.460567 
L 281.205818 224.110757 
L 281.368145 224.689014 
L 281.773964 219.400419 
L 281.855127 219.07359 
L 282.017455 220.914434 
L 282.179782 216.425172 
L 282.342109 208.17655 
L 282.504436 209.876153 
L 282.666764 211.367492 
L 282.747927 210.955091 
L 283.072582 196.947561 
L 283.153745 196.284098 
L 283.316073 202.951416 
L 283.559564 200.351027 
L 283.721891 190.338496 
L 283.803055 195.339085 
L 283.965382 188.054073 
L 284.046545 189.358462 
L 284.127709 189.005036 
L 284.452364 184.340027 
L 284.614691 187.734878 
L 284.695855 187.037061 
L 284.858182 190.911432 
L 285.020509 184.622409 
L 285.101673 185.661502 
L 285.182836 194.05319 
L 285.345164 187.032019 
L 285.426327 187.725348 
L 285.588655 187.064571 
L 285.669818 188.841704 
L 285.832145 208.441255 
L 285.913309 206.683802 
L 285.994473 204.66256 
L 286.075636 205.187622 
L 286.1568 204.439774 
L 286.237964 201.742281 
L 286.319127 201.895844 
L 286.400291 203.760041 
L 286.562618 201.176632 
L 286.724945 207.583076 
L 286.887273 202.77877 
L 287.130764 210.333494 
L 287.211927 209.883332 
L 287.455418 208.067884 
L 287.617745 203.899095 
L 287.780073 208.675491 
L 288.185891 198.423815 
L 288.591709 210.561737 
L 289.322182 245.834939 
L 289.403345 246.664 
L 289.565673 244.253458 
L 289.809164 252.606838 
L 289.971491 249.977957 
L 290.214982 252.922472 
L 290.539636 245.695355 
L 290.6208 245.464183 
L 290.864291 236.833896 
L 290.945455 238.93142 
L 291.107782 241.553579 
L 291.351273 238.890678 
L 291.5136 239.500356 
L 291.675927 238.813286 
L 291.838255 236.240908 
L 291.919418 234.58357 
L 292.4064 254.089767 
L 292.812218 249.890751 
L 292.893382 249.421322 
L 293.136873 250.752683 
L 293.705018 245.637014 
L 293.867345 243.926079 
L 294.435491 249.552925 
L 294.678982 255.283245 
L 294.841309 259.709055 
L 294.922473 259.658474 
L 295.0848 259.582107 
L 295.328291 259.787853 
L 295.571782 256.354168 
L 295.9776 240.990049 
L 296.058764 240.088418 
L 296.302255 245.036994 
L 296.464582 245.380529 
L 296.708073 238.330898 
L 297.113891 217.532032 
L 297.195055 219.14589 
L 297.357382 226.209529 
L 297.519709 232.498209 
L 297.682036 236.279869 
L 297.844364 239.904499 
L 298.087855 230.974987 
L 298.169018 230.554938 
L 298.656 207.382176 
L 298.899491 199.906903 
L 299.224145 182.419003 
L 299.305309 184.172947 
L 299.467636 204.589822 
L 299.5488 199.618007 
L 299.629964 201.234781 
L 300.035782 217.020642 
L 300.279273 221.556213 
L 300.603927 239.367916 
L 300.766255 235.137345 
L 301.090909 218.560423 
L 301.172073 217.539011 
L 302.308364 182.127528 
L 302.389527 183.705791 
L 302.633018 175.243049 
L 302.795345 169.252267 
L 302.876509 173.450551 
L 303.038836 166.454604 
L 303.201164 168.923119 
L 303.363491 160.463984 
L 303.525818 163.202187 
L 303.606982 162.85219 
L 303.688145 164.328076 
L 303.769309 159.419076 
L 303.850473 161.666041 
L 304.0128 153.619092 
L 304.175127 163.465699 
L 304.256291 156.930202 
L 304.337455 157.70221 
L 304.418618 156.696432 
L 304.580945 159.53942 
L 304.662109 159.584933 
L 304.743273 154.018296 
L 304.824436 154.852052 
L 304.986764 158.955129 
L 305.067927 157.740911 
L 305.149091 157.561177 
L 305.230255 159.131303 
L 305.392582 156.406664 
L 305.473745 157.446061 
L 305.636073 155.804808 
L 305.717236 156.977716 
L 305.7984 160.250527 
L 305.879564 158.253125 
L 306.041891 162.439552 
L 306.123055 156.653997 
L 306.204218 157.906776 
L 306.285382 155.402871 
L 306.366545 167.335095 
L 306.610036 154.434058 
L 306.6912 161.036734 
L 306.772364 155.26548 
L 306.853527 156.015088 
L 307.015855 153.320791 
L 307.097018 155.148174 
L 307.178182 151.013055 
L 307.259345 151.483414 
L 307.502836 160.549174 
L 307.584 161.148054 
L 307.746327 166.16114 
L 307.908655 162.738473 
L 307.989818 163.267291 
L 308.070982 168.222313 
L 308.395636 160.0634 
L 308.557964 149.927546 
L 308.639127 150.277478 
L 308.720291 151.292892 
L 308.801455 151.222295 
L 308.882618 151.136873 
L 308.963782 152.323571 
L 309.044945 151.187371 
L 309.207273 163.039839 
L 309.3696 181.29913 
L 309.450764 178.768832 
L 309.613091 187.862357 
L 309.856582 199.380904 
L 310.100073 215.501022 
L 310.424727 236.641595 
L 310.587055 242.097941 
L 310.668218 241.197626 
L 310.830545 232.614859 
L 310.992873 224.712322 
L 311.1552 223.23551 
L 311.317527 227.539411 
L 311.398691 226.31451 
L 311.561018 219.357637 
L 311.885673 236.681802 
L 311.966836 237.94277 
L 312.210327 228.933917 
L 312.778473 202.023209 
L 313.184291 188.049589 
L 313.265455 187.988832 
L 313.346618 191.026291 
L 313.671273 222.698792 
L 313.752436 225.029351 
L 314.482909 211.476328 
L 315.132218 194.662133 
L 315.375709 202.564865 
L 315.862691 232.192039 
L 316.106182 237.633648 
L 316.430836 231.493812 
L 316.836655 218.499542 
L 317.080145 215.309337 
L 317.323636 211.795873 
L 317.567127 214.095116 
L 317.891782 199.925813 
L 318.135273 200.945975 
L 318.378764 199.044604 
L 318.459927 199.179314 
L 318.622255 199.448733 
L 318.865745 195.9033 
L 319.352727 188.228245 
L 319.433891 188.045163 
L 319.596218 186.153161 
L 320.0832 177.273167 
L 320.489018 166.144352 
L 321.219491 151.688969 
L 321.300655 151.960372 
L 321.706473 157.126961 
L 321.787636 156.905352 
L 321.949964 156.573793 
L 322.112291 156.887582 
L 322.193455 156.218161 
L 322.436945 151.189079 
L 322.680436 154.538831 
L 322.842764 151.176463 
L 322.923927 151.351661 
L 323.086255 154.075791 
L 323.167418 153.378693 
L 323.329745 149.956067 
L 323.410909 150.534894 
L 324.384873 168.86661 
L 324.628364 162.128315 
L 325.034182 170.383643 
L 325.196509 170.93808 
L 325.521164 164.66251 
L 325.683491 164.570832 
L 325.764655 165.246624 
L 326.089309 174.152659 
L 326.251636 173.534821 
L 326.3328 173.716974 
L 326.576291 177.870273 
L 326.657455 177.607655 
L 326.900945 175.014514 
L 326.982109 175.255796 
L 327.144436 175.738359 
L 327.2256 175.55345 
L 327.469091 169.547967 
L 327.550255 170.078869 
L 328.361891 215.565163 
L 329.335855 264.876561 
L 329.741673 268.951542 
L 330.147491 269.885693 
L 330.228655 269.808552 
L 330.7968 262.069696 
L 331.364945 271.608916 
L 331.770764 271.849569 
L 331.851927 271.621845 
L 332.420073 264.021038 
L 333.150545 269.219382 
L 333.556364 270.714041 
L 333.962182 270.948468 
L 334.205673 266.904212 
L 334.936145 255.280962 
L 335.179636 253.372781 
L 335.585455 252.822791 
L 335.991273 253.241698 
L 336.397091 254.74904 
L 336.478255 254.583178 
L 337.371055 243.858487 
L 337.776873 249.432129 
L 338.182691 247.082605 
L 338.750836 254.672229 
L 338.994327 256.423628 
L 339.481309 249.146575 
L 339.887127 239.817381 
L 340.130618 238.242754 
L 340.211782 238.442156 
L 340.6176 248.633136 
L 340.861091 250.18254 
L 341.266909 262.623191 
L 341.348073 261.42898 
L 341.591564 258.345559 
L 341.916218 266.881091 
L 341.997382 266.769428 
L 342.727855 257.243566 
L 342.971345 255.309385 
L 343.052509 255.981164 
L 343.701818 272.455954 
L 344.026473 273.847661 
L 344.351127 273.464676 
L 345.000436 270.830282 
L 345.406255 256.314874 
L 345.649745 246.150841 
L 345.812073 246.525923 
L 345.9744 249.197873 
L 346.217891 255.968161 
L 346.461382 260.87956 
L 346.542545 261.354273 
L 346.623709 260.855124 
L 347.435345 246.952354 
L 347.922327 230.128245 
L 348.084655 225.763906 
L 348.165818 225.464841 
L 348.246982 226.116377 
L 348.6528 246.516487 
L 348.815127 240.293131 
L 349.220945 206.73176 
L 349.5456 222.845276 
L 350.032582 245.48113 
L 350.113745 247.383222 
L 350.357236 237.095169 
L 350.681891 220.894111 
L 350.925382 215.005755 
L 351.250036 218.527026 
L 351.493527 212.03386 
L 351.737018 206.722584 
L 351.980509 205.592902 
L 352.061673 205.514321 
L 352.305164 199.806612 
L 352.548655 195.304951 
L 352.954473 187.663854 
L 353.1168 186.371165 
L 353.279127 188.532483 
L 353.441455 190.503915 
L 353.766109 182.227833 
L 354.0096 180.228186 
L 354.253091 173.230529 
L 354.415418 176.768141 
L 354.496582 176.295693 
L 354.821236 170.322804 
L 355.145891 158.645022 
L 355.227055 159.675133 
L 355.389382 162.800014 
L 355.470545 163.451371 
L 355.551709 166.034901 
L 355.632873 165.922617 
L 355.957527 162.722782 
L 356.038691 163.586435 
L 356.119855 163.440349 
L 356.201018 161.982764 
L 356.282182 162.416664 
L 356.444509 165.616494 
L 356.525673 165.097002 
L 356.688 161.437685 
L 356.769164 161.591739 
L 356.850327 163.946757 
L 356.931491 163.930094 
L 357.093818 163.027637 
L 357.174982 163.213736 
L 357.256145 163.949345 
L 357.5808 173.557138 
L 357.661964 173.026041 
L 357.824291 176.55923 
L 358.4736 162.121385 
L 358.960582 172.442849 
L 359.122909 171.138451 
L 359.285236 173.082477 
L 359.691055 182.68545 
L 359.853382 183.942742 
L 359.934545 183.942742 
L 360.096873 186.437963 
L 360.421527 192.063425 
L 360.989673 189.545911 
L 361.233164 188.468045 
L 361.476655 196.264998 
L 361.557818 195.715571 
L 361.720145 194.304464 
L 361.963636 197.001912 
L 362.207127 196.119005 
L 362.450618 196.836262 
L 362.9376 200.240962 
L 363.018764 200.063386 
L 363.262255 194.66005 
L 363.343418 195.084894 
L 363.668073 197.809539 
L 363.8304 199.616456 
L 364.155055 214.75607 
L 364.398545 215.793168 
L 364.804364 224.980025 
L 365.129018 232.297081 
L 365.372509 236.153496 
L 365.778327 242.799141 
L 365.940655 244.314073 
L 366.589964 268.921342 
L 366.671127 268.355584 
L 366.995782 261.375372 
L 367.563927 229.670223 
L 367.807418 218.761744 
L 368.050909 213.83391 
L 368.2944 212.594252 
L 368.619055 228.247269 
L 368.862545 226.33908 
L 369.1872 227.437125 
L 370.323491 215.167076 
L 370.485818 215.662311 
L 370.566982 215.081457 
L 371.297455 193.280966 
L 371.459782 194.253189 
L 371.622109 195.147857 
L 371.703273 195.265428 
L 371.8656 196.969813 
L 371.946764 198.163752 
L 372.109091 196.635962 
L 372.352582 192.238356 
L 372.433745 193.182291 
L 373.083055 206.117633 
L 373.245382 211.57614 
L 373.488873 219.604503 
L 373.570036 221.082062 
L 374.057018 250.876169 
L 374.300509 260.265594 
L 374.462836 261.448131 
L 374.625164 261.551153 
L 375.193309 267.769742 
L 375.4368 272.140521 
L 375.842618 268.658024 
L 376.167273 264.141838 
L 376.248436 264.898065 
L 376.491927 266.342458 
L 376.654255 266.382847 
L 376.978909 267.334571 
L 377.141236 267.550057 
L 377.303564 268.197419 
L 377.384727 268.07048 
L 377.709382 265.385953 
L 378.034036 262.815552 
L 378.439855 266.477639 
L 378.683345 266.796671 
L 379.089164 263.633248 
L 379.251491 262.588198 
L 379.413818 260.974244 
L 380.387782 242.511767 
L 380.874764 217.494677 
L 381.037091 213.117038 
L 381.280582 216.732206 
L 381.767564 230.558318 
L 382.011055 239.614766 
L 382.173382 244.81024 
L 382.498036 247.059129 
L 382.5792 247.36462 
L 382.903855 235.753343 
L 383.390836 215.115044 
L 383.715491 207.237143 
L 383.958982 207.824044 
L 384.445964 219.812867 
L 384.851782 231.86542 
L 384.932945 232.729074 
L 385.014109 231.984141 
L 385.419927 220.758486 
L 386.312727 193.333618 
L 386.475055 193.148787 
L 386.718545 194.889861 
L 387.286691 203.707582 
L 388.017164 190.136708 
L 388.341818 182.664537 
L 388.666473 176.855973 
L 388.747636 175.942793 
L 388.8288 175.986672 
L 389.072291 175.992666 
L 389.234618 175.718856 
L 389.315782 175.136609 
L 389.7216 168.988541 
L 389.965091 167.626841 
L 390.127418 167.356386 
L 390.370909 167.916452 
L 390.695564 170.715728 
L 390.857891 169.870506 
L 391.020218 166.738144 
L 391.182545 162.933389 
L 391.426036 165.667439 
L 391.588364 163.241967 
L 391.750691 160.703192 
L 391.913018 160.798707 
L 391.994182 160.485565 
L 392.318836 151.80589 
L 392.562327 150.643288 
L 392.724655 150.546268 
L 392.886982 147.421217 
L 393.130473 143.517657 
L 393.211636 143.049359 
L 393.373964 152.407851 
L 393.698618 170.285174 
L 394.1856 181.656972 
L 395.484218 223.804206 
L 395.646545 226.930621 
L 396.214691 245.758819 
L 396.782836 263.557195 
L 397.188655 267.650247 
L 397.350982 268.93507 
L 397.7568 266.155999 
L 398.000291 268.791317 
L 398.324945 271.440345 
L 398.406109 271.553594 
L 398.406109 271.553594 
" clip-path="url(#pc8b3a5a023)" style="fill: none; stroke: #93c572; stroke-width: 1.5; stroke-linecap: square"/>
   </g>
   <g id="line2d_13">
    <path d="M 73.832727 53.568 
L 73.995055 97.64517 
L 74.887855 97.64517 
L 75.699491 129.946395 
L 76.592291 139.130588 
L 76.998109 150.819562 
L 77.079273 150.315127 
L 77.485091 142.08762 
L 78.053236 138.33045 
L 78.215564 136.538837 
L 78.296727 138.347845 
L 78.621382 177.885101 
L 78.783709 180.685584 
L 79.189527 183.17297 
L 79.270691 185.051555 
L 79.676509 207.542392 
L 81.949091 276.94567 
L 82.030255 276.719544 
L 83.247709 264.82184 
L 84.384 261.221218 
L 84.870982 263.256352 
L 85.601455 266.387327 
L 85.763782 264.560925 
L 86.656582 253.463358 
L 88.279855 235.721167 
L 89.091491 230.694212 
L 91.445236 230.694212 
L 91.607564 233.39033 
L 93.149673 265.413246 
L 93.555491 266.43951 
L 93.636655 266.404721 
L 94.285964 221.840511 
L 94.367127 219.961926 
L 94.529455 227.841546 
L 95.0976 262.386637 
L 95.422255 253.759061 
L 96.964364 209.803651 
L 97.045527 212.656318 
L 97.289018 229.146119 
L 99.480436 255.811589 
L 100.210909 261.082064 
L 100.697891 252.524066 
L 102.726982 198.81045 
L 103.538618 196.027362 
L 103.944436 201.089104 
L 105.161891 216.309122 
L 107.028655 181.103047 
L 107.272145 175.519475 
L 107.515636 180.233332 
L 107.677964 184.66888 
L 108.408436 221.075161 
L 108.814255 217.335386 
L 109.544727 231.633505 
L 110.843345 197.732003 
L 111.168 195.731658 
L 112.141964 190.983013 
L 113.684073 198.410381 
L 114.333382 201.471779 
L 114.576873 196.792711 
L 115.145018 182.912055 
L 115.226182 184.581909 
L 115.794327 197.001443 
L 115.875491 195.975179 
L 116.362473 183.468673 
L 116.687127 192.687655 
L 116.768291 192.18322 
L 117.498764 179.363617 
L 117.823418 165.743876 
L 118.878545 151.898009 
L 119.284364 146.244859 
L 119.771345 132.016318 
L 119.852509 132.607724 
L 120.096 138.730519 
L 120.177164 135.042927 
L 120.420655 117.80517 
L 120.582982 120.30995 
L 121.151127 137.112849 
L 121.719273 125.980494 
L 122.043927 118.796645 
L 122.368582 121.266637 
L 122.693236 131.651037 
L 122.936727 112.830399 
L 123.017891 112.865187 
L 123.504873 120.449104 
L 123.748364 114.395886 
L 123.829527 115.161236 
L 124.397673 131.007448 
L 124.478836 128.728794 
L 124.56 114.500252 
L 124.641164 115.161236 
L 124.803491 113.491382 
L 125.046982 117.370312 
L 125.209309 129.424566 
L 125.371636 137.72165 
L 125.4528 134.45152 
L 125.696291 115.213418 
L 125.777455 115.613487 
L 125.858618 116.883272 
L 126.020945 96.062288 
L 126.102109 101.211003 
L 126.3456 138.173902 
L 126.589091 147.932107 
L 127.157236 172.91033 
L 127.400727 199.593194 
L 127.644218 205.524652 
L 127.725382 205.281132 
L 127.806545 205.455075 
L 128.050036 228.815627 
L 128.212364 230.520269 
L 128.374691 239.861011 
L 128.455855 239.443548 
L 128.537018 239.026085 
L 128.618182 240.991641 
L 128.780509 250.001891 
L 128.861673 249.462668 
L 129.024 244.644445 
L 129.105164 243.270295 
L 129.267491 249.393091 
L 129.348655 247.305774 
L 129.673309 257.759752 
L 129.754473 257.342288 
L 129.835636 257.864117 
L 129.997964 262.838889 
L 130.322618 260.142771 
L 130.566109 252.837163 
L 130.971927 254.054764 
L 131.053091 253.463358 
L 131.540073 262.734523 
L 134.056145 242.626706 
L 134.218473 241.670019 
L 134.543127 256.594333 
L 134.705455 264.700079 
L 135.2736 246.088173 
L 135.354764 246.64479 
L 136.896873 271.362098 
L 137.546182 259.012142 
L 138.520145 240.313263 
L 138.601309 240.800304 
L 138.8448 253.880821 
L 139.818764 266.509087 
L 140.224582 273.971244 
L 140.305745 271.623013 
L 140.6304 252.315334 
L 141.685527 250.367172 
L 142.334836 250.471538 
L 142.578327 250.52372 
L 142.740655 251.010761 
L 143.3088 253.237232 
L 143.471127 255.759406 
L 143.876945 263.760787 
L 144.039273 264.665291 
L 144.120436 264.630502 
L 144.2016 263.395506 
L 145.175564 230.555058 
L 145.906036 220.10108 
L 146.068364 217.074471 
L 146.149527 217.178837 
L 146.555345 249.549639 
L 146.636509 248.993022 
L 147.691636 240.748121 
L 148.746764 228.311192 
L 149.071418 215.178492 
L 149.639564 192.06146 
L 150.207709 191.922305 
L 150.288873 192.218009 
L 150.694691 212.22146 
L 151.100509 214.882789 
L 152.074473 201.07171 
L 152.155636 202.219734 
L 152.399127 210.864704 
L 152.967273 200.167206 
L 153.373091 173.293004 
L 154.509382 158.873125 
L 154.590545 158.942702 
L 154.996364 177.502426 
L 155.483345 164.056628 
L 155.889164 168.335627 
L 155.970327 170.040269 
L 156.213818 190.878647 
L 156.294982 190.652521 
L 156.376145 191.522236 
L 156.781964 200.254178 
L 156.863127 199.262702 
L 157.431273 180.824739 
L 157.5936 186.634437 
L 157.755927 192.583289 
L 157.999418 174.127931 
L 158.567564 163.673953 
L 158.648727 157.603341 
L 158.811055 164.439303 
L 158.973382 175.067223 
L 159.135709 149.323651 
L 159.3792 169.605412 
L 159.460364 168.596542 
L 159.785018 158.36869 
L 159.947345 164.26536 
L 160.272 175.484687 
L 160.353164 176.14567 
L 160.515491 171.188293 
L 160.921309 157.029329 
L 161.002473 158.055593 
L 161.489455 173.049484 
L 161.651782 177.258906 
L 162.463418 221.562202 
L 162.544582 220.901218 
L 162.706909 219.057422 
L 162.788073 219.927137 
L 163.193891 233.546878 
L 163.437382 231.511745 
L 164.086691 237.443203 
L 164.817164 240.574178 
L 165.060655 223.24945 
L 165.547636 184.981978 
L 165.872291 187.208449 
L 166.034618 192.391952 
L 166.278109 203.298181 
L 166.683927 195.366378 
L 167.089745 189.174005 
L 167.333236 187.330209 
L 167.739055 173.606102 
L 169.118836 167.639855 
L 169.362327 157.394609 
L 169.443491 159.429743 
L 169.686982 173.03209 
L 169.930473 165.048104 
L 170.336291 177.606792 
L 170.417455 176.354402 
L 170.742109 167.01366 
L 170.823273 166.77014 
L 170.9856 164.526274 
L 171.797236 134.816801 
L 172.121891 107.925204 
L 172.203055 109.40372 
L 173.177018 192.322374 
L 173.582836 214.082651 
L 174.394473 222.171003 
L 175.287273 244.818388 
L 175.368436 244.226982 
L 175.693091 223.945222 
L 176.098909 254.176525 
L 176.180073 253.654695 
L 176.423564 252.437094 
L 176.748218 254.367862 
L 176.991709 252.628431 
L 177.641018 246.383876 
L 178.128 240.034954 
L 178.209164 239.582702 
L 178.290327 239.600097 
L 178.777309 239.704462 
L 179.0208 236.590882 
L 179.507782 230.520269 
L 179.751273 236.208207 
L 180.238255 229.772314 
L 180.887564 208.185981 
L 181.131055 199.262702 
L 181.212218 201.558751 
L 181.618036 244.01825 
L 181.6992 242.226637 
L 181.942691 228.937387 
L 182.429673 266.735213 
L 182.673164 268.283306 
L 183.403636 250.262806 
L 183.4848 249.253936 
L 183.971782 271.779562 
L 184.052945 269.900977 
L 184.621091 259.029536 
L 184.864582 257.029191 
L 185.108073 256.820459 
L 185.2704 254.750537 
L 185.595055 249.880131 
L 186.000873 257.185739 
L 186.487855 241.722202 
L 186.812509 238.069398 
L 187.542982 220.448966 
L 188.679273 197.19278 
L 189.003927 192.322374 
L 189.409745 195.731658 
L 189.896727 200.132418 
L 189.977891 199.888897 
L 190.302545 192.391952 
L 190.383709 192.478923 
L 190.546036 193.539976 
L 190.870691 192.009277 
L 191.52 186.356128 
L 191.601164 188.199924 
L 191.925818 213.47385 
L 192.169309 220.483755 
L 192.575127 234.138285 
L 192.818618 235.842927 
L 193.062109 234.416594 
L 193.467927 224.310502 
L 193.873745 223.806067 
L 194.036073 222.797198 
L 194.685382 217.196231 
L 194.847709 212.46498 
L 195.578182 188.652176 
L 195.984 180.859527 
L 196.146327 178.963548 
L 196.470982 183.41649 
L 196.552145 182.981632 
L 196.957964 176.441374 
L 197.282618 175.484687 
L 197.607273 159.568897 
L 197.688436 160.316852 
L 197.931927 163.065153 
L 198.256582 170.596887 
L 198.6624 201.350019 
L 199.149382 198.44517 
L 199.392873 200.375938 
L 200.042182 181.03347 
L 200.610327 175.362927 
L 200.691491 174.093142 
L 201.421964 147.653798 
L 201.584291 147.340701 
L 201.908945 161.864946 
L 202.152436 123.336559 
L 202.720582 166.12655 
L 203.1264 186.095213 
L 203.532218 151.028293 
L 203.856873 160.403824 
L 204.912 141.513608 
L 205.155491 141.60058 
L 205.398982 141.304877 
L 205.642473 133.825325 
L 205.723636 131.772797 
L 206.048291 134.695041 
L 206.372945 128.572245 
L 206.6976 122.414661 
L 206.941091 117.839959 
L 207.022255 116.43102 
L 207.346909 126.798026 
L 207.509236 132.364204 
L 207.5904 131.477094 
L 207.915055 121.249242 
L 208.239709 119.666361 
L 208.320873 119.127137 
L 208.889018 79.642064 
L 208.970182 81.381494 
L 209.132509 108.499217 
L 209.294836 99.662909 
L 209.376 100.984877 
L 210.349964 176.041305 
L 210.512291 178.720028 
L 210.755782 186.303945 
L 211.242764 169.501046 
L 211.486255 160.803893 
L 211.567418 166.961477 
L 212.0544 244.470502 
L 212.622545 237.564963 
L 213.109527 238.121581 
L 213.271855 234.799268 
L 214.245818 211.33435 
L 214.489309 210.84731 
L 215.138618 209.873229 
L 215.300945 211.664842 
L 215.950255 223.232055 
L 216.356073 230.24196 
L 216.761891 230.520269 
L 217.005382 235.408069 
L 218.547491 268.457249 
L 218.709818 270.735903 
L 219.359127 271.188155 
L 219.521455 267.778871 
L 220.414255 243.548604 
L 221.307055 235.721167 
L 221.712873 238.295524 
L 222.930327 245.722892 
L 223.092655 246.488242 
L 223.336145 237.87806 
L 224.066618 213.056387 
L 224.634764 200.880373 
L 225.121745 195.209829 
L 226.582691 199.367068 
L 226.663855 198.897422 
L 227.313164 177.050174 
L 227.394327 177.241512 
L 227.881309 178.424324 
L 228.043636 175.676024 
L 228.530618 165.222047 
L 229.098764 166.752745 
L 229.342255 160.769104 
L 230.235055 134.799406 
L 230.8032 145.931762 
L 231.696 154.924618 
L 232.020655 158.699182 
L 232.101818 158.49045 
L 233.156945 125.19775 
L 233.725091 115.596093 
L 234.293236 112.117232 
L 234.780218 110.743082 
L 235.186036 96.51454 
L 235.348364 92.339907 
L 236.565818 107.507741 
L 236.646982 101.906775 
L 236.728145 101.941563 
L 236.890473 101.993746 
L 236.971636 102.463393 
L 237.296291 114.743772 
L 237.377455 114.587223 
L 237.783273 113.630537 
L 237.864436 113.143496 
L 238.189091 106.603237 
L 238.270255 106.794575 
L 238.676073 107.890416 
L 238.757236 107.42077 
L 239.081891 97.76693 
L 239.568873 99.280235 
L 239.650036 100.045584 
L 239.974691 115.648276 
L 240.461673 102.132901 
L 240.624 101.437129 
L 240.786327 103.872331 
L 241.435636 117.005032 
L 241.841455 132.868638 
L 242.571927 113.787085 
L 242.653091 115.700459 
L 242.815418 123.353953 
L 242.977745 126.206619 
L 243.058909 125.597819 
L 243.140073 119.840304 
L 243.221236 119.996852 
L 243.3024 121.040511 
L 243.464727 112.691244 
L 243.545891 115.787431 
L 243.789382 118.413971 
L 243.870545 118.883617 
L 243.951709 118.570519 
L 244.114036 121.040511 
L 244.276364 125.249933 
L 244.357527 123.423531 
L 244.438691 118.848828 
L 244.519855 120.170796 
L 245.088 130.398647 
L 245.250327 117.213764 
L 245.412655 123.597474 
L 245.656145 123.249588 
L 245.818473 128.398302 
L 245.899636 128.259148 
L 245.9808 127.911261 
L 246.143127 119.735938 
L 246.224291 122.345084 
L 246.467782 128.694005 
L 246.792436 152.402443 
L 246.954764 155.516024 
L 247.035927 153.950537 
L 247.117091 154.141874 
L 247.928727 211.09083 
L 248.172218 203.367758 
L 248.253382 200.445515 
L 248.334545 202.115368 
L 248.983855 232.764135 
L 249.389673 229.580977 
L 249.795491 233.198992 
L 250.201309 243.705153 
L 250.282473 245.618526 
L 250.363636 245.548949 
L 250.769455 243.53121 
L 250.850618 243.600787 
L 251.256436 244.122616 
L 251.662255 243.113746 
L 251.743418 243.183324 
L 252.2304 247.931969 
L 252.879709 244.679234 
L 253.366691 240.452418 
L 253.853673 233.042443 
L 254.421818 243.844307 
L 254.746473 244.26177 
L 255.233455 238.225947 
L 255.314618 238.973902 
L 256.207418 250.506326 
L 256.6944 258.264186 
L 257.019055 259.255662 
L 257.100218 258.994747 
L 257.5872 239.513125 
L 257.668364 239.530519 
L 257.830691 240.452418 
L 257.911855 239.252211 
L 258.074182 232.920683 
L 258.155345 233.581667 
L 259.697455 262.334454 
L 259.778618 261.986568 
L 260.427927 253.619907 
L 261.077236 240.452418 
L 261.320727 231.685688 
L 261.401891 229.407034 
L 261.483055 229.841891 
L 261.970036 233.094626 
L 262.619345 239.321788 
L 263.025164 240.487206 
L 263.187491 239.669674 
L 263.8368 235.564618 
L 263.999127 226.328242 
L 264.242618 216.291727 
L 264.323782 214.552297 
L 265.054255 170.388155 
L 265.216582 170.231607 
L 265.297745 169.744566 
L 265.460073 168.005135 
L 265.947055 178.789605 
L 266.352873 189.069639 
L 266.677527 189.31316 
L 267.489164 178.911365 
L 267.732655 184.79064 
L 268.3008 213.212935 
L 268.706618 205.228949 
L 269.031273 205.768173 
L 269.355927 200.115023 
L 269.842909 191.904911 
L 270.167564 191.991883 
L 270.411055 192.148431 
L 270.654545 190.148086 
L 270.816873 189.121822 
L 271.060364 189.295765 
L 271.385018 191.661391 
L 272.196655 167.831192 
L 272.277818 156.559682 
L 272.358982 157.272849 
L 272.440145 159.899389 
L 272.602473 172.231952 
L 272.683636 171.971037 
L 272.845964 171.275265 
L 273.170618 165.674299 
L 273.495273 170.805619 
L 273.901091 177.780735 
L 274.469236 179.815869 
L 274.5504 179.746292 
L 274.712727 179.624531 
L 274.875055 180.215938 
L 275.4432 183.103393 
L 275.524364 183.068604 
L 275.605527 183.033815 
L 275.686691 183.399096 
L 276.254836 192.896387 
L 276.336 193.174695 
L 276.417164 193.105118 
L 276.579491 193.105118 
L 276.904145 197.07102 
L 277.309964 192.687655 
L 277.553455 192.044066 
L 277.878109 190.791676 
L 278.040436 190.652521 
L 278.1216 190.391607 
L 278.446255 187.191054 
L 278.689745 187.364997 
L 279.095564 184.494937 
L 279.257891 184.060079 
L 279.501382 181.207413 
L 279.582545 180.285515 
L 279.663709 180.616007 
L 279.826036 181.79882 
L 279.9072 181.485722 
L 280.150691 177.015386 
L 280.231855 178.337353 
L 280.475345 187.591123 
L 280.556509 187.434575 
L 280.8 183.486067 
L 280.881164 183.764376 
L 281.043491 184.895006 
L 281.124655 184.616697 
L 281.449309 174.180114 
L 281.773964 179.711503 
L 282.098618 177.206723 
L 282.747927 167.761615 
L 282.910255 164.648035 
L 283.397236 167.37894 
L 283.640727 167.744221 
L 283.965382 164.108811 
L 284.533527 171.188293 
L 285.182836 173.466947 
L 285.345164 177.711158 
L 285.588655 183.120787 
L 285.832145 185.208104 
L 286.1568 190.113298 
L 286.806109 200.932556 
L 287.211927 206.516128 
L 287.617745 209.942806 
L 287.9424 211.073436 
L 288.185891 210.638578 
L 288.591709 228.937387 
L 289.078691 251.376041 
L 289.484509 260.699389 
L 289.565673 262.351848 
L 289.809164 246.975282 
L 289.971491 247.166619 
L 290.214982 247.427534 
L 290.539636 241.009035 
L 290.783127 237.373626 
L 291.107782 235.634195 
L 291.351273 230.259355 
L 291.594764 224.414868 
L 291.675927 224.467051 
L 292.081745 227.354506 
L 292.649891 238.260735 
L 292.974545 239.878406 
L 293.055709 239.826223 
L 293.786182 230.259355 
L 294.029673 228.728656 
L 294.516655 229.737525 
L 294.841309 229.615765 
L 294.922473 229.772314 
L 295.734109 241.51347 
L 295.815273 241.756991 
L 296.383418 221.614385 
L 296.626909 219.509674 
L 297.113891 210.464635 
L 297.519709 206.063876 
L 297.600873 202.097974 
L 297.682036 202.863324 
L 297.925527 210.482029 
L 298.006691 209.977594 
L 298.331345 205.089795 
L 298.493673 204.272262 
L 298.737164 200.445515 
L 299.142982 178.685239 
L 299.386473 163.917474 
L 299.467636 165.830847 
L 299.5488 166.700563 
L 299.629964 160.282064 
L 300.360436 194.218354 
L 300.603927 193.870468 
L 300.685091 194.305325 
L 300.847418 196.844894 
L 301.009745 193.539976 
L 301.172073 191.365688 
L 301.253236 191.104773 
L 301.740218 181.572694 
L 302.064873 171.153505 
L 302.2272 166.996266 
L 302.308364 166.8919 
L 302.470691 164.613246 
L 302.876509 155.324687 
L 302.957673 155.063772 
L 303.038836 155.533418 
L 303.12 156.664048 
L 303.201164 155.86391 
L 303.444655 152.211106 
L 303.525818 152.332866 
L 303.606982 152.680752 
L 303.769309 151.98498 
L 303.931636 153.759199 
L 304.0128 153.341736 
L 304.093964 152.959061 
L 304.256291 154.594126 
L 304.337455 154.507154 
L 304.418618 154.924618 
L 304.580945 158.855731 
L 304.743273 157.638129 
L 304.9056 159.081857 
L 305.149091 156.681443 
L 305.311418 156.403134 
L 305.392582 156.959752 
L 305.554909 159.777629 
L 305.717236 157.168483 
L 305.879564 159.603686 
L 306.041891 165.465567 
L 306.123055 164.821978 
L 306.447709 161.273539 
L 306.528873 161.604031 
L 306.853527 156.368345 
L 307.015855 156.107431 
L 307.097018 156.246585 
L 307.259345 160.664739 
L 307.340509 159.673263 
L 307.584 154.785463 
L 307.665164 154.646309 
L 307.908655 157.272849 
L 307.989818 157.255455 
L 308.070982 157.23806 
L 308.233309 157.533764 
L 308.314473 157.951227 
L 308.4768 160.490796 
L 308.557964 160.021149 
L 308.801455 155.098561 
L 308.963782 157.151089 
L 310.100073 224.606205 
L 310.343564 232.8685 
L 310.424727 234.312228 
L 310.992873 220.379389 
L 312.048 199.227914 
L 312.9408 159.795023 
L 313.021964 160.212487 
L 313.265455 165.082892 
L 314.158255 200.654247 
L 314.239418 199.993263 
L 314.564073 190.80907 
L 314.7264 185.312469 
L 314.888727 180.215938 
L 315.051055 180.372487 
L 315.132218 180.598613 
L 315.375709 189.765412 
L 315.862691 216.239544 
L 316.025018 218.013764 
L 316.268509 218.135524 
L 316.512 212.917232 
L 317.161309 194.80976 
L 317.810618 187.939009 
L 318.378764 180.163755 
L 318.784582 178.546085 
L 319.109236 173.588708 
L 320.976 143.687896 
L 321.544145 146.070916 
L 321.787636 146.036128 
L 321.8688 145.862185 
L 321.949964 143.009519 
L 322.031127 143.426982 
L 322.842764 148.749639 
L 323.248582 153.550468 
L 323.410909 155.150744 
L 323.816727 155.028984 
L 324.141382 155.429053 
L 324.384873 155.550813 
L 324.466036 155.916093 
L 325.277673 165.256835 
L 326.170473 171.710123 
L 326.413964 171.518785 
L 326.657455 171.275265 
L 326.819782 179.711503 
L 327.306764 181.590088 
L 327.550255 184.703669 
L 327.712582 187.521546 
L 328.199564 211.33435 
L 328.767709 239.408759 
L 329.254691 248.314644 
L 329.417018 244.035645 
L 329.498182 241.339527 
L 329.579345 241.478682 
L 329.741673 246.783945 
L 330.309818 247.497111 
L 330.877964 256.107292 
L 331.364945 259.968828 
L 331.6896 256.05511 
L 331.851927 257.533626 
L 332.338909 258.646861 
L 332.744727 256.733487 
L 332.825891 256.977008 
L 333.556364 267.44838 
L 334.043345 265.030571 
L 334.611491 263.465084 
L 334.854982 263.186775 
L 335.666618 256.246447 
L 335.747782 256.05511 
L 335.991273 260.351503 
L 336.315927 266.039441 
L 336.802909 262.160511 
L 337.208727 259.81228 
L 337.452218 256.002927 
L 337.858036 264.960994 
L 337.9392 266.839579 
L 338.020364 266.509087 
L 338.263855 260.977698 
L 338.913164 271.779562 
L 338.994327 271.970899 
L 339.318982 264.42177 
L 339.562473 260.125377 
L 339.805964 256.646516 
L 340.211782 249.219148 
L 340.374109 248.836473 
L 340.536436 252.715403 
L 341.023418 266.978733 
L 341.104582 266.770002 
L 341.5104 276.232504 
L 341.672727 272.736248 
L 341.753891 273.884273 
L 342.078545 269.274782 
L 342.322036 262.31706 
L 342.484364 265.500217 
L 342.727855 267.430985 
L 342.890182 262.491003 
L 342.971345 263.899941 
L 343.052509 265.67416 
L 343.133673 265.621978 
L 343.296 265.535006 
L 343.377164 265.30888 
L 343.458327 264.143462 
L 343.539491 265.395852 
L 343.782982 278.302426 
L 344.026473 284.320856 
L 344.107636 284.09473 
L 344.1888 284.390433 
L 344.675782 295.314057 
L 344.756945 295.488 
L 345.243927 285.294937 
L 345.730909 267.900632 
L 346.055564 260.264531 
L 346.299055 256.646516 
L 346.542545 258.942564 
L 347.029527 247.027465 
L 348.003491 212.117094 
L 348.246982 216.883134 
L 348.409309 221.753539 
L 348.6528 218.065947 
L 348.815127 210.482029 
L 349.139782 194.113988 
L 349.383273 193.105118 
L 349.464436 193.783496 
L 349.707927 205.750778 
L 349.789091 203.837405 
L 349.870255 205.576835 
L 350.194909 218.031158 
L 350.4384 215.526378 
L 350.763055 207.681546 
L 350.844218 208.290347 
L 351.3312 216.065601 
L 351.412364 216.10039 
L 351.493527 215.352435 
L 351.655855 212.673712 
L 351.818182 212.534557 
L 351.899345 212.030123 
L 352.224 204.272262 
L 352.305164 204.220079 
L 352.386327 203.993953 
L 352.629818 197.732003 
L 352.873309 194.705394 
L 353.279127 184.981978 
L 353.441455 185.43423 
L 353.522618 184.66888 
L 353.684945 178.076438 
L 353.928436 185.416835 
L 354.0096 183.990502 
L 354.171927 179.120097 
L 354.334255 186.112607 
L 354.496582 183.381701 
L 354.577745 183.451279 
L 354.658909 184.494937 
L 354.740073 184.442754 
L 354.821236 184.860217 
L 354.983564 188.530416 
L 355.064727 186.373522 
L 355.145891 186.599648 
L 355.308218 187.138871 
L 355.470545 185.347258 
L 355.632873 186.112607 
L 355.876364 182.40762 
L 355.957527 182.511986 
L 356.038691 182.390226 
L 356.119855 181.485722 
L 356.363345 186.16479 
L 356.525673 185.225498 
L 356.606836 186.408311 
L 356.769164 189.92196 
L 357.012655 191.122167 
L 357.174982 194.200959 
L 357.418473 200.149812 
L 357.5808 198.427776 
L 357.661964 198.44517 
L 357.743127 198.56693 
L 357.905455 200.375938 
L 358.067782 196.897077 
L 358.230109 198.306016 
L 358.4736 197.036231 
L 358.879418 193.696525 
L 359.204073 189.782806 
L 359.285236 189.626257 
L 359.528727 192.287586 
L 359.609891 192.200614 
L 359.934545 188.478233 
L 360.178036 196.862288 
L 360.340364 196.8275 
L 360.421527 197.018837 
L 360.746182 200.288966 
L 361.882473 212.064911 
L 362.0448 211.525688 
L 362.288291 212.899838 
L 362.531782 213.926102 
L 363.099927 214.169622 
L 363.586909 208.168587 
L 363.668073 208.620839 
L 363.911564 212.778078 
L 364.073891 215.126309 
L 364.317382 209.577525 
L 365.291345 261.79523 
L 365.534836 273.327655 
L 365.778327 270.092314 
L 365.940655 267.187465 
L 366.752291 229.720131 
L 366.995782 225.632469 
L 367.320436 223.266844 
L 367.4016 223.545153 
L 367.726255 227.406689 
L 367.888582 230.415903 
L 368.132073 235.547223 
L 368.375564 235.060183 
L 368.456727 234.520959 
L 368.619055 233.007655 
L 368.943709 238.417284 
L 369.1872 237.008345 
L 369.268364 237.199682 
L 369.511855 237.651934 
L 369.674182 237.304048 
L 370.242327 239.600097 
L 370.404655 239.460942 
L 370.485818 239.200028 
L 370.648145 238.173764 
L 370.891636 239.582702 
L 370.9728 239.321788 
L 371.135127 236.556093 
L 371.378618 239.443548 
L 371.459782 239.321788 
L 371.8656 235.668984 
L 371.946764 234.381805 
L 372.271418 244.087827 
L 372.433745 241.565653 
L 372.596073 236.277784 
L 372.7584 230.381115 
L 372.920727 231.911814 
L 373.083055 227.093591 
L 373.245382 227.911123 
L 373.488873 237.617146 
L 373.975855 264.908811 
L 374.300509 283.364169 
L 374.544 283.903393 
L 374.706327 286.982185 
L 374.949818 285.155783 
L 375.193309 277.571865 
L 375.274473 277.71102 
L 375.4368 278.319821 
L 375.599127 280.441926 
L 375.680291 280.250588 
L 376.086109 278.058906 
L 376.167273 278.372003 
L 376.491927 280.70284 
L 376.735418 277.380528 
L 376.816582 276.267292 
L 377.2224 279.954885 
L 377.303564 280.059251 
L 377.465891 280.476714 
L 377.790545 278.354609 
L 378.277527 273.240683 
L 378.358691 274.006033 
L 378.439855 273.814695 
L 378.764509 269.274782 
L 378.926836 264.352193 
L 379.008 264.543531 
L 379.170327 266.43951 
L 379.251491 266.369933 
L 379.413818 253.602513 
L 379.494982 254.576594 
L 379.819636 260.473263 
L 380.225455 247.931969 
L 381.199418 222.11882 
L 381.442909 214.326171 
L 381.524073 218.379044 
L 381.605236 217.283203 
L 381.767564 215.543772 
L 381.929891 219.266154 
L 382.498036 234.729691 
L 382.822691 235.703772 
L 383.472 219.266154 
L 383.553164 220.031503 
L 383.634327 216.326516 
L 383.796655 205.263738 
L 383.877818 208.151192 
L 384.040145 205.263738 
L 384.283636 209.090485 
L 384.770618 219.509674 
L 385.095273 222.640649 
L 385.176436 221.840511 
L 385.744582 208.064221 
L 385.825745 208.203375 
L 385.906909 208.95133 
L 386.1504 198.827845 
L 386.231564 200.167206 
L 386.637382 181.416145 
L 386.718545 183.903531 
L 386.799709 181.937974 
L 387.0432 194.670606 
L 387.124364 193.31385 
L 387.205527 192.983358 
L 387.530182 194.183565 
L 388.017164 184.860217 
L 388.260655 179.276645 
L 388.422982 176.597922 
L 388.747636 178.772211 
L 389.315782 166.630985 
L 389.396945 166.022185 
L 389.478109 166.230916 
L 389.883927 167.01366 
L 390.127418 169.779355 
L 390.452073 162.873815 
L 390.6144 170.979562 
L 390.695564 170.022875 
L 391.020218 162.473746 
L 391.182545 165.569933 
L 391.263709 164.943738 
L 391.669527 156.559682 
L 391.750691 157.342426 
L 392.075345 164.091417 
L 392.481164 155.168138 
L 392.724655 150.089001 
L 393.049309 142.174592 
L 393.2928 150.089001 
L 393.860945 184.477543 
L 394.104436 198.740873 
L 394.510255 214.030468 
L 394.591418 211.421322 
L 394.672582 210.221115 
L 395.0784 223.040718 
L 395.321891 237.860666 
L 395.565382 239.217422 
L 395.646545 237.843272 
L 395.808873 232.555403 
L 396.782836 259.725308 
L 397.188655 265.935075 
L 397.269818 266.43951 
L 397.350982 266.369933 
L 397.919127 262.369242 
L 398.487273 264.091279 
L 398.487273 264.091279 
" clip-path="url(#pc8b3a5a023)" style="fill: none; stroke: #0000ff; stroke-width: 1.5; stroke-linecap: square"/>
   </g>
   <g id="patch_3">
    <path d="M 57.6 307.584 
L 57.6 41.472 
" style="fill: none; stroke: #000000; stroke-width: 0.8; stroke-linejoin: miter; stroke-linecap: square"/>
   </g>
   <g id="patch_4">
    <path d="M 414.72 307.584 
L 414.72 41.472 
" style="fill: none; stroke: #000000; stroke-width: 0.8; stroke-linejoin: miter; stroke-linecap: square"/>
   </g>
   <g id="patch_5">
    <path d="M 57.6 307.584 
L 414.72 307.584 
" style="fill: none; stroke: #000000; stroke-width: 0.8; stroke-linejoin: miter; stroke-linecap: square"/>
   </g>
   <g id="patch_6">
    <path d="M 57.6 41.472 
L 414.72 41.472 
" style="fill: none; stroke: #000000; stroke-width: 0.8; stroke-linejoin: miter; stroke-linecap: square"/>
   </g>
   <g id="legend_1">
    <g id="patch_7">
     <path d="M 310.46 101.242 
L 403.52 101.242 
Q 406.72 101.242 406.72 98.042 
L 406.72 52.672 
Q 406.72 49.472 403.52 49.472 
L 310.46 49.472 
Q 307.26 49.472 307.26 52.672 
L 307.26 98.042 
Q 307.26 101.242 310.46 101.242 
z
" style="fill: #ffffff; opacity: 0.8; stroke: #cccccc; stroke-linejoin: miter"/>
    </g>
    <g id="line2d_14">
     <path d="M 313.66 62.4295 
L 329.66 62.4295 
L 345.66 62.4295 
" style="fill: none; stroke: #93c572; stroke-width: 1.5; stroke-linecap: square"/>
    </g>
    <g id="text_14">
     <!-- temp -->
     <g transform="translate(358.46 68.0295) scale(0.16 -0.16)">
      <use xlink:href="#DejaVuSans-74"/>
      <use xlink:href="#DejaVuSans-65" x="39.208984"/>
      <use xlink:href="#DejaVuSans-6d" x="100.732422"/>
      <use xlink:href="#DejaVuSans-70" x="198.144531"/>
     </g>
    </g>
    <g id="line2d_15">
     <path d="M 313.66 85.9145 
L 329.66 85.9145 
L 345.66 85.9145 
" style="fill: none; stroke: #0000ff; stroke-width: 1.5; stroke-linecap: square"/>
    </g>
    <g id="text_15">
     <!-- CO2 -->
     <g transform="translate(358.46 91.5145) scale(0.16 -0.16)">
      <defs>
       <path id="DejaVuSans-43" d="M 4122 4306 
L 4122 3641 
Q 3803 3938 3442 4084 
Q 3081 4231 2675 4231 
Q 1875 4231 1450 3742 
Q 1025 3253 1025 2328 
Q 1025 1406 1450 917 
Q 1875 428 2675 428 
Q 3081 428 3442 575 
Q 3803 722 4122 1019 
L 4122 359 
Q 3791 134 3420 21 
Q 3050 -91 2638 -91 
Q 1578 -91 968 557 
Q 359 1206 359 2328 
Q 359 3453 968 4101 
Q 1578 4750 2638 4750 
Q 3056 4750 3426 4639 
Q 3797 4528 4122 4306 
z
" transform="scale(0.015625)"/>
       <path id="DejaVuSans-4f" d="M 2522 4238 
Q 1834 4238 1429 3725 
Q 1025 3213 1025 2328 
Q 1025 1447 1429 934 
Q 1834 422 2522 422 
Q 3209 422 3611 934 
Q 4013 1447 4013 2328 
Q 4013 3213 3611 3725 
Q 3209 4238 2522 4238 
z
M 2522 4750 
Q 3503 4750 4090 4092 
Q 4678 3434 4678 2328 
Q 4678 1225 4090 567 
Q 3503 -91 2522 -91 
Q 1538 -91 948 565 
Q 359 1222 359 2328 
Q 359 3434 948 4092 
Q 1538 4750 2522 4750 
z
" transform="scale(0.015625)"/>
      </defs>
      <use xlink:href="#DejaVuSans-43"/>
      <use xlink:href="#DejaVuSans-4f" x="69.824219"/>
      <use xlink:href="#DejaVuSans-32" x="148.535156"/>
     </g>
    </g>
   </g>
  </g>
 </g>
 <defs>
  <clipPath id="pc8b3a5a023">
   <rect x="57.6" y="41.472" width="357.12" height="266.112"/>
  </clipPath>
 </defs>
</svg>
